M48
;DRILL file {KiCad 5.0.0} date Sat Dec 15 19:12:47 2018
;FORMAT={-:-/ absolute / inch / decimal}
FMAT,2
INCH,TZ
T1C0.0157
T2C0.0394
%
G90
G05
M72
T1
X5.5217Y-1.5256
X5.5217Y-1.5256
X5.5512Y-1.8406
X5.5512Y-1.8406
X5.5906Y-1.8406
X5.5906Y-1.8406
X5.6594Y-2.0768
X5.6594Y-2.0768
X5.6594Y-2.1161
X5.6594Y-2.1161
X5.6594Y-2.1752
X5.6594Y-2.1752
X5.6594Y-2.2146
X5.6594Y-2.2146
X5.6594Y-2.2539
X5.6594Y-2.2539
X5.7382Y-2.0768
X5.7382Y-2.0768
X5.7638Y-2.2638
X5.7638Y-2.2638
X5.7776Y-2.0768
X5.7776Y-2.0768
X5.7874Y-2.2146
X5.7874Y-2.2146
X5.7874Y-2.2402
X5.7874Y-2.2402
X5.8169Y-2.0768
X5.8169Y-2.0768
X5.8957Y-2.5689
X5.8957Y-2.5689
X5.9252Y-2.5295
X5.9252Y-2.5295
X5.9449Y-1.8701
X5.9449Y-1.8701
X5.9547Y-1.9882
X5.9547Y-1.9882
X5.9547Y-2.0472
X5.9547Y-2.0472
X5.9744Y-2.5098
X5.9744Y-2.5098
X5.9941Y-1.8799
X5.9941Y-1.8799
X6.0039Y-2.0276
X6.0039Y-2.0276
X6.0039Y-2.2244
X6.0039Y-2.2244
X6.0039Y-2.2638
X6.0039Y-2.2638
X6.0039Y-2.3819
X6.0039Y-2.3819
X6.0039Y-2.4213
X6.0039Y-2.4213
X6.0335Y-1.8799
X6.0335Y-1.8799
X6.2008Y-2.4311
X6.2008Y-2.4311
X6.2795Y-2.3425
X6.2795Y-2.3425
X6.3091Y-2.4508
X6.3091Y-2.4508
X6.3189Y-2.2146
X6.3189Y-2.2146
X6.3287Y-1.8799
X6.3287Y-1.8799
X6.3583Y-2.0177
X6.3583Y-2.0177
X6.3681Y-2.2638
X6.3681Y-2.2638
X6.3878Y-2.5098
X6.3878Y-2.5098
X6.4862Y-1.5551
X6.4862Y-1.5551
X6.4862Y-2.2638
X6.4862Y-2.2638
X6.4862Y-2.5689
X6.4862Y-2.5689
X6.5256Y-1.5551
X6.5256Y-1.5551
X6.5453Y-2.2047
X6.5453Y-2.2047
X6.5551Y-2.2835
X6.5551Y-2.2835
X6.6043Y-2.4114
X6.6043Y-2.4114
X6.624Y-1.6732
X6.624Y-1.6732
X6.624Y-1.9341
X6.624Y-1.9341
X6.624Y-2.0768
X6.624Y-2.0768
X6.6732Y-1.7717
X6.6732Y-1.7717
X6.7224Y-1.7717
X6.7224Y-1.7717
X6.7913Y-2.4016
X6.7913Y-2.4016
X6.8307Y-1.6535
X6.8307Y-1.6535
X6.8794Y-2.372
X6.8794Y-2.372
X6.939Y-2.2539
X6.939Y-2.2539
X6.939Y-2.4213
X6.939Y-2.4213
X6.9409Y-1.8701
X6.9409Y-1.8701
X7.0374Y-2.4606
X7.0374Y-2.4606
X6.8091Y-2.0315
X6.8091Y-2.0669
X6.8091Y-2.1024
X6.8445Y-2.0315
X6.8445Y-2.0669
X6.8445Y-2.1024
X6.8799Y-2.0315
X6.8799Y-2.0669
X6.8799Y-2.1024
X6.8091Y-2.0315
X6.8091Y-2.0669
X6.8091Y-2.1024
X6.8445Y-2.0315
X6.8445Y-2.0669
X6.8445Y-2.1024
X6.8799Y-2.0315
X6.8799Y-2.0669
X6.8799Y-2.1024
T2
X5.5807Y-2.1539
X5.5807Y-2.2539
X5.5776Y-2.4
X5.5776Y-2.5
X5.6776Y-2.4
X5.6776Y-2.5
X5.7776Y-2.4
X5.7776Y-2.5
X6.122Y-1.5748
X6.122Y-1.6748
X6.222Y-1.5748
X6.222Y-1.6748
X6.322Y-1.5748
X6.322Y-1.6748
X5.5776Y-2.4
X5.5776Y-2.5
X5.6776Y-2.4
X5.6776Y-2.5
X5.7776Y-2.4
X5.7776Y-2.5
X6.698Y-1.5748
X6.798Y-1.5748
X6.898Y-1.5748
X6.998Y-1.5748
X5.5807Y-2.1539
X5.5807Y-2.2539
X6.698Y-1.5748
X6.798Y-1.5748
X6.898Y-1.5748
X6.998Y-1.5748
X6.122Y-1.5748
X6.122Y-1.6748
X6.222Y-1.5748
X6.222Y-1.6748
X6.322Y-1.5748
X6.322Y-1.6748
T0
M30
