G04 #@! TF.GenerationSoftware,KiCad,Pcbnew,5.0.0*
G04 #@! TF.CreationDate,2018-12-15T19:13:02-05:00*
G04 #@! TF.ProjectId,BT_12V_SmartSwitch-panelized-SINGLE,42545F3132565F536D61727453776974,rev?*
G04 #@! TF.SameCoordinates,Original*
G04 #@! TF.FileFunction,Legend,Bot*
G04 #@! TF.FilePolarity,Positive*
%FSLAX46Y46*%
G04 Gerber Fmt 4.6, Leading zero omitted, Abs format (unit mm)*
G04 Created by KiCad (PCBNEW 5.0.0) date Sat Dec 15 19:13:02 2018*
%MOMM*%
%LPD*%
G01*
G04 APERTURE LIST*
%ADD10C,0.150000*%
%ADD11C,0.250000*%
G04 APERTURE END LIST*
D10*
X180271428Y-64860714D02*
X180033333Y-65527380D01*
X179795238Y-64860714D01*
X179414285Y-65527380D02*
X179414285Y-64860714D01*
X179414285Y-64527380D02*
X179461904Y-64575000D01*
X179414285Y-64622619D01*
X179366666Y-64575000D01*
X179414285Y-64527380D01*
X179414285Y-64622619D01*
X178938095Y-64860714D02*
X178938095Y-65527380D01*
X178938095Y-64955952D02*
X178890476Y-64908333D01*
X178795238Y-64860714D01*
X178652380Y-64860714D01*
X178557142Y-64908333D01*
X178509523Y-65003571D01*
X178509523Y-65527380D01*
X178176190Y-64860714D02*
X177795238Y-64860714D01*
X178033333Y-64527380D02*
X178033333Y-65384523D01*
X177985714Y-65479761D01*
X177890476Y-65527380D01*
X177795238Y-65527380D01*
X177319047Y-65527380D02*
X177414285Y-65479761D01*
X177461904Y-65384523D01*
X177461904Y-64527380D01*
X176509523Y-65527380D02*
X176509523Y-65003571D01*
X176557142Y-64908333D01*
X176652380Y-64860714D01*
X176842857Y-64860714D01*
X176938095Y-64908333D01*
X176509523Y-65479761D02*
X176604761Y-65527380D01*
X176842857Y-65527380D01*
X176938095Y-65479761D01*
X176985714Y-65384523D01*
X176985714Y-65289285D01*
X176938095Y-65194047D01*
X176842857Y-65146428D01*
X176604761Y-65146428D01*
X176509523Y-65098809D01*
X176033333Y-65527380D02*
X176033333Y-64527380D01*
X176033333Y-64908333D02*
X175938095Y-64860714D01*
X175747619Y-64860714D01*
X175652380Y-64908333D01*
X175604761Y-64955952D01*
X175557142Y-65051190D01*
X175557142Y-65336904D01*
X175604761Y-65432142D01*
X175652380Y-65479761D01*
X175747619Y-65527380D01*
X175938095Y-65527380D01*
X176033333Y-65479761D01*
X175176190Y-65479761D02*
X175080952Y-65527380D01*
X174890476Y-65527380D01*
X174795238Y-65479761D01*
X174747619Y-65384523D01*
X174747619Y-65336904D01*
X174795238Y-65241666D01*
X174890476Y-65194047D01*
X175033333Y-65194047D01*
X175128571Y-65146428D01*
X175176190Y-65051190D01*
X175176190Y-65003571D01*
X175128571Y-64908333D01*
X175033333Y-64860714D01*
X174890476Y-64860714D01*
X174795238Y-64908333D01*
X174319047Y-65432142D02*
X174271428Y-65479761D01*
X174319047Y-65527380D01*
X174366666Y-65479761D01*
X174319047Y-65432142D01*
X174319047Y-65527380D01*
X173414285Y-65479761D02*
X173509523Y-65527380D01*
X173700000Y-65527380D01*
X173795238Y-65479761D01*
X173842857Y-65432142D01*
X173890476Y-65336904D01*
X173890476Y-65051190D01*
X173842857Y-64955952D01*
X173795238Y-64908333D01*
X173700000Y-64860714D01*
X173509523Y-64860714D01*
X173414285Y-64908333D01*
X172842857Y-65527380D02*
X172938095Y-65479761D01*
X172985714Y-65432142D01*
X173033333Y-65336904D01*
X173033333Y-65051190D01*
X172985714Y-64955952D01*
X172938095Y-64908333D01*
X172842857Y-64860714D01*
X172700000Y-64860714D01*
X172604761Y-64908333D01*
X172557142Y-64955952D01*
X172509523Y-65051190D01*
X172509523Y-65336904D01*
X172557142Y-65432142D01*
X172604761Y-65479761D01*
X172700000Y-65527380D01*
X172842857Y-65527380D01*
X172080952Y-65527380D02*
X172080952Y-64860714D01*
X172080952Y-64955952D02*
X172033333Y-64908333D01*
X171938095Y-64860714D01*
X171795238Y-64860714D01*
X171700000Y-64908333D01*
X171652380Y-65003571D01*
X171652380Y-65527380D01*
X171652380Y-65003571D02*
X171604761Y-64908333D01*
X171509523Y-64860714D01*
X171366666Y-64860714D01*
X171271428Y-64908333D01*
X171223809Y-65003571D01*
X171223809Y-65527380D01*
X144080952Y-57271428D02*
X143319047Y-57271428D01*
X143700000Y-57652380D02*
X143700000Y-56890476D01*
X144080952Y-54671428D02*
X143319047Y-54671428D01*
X143961904Y-53452380D02*
X144533333Y-53452380D01*
X144247619Y-53452380D02*
X144247619Y-52452380D01*
X144342857Y-52595238D01*
X144438095Y-52690476D01*
X144533333Y-52738095D01*
X143580952Y-52547619D02*
X143533333Y-52500000D01*
X143438095Y-52452380D01*
X143200000Y-52452380D01*
X143104761Y-52500000D01*
X143057142Y-52547619D01*
X143009523Y-52642857D01*
X143009523Y-52738095D01*
X143057142Y-52880952D01*
X143628571Y-53452380D01*
X143009523Y-53452380D01*
X142723809Y-52452380D02*
X142390476Y-53452380D01*
X142057142Y-52452380D01*
X140961904Y-53452380D02*
X140961904Y-52452380D01*
X140485714Y-53452380D02*
X140485714Y-52452380D01*
X139914285Y-53452380D01*
X139914285Y-52452380D01*
X165476190Y-42002380D02*
X165476190Y-41002380D01*
X165047619Y-41954761D02*
X164904761Y-42002380D01*
X164666666Y-42002380D01*
X164571428Y-41954761D01*
X164523809Y-41907142D01*
X164476190Y-41811904D01*
X164476190Y-41716666D01*
X164523809Y-41621428D01*
X164571428Y-41573809D01*
X164666666Y-41526190D01*
X164857142Y-41478571D01*
X164952380Y-41430952D01*
X165000000Y-41383333D01*
X165047619Y-41288095D01*
X165047619Y-41192857D01*
X165000000Y-41097619D01*
X164952380Y-41050000D01*
X164857142Y-41002380D01*
X164619047Y-41002380D01*
X164476190Y-41050000D01*
X163476190Y-41907142D02*
X163523809Y-41954761D01*
X163666666Y-42002380D01*
X163761904Y-42002380D01*
X163904761Y-41954761D01*
X164000000Y-41859523D01*
X164047619Y-41764285D01*
X164095238Y-41573809D01*
X164095238Y-41430952D01*
X164047619Y-41240476D01*
X164000000Y-41145238D01*
X163904761Y-41050000D01*
X163761904Y-41002380D01*
X163666666Y-41002380D01*
X163523809Y-41050000D01*
X163476190Y-41097619D01*
X163047619Y-42002380D02*
X163047619Y-41002380D01*
X162666666Y-41002380D01*
X162571428Y-41050000D01*
X162523809Y-41097619D01*
X162476190Y-41192857D01*
X162476190Y-41335714D01*
X162523809Y-41430952D01*
X162571428Y-41478571D01*
X162666666Y-41526190D01*
X163047619Y-41526190D01*
X178762023Y-47104761D02*
X178619166Y-47152380D01*
X178381071Y-47152380D01*
X178285833Y-47104761D01*
X178238214Y-47057142D01*
X178190595Y-46961904D01*
X178190595Y-46866666D01*
X178238214Y-46771428D01*
X178285833Y-46723809D01*
X178381071Y-46676190D01*
X178571547Y-46628571D01*
X178666785Y-46580952D01*
X178714404Y-46533333D01*
X178762023Y-46438095D01*
X178762023Y-46342857D01*
X178714404Y-46247619D01*
X178666785Y-46200000D01*
X178571547Y-46152380D01*
X178333452Y-46152380D01*
X178190595Y-46200000D01*
X177762023Y-47152380D02*
X177762023Y-46152380D01*
X177381071Y-46152380D01*
X177285833Y-46200000D01*
X177238214Y-46247619D01*
X177190595Y-46342857D01*
X177190595Y-46485714D01*
X177238214Y-46580952D01*
X177285833Y-46628571D01*
X177381071Y-46676190D01*
X177762023Y-46676190D01*
X176762023Y-47152380D02*
X176762023Y-46152380D01*
X175523928Y-47152380D02*
X175523928Y-46152380D01*
X174476309Y-47057142D02*
X174523928Y-47104761D01*
X174666785Y-47152380D01*
X174762023Y-47152380D01*
X174904880Y-47104761D01*
X175000119Y-47009523D01*
X175047738Y-46914285D01*
X175095357Y-46723809D01*
X175095357Y-46580952D01*
X175047738Y-46390476D01*
X175000119Y-46295238D01*
X174904880Y-46200000D01*
X174762023Y-46152380D01*
X174666785Y-46152380D01*
X174523928Y-46200000D01*
X174476309Y-46247619D01*
X174095357Y-47104761D02*
X173952500Y-47152380D01*
X173714404Y-47152380D01*
X173619166Y-47104761D01*
X173571547Y-47057142D01*
X173523928Y-46961904D01*
X173523928Y-46866666D01*
X173571547Y-46771428D01*
X173619166Y-46723809D01*
X173714404Y-46676190D01*
X173904880Y-46628571D01*
X174000119Y-46580952D01*
X174047738Y-46533333D01*
X174095357Y-46438095D01*
X174095357Y-46342857D01*
X174047738Y-46247619D01*
X174000119Y-46200000D01*
X173904880Y-46152380D01*
X173666785Y-46152380D01*
X173523928Y-46200000D01*
X173095357Y-47152380D02*
X173095357Y-46152380D01*
X172714404Y-46152380D01*
X172619166Y-46200000D01*
X172571547Y-46247619D01*
X172523928Y-46342857D01*
X172523928Y-46485714D01*
X172571547Y-46580952D01*
X172619166Y-46628571D01*
X172714404Y-46676190D01*
X173095357Y-46676190D01*
X172095357Y-47057142D02*
X172047738Y-47104761D01*
X172095357Y-47152380D01*
X172142976Y-47104761D01*
X172095357Y-47057142D01*
X172095357Y-47152380D01*
X172095357Y-46533333D02*
X172047738Y-46580952D01*
X172095357Y-46628571D01*
X172142976Y-46580952D01*
X172095357Y-46533333D01*
X172095357Y-46628571D01*
X178190595Y-48802380D02*
X178762023Y-48802380D01*
X178476309Y-48802380D02*
X178476309Y-47802380D01*
X178571547Y-47945238D01*
X178666785Y-48040476D01*
X178762023Y-48088095D01*
X177000119Y-48421428D02*
X176238214Y-48421428D01*
X175000119Y-48802380D02*
X175000119Y-47802380D01*
X174666785Y-48516666D01*
X174333452Y-47802380D01*
X174333452Y-48802380D01*
X173857261Y-48802380D02*
X173857261Y-47802380D01*
X173428690Y-48754761D02*
X173285833Y-48802380D01*
X173047738Y-48802380D01*
X172952500Y-48754761D01*
X172904880Y-48707142D01*
X172857261Y-48611904D01*
X172857261Y-48516666D01*
X172904880Y-48421428D01*
X172952500Y-48373809D01*
X173047738Y-48326190D01*
X173238214Y-48278571D01*
X173333452Y-48230952D01*
X173381071Y-48183333D01*
X173428690Y-48088095D01*
X173428690Y-47992857D01*
X173381071Y-47897619D01*
X173333452Y-47850000D01*
X173238214Y-47802380D01*
X173000119Y-47802380D01*
X172857261Y-47850000D01*
X172238214Y-47802380D02*
X172047738Y-47802380D01*
X171952500Y-47850000D01*
X171857261Y-47945238D01*
X171809642Y-48135714D01*
X171809642Y-48469047D01*
X171857261Y-48659523D01*
X171952500Y-48754761D01*
X172047738Y-48802380D01*
X172238214Y-48802380D01*
X172333452Y-48754761D01*
X172428690Y-48659523D01*
X172476309Y-48469047D01*
X172476309Y-48135714D01*
X172428690Y-47945238D01*
X172333452Y-47850000D01*
X172238214Y-47802380D01*
X178762023Y-49547619D02*
X178714404Y-49500000D01*
X178619166Y-49452380D01*
X178381071Y-49452380D01*
X178285833Y-49500000D01*
X178238214Y-49547619D01*
X178190595Y-49642857D01*
X178190595Y-49738095D01*
X178238214Y-49880952D01*
X178809642Y-50452380D01*
X178190595Y-50452380D01*
X177000119Y-50071428D02*
X176238214Y-50071428D01*
X175095357Y-49452380D02*
X174476309Y-49452380D01*
X174809642Y-49833333D01*
X174666785Y-49833333D01*
X174571547Y-49880952D01*
X174523928Y-49928571D01*
X174476309Y-50023809D01*
X174476309Y-50261904D01*
X174523928Y-50357142D01*
X174571547Y-50404761D01*
X174666785Y-50452380D01*
X174952500Y-50452380D01*
X175047738Y-50404761D01*
X175095357Y-50357142D01*
X174047738Y-50357142D02*
X174000119Y-50404761D01*
X174047738Y-50452380D01*
X174095357Y-50404761D01*
X174047738Y-50357142D01*
X174047738Y-50452380D01*
X173666785Y-49452380D02*
X173047738Y-49452380D01*
X173381071Y-49833333D01*
X173238214Y-49833333D01*
X173142976Y-49880952D01*
X173095357Y-49928571D01*
X173047738Y-50023809D01*
X173047738Y-50261904D01*
X173095357Y-50357142D01*
X173142976Y-50404761D01*
X173238214Y-50452380D01*
X173523928Y-50452380D01*
X173619166Y-50404761D01*
X173666785Y-50357142D01*
X172762023Y-49452380D02*
X172428690Y-50452380D01*
X172095357Y-49452380D01*
X171762023Y-50071428D02*
X171000119Y-50071428D01*
X171381071Y-50452380D02*
X171381071Y-49690476D01*
X178809642Y-51102380D02*
X178190595Y-51102380D01*
X178523928Y-51483333D01*
X178381071Y-51483333D01*
X178285833Y-51530952D01*
X178238214Y-51578571D01*
X178190595Y-51673809D01*
X178190595Y-51911904D01*
X178238214Y-52007142D01*
X178285833Y-52054761D01*
X178381071Y-52102380D01*
X178666785Y-52102380D01*
X178762023Y-52054761D01*
X178809642Y-52007142D01*
X177000119Y-51721428D02*
X176238214Y-51721428D01*
X175047738Y-52054761D02*
X174904880Y-52102380D01*
X174666785Y-52102380D01*
X174571547Y-52054761D01*
X174523928Y-52007142D01*
X174476309Y-51911904D01*
X174476309Y-51816666D01*
X174523928Y-51721428D01*
X174571547Y-51673809D01*
X174666785Y-51626190D01*
X174857261Y-51578571D01*
X174952500Y-51530952D01*
X175000119Y-51483333D01*
X175047738Y-51388095D01*
X175047738Y-51292857D01*
X175000119Y-51197619D01*
X174952500Y-51150000D01*
X174857261Y-51102380D01*
X174619166Y-51102380D01*
X174476309Y-51150000D01*
X173476309Y-52007142D02*
X173523928Y-52054761D01*
X173666785Y-52102380D01*
X173762023Y-52102380D01*
X173904880Y-52054761D01*
X174000119Y-51959523D01*
X174047738Y-51864285D01*
X174095357Y-51673809D01*
X174095357Y-51530952D01*
X174047738Y-51340476D01*
X174000119Y-51245238D01*
X173904880Y-51150000D01*
X173762023Y-51102380D01*
X173666785Y-51102380D01*
X173523928Y-51150000D01*
X173476309Y-51197619D01*
X173047738Y-52102380D02*
X173047738Y-51102380D01*
X172476309Y-52102380D02*
X172904880Y-51530952D01*
X172476309Y-51102380D02*
X173047738Y-51673809D01*
X178285833Y-53085714D02*
X178285833Y-53752380D01*
X178523928Y-52704761D02*
X178762023Y-53419047D01*
X178142976Y-53419047D01*
X177000119Y-53371428D02*
X176238214Y-53371428D01*
X175000119Y-53752380D02*
X175000119Y-52752380D01*
X174666785Y-53466666D01*
X174333452Y-52752380D01*
X174333452Y-53752380D01*
X173666785Y-52752380D02*
X173476309Y-52752380D01*
X173381071Y-52800000D01*
X173285833Y-52895238D01*
X173238214Y-53085714D01*
X173238214Y-53419047D01*
X173285833Y-53609523D01*
X173381071Y-53704761D01*
X173476309Y-53752380D01*
X173666785Y-53752380D01*
X173762023Y-53704761D01*
X173857261Y-53609523D01*
X173904880Y-53419047D01*
X173904880Y-53085714D01*
X173857261Y-52895238D01*
X173762023Y-52800000D01*
X173666785Y-52752380D01*
X172857261Y-53704761D02*
X172714404Y-53752380D01*
X172476309Y-53752380D01*
X172381071Y-53704761D01*
X172333452Y-53657142D01*
X172285833Y-53561904D01*
X172285833Y-53466666D01*
X172333452Y-53371428D01*
X172381071Y-53323809D01*
X172476309Y-53276190D01*
X172666785Y-53228571D01*
X172762023Y-53180952D01*
X172809642Y-53133333D01*
X172857261Y-53038095D01*
X172857261Y-52942857D01*
X172809642Y-52847619D01*
X172762023Y-52800000D01*
X172666785Y-52752380D01*
X172428690Y-52752380D01*
X172285833Y-52800000D01*
X171857261Y-53752380D02*
X171857261Y-52752380D01*
X178238214Y-54402380D02*
X178714404Y-54402380D01*
X178762023Y-54878571D01*
X178714404Y-54830952D01*
X178619166Y-54783333D01*
X178381071Y-54783333D01*
X178285833Y-54830952D01*
X178238214Y-54878571D01*
X178190595Y-54973809D01*
X178190595Y-55211904D01*
X178238214Y-55307142D01*
X178285833Y-55354761D01*
X178381071Y-55402380D01*
X178619166Y-55402380D01*
X178714404Y-55354761D01*
X178762023Y-55307142D01*
X177000119Y-55021428D02*
X176238214Y-55021428D01*
X175047738Y-55354761D02*
X174904880Y-55402380D01*
X174666785Y-55402380D01*
X174571547Y-55354761D01*
X174523928Y-55307142D01*
X174476309Y-55211904D01*
X174476309Y-55116666D01*
X174523928Y-55021428D01*
X174571547Y-54973809D01*
X174666785Y-54926190D01*
X174857261Y-54878571D01*
X174952500Y-54830952D01*
X175000119Y-54783333D01*
X175047738Y-54688095D01*
X175047738Y-54592857D01*
X175000119Y-54497619D01*
X174952500Y-54450000D01*
X174857261Y-54402380D01*
X174619166Y-54402380D01*
X174476309Y-54450000D01*
X174095357Y-55354761D02*
X173952500Y-55402380D01*
X173714404Y-55402380D01*
X173619166Y-55354761D01*
X173571547Y-55307142D01*
X173523928Y-55211904D01*
X173523928Y-55116666D01*
X173571547Y-55021428D01*
X173619166Y-54973809D01*
X173714404Y-54926190D01*
X173904880Y-54878571D01*
X174000119Y-54830952D01*
X174047738Y-54783333D01*
X174095357Y-54688095D01*
X174095357Y-54592857D01*
X174047738Y-54497619D01*
X174000119Y-54450000D01*
X173904880Y-54402380D01*
X173666785Y-54402380D01*
X173523928Y-54450000D01*
X173095357Y-55402380D02*
X173095357Y-54402380D01*
X172523928Y-55402380D01*
X172523928Y-54402380D01*
X178285833Y-56052380D02*
X178476309Y-56052380D01*
X178571547Y-56100000D01*
X178619166Y-56147619D01*
X178714404Y-56290476D01*
X178762023Y-56480952D01*
X178762023Y-56861904D01*
X178714404Y-56957142D01*
X178666785Y-57004761D01*
X178571547Y-57052380D01*
X178381071Y-57052380D01*
X178285833Y-57004761D01*
X178238214Y-56957142D01*
X178190595Y-56861904D01*
X178190595Y-56623809D01*
X178238214Y-56528571D01*
X178285833Y-56480952D01*
X178381071Y-56433333D01*
X178571547Y-56433333D01*
X178666785Y-56480952D01*
X178714404Y-56528571D01*
X178762023Y-56623809D01*
X177000119Y-56671428D02*
X176238214Y-56671428D01*
X174476309Y-56100000D02*
X174571547Y-56052380D01*
X174714404Y-56052380D01*
X174857261Y-56100000D01*
X174952500Y-56195238D01*
X175000119Y-56290476D01*
X175047738Y-56480952D01*
X175047738Y-56623809D01*
X175000119Y-56814285D01*
X174952500Y-56909523D01*
X174857261Y-57004761D01*
X174714404Y-57052380D01*
X174619166Y-57052380D01*
X174476309Y-57004761D01*
X174428690Y-56957142D01*
X174428690Y-56623809D01*
X174619166Y-56623809D01*
X174000119Y-57052380D02*
X174000119Y-56052380D01*
X173428690Y-57052380D01*
X173428690Y-56052380D01*
X172952500Y-57052380D02*
X172952500Y-56052380D01*
X172714404Y-56052380D01*
X172571547Y-56100000D01*
X172476309Y-56195238D01*
X172428690Y-56290476D01*
X172381071Y-56480952D01*
X172381071Y-56623809D01*
X172428690Y-56814285D01*
X172476309Y-56909523D01*
X172571547Y-57004761D01*
X172714404Y-57052380D01*
X172952500Y-57052380D01*
X157333333Y-38202380D02*
X156714285Y-38202380D01*
X157047619Y-38583333D01*
X156904761Y-38583333D01*
X156809523Y-38630952D01*
X156761904Y-38678571D01*
X156714285Y-38773809D01*
X156714285Y-39011904D01*
X156761904Y-39107142D01*
X156809523Y-39154761D01*
X156904761Y-39202380D01*
X157190476Y-39202380D01*
X157285714Y-39154761D01*
X157333333Y-39107142D01*
X162011904Y-39352380D02*
X162488095Y-39352380D01*
X162535714Y-39828571D01*
X162488095Y-39780952D01*
X162392857Y-39733333D01*
X162154761Y-39733333D01*
X162059523Y-39780952D01*
X162011904Y-39828571D01*
X161964285Y-39923809D01*
X161964285Y-40161904D01*
X162011904Y-40257142D01*
X162059523Y-40304761D01*
X162154761Y-40352380D01*
X162392857Y-40352380D01*
X162488095Y-40304761D01*
X162535714Y-40257142D01*
X160409523Y-43802380D02*
X160600000Y-43802380D01*
X160695238Y-43850000D01*
X160742857Y-43897619D01*
X160838095Y-44040476D01*
X160885714Y-44230952D01*
X160885714Y-44611904D01*
X160838095Y-44707142D01*
X160790476Y-44754761D01*
X160695238Y-44802380D01*
X160504761Y-44802380D01*
X160409523Y-44754761D01*
X160361904Y-44707142D01*
X160314285Y-44611904D01*
X160314285Y-44373809D01*
X160361904Y-44278571D01*
X160409523Y-44230952D01*
X160504761Y-44183333D01*
X160695238Y-44183333D01*
X160790476Y-44230952D01*
X160838095Y-44278571D01*
X160885714Y-44373809D01*
X157859523Y-44185714D02*
X157859523Y-44852380D01*
X158097619Y-43804761D02*
X158335714Y-44519047D01*
X157716666Y-44519047D01*
X155735714Y-43997619D02*
X155688095Y-43950000D01*
X155592857Y-43902380D01*
X155354761Y-43902380D01*
X155259523Y-43950000D01*
X155211904Y-43997619D01*
X155164285Y-44092857D01*
X155164285Y-44188095D01*
X155211904Y-44330952D01*
X155783333Y-44902380D01*
X155164285Y-44902380D01*
X153014285Y-40302380D02*
X153585714Y-40302380D01*
X153300000Y-40302380D02*
X153300000Y-39302380D01*
X153395238Y-39445238D01*
X153490476Y-39540476D01*
X153585714Y-39588095D01*
X170497619Y-42252380D02*
X170830952Y-41776190D01*
X171069047Y-42252380D02*
X171069047Y-41252380D01*
X170688095Y-41252380D01*
X170592857Y-41300000D01*
X170545238Y-41347619D01*
X170497619Y-41442857D01*
X170497619Y-41585714D01*
X170545238Y-41680952D01*
X170592857Y-41728571D01*
X170688095Y-41776190D01*
X171069047Y-41776190D01*
X170211904Y-41252380D02*
X169640476Y-41252380D01*
X169926190Y-42252380D02*
X169926190Y-41252380D01*
X169354761Y-42204761D02*
X169211904Y-42252380D01*
X168973809Y-42252380D01*
X168878571Y-42204761D01*
X168830952Y-42157142D01*
X168783333Y-42061904D01*
X168783333Y-41966666D01*
X168830952Y-41871428D01*
X168878571Y-41823809D01*
X168973809Y-41776190D01*
X169164285Y-41728571D01*
X169259523Y-41680952D01*
X169307142Y-41633333D01*
X169354761Y-41538095D01*
X169354761Y-41442857D01*
X169307142Y-41347619D01*
X169259523Y-41300000D01*
X169164285Y-41252380D01*
X168926190Y-41252380D01*
X168783333Y-41300000D01*
X173297619Y-42157142D02*
X173345238Y-42204761D01*
X173488095Y-42252380D01*
X173583333Y-42252380D01*
X173726190Y-42204761D01*
X173821428Y-42109523D01*
X173869047Y-42014285D01*
X173916666Y-41823809D01*
X173916666Y-41680952D01*
X173869047Y-41490476D01*
X173821428Y-41395238D01*
X173726190Y-41300000D01*
X173583333Y-41252380D01*
X173488095Y-41252380D01*
X173345238Y-41300000D01*
X173297619Y-41347619D01*
X173011904Y-41252380D02*
X172440476Y-41252380D01*
X172726190Y-42252380D02*
X172726190Y-41252380D01*
X172154761Y-42204761D02*
X172011904Y-42252380D01*
X171773809Y-42252380D01*
X171678571Y-42204761D01*
X171630952Y-42157142D01*
X171583333Y-42061904D01*
X171583333Y-41966666D01*
X171630952Y-41871428D01*
X171678571Y-41823809D01*
X171773809Y-41776190D01*
X171964285Y-41728571D01*
X172059523Y-41680952D01*
X172107142Y-41633333D01*
X172154761Y-41538095D01*
X172154761Y-41442857D01*
X172107142Y-41347619D01*
X172059523Y-41300000D01*
X171964285Y-41252380D01*
X171726190Y-41252380D01*
X171583333Y-41300000D01*
X175940476Y-41402380D02*
X175369047Y-41402380D01*
X175654761Y-42402380D02*
X175654761Y-41402380D01*
X175130952Y-42402380D02*
X174607142Y-41735714D01*
X175130952Y-41735714D02*
X174607142Y-42402380D01*
X177795238Y-42502380D02*
X178128571Y-42026190D01*
X178366666Y-42502380D02*
X178366666Y-41502380D01*
X177985714Y-41502380D01*
X177890476Y-41550000D01*
X177842857Y-41597619D01*
X177795238Y-41692857D01*
X177795238Y-41835714D01*
X177842857Y-41930952D01*
X177890476Y-41978571D01*
X177985714Y-42026190D01*
X178366666Y-42026190D01*
X177461904Y-42502380D02*
X176938095Y-41835714D01*
X177461904Y-41835714D02*
X176938095Y-42502380D01*
X144533333Y-64652380D02*
X143914285Y-64652380D01*
X144247619Y-65033333D01*
X144104761Y-65033333D01*
X144009523Y-65080952D01*
X143961904Y-65128571D01*
X143914285Y-65223809D01*
X143914285Y-65461904D01*
X143961904Y-65557142D01*
X144009523Y-65604761D01*
X144104761Y-65652380D01*
X144390476Y-65652380D01*
X144485714Y-65604761D01*
X144533333Y-65557142D01*
X147035714Y-58797619D02*
X146988095Y-58750000D01*
X146892857Y-58702380D01*
X146654761Y-58702380D01*
X146559523Y-58750000D01*
X146511904Y-58797619D01*
X146464285Y-58892857D01*
X146464285Y-58988095D01*
X146511904Y-59130952D01*
X147083333Y-59702380D01*
X146464285Y-59702380D01*
X146414285Y-65652380D02*
X146985714Y-65652380D01*
X146700000Y-65652380D02*
X146700000Y-64652380D01*
X146795238Y-64795238D01*
X146890476Y-64890476D01*
X146985714Y-64938095D01*
X144059523Y-59085714D02*
X144059523Y-59752380D01*
X144297619Y-58704761D02*
X144535714Y-59419047D01*
X143916666Y-59419047D01*
X139750000Y-61538095D02*
X139702380Y-61442857D01*
X139702380Y-61300000D01*
X139750000Y-61157142D01*
X139845238Y-61061904D01*
X139940476Y-61014285D01*
X140130952Y-60966666D01*
X140273809Y-60966666D01*
X140464285Y-61014285D01*
X140559523Y-61061904D01*
X140654761Y-61157142D01*
X140702380Y-61300000D01*
X140702380Y-61395238D01*
X140654761Y-61538095D01*
X140607142Y-61585714D01*
X140273809Y-61585714D01*
X140273809Y-61395238D01*
X140702380Y-62014285D02*
X139702380Y-62014285D01*
X140702380Y-62585714D01*
X139702380Y-62585714D01*
X140702380Y-63061904D02*
X139702380Y-63061904D01*
X139702380Y-63300000D01*
X139750000Y-63442857D01*
X139845238Y-63538095D01*
X139940476Y-63585714D01*
X140130952Y-63633333D01*
X140273809Y-63633333D01*
X140464285Y-63585714D01*
X140559523Y-63538095D01*
X140654761Y-63442857D01*
X140702380Y-63300000D01*
X140702380Y-63061904D01*
D11*
X167127976Y-47538095D02*
X167127976Y-46238095D01*
X166508928Y-46671428D02*
X166508928Y-47538095D01*
X166508928Y-46795238D02*
X166447023Y-46733333D01*
X166323214Y-46671428D01*
X166137500Y-46671428D01*
X166013690Y-46733333D01*
X165951785Y-46857142D01*
X165951785Y-47538095D01*
X165332738Y-46671428D02*
X165332738Y-47971428D01*
X165332738Y-46733333D02*
X165208928Y-46671428D01*
X164961309Y-46671428D01*
X164837500Y-46733333D01*
X164775595Y-46795238D01*
X164713690Y-46919047D01*
X164713690Y-47290476D01*
X164775595Y-47414285D01*
X164837500Y-47476190D01*
X164961309Y-47538095D01*
X165208928Y-47538095D01*
X165332738Y-47476190D01*
X163599404Y-46671428D02*
X163599404Y-47538095D01*
X164156547Y-46671428D02*
X164156547Y-47352380D01*
X164094642Y-47476190D01*
X163970833Y-47538095D01*
X163785119Y-47538095D01*
X163661309Y-47476190D01*
X163599404Y-47414285D01*
X163166071Y-46671428D02*
X162670833Y-46671428D01*
X162980357Y-46238095D02*
X162980357Y-47352380D01*
X162918452Y-47476190D01*
X162794642Y-47538095D01*
X162670833Y-47538095D01*
X160504166Y-47414285D02*
X160566071Y-47476190D01*
X160751785Y-47538095D01*
X160875595Y-47538095D01*
X161061309Y-47476190D01*
X161185119Y-47352380D01*
X161247023Y-47228571D01*
X161308928Y-46980952D01*
X161308928Y-46795238D01*
X161247023Y-46547619D01*
X161185119Y-46423809D01*
X161061309Y-46300000D01*
X160875595Y-46238095D01*
X160751785Y-46238095D01*
X160566071Y-46300000D01*
X160504166Y-46361904D01*
X159761309Y-47538095D02*
X159885119Y-47476190D01*
X159947023Y-47414285D01*
X160008928Y-47290476D01*
X160008928Y-46919047D01*
X159947023Y-46795238D01*
X159885119Y-46733333D01*
X159761309Y-46671428D01*
X159575595Y-46671428D01*
X159451785Y-46733333D01*
X159389880Y-46795238D01*
X159327976Y-46919047D01*
X159327976Y-47290476D01*
X159389880Y-47414285D01*
X159451785Y-47476190D01*
X159575595Y-47538095D01*
X159761309Y-47538095D01*
X158770833Y-46671428D02*
X158770833Y-47538095D01*
X158770833Y-46795238D02*
X158708928Y-46733333D01*
X158585119Y-46671428D01*
X158399404Y-46671428D01*
X158275595Y-46733333D01*
X158213690Y-46857142D01*
X158213690Y-47538095D01*
X157594642Y-46671428D02*
X157594642Y-47538095D01*
X157594642Y-46795238D02*
X157532738Y-46733333D01*
X157408928Y-46671428D01*
X157223214Y-46671428D01*
X157099404Y-46733333D01*
X157037500Y-46857142D01*
X157037500Y-47538095D01*
X155923214Y-47476190D02*
X156047023Y-47538095D01*
X156294642Y-47538095D01*
X156418452Y-47476190D01*
X156480357Y-47352380D01*
X156480357Y-46857142D01*
X156418452Y-46733333D01*
X156294642Y-46671428D01*
X156047023Y-46671428D01*
X155923214Y-46733333D01*
X155861309Y-46857142D01*
X155861309Y-46980952D01*
X156480357Y-47104761D01*
X154747023Y-47476190D02*
X154870833Y-47538095D01*
X155118452Y-47538095D01*
X155242261Y-47476190D01*
X155304166Y-47414285D01*
X155366071Y-47290476D01*
X155366071Y-46919047D01*
X155304166Y-46795238D01*
X155242261Y-46733333D01*
X155118452Y-46671428D01*
X154870833Y-46671428D01*
X154747023Y-46733333D01*
X154375595Y-46671428D02*
X153880357Y-46671428D01*
X154189880Y-46238095D02*
X154189880Y-47352380D01*
X154127976Y-47476190D01*
X154004166Y-47538095D01*
X153880357Y-47538095D01*
X153447023Y-47538095D02*
X153447023Y-46671428D01*
X153447023Y-46238095D02*
X153508928Y-46300000D01*
X153447023Y-46361904D01*
X153385119Y-46300000D01*
X153447023Y-46238095D01*
X153447023Y-46361904D01*
X152642261Y-47538095D02*
X152766071Y-47476190D01*
X152827976Y-47414285D01*
X152889880Y-47290476D01*
X152889880Y-46919047D01*
X152827976Y-46795238D01*
X152766071Y-46733333D01*
X152642261Y-46671428D01*
X152456547Y-46671428D01*
X152332738Y-46733333D01*
X152270833Y-46795238D01*
X152208928Y-46919047D01*
X152208928Y-47290476D01*
X152270833Y-47414285D01*
X152332738Y-47476190D01*
X152456547Y-47538095D01*
X152642261Y-47538095D01*
X151651785Y-46671428D02*
X151651785Y-47538095D01*
X151651785Y-46795238D02*
X151589880Y-46733333D01*
X151466071Y-46671428D01*
X151280357Y-46671428D01*
X151156547Y-46733333D01*
X151094642Y-46857142D01*
X151094642Y-47538095D01*
X150537500Y-47476190D02*
X150413690Y-47538095D01*
X150166071Y-47538095D01*
X150042261Y-47476190D01*
X149980357Y-47352380D01*
X149980357Y-47290476D01*
X150042261Y-47166666D01*
X150166071Y-47104761D01*
X150351785Y-47104761D01*
X150475595Y-47042857D01*
X150537500Y-46919047D01*
X150537500Y-46857142D01*
X150475595Y-46733333D01*
X150351785Y-46671428D01*
X150166071Y-46671428D01*
X150042261Y-46733333D01*
X149423214Y-47414285D02*
X149361309Y-47476190D01*
X149423214Y-47538095D01*
X149485119Y-47476190D01*
X149423214Y-47414285D01*
X149423214Y-47538095D01*
X149423214Y-46733333D02*
X149361309Y-46795238D01*
X149423214Y-46857142D01*
X149485119Y-46795238D01*
X149423214Y-46733333D01*
X149423214Y-46857142D01*
X166385119Y-49738095D02*
X166818452Y-49119047D01*
X167127976Y-49738095D02*
X167127976Y-48438095D01*
X166632738Y-48438095D01*
X166508928Y-48500000D01*
X166447023Y-48561904D01*
X166385119Y-48685714D01*
X166385119Y-48871428D01*
X166447023Y-48995238D01*
X166508928Y-49057142D01*
X166632738Y-49119047D01*
X167127976Y-49119047D01*
X165332738Y-49676190D02*
X165456547Y-49738095D01*
X165704166Y-49738095D01*
X165827976Y-49676190D01*
X165889880Y-49552380D01*
X165889880Y-49057142D01*
X165827976Y-48933333D01*
X165704166Y-48871428D01*
X165456547Y-48871428D01*
X165332738Y-48933333D01*
X165270833Y-49057142D01*
X165270833Y-49180952D01*
X165889880Y-49304761D01*
X164156547Y-49738095D02*
X164156547Y-48438095D01*
X164156547Y-49676190D02*
X164280357Y-49738095D01*
X164527976Y-49738095D01*
X164651785Y-49676190D01*
X164713690Y-49614285D01*
X164775595Y-49490476D01*
X164775595Y-49119047D01*
X164713690Y-48995238D01*
X164651785Y-48933333D01*
X164527976Y-48871428D01*
X164280357Y-48871428D01*
X164156547Y-48933333D01*
X162547023Y-49242857D02*
X161556547Y-49242857D01*
X159947023Y-49242857D02*
X158956547Y-49242857D01*
X159451785Y-49738095D02*
X159451785Y-48747619D01*
X157656547Y-49738095D02*
X158399404Y-49738095D01*
X158027976Y-49738095D02*
X158027976Y-48438095D01*
X158151785Y-48623809D01*
X158275595Y-48747619D01*
X158399404Y-48809523D01*
X157161309Y-48561904D02*
X157099404Y-48500000D01*
X156975595Y-48438095D01*
X156666071Y-48438095D01*
X156542261Y-48500000D01*
X156480357Y-48561904D01*
X156418452Y-48685714D01*
X156418452Y-48809523D01*
X156480357Y-48995238D01*
X157223214Y-49738095D01*
X156418452Y-49738095D01*
X156047023Y-48438095D02*
X155613690Y-49738095D01*
X155180357Y-48438095D01*
X153756547Y-49738095D02*
X153756547Y-48871428D01*
X153756547Y-48438095D02*
X153818452Y-48500000D01*
X153756547Y-48561904D01*
X153694642Y-48500000D01*
X153756547Y-48438095D01*
X153756547Y-48561904D01*
X153137500Y-48871428D02*
X153137500Y-49738095D01*
X153137500Y-48995238D02*
X153075595Y-48933333D01*
X152951785Y-48871428D01*
X152766071Y-48871428D01*
X152642261Y-48933333D01*
X152580357Y-49057142D01*
X152580357Y-49738095D01*
X150599404Y-50233333D02*
X150661309Y-50171428D01*
X150785119Y-49985714D01*
X150847023Y-49861904D01*
X150908928Y-49676190D01*
X150970833Y-49366666D01*
X150970833Y-49119047D01*
X150908928Y-48809523D01*
X150847023Y-48623809D01*
X150785119Y-48500000D01*
X150661309Y-48314285D01*
X150599404Y-48252380D01*
X149423214Y-49738095D02*
X150166071Y-49738095D01*
X149794642Y-49738095D02*
X149794642Y-48438095D01*
X149918452Y-48623809D01*
X150042261Y-48747619D01*
X150166071Y-48809523D01*
X148680357Y-48995238D02*
X148804166Y-48933333D01*
X148866071Y-48871428D01*
X148927976Y-48747619D01*
X148927976Y-48685714D01*
X148866071Y-48561904D01*
X148804166Y-48500000D01*
X148680357Y-48438095D01*
X148432738Y-48438095D01*
X148308928Y-48500000D01*
X148247023Y-48561904D01*
X148185119Y-48685714D01*
X148185119Y-48747619D01*
X148247023Y-48871428D01*
X148308928Y-48933333D01*
X148432738Y-48995238D01*
X148680357Y-48995238D01*
X148804166Y-49057142D01*
X148866071Y-49119047D01*
X148927976Y-49242857D01*
X148927976Y-49490476D01*
X148866071Y-49614285D01*
X148804166Y-49676190D01*
X148680357Y-49738095D01*
X148432738Y-49738095D01*
X148308928Y-49676190D01*
X148247023Y-49614285D01*
X148185119Y-49490476D01*
X148185119Y-49242857D01*
X148247023Y-49119047D01*
X148308928Y-49057142D01*
X148432738Y-48995238D01*
X147813690Y-48438095D02*
X147380357Y-49738095D01*
X146947023Y-48438095D01*
X145523214Y-49738095D02*
X145523214Y-48438095D01*
X145089880Y-49366666D01*
X144656547Y-48438095D01*
X144656547Y-49738095D01*
X144099404Y-49366666D02*
X143480357Y-49366666D01*
X144223214Y-49738095D02*
X143789880Y-48438095D01*
X143356547Y-49738095D01*
X143047023Y-48438095D02*
X142180357Y-49738095D01*
X142180357Y-48438095D02*
X143047023Y-49738095D01*
X141808928Y-50233333D02*
X141747023Y-50171428D01*
X141623214Y-49985714D01*
X141561309Y-49861904D01*
X141499404Y-49676190D01*
X141437500Y-49366666D01*
X141437500Y-49119047D01*
X141499404Y-48809523D01*
X141561309Y-48623809D01*
X141623214Y-48500000D01*
X141747023Y-48314285D01*
X141808928Y-48252380D01*
X166694642Y-51257142D02*
X166508928Y-51319047D01*
X166447023Y-51380952D01*
X166385119Y-51504761D01*
X166385119Y-51690476D01*
X166447023Y-51814285D01*
X166508928Y-51876190D01*
X166632738Y-51938095D01*
X167127976Y-51938095D01*
X167127976Y-50638095D01*
X166694642Y-50638095D01*
X166570833Y-50700000D01*
X166508928Y-50761904D01*
X166447023Y-50885714D01*
X166447023Y-51009523D01*
X166508928Y-51133333D01*
X166570833Y-51195238D01*
X166694642Y-51257142D01*
X167127976Y-51257142D01*
X165642261Y-51938095D02*
X165766071Y-51876190D01*
X165827976Y-51752380D01*
X165827976Y-50638095D01*
X164589880Y-51938095D02*
X164589880Y-51257142D01*
X164651785Y-51133333D01*
X164775595Y-51071428D01*
X165023214Y-51071428D01*
X165147023Y-51133333D01*
X164589880Y-51876190D02*
X164713690Y-51938095D01*
X165023214Y-51938095D01*
X165147023Y-51876190D01*
X165208928Y-51752380D01*
X165208928Y-51628571D01*
X165147023Y-51504761D01*
X165023214Y-51442857D01*
X164713690Y-51442857D01*
X164589880Y-51380952D01*
X163413690Y-51876190D02*
X163537500Y-51938095D01*
X163785119Y-51938095D01*
X163908928Y-51876190D01*
X163970833Y-51814285D01*
X164032738Y-51690476D01*
X164032738Y-51319047D01*
X163970833Y-51195238D01*
X163908928Y-51133333D01*
X163785119Y-51071428D01*
X163537500Y-51071428D01*
X163413690Y-51133333D01*
X162856547Y-51938095D02*
X162856547Y-50638095D01*
X162732738Y-51442857D02*
X162361309Y-51938095D01*
X162361309Y-51071428D02*
X162856547Y-51566666D01*
X160813690Y-51442857D02*
X159823214Y-51442857D01*
X157532738Y-50700000D02*
X157656547Y-50638095D01*
X157842261Y-50638095D01*
X158027976Y-50700000D01*
X158151785Y-50823809D01*
X158213690Y-50947619D01*
X158275595Y-51195238D01*
X158275595Y-51380952D01*
X158213690Y-51628571D01*
X158151785Y-51752380D01*
X158027976Y-51876190D01*
X157842261Y-51938095D01*
X157718452Y-51938095D01*
X157532738Y-51876190D01*
X157470833Y-51814285D01*
X157470833Y-51380952D01*
X157718452Y-51380952D01*
X156913690Y-51938095D02*
X156913690Y-50638095D01*
X156170833Y-51938095D01*
X156170833Y-50638095D01*
X155551785Y-51938095D02*
X155551785Y-50638095D01*
X155242261Y-50638095D01*
X155056547Y-50700000D01*
X154932738Y-50823809D01*
X154870833Y-50947619D01*
X154808928Y-51195238D01*
X154808928Y-51380952D01*
X154870833Y-51628571D01*
X154932738Y-51752380D01*
X155056547Y-51876190D01*
X155242261Y-51938095D01*
X155551785Y-51938095D01*
X166880357Y-55038095D02*
X166632738Y-55038095D01*
X166508928Y-55100000D01*
X166385119Y-55223809D01*
X166323214Y-55471428D01*
X166323214Y-55904761D01*
X166385119Y-56152380D01*
X166508928Y-56276190D01*
X166632738Y-56338095D01*
X166880357Y-56338095D01*
X167004166Y-56276190D01*
X167127976Y-56152380D01*
X167189880Y-55904761D01*
X167189880Y-55471428D01*
X167127976Y-55223809D01*
X167004166Y-55100000D01*
X166880357Y-55038095D01*
X165208928Y-55471428D02*
X165208928Y-56338095D01*
X165766071Y-55471428D02*
X165766071Y-56152380D01*
X165704166Y-56276190D01*
X165580357Y-56338095D01*
X165394642Y-56338095D01*
X165270833Y-56276190D01*
X165208928Y-56214285D01*
X164775595Y-55471428D02*
X164280357Y-55471428D01*
X164589880Y-55038095D02*
X164589880Y-56152380D01*
X164527976Y-56276190D01*
X164404166Y-56338095D01*
X164280357Y-56338095D01*
X163847023Y-55471428D02*
X163847023Y-56771428D01*
X163847023Y-55533333D02*
X163723214Y-55471428D01*
X163475595Y-55471428D01*
X163351785Y-55533333D01*
X163289880Y-55595238D01*
X163227976Y-55719047D01*
X163227976Y-56090476D01*
X163289880Y-56214285D01*
X163351785Y-56276190D01*
X163475595Y-56338095D01*
X163723214Y-56338095D01*
X163847023Y-56276190D01*
X162113690Y-55471428D02*
X162113690Y-56338095D01*
X162670833Y-55471428D02*
X162670833Y-56152380D01*
X162608928Y-56276190D01*
X162485119Y-56338095D01*
X162299404Y-56338095D01*
X162175595Y-56276190D01*
X162113690Y-56214285D01*
X161680357Y-55471428D02*
X161185119Y-55471428D01*
X161494642Y-55038095D02*
X161494642Y-56152380D01*
X161432738Y-56276190D01*
X161308928Y-56338095D01*
X161185119Y-56338095D01*
X159018452Y-56214285D02*
X159080357Y-56276190D01*
X159266071Y-56338095D01*
X159389880Y-56338095D01*
X159575595Y-56276190D01*
X159699404Y-56152380D01*
X159761309Y-56028571D01*
X159823214Y-55780952D01*
X159823214Y-55595238D01*
X159761309Y-55347619D01*
X159699404Y-55223809D01*
X159575595Y-55100000D01*
X159389880Y-55038095D01*
X159266071Y-55038095D01*
X159080357Y-55100000D01*
X159018452Y-55161904D01*
X158275595Y-56338095D02*
X158399404Y-56276190D01*
X158461309Y-56214285D01*
X158523214Y-56090476D01*
X158523214Y-55719047D01*
X158461309Y-55595238D01*
X158399404Y-55533333D01*
X158275595Y-55471428D01*
X158089880Y-55471428D01*
X157966071Y-55533333D01*
X157904166Y-55595238D01*
X157842261Y-55719047D01*
X157842261Y-56090476D01*
X157904166Y-56214285D01*
X157966071Y-56276190D01*
X158089880Y-56338095D01*
X158275595Y-56338095D01*
X157285119Y-55471428D02*
X157285119Y-56338095D01*
X157285119Y-55595238D02*
X157223214Y-55533333D01*
X157099404Y-55471428D01*
X156913690Y-55471428D01*
X156789880Y-55533333D01*
X156727976Y-55657142D01*
X156727976Y-56338095D01*
X156108928Y-55471428D02*
X156108928Y-56338095D01*
X156108928Y-55595238D02*
X156047023Y-55533333D01*
X155923214Y-55471428D01*
X155737500Y-55471428D01*
X155613690Y-55533333D01*
X155551785Y-55657142D01*
X155551785Y-56338095D01*
X154437500Y-56276190D02*
X154561309Y-56338095D01*
X154808928Y-56338095D01*
X154932738Y-56276190D01*
X154994642Y-56152380D01*
X154994642Y-55657142D01*
X154932738Y-55533333D01*
X154808928Y-55471428D01*
X154561309Y-55471428D01*
X154437500Y-55533333D01*
X154375595Y-55657142D01*
X154375595Y-55780952D01*
X154994642Y-55904761D01*
X153261309Y-56276190D02*
X153385119Y-56338095D01*
X153632738Y-56338095D01*
X153756547Y-56276190D01*
X153818452Y-56214285D01*
X153880357Y-56090476D01*
X153880357Y-55719047D01*
X153818452Y-55595238D01*
X153756547Y-55533333D01*
X153632738Y-55471428D01*
X153385119Y-55471428D01*
X153261309Y-55533333D01*
X152889880Y-55471428D02*
X152394642Y-55471428D01*
X152704166Y-55038095D02*
X152704166Y-56152380D01*
X152642261Y-56276190D01*
X152518452Y-56338095D01*
X152394642Y-56338095D01*
X151961309Y-56338095D02*
X151961309Y-55471428D01*
X151961309Y-55038095D02*
X152023214Y-55100000D01*
X151961309Y-55161904D01*
X151899404Y-55100000D01*
X151961309Y-55038095D01*
X151961309Y-55161904D01*
X151156547Y-56338095D02*
X151280357Y-56276190D01*
X151342261Y-56214285D01*
X151404166Y-56090476D01*
X151404166Y-55719047D01*
X151342261Y-55595238D01*
X151280357Y-55533333D01*
X151156547Y-55471428D01*
X150970833Y-55471428D01*
X150847023Y-55533333D01*
X150785119Y-55595238D01*
X150723214Y-55719047D01*
X150723214Y-56090476D01*
X150785119Y-56214285D01*
X150847023Y-56276190D01*
X150970833Y-56338095D01*
X151156547Y-56338095D01*
X150166071Y-55471428D02*
X150166071Y-56338095D01*
X150166071Y-55595238D02*
X150104166Y-55533333D01*
X149980357Y-55471428D01*
X149794642Y-55471428D01*
X149670833Y-55533333D01*
X149608928Y-55657142D01*
X149608928Y-56338095D01*
X149051785Y-56276190D02*
X148927976Y-56338095D01*
X148680357Y-56338095D01*
X148556547Y-56276190D01*
X148494642Y-56152380D01*
X148494642Y-56090476D01*
X148556547Y-55966666D01*
X148680357Y-55904761D01*
X148866071Y-55904761D01*
X148989880Y-55842857D01*
X149051785Y-55719047D01*
X149051785Y-55657142D01*
X148989880Y-55533333D01*
X148866071Y-55471428D01*
X148680357Y-55471428D01*
X148556547Y-55533333D01*
X147937500Y-56214285D02*
X147875595Y-56276190D01*
X147937500Y-56338095D01*
X147999404Y-56276190D01*
X147937500Y-56214285D01*
X147937500Y-56338095D01*
X147937500Y-55533333D02*
X147875595Y-55595238D01*
X147937500Y-55657142D01*
X147999404Y-55595238D01*
X147937500Y-55533333D01*
X147937500Y-55657142D01*
X166447023Y-57300000D02*
X166570833Y-57238095D01*
X166756547Y-57238095D01*
X166942261Y-57300000D01*
X167066071Y-57423809D01*
X167127976Y-57547619D01*
X167189880Y-57795238D01*
X167189880Y-57980952D01*
X167127976Y-58228571D01*
X167066071Y-58352380D01*
X166942261Y-58476190D01*
X166756547Y-58538095D01*
X166632738Y-58538095D01*
X166447023Y-58476190D01*
X166385119Y-58414285D01*
X166385119Y-57980952D01*
X166632738Y-57980952D01*
X165827976Y-58538095D02*
X165827976Y-57671428D01*
X165827976Y-57919047D02*
X165766071Y-57795238D01*
X165704166Y-57733333D01*
X165580357Y-57671428D01*
X165456547Y-57671428D01*
X164527976Y-58476190D02*
X164651785Y-58538095D01*
X164899404Y-58538095D01*
X165023214Y-58476190D01*
X165085119Y-58352380D01*
X165085119Y-57857142D01*
X165023214Y-57733333D01*
X164899404Y-57671428D01*
X164651785Y-57671428D01*
X164527976Y-57733333D01*
X164466071Y-57857142D01*
X164466071Y-57980952D01*
X165085119Y-58104761D01*
X163413690Y-58476190D02*
X163537500Y-58538095D01*
X163785119Y-58538095D01*
X163908928Y-58476190D01*
X163970833Y-58352380D01*
X163970833Y-57857142D01*
X163908928Y-57733333D01*
X163785119Y-57671428D01*
X163537500Y-57671428D01*
X163413690Y-57733333D01*
X163351785Y-57857142D01*
X163351785Y-57980952D01*
X163970833Y-58104761D01*
X162794642Y-57671428D02*
X162794642Y-58538095D01*
X162794642Y-57795238D02*
X162732738Y-57733333D01*
X162608928Y-57671428D01*
X162423214Y-57671428D01*
X162299404Y-57733333D01*
X162237500Y-57857142D01*
X162237500Y-58538095D01*
X160627976Y-58042857D02*
X159637500Y-58042857D01*
X157780357Y-57238095D02*
X157532738Y-57238095D01*
X157408928Y-57300000D01*
X157285119Y-57423809D01*
X157223214Y-57671428D01*
X157223214Y-58104761D01*
X157285119Y-58352380D01*
X157408928Y-58476190D01*
X157532738Y-58538095D01*
X157780357Y-58538095D01*
X157904166Y-58476190D01*
X158027976Y-58352380D01*
X158089880Y-58104761D01*
X158089880Y-57671428D01*
X158027976Y-57423809D01*
X157904166Y-57300000D01*
X157780357Y-57238095D01*
X156666071Y-57238095D02*
X156666071Y-58290476D01*
X156604166Y-58414285D01*
X156542261Y-58476190D01*
X156418452Y-58538095D01*
X156170833Y-58538095D01*
X156047023Y-58476190D01*
X155985119Y-58414285D01*
X155923214Y-58290476D01*
X155923214Y-57238095D01*
X155489880Y-57238095D02*
X154747023Y-57238095D01*
X155118452Y-58538095D02*
X155118452Y-57238095D01*
X153632738Y-58538095D02*
X154375595Y-58538095D01*
X154004166Y-58538095D02*
X154004166Y-57238095D01*
X154127976Y-57423809D01*
X154251785Y-57547619D01*
X154375595Y-57609523D01*
X166694642Y-60057142D02*
X166508928Y-60119047D01*
X166447023Y-60180952D01*
X166385119Y-60304761D01*
X166385119Y-60490476D01*
X166447023Y-60614285D01*
X166508928Y-60676190D01*
X166632738Y-60738095D01*
X167127976Y-60738095D01*
X167127976Y-59438095D01*
X166694642Y-59438095D01*
X166570833Y-59500000D01*
X166508928Y-59561904D01*
X166447023Y-59685714D01*
X166447023Y-59809523D01*
X166508928Y-59933333D01*
X166570833Y-59995238D01*
X166694642Y-60057142D01*
X167127976Y-60057142D01*
X165642261Y-60738095D02*
X165766071Y-60676190D01*
X165827976Y-60552380D01*
X165827976Y-59438095D01*
X164589880Y-59871428D02*
X164589880Y-60738095D01*
X165147023Y-59871428D02*
X165147023Y-60552380D01*
X165085119Y-60676190D01*
X164961309Y-60738095D01*
X164775595Y-60738095D01*
X164651785Y-60676190D01*
X164589880Y-60614285D01*
X163475595Y-60676190D02*
X163599404Y-60738095D01*
X163847023Y-60738095D01*
X163970833Y-60676190D01*
X164032738Y-60552380D01*
X164032738Y-60057142D01*
X163970833Y-59933333D01*
X163847023Y-59871428D01*
X163599404Y-59871428D01*
X163475595Y-59933333D01*
X163413690Y-60057142D01*
X163413690Y-60180952D01*
X164032738Y-60304761D01*
X161866071Y-60242857D02*
X160875595Y-60242857D01*
X159018452Y-59438095D02*
X158770833Y-59438095D01*
X158647023Y-59500000D01*
X158523214Y-59623809D01*
X158461309Y-59871428D01*
X158461309Y-60304761D01*
X158523214Y-60552380D01*
X158647023Y-60676190D01*
X158770833Y-60738095D01*
X159018452Y-60738095D01*
X159142261Y-60676190D01*
X159266071Y-60552380D01*
X159327976Y-60304761D01*
X159327976Y-59871428D01*
X159266071Y-59623809D01*
X159142261Y-59500000D01*
X159018452Y-59438095D01*
X157904166Y-59438095D02*
X157904166Y-60490476D01*
X157842261Y-60614285D01*
X157780357Y-60676190D01*
X157656547Y-60738095D01*
X157408928Y-60738095D01*
X157285119Y-60676190D01*
X157223214Y-60614285D01*
X157161309Y-60490476D01*
X157161309Y-59438095D01*
X156727976Y-59438095D02*
X155985119Y-59438095D01*
X156356547Y-60738095D02*
X156356547Y-59438095D01*
X155613690Y-59561904D02*
X155551785Y-59500000D01*
X155427976Y-59438095D01*
X155118452Y-59438095D01*
X154994642Y-59500000D01*
X154932738Y-59561904D01*
X154870833Y-59685714D01*
X154870833Y-59809523D01*
X154932738Y-59995238D01*
X155675595Y-60738095D01*
X154870833Y-60738095D01*
X166880357Y-62319047D02*
X166880357Y-62938095D01*
X167313690Y-61638095D02*
X166880357Y-62319047D01*
X166447023Y-61638095D01*
X165518452Y-62876190D02*
X165642261Y-62938095D01*
X165889880Y-62938095D01*
X166013690Y-62876190D01*
X166075595Y-62752380D01*
X166075595Y-62257142D01*
X166013690Y-62133333D01*
X165889880Y-62071428D01*
X165642261Y-62071428D01*
X165518452Y-62133333D01*
X165456547Y-62257142D01*
X165456547Y-62380952D01*
X166075595Y-62504761D01*
X164713690Y-62938095D02*
X164837500Y-62876190D01*
X164899404Y-62752380D01*
X164899404Y-61638095D01*
X164032738Y-62938095D02*
X164156547Y-62876190D01*
X164218452Y-62752380D01*
X164218452Y-61638095D01*
X163351785Y-62938095D02*
X163475595Y-62876190D01*
X163537500Y-62814285D01*
X163599404Y-62690476D01*
X163599404Y-62319047D01*
X163537500Y-62195238D01*
X163475595Y-62133333D01*
X163351785Y-62071428D01*
X163166071Y-62071428D01*
X163042261Y-62133333D01*
X162980357Y-62195238D01*
X162918452Y-62319047D01*
X162918452Y-62690476D01*
X162980357Y-62814285D01*
X163042261Y-62876190D01*
X163166071Y-62938095D01*
X163351785Y-62938095D01*
X162485119Y-62071428D02*
X162237500Y-62938095D01*
X161989880Y-62319047D01*
X161742261Y-62938095D01*
X161494642Y-62071428D01*
X160008928Y-62442857D02*
X159018452Y-62442857D01*
X157161309Y-61638095D02*
X156913690Y-61638095D01*
X156789880Y-61700000D01*
X156666071Y-61823809D01*
X156604166Y-62071428D01*
X156604166Y-62504761D01*
X156666071Y-62752380D01*
X156789880Y-62876190D01*
X156913690Y-62938095D01*
X157161309Y-62938095D01*
X157285119Y-62876190D01*
X157408928Y-62752380D01*
X157470833Y-62504761D01*
X157470833Y-62071428D01*
X157408928Y-61823809D01*
X157285119Y-61700000D01*
X157161309Y-61638095D01*
X156047023Y-61638095D02*
X156047023Y-62690476D01*
X155985119Y-62814285D01*
X155923214Y-62876190D01*
X155799404Y-62938095D01*
X155551785Y-62938095D01*
X155427976Y-62876190D01*
X155366071Y-62814285D01*
X155304166Y-62690476D01*
X155304166Y-61638095D01*
X154870833Y-61638095D02*
X154127976Y-61638095D01*
X154499404Y-62938095D02*
X154499404Y-61638095D01*
X153818452Y-61638095D02*
X153013690Y-61638095D01*
X153447023Y-62133333D01*
X153261309Y-62133333D01*
X153137500Y-62195238D01*
X153075595Y-62257142D01*
X153013690Y-62380952D01*
X153013690Y-62690476D01*
X153075595Y-62814285D01*
X153137500Y-62876190D01*
X153261309Y-62938095D01*
X153632738Y-62938095D01*
X153756547Y-62876190D01*
X153818452Y-62814285D01*
X167251785Y-63838095D02*
X166942261Y-65138095D01*
X166694642Y-64209523D01*
X166447023Y-65138095D01*
X166137500Y-63838095D01*
X165642261Y-65138095D02*
X165642261Y-63838095D01*
X165085119Y-65138095D02*
X165085119Y-64457142D01*
X165147023Y-64333333D01*
X165270833Y-64271428D01*
X165456547Y-64271428D01*
X165580357Y-64333333D01*
X165642261Y-64395238D01*
X164466071Y-65138095D02*
X164466071Y-64271428D01*
X164466071Y-63838095D02*
X164527976Y-63900000D01*
X164466071Y-63961904D01*
X164404166Y-63900000D01*
X164466071Y-63838095D01*
X164466071Y-63961904D01*
X164032738Y-64271428D02*
X163537500Y-64271428D01*
X163847023Y-63838095D02*
X163847023Y-64952380D01*
X163785119Y-65076190D01*
X163661309Y-65138095D01*
X163537500Y-65138095D01*
X162608928Y-65076190D02*
X162732738Y-65138095D01*
X162980357Y-65138095D01*
X163104166Y-65076190D01*
X163166071Y-64952380D01*
X163166071Y-64457142D01*
X163104166Y-64333333D01*
X162980357Y-64271428D01*
X162732738Y-64271428D01*
X162608928Y-64333333D01*
X162547023Y-64457142D01*
X162547023Y-64580952D01*
X163166071Y-64704761D01*
X160999404Y-64642857D02*
X160008928Y-64642857D01*
X158151785Y-63838095D02*
X157904166Y-63838095D01*
X157780357Y-63900000D01*
X157656547Y-64023809D01*
X157594642Y-64271428D01*
X157594642Y-64704761D01*
X157656547Y-64952380D01*
X157780357Y-65076190D01*
X157904166Y-65138095D01*
X158151785Y-65138095D01*
X158275595Y-65076190D01*
X158399404Y-64952380D01*
X158461309Y-64704761D01*
X158461309Y-64271428D01*
X158399404Y-64023809D01*
X158275595Y-63900000D01*
X158151785Y-63838095D01*
X157037500Y-63838095D02*
X157037500Y-64890476D01*
X156975595Y-65014285D01*
X156913690Y-65076190D01*
X156789880Y-65138095D01*
X156542261Y-65138095D01*
X156418452Y-65076190D01*
X156356547Y-65014285D01*
X156294642Y-64890476D01*
X156294642Y-63838095D01*
X155861309Y-63838095D02*
X155118452Y-63838095D01*
X155489880Y-65138095D02*
X155489880Y-63838095D01*
X154127976Y-64271428D02*
X154127976Y-65138095D01*
X154437500Y-63776190D02*
X154747023Y-64704761D01*
X153942261Y-64704761D01*
D10*
X180271428Y-64860714D02*
X180033333Y-65527380D01*
X179795238Y-64860714D01*
X179414285Y-65527380D02*
X179414285Y-64860714D01*
X179414285Y-64527380D02*
X179461904Y-64575000D01*
X179414285Y-64622619D01*
X179366666Y-64575000D01*
X179414285Y-64527380D01*
X179414285Y-64622619D01*
X178938095Y-64860714D02*
X178938095Y-65527380D01*
X178938095Y-64955952D02*
X178890476Y-64908333D01*
X178795238Y-64860714D01*
X178652380Y-64860714D01*
X178557142Y-64908333D01*
X178509523Y-65003571D01*
X178509523Y-65527380D01*
X178176190Y-64860714D02*
X177795238Y-64860714D01*
X178033333Y-64527380D02*
X178033333Y-65384523D01*
X177985714Y-65479761D01*
X177890476Y-65527380D01*
X177795238Y-65527380D01*
X177319047Y-65527380D02*
X177414285Y-65479761D01*
X177461904Y-65384523D01*
X177461904Y-64527380D01*
X176509523Y-65527380D02*
X176509523Y-65003571D01*
X176557142Y-64908333D01*
X176652380Y-64860714D01*
X176842857Y-64860714D01*
X176938095Y-64908333D01*
X176509523Y-65479761D02*
X176604761Y-65527380D01*
X176842857Y-65527380D01*
X176938095Y-65479761D01*
X176985714Y-65384523D01*
X176985714Y-65289285D01*
X176938095Y-65194047D01*
X176842857Y-65146428D01*
X176604761Y-65146428D01*
X176509523Y-65098809D01*
X176033333Y-65527380D02*
X176033333Y-64527380D01*
X176033333Y-64908333D02*
X175938095Y-64860714D01*
X175747619Y-64860714D01*
X175652380Y-64908333D01*
X175604761Y-64955952D01*
X175557142Y-65051190D01*
X175557142Y-65336904D01*
X175604761Y-65432142D01*
X175652380Y-65479761D01*
X175747619Y-65527380D01*
X175938095Y-65527380D01*
X176033333Y-65479761D01*
X175176190Y-65479761D02*
X175080952Y-65527380D01*
X174890476Y-65527380D01*
X174795238Y-65479761D01*
X174747619Y-65384523D01*
X174747619Y-65336904D01*
X174795238Y-65241666D01*
X174890476Y-65194047D01*
X175033333Y-65194047D01*
X175128571Y-65146428D01*
X175176190Y-65051190D01*
X175176190Y-65003571D01*
X175128571Y-64908333D01*
X175033333Y-64860714D01*
X174890476Y-64860714D01*
X174795238Y-64908333D01*
X174319047Y-65432142D02*
X174271428Y-65479761D01*
X174319047Y-65527380D01*
X174366666Y-65479761D01*
X174319047Y-65432142D01*
X174319047Y-65527380D01*
X173414285Y-65479761D02*
X173509523Y-65527380D01*
X173700000Y-65527380D01*
X173795238Y-65479761D01*
X173842857Y-65432142D01*
X173890476Y-65336904D01*
X173890476Y-65051190D01*
X173842857Y-64955952D01*
X173795238Y-64908333D01*
X173700000Y-64860714D01*
X173509523Y-64860714D01*
X173414285Y-64908333D01*
X172842857Y-65527380D02*
X172938095Y-65479761D01*
X172985714Y-65432142D01*
X173033333Y-65336904D01*
X173033333Y-65051190D01*
X172985714Y-64955952D01*
X172938095Y-64908333D01*
X172842857Y-64860714D01*
X172700000Y-64860714D01*
X172604761Y-64908333D01*
X172557142Y-64955952D01*
X172509523Y-65051190D01*
X172509523Y-65336904D01*
X172557142Y-65432142D01*
X172604761Y-65479761D01*
X172700000Y-65527380D01*
X172842857Y-65527380D01*
X172080952Y-65527380D02*
X172080952Y-64860714D01*
X172080952Y-64955952D02*
X172033333Y-64908333D01*
X171938095Y-64860714D01*
X171795238Y-64860714D01*
X171700000Y-64908333D01*
X171652380Y-65003571D01*
X171652380Y-65527380D01*
X171652380Y-65003571D02*
X171604761Y-64908333D01*
X171509523Y-64860714D01*
X171366666Y-64860714D01*
X171271428Y-64908333D01*
X171223809Y-65003571D01*
X171223809Y-65527380D01*
X144080952Y-57271428D02*
X143319047Y-57271428D01*
X143700000Y-57652380D02*
X143700000Y-56890476D01*
X144080952Y-54671428D02*
X143319047Y-54671428D01*
X143961904Y-53452380D02*
X144533333Y-53452380D01*
X144247619Y-53452380D02*
X144247619Y-52452380D01*
X144342857Y-52595238D01*
X144438095Y-52690476D01*
X144533333Y-52738095D01*
X143580952Y-52547619D02*
X143533333Y-52500000D01*
X143438095Y-52452380D01*
X143200000Y-52452380D01*
X143104761Y-52500000D01*
X143057142Y-52547619D01*
X143009523Y-52642857D01*
X143009523Y-52738095D01*
X143057142Y-52880952D01*
X143628571Y-53452380D01*
X143009523Y-53452380D01*
X142723809Y-52452380D02*
X142390476Y-53452380D01*
X142057142Y-52452380D01*
X140961904Y-53452380D02*
X140961904Y-52452380D01*
X140485714Y-53452380D02*
X140485714Y-52452380D01*
X139914285Y-53452380D01*
X139914285Y-52452380D01*
X165476190Y-42002380D02*
X165476190Y-41002380D01*
X165047619Y-41954761D02*
X164904761Y-42002380D01*
X164666666Y-42002380D01*
X164571428Y-41954761D01*
X164523809Y-41907142D01*
X164476190Y-41811904D01*
X164476190Y-41716666D01*
X164523809Y-41621428D01*
X164571428Y-41573809D01*
X164666666Y-41526190D01*
X164857142Y-41478571D01*
X164952380Y-41430952D01*
X165000000Y-41383333D01*
X165047619Y-41288095D01*
X165047619Y-41192857D01*
X165000000Y-41097619D01*
X164952380Y-41050000D01*
X164857142Y-41002380D01*
X164619047Y-41002380D01*
X164476190Y-41050000D01*
X163476190Y-41907142D02*
X163523809Y-41954761D01*
X163666666Y-42002380D01*
X163761904Y-42002380D01*
X163904761Y-41954761D01*
X164000000Y-41859523D01*
X164047619Y-41764285D01*
X164095238Y-41573809D01*
X164095238Y-41430952D01*
X164047619Y-41240476D01*
X164000000Y-41145238D01*
X163904761Y-41050000D01*
X163761904Y-41002380D01*
X163666666Y-41002380D01*
X163523809Y-41050000D01*
X163476190Y-41097619D01*
X163047619Y-42002380D02*
X163047619Y-41002380D01*
X162666666Y-41002380D01*
X162571428Y-41050000D01*
X162523809Y-41097619D01*
X162476190Y-41192857D01*
X162476190Y-41335714D01*
X162523809Y-41430952D01*
X162571428Y-41478571D01*
X162666666Y-41526190D01*
X163047619Y-41526190D01*
X178762023Y-47104761D02*
X178619166Y-47152380D01*
X178381071Y-47152380D01*
X178285833Y-47104761D01*
X178238214Y-47057142D01*
X178190595Y-46961904D01*
X178190595Y-46866666D01*
X178238214Y-46771428D01*
X178285833Y-46723809D01*
X178381071Y-46676190D01*
X178571547Y-46628571D01*
X178666785Y-46580952D01*
X178714404Y-46533333D01*
X178762023Y-46438095D01*
X178762023Y-46342857D01*
X178714404Y-46247619D01*
X178666785Y-46200000D01*
X178571547Y-46152380D01*
X178333452Y-46152380D01*
X178190595Y-46200000D01*
X177762023Y-47152380D02*
X177762023Y-46152380D01*
X177381071Y-46152380D01*
X177285833Y-46200000D01*
X177238214Y-46247619D01*
X177190595Y-46342857D01*
X177190595Y-46485714D01*
X177238214Y-46580952D01*
X177285833Y-46628571D01*
X177381071Y-46676190D01*
X177762023Y-46676190D01*
X176762023Y-47152380D02*
X176762023Y-46152380D01*
X175523928Y-47152380D02*
X175523928Y-46152380D01*
X174476309Y-47057142D02*
X174523928Y-47104761D01*
X174666785Y-47152380D01*
X174762023Y-47152380D01*
X174904880Y-47104761D01*
X175000119Y-47009523D01*
X175047738Y-46914285D01*
X175095357Y-46723809D01*
X175095357Y-46580952D01*
X175047738Y-46390476D01*
X175000119Y-46295238D01*
X174904880Y-46200000D01*
X174762023Y-46152380D01*
X174666785Y-46152380D01*
X174523928Y-46200000D01*
X174476309Y-46247619D01*
X174095357Y-47104761D02*
X173952500Y-47152380D01*
X173714404Y-47152380D01*
X173619166Y-47104761D01*
X173571547Y-47057142D01*
X173523928Y-46961904D01*
X173523928Y-46866666D01*
X173571547Y-46771428D01*
X173619166Y-46723809D01*
X173714404Y-46676190D01*
X173904880Y-46628571D01*
X174000119Y-46580952D01*
X174047738Y-46533333D01*
X174095357Y-46438095D01*
X174095357Y-46342857D01*
X174047738Y-46247619D01*
X174000119Y-46200000D01*
X173904880Y-46152380D01*
X173666785Y-46152380D01*
X173523928Y-46200000D01*
X173095357Y-47152380D02*
X173095357Y-46152380D01*
X172714404Y-46152380D01*
X172619166Y-46200000D01*
X172571547Y-46247619D01*
X172523928Y-46342857D01*
X172523928Y-46485714D01*
X172571547Y-46580952D01*
X172619166Y-46628571D01*
X172714404Y-46676190D01*
X173095357Y-46676190D01*
X172095357Y-47057142D02*
X172047738Y-47104761D01*
X172095357Y-47152380D01*
X172142976Y-47104761D01*
X172095357Y-47057142D01*
X172095357Y-47152380D01*
X172095357Y-46533333D02*
X172047738Y-46580952D01*
X172095357Y-46628571D01*
X172142976Y-46580952D01*
X172095357Y-46533333D01*
X172095357Y-46628571D01*
X178190595Y-48802380D02*
X178762023Y-48802380D01*
X178476309Y-48802380D02*
X178476309Y-47802380D01*
X178571547Y-47945238D01*
X178666785Y-48040476D01*
X178762023Y-48088095D01*
X177000119Y-48421428D02*
X176238214Y-48421428D01*
X175000119Y-48802380D02*
X175000119Y-47802380D01*
X174666785Y-48516666D01*
X174333452Y-47802380D01*
X174333452Y-48802380D01*
X173857261Y-48802380D02*
X173857261Y-47802380D01*
X173428690Y-48754761D02*
X173285833Y-48802380D01*
X173047738Y-48802380D01*
X172952500Y-48754761D01*
X172904880Y-48707142D01*
X172857261Y-48611904D01*
X172857261Y-48516666D01*
X172904880Y-48421428D01*
X172952500Y-48373809D01*
X173047738Y-48326190D01*
X173238214Y-48278571D01*
X173333452Y-48230952D01*
X173381071Y-48183333D01*
X173428690Y-48088095D01*
X173428690Y-47992857D01*
X173381071Y-47897619D01*
X173333452Y-47850000D01*
X173238214Y-47802380D01*
X173000119Y-47802380D01*
X172857261Y-47850000D01*
X172238214Y-47802380D02*
X172047738Y-47802380D01*
X171952500Y-47850000D01*
X171857261Y-47945238D01*
X171809642Y-48135714D01*
X171809642Y-48469047D01*
X171857261Y-48659523D01*
X171952500Y-48754761D01*
X172047738Y-48802380D01*
X172238214Y-48802380D01*
X172333452Y-48754761D01*
X172428690Y-48659523D01*
X172476309Y-48469047D01*
X172476309Y-48135714D01*
X172428690Y-47945238D01*
X172333452Y-47850000D01*
X172238214Y-47802380D01*
X178762023Y-49547619D02*
X178714404Y-49500000D01*
X178619166Y-49452380D01*
X178381071Y-49452380D01*
X178285833Y-49500000D01*
X178238214Y-49547619D01*
X178190595Y-49642857D01*
X178190595Y-49738095D01*
X178238214Y-49880952D01*
X178809642Y-50452380D01*
X178190595Y-50452380D01*
X177000119Y-50071428D02*
X176238214Y-50071428D01*
X175095357Y-49452380D02*
X174476309Y-49452380D01*
X174809642Y-49833333D01*
X174666785Y-49833333D01*
X174571547Y-49880952D01*
X174523928Y-49928571D01*
X174476309Y-50023809D01*
X174476309Y-50261904D01*
X174523928Y-50357142D01*
X174571547Y-50404761D01*
X174666785Y-50452380D01*
X174952500Y-50452380D01*
X175047738Y-50404761D01*
X175095357Y-50357142D01*
X174047738Y-50357142D02*
X174000119Y-50404761D01*
X174047738Y-50452380D01*
X174095357Y-50404761D01*
X174047738Y-50357142D01*
X174047738Y-50452380D01*
X173666785Y-49452380D02*
X173047738Y-49452380D01*
X173381071Y-49833333D01*
X173238214Y-49833333D01*
X173142976Y-49880952D01*
X173095357Y-49928571D01*
X173047738Y-50023809D01*
X173047738Y-50261904D01*
X173095357Y-50357142D01*
X173142976Y-50404761D01*
X173238214Y-50452380D01*
X173523928Y-50452380D01*
X173619166Y-50404761D01*
X173666785Y-50357142D01*
X172762023Y-49452380D02*
X172428690Y-50452380D01*
X172095357Y-49452380D01*
X171762023Y-50071428D02*
X171000119Y-50071428D01*
X171381071Y-50452380D02*
X171381071Y-49690476D01*
X178809642Y-51102380D02*
X178190595Y-51102380D01*
X178523928Y-51483333D01*
X178381071Y-51483333D01*
X178285833Y-51530952D01*
X178238214Y-51578571D01*
X178190595Y-51673809D01*
X178190595Y-51911904D01*
X178238214Y-52007142D01*
X178285833Y-52054761D01*
X178381071Y-52102380D01*
X178666785Y-52102380D01*
X178762023Y-52054761D01*
X178809642Y-52007142D01*
X177000119Y-51721428D02*
X176238214Y-51721428D01*
X175047738Y-52054761D02*
X174904880Y-52102380D01*
X174666785Y-52102380D01*
X174571547Y-52054761D01*
X174523928Y-52007142D01*
X174476309Y-51911904D01*
X174476309Y-51816666D01*
X174523928Y-51721428D01*
X174571547Y-51673809D01*
X174666785Y-51626190D01*
X174857261Y-51578571D01*
X174952500Y-51530952D01*
X175000119Y-51483333D01*
X175047738Y-51388095D01*
X175047738Y-51292857D01*
X175000119Y-51197619D01*
X174952500Y-51150000D01*
X174857261Y-51102380D01*
X174619166Y-51102380D01*
X174476309Y-51150000D01*
X173476309Y-52007142D02*
X173523928Y-52054761D01*
X173666785Y-52102380D01*
X173762023Y-52102380D01*
X173904880Y-52054761D01*
X174000119Y-51959523D01*
X174047738Y-51864285D01*
X174095357Y-51673809D01*
X174095357Y-51530952D01*
X174047738Y-51340476D01*
X174000119Y-51245238D01*
X173904880Y-51150000D01*
X173762023Y-51102380D01*
X173666785Y-51102380D01*
X173523928Y-51150000D01*
X173476309Y-51197619D01*
X173047738Y-52102380D02*
X173047738Y-51102380D01*
X172476309Y-52102380D02*
X172904880Y-51530952D01*
X172476309Y-51102380D02*
X173047738Y-51673809D01*
X178285833Y-53085714D02*
X178285833Y-53752380D01*
X178523928Y-52704761D02*
X178762023Y-53419047D01*
X178142976Y-53419047D01*
X177000119Y-53371428D02*
X176238214Y-53371428D01*
X175000119Y-53752380D02*
X175000119Y-52752380D01*
X174666785Y-53466666D01*
X174333452Y-52752380D01*
X174333452Y-53752380D01*
X173666785Y-52752380D02*
X173476309Y-52752380D01*
X173381071Y-52800000D01*
X173285833Y-52895238D01*
X173238214Y-53085714D01*
X173238214Y-53419047D01*
X173285833Y-53609523D01*
X173381071Y-53704761D01*
X173476309Y-53752380D01*
X173666785Y-53752380D01*
X173762023Y-53704761D01*
X173857261Y-53609523D01*
X173904880Y-53419047D01*
X173904880Y-53085714D01*
X173857261Y-52895238D01*
X173762023Y-52800000D01*
X173666785Y-52752380D01*
X172857261Y-53704761D02*
X172714404Y-53752380D01*
X172476309Y-53752380D01*
X172381071Y-53704761D01*
X172333452Y-53657142D01*
X172285833Y-53561904D01*
X172285833Y-53466666D01*
X172333452Y-53371428D01*
X172381071Y-53323809D01*
X172476309Y-53276190D01*
X172666785Y-53228571D01*
X172762023Y-53180952D01*
X172809642Y-53133333D01*
X172857261Y-53038095D01*
X172857261Y-52942857D01*
X172809642Y-52847619D01*
X172762023Y-52800000D01*
X172666785Y-52752380D01*
X172428690Y-52752380D01*
X172285833Y-52800000D01*
X171857261Y-53752380D02*
X171857261Y-52752380D01*
X178238214Y-54402380D02*
X178714404Y-54402380D01*
X178762023Y-54878571D01*
X178714404Y-54830952D01*
X178619166Y-54783333D01*
X178381071Y-54783333D01*
X178285833Y-54830952D01*
X178238214Y-54878571D01*
X178190595Y-54973809D01*
X178190595Y-55211904D01*
X178238214Y-55307142D01*
X178285833Y-55354761D01*
X178381071Y-55402380D01*
X178619166Y-55402380D01*
X178714404Y-55354761D01*
X178762023Y-55307142D01*
X177000119Y-55021428D02*
X176238214Y-55021428D01*
X175047738Y-55354761D02*
X174904880Y-55402380D01*
X174666785Y-55402380D01*
X174571547Y-55354761D01*
X174523928Y-55307142D01*
X174476309Y-55211904D01*
X174476309Y-55116666D01*
X174523928Y-55021428D01*
X174571547Y-54973809D01*
X174666785Y-54926190D01*
X174857261Y-54878571D01*
X174952500Y-54830952D01*
X175000119Y-54783333D01*
X175047738Y-54688095D01*
X175047738Y-54592857D01*
X175000119Y-54497619D01*
X174952500Y-54450000D01*
X174857261Y-54402380D01*
X174619166Y-54402380D01*
X174476309Y-54450000D01*
X174095357Y-55354761D02*
X173952500Y-55402380D01*
X173714404Y-55402380D01*
X173619166Y-55354761D01*
X173571547Y-55307142D01*
X173523928Y-55211904D01*
X173523928Y-55116666D01*
X173571547Y-55021428D01*
X173619166Y-54973809D01*
X173714404Y-54926190D01*
X173904880Y-54878571D01*
X174000119Y-54830952D01*
X174047738Y-54783333D01*
X174095357Y-54688095D01*
X174095357Y-54592857D01*
X174047738Y-54497619D01*
X174000119Y-54450000D01*
X173904880Y-54402380D01*
X173666785Y-54402380D01*
X173523928Y-54450000D01*
X173095357Y-55402380D02*
X173095357Y-54402380D01*
X172523928Y-55402380D01*
X172523928Y-54402380D01*
X178285833Y-56052380D02*
X178476309Y-56052380D01*
X178571547Y-56100000D01*
X178619166Y-56147619D01*
X178714404Y-56290476D01*
X178762023Y-56480952D01*
X178762023Y-56861904D01*
X178714404Y-56957142D01*
X178666785Y-57004761D01*
X178571547Y-57052380D01*
X178381071Y-57052380D01*
X178285833Y-57004761D01*
X178238214Y-56957142D01*
X178190595Y-56861904D01*
X178190595Y-56623809D01*
X178238214Y-56528571D01*
X178285833Y-56480952D01*
X178381071Y-56433333D01*
X178571547Y-56433333D01*
X178666785Y-56480952D01*
X178714404Y-56528571D01*
X178762023Y-56623809D01*
X177000119Y-56671428D02*
X176238214Y-56671428D01*
X174476309Y-56100000D02*
X174571547Y-56052380D01*
X174714404Y-56052380D01*
X174857261Y-56100000D01*
X174952500Y-56195238D01*
X175000119Y-56290476D01*
X175047738Y-56480952D01*
X175047738Y-56623809D01*
X175000119Y-56814285D01*
X174952500Y-56909523D01*
X174857261Y-57004761D01*
X174714404Y-57052380D01*
X174619166Y-57052380D01*
X174476309Y-57004761D01*
X174428690Y-56957142D01*
X174428690Y-56623809D01*
X174619166Y-56623809D01*
X174000119Y-57052380D02*
X174000119Y-56052380D01*
X173428690Y-57052380D01*
X173428690Y-56052380D01*
X172952500Y-57052380D02*
X172952500Y-56052380D01*
X172714404Y-56052380D01*
X172571547Y-56100000D01*
X172476309Y-56195238D01*
X172428690Y-56290476D01*
X172381071Y-56480952D01*
X172381071Y-56623809D01*
X172428690Y-56814285D01*
X172476309Y-56909523D01*
X172571547Y-57004761D01*
X172714404Y-57052380D01*
X172952500Y-57052380D01*
X157333333Y-38202380D02*
X156714285Y-38202380D01*
X157047619Y-38583333D01*
X156904761Y-38583333D01*
X156809523Y-38630952D01*
X156761904Y-38678571D01*
X156714285Y-38773809D01*
X156714285Y-39011904D01*
X156761904Y-39107142D01*
X156809523Y-39154761D01*
X156904761Y-39202380D01*
X157190476Y-39202380D01*
X157285714Y-39154761D01*
X157333333Y-39107142D01*
X162011904Y-39352380D02*
X162488095Y-39352380D01*
X162535714Y-39828571D01*
X162488095Y-39780952D01*
X162392857Y-39733333D01*
X162154761Y-39733333D01*
X162059523Y-39780952D01*
X162011904Y-39828571D01*
X161964285Y-39923809D01*
X161964285Y-40161904D01*
X162011904Y-40257142D01*
X162059523Y-40304761D01*
X162154761Y-40352380D01*
X162392857Y-40352380D01*
X162488095Y-40304761D01*
X162535714Y-40257142D01*
X160409523Y-43802380D02*
X160600000Y-43802380D01*
X160695238Y-43850000D01*
X160742857Y-43897619D01*
X160838095Y-44040476D01*
X160885714Y-44230952D01*
X160885714Y-44611904D01*
X160838095Y-44707142D01*
X160790476Y-44754761D01*
X160695238Y-44802380D01*
X160504761Y-44802380D01*
X160409523Y-44754761D01*
X160361904Y-44707142D01*
X160314285Y-44611904D01*
X160314285Y-44373809D01*
X160361904Y-44278571D01*
X160409523Y-44230952D01*
X160504761Y-44183333D01*
X160695238Y-44183333D01*
X160790476Y-44230952D01*
X160838095Y-44278571D01*
X160885714Y-44373809D01*
X157859523Y-44185714D02*
X157859523Y-44852380D01*
X158097619Y-43804761D02*
X158335714Y-44519047D01*
X157716666Y-44519047D01*
X155735714Y-43997619D02*
X155688095Y-43950000D01*
X155592857Y-43902380D01*
X155354761Y-43902380D01*
X155259523Y-43950000D01*
X155211904Y-43997619D01*
X155164285Y-44092857D01*
X155164285Y-44188095D01*
X155211904Y-44330952D01*
X155783333Y-44902380D01*
X155164285Y-44902380D01*
X153014285Y-40302380D02*
X153585714Y-40302380D01*
X153300000Y-40302380D02*
X153300000Y-39302380D01*
X153395238Y-39445238D01*
X153490476Y-39540476D01*
X153585714Y-39588095D01*
X170497619Y-42252380D02*
X170830952Y-41776190D01*
X171069047Y-42252380D02*
X171069047Y-41252380D01*
X170688095Y-41252380D01*
X170592857Y-41300000D01*
X170545238Y-41347619D01*
X170497619Y-41442857D01*
X170497619Y-41585714D01*
X170545238Y-41680952D01*
X170592857Y-41728571D01*
X170688095Y-41776190D01*
X171069047Y-41776190D01*
X170211904Y-41252380D02*
X169640476Y-41252380D01*
X169926190Y-42252380D02*
X169926190Y-41252380D01*
X169354761Y-42204761D02*
X169211904Y-42252380D01*
X168973809Y-42252380D01*
X168878571Y-42204761D01*
X168830952Y-42157142D01*
X168783333Y-42061904D01*
X168783333Y-41966666D01*
X168830952Y-41871428D01*
X168878571Y-41823809D01*
X168973809Y-41776190D01*
X169164285Y-41728571D01*
X169259523Y-41680952D01*
X169307142Y-41633333D01*
X169354761Y-41538095D01*
X169354761Y-41442857D01*
X169307142Y-41347619D01*
X169259523Y-41300000D01*
X169164285Y-41252380D01*
X168926190Y-41252380D01*
X168783333Y-41300000D01*
X173297619Y-42157142D02*
X173345238Y-42204761D01*
X173488095Y-42252380D01*
X173583333Y-42252380D01*
X173726190Y-42204761D01*
X173821428Y-42109523D01*
X173869047Y-42014285D01*
X173916666Y-41823809D01*
X173916666Y-41680952D01*
X173869047Y-41490476D01*
X173821428Y-41395238D01*
X173726190Y-41300000D01*
X173583333Y-41252380D01*
X173488095Y-41252380D01*
X173345238Y-41300000D01*
X173297619Y-41347619D01*
X173011904Y-41252380D02*
X172440476Y-41252380D01*
X172726190Y-42252380D02*
X172726190Y-41252380D01*
X172154761Y-42204761D02*
X172011904Y-42252380D01*
X171773809Y-42252380D01*
X171678571Y-42204761D01*
X171630952Y-42157142D01*
X171583333Y-42061904D01*
X171583333Y-41966666D01*
X171630952Y-41871428D01*
X171678571Y-41823809D01*
X171773809Y-41776190D01*
X171964285Y-41728571D01*
X172059523Y-41680952D01*
X172107142Y-41633333D01*
X172154761Y-41538095D01*
X172154761Y-41442857D01*
X172107142Y-41347619D01*
X172059523Y-41300000D01*
X171964285Y-41252380D01*
X171726190Y-41252380D01*
X171583333Y-41300000D01*
X175940476Y-41402380D02*
X175369047Y-41402380D01*
X175654761Y-42402380D02*
X175654761Y-41402380D01*
X175130952Y-42402380D02*
X174607142Y-41735714D01*
X175130952Y-41735714D02*
X174607142Y-42402380D01*
X177795238Y-42502380D02*
X178128571Y-42026190D01*
X178366666Y-42502380D02*
X178366666Y-41502380D01*
X177985714Y-41502380D01*
X177890476Y-41550000D01*
X177842857Y-41597619D01*
X177795238Y-41692857D01*
X177795238Y-41835714D01*
X177842857Y-41930952D01*
X177890476Y-41978571D01*
X177985714Y-42026190D01*
X178366666Y-42026190D01*
X177461904Y-42502380D02*
X176938095Y-41835714D01*
X177461904Y-41835714D02*
X176938095Y-42502380D01*
X144533333Y-64652380D02*
X143914285Y-64652380D01*
X144247619Y-65033333D01*
X144104761Y-65033333D01*
X144009523Y-65080952D01*
X143961904Y-65128571D01*
X143914285Y-65223809D01*
X143914285Y-65461904D01*
X143961904Y-65557142D01*
X144009523Y-65604761D01*
X144104761Y-65652380D01*
X144390476Y-65652380D01*
X144485714Y-65604761D01*
X144533333Y-65557142D01*
X147035714Y-58797619D02*
X146988095Y-58750000D01*
X146892857Y-58702380D01*
X146654761Y-58702380D01*
X146559523Y-58750000D01*
X146511904Y-58797619D01*
X146464285Y-58892857D01*
X146464285Y-58988095D01*
X146511904Y-59130952D01*
X147083333Y-59702380D01*
X146464285Y-59702380D01*
X146414285Y-65652380D02*
X146985714Y-65652380D01*
X146700000Y-65652380D02*
X146700000Y-64652380D01*
X146795238Y-64795238D01*
X146890476Y-64890476D01*
X146985714Y-64938095D01*
X144059523Y-59085714D02*
X144059523Y-59752380D01*
X144297619Y-58704761D02*
X144535714Y-59419047D01*
X143916666Y-59419047D01*
X139750000Y-61538095D02*
X139702380Y-61442857D01*
X139702380Y-61300000D01*
X139750000Y-61157142D01*
X139845238Y-61061904D01*
X139940476Y-61014285D01*
X140130952Y-60966666D01*
X140273809Y-60966666D01*
X140464285Y-61014285D01*
X140559523Y-61061904D01*
X140654761Y-61157142D01*
X140702380Y-61300000D01*
X140702380Y-61395238D01*
X140654761Y-61538095D01*
X140607142Y-61585714D01*
X140273809Y-61585714D01*
X140273809Y-61395238D01*
X140702380Y-62014285D02*
X139702380Y-62014285D01*
X140702380Y-62585714D01*
X139702380Y-62585714D01*
X140702380Y-63061904D02*
X139702380Y-63061904D01*
X139702380Y-63300000D01*
X139750000Y-63442857D01*
X139845238Y-63538095D01*
X139940476Y-63585714D01*
X140130952Y-63633333D01*
X140273809Y-63633333D01*
X140464285Y-63585714D01*
X140559523Y-63538095D01*
X140654761Y-63442857D01*
X140702380Y-63300000D01*
X140702380Y-63061904D01*
D11*
X167127976Y-47538095D02*
X167127976Y-46238095D01*
X166508928Y-46671428D02*
X166508928Y-47538095D01*
X166508928Y-46795238D02*
X166447023Y-46733333D01*
X166323214Y-46671428D01*
X166137500Y-46671428D01*
X166013690Y-46733333D01*
X165951785Y-46857142D01*
X165951785Y-47538095D01*
X165332738Y-46671428D02*
X165332738Y-47971428D01*
X165332738Y-46733333D02*
X165208928Y-46671428D01*
X164961309Y-46671428D01*
X164837500Y-46733333D01*
X164775595Y-46795238D01*
X164713690Y-46919047D01*
X164713690Y-47290476D01*
X164775595Y-47414285D01*
X164837500Y-47476190D01*
X164961309Y-47538095D01*
X165208928Y-47538095D01*
X165332738Y-47476190D01*
X163599404Y-46671428D02*
X163599404Y-47538095D01*
X164156547Y-46671428D02*
X164156547Y-47352380D01*
X164094642Y-47476190D01*
X163970833Y-47538095D01*
X163785119Y-47538095D01*
X163661309Y-47476190D01*
X163599404Y-47414285D01*
X163166071Y-46671428D02*
X162670833Y-46671428D01*
X162980357Y-46238095D02*
X162980357Y-47352380D01*
X162918452Y-47476190D01*
X162794642Y-47538095D01*
X162670833Y-47538095D01*
X160504166Y-47414285D02*
X160566071Y-47476190D01*
X160751785Y-47538095D01*
X160875595Y-47538095D01*
X161061309Y-47476190D01*
X161185119Y-47352380D01*
X161247023Y-47228571D01*
X161308928Y-46980952D01*
X161308928Y-46795238D01*
X161247023Y-46547619D01*
X161185119Y-46423809D01*
X161061309Y-46300000D01*
X160875595Y-46238095D01*
X160751785Y-46238095D01*
X160566071Y-46300000D01*
X160504166Y-46361904D01*
X159761309Y-47538095D02*
X159885119Y-47476190D01*
X159947023Y-47414285D01*
X160008928Y-47290476D01*
X160008928Y-46919047D01*
X159947023Y-46795238D01*
X159885119Y-46733333D01*
X159761309Y-46671428D01*
X159575595Y-46671428D01*
X159451785Y-46733333D01*
X159389880Y-46795238D01*
X159327976Y-46919047D01*
X159327976Y-47290476D01*
X159389880Y-47414285D01*
X159451785Y-47476190D01*
X159575595Y-47538095D01*
X159761309Y-47538095D01*
X158770833Y-46671428D02*
X158770833Y-47538095D01*
X158770833Y-46795238D02*
X158708928Y-46733333D01*
X158585119Y-46671428D01*
X158399404Y-46671428D01*
X158275595Y-46733333D01*
X158213690Y-46857142D01*
X158213690Y-47538095D01*
X157594642Y-46671428D02*
X157594642Y-47538095D01*
X157594642Y-46795238D02*
X157532738Y-46733333D01*
X157408928Y-46671428D01*
X157223214Y-46671428D01*
X157099404Y-46733333D01*
X157037500Y-46857142D01*
X157037500Y-47538095D01*
X155923214Y-47476190D02*
X156047023Y-47538095D01*
X156294642Y-47538095D01*
X156418452Y-47476190D01*
X156480357Y-47352380D01*
X156480357Y-46857142D01*
X156418452Y-46733333D01*
X156294642Y-46671428D01*
X156047023Y-46671428D01*
X155923214Y-46733333D01*
X155861309Y-46857142D01*
X155861309Y-46980952D01*
X156480357Y-47104761D01*
X154747023Y-47476190D02*
X154870833Y-47538095D01*
X155118452Y-47538095D01*
X155242261Y-47476190D01*
X155304166Y-47414285D01*
X155366071Y-47290476D01*
X155366071Y-46919047D01*
X155304166Y-46795238D01*
X155242261Y-46733333D01*
X155118452Y-46671428D01*
X154870833Y-46671428D01*
X154747023Y-46733333D01*
X154375595Y-46671428D02*
X153880357Y-46671428D01*
X154189880Y-46238095D02*
X154189880Y-47352380D01*
X154127976Y-47476190D01*
X154004166Y-47538095D01*
X153880357Y-47538095D01*
X153447023Y-47538095D02*
X153447023Y-46671428D01*
X153447023Y-46238095D02*
X153508928Y-46300000D01*
X153447023Y-46361904D01*
X153385119Y-46300000D01*
X153447023Y-46238095D01*
X153447023Y-46361904D01*
X152642261Y-47538095D02*
X152766071Y-47476190D01*
X152827976Y-47414285D01*
X152889880Y-47290476D01*
X152889880Y-46919047D01*
X152827976Y-46795238D01*
X152766071Y-46733333D01*
X152642261Y-46671428D01*
X152456547Y-46671428D01*
X152332738Y-46733333D01*
X152270833Y-46795238D01*
X152208928Y-46919047D01*
X152208928Y-47290476D01*
X152270833Y-47414285D01*
X152332738Y-47476190D01*
X152456547Y-47538095D01*
X152642261Y-47538095D01*
X151651785Y-46671428D02*
X151651785Y-47538095D01*
X151651785Y-46795238D02*
X151589880Y-46733333D01*
X151466071Y-46671428D01*
X151280357Y-46671428D01*
X151156547Y-46733333D01*
X151094642Y-46857142D01*
X151094642Y-47538095D01*
X150537500Y-47476190D02*
X150413690Y-47538095D01*
X150166071Y-47538095D01*
X150042261Y-47476190D01*
X149980357Y-47352380D01*
X149980357Y-47290476D01*
X150042261Y-47166666D01*
X150166071Y-47104761D01*
X150351785Y-47104761D01*
X150475595Y-47042857D01*
X150537500Y-46919047D01*
X150537500Y-46857142D01*
X150475595Y-46733333D01*
X150351785Y-46671428D01*
X150166071Y-46671428D01*
X150042261Y-46733333D01*
X149423214Y-47414285D02*
X149361309Y-47476190D01*
X149423214Y-47538095D01*
X149485119Y-47476190D01*
X149423214Y-47414285D01*
X149423214Y-47538095D01*
X149423214Y-46733333D02*
X149361309Y-46795238D01*
X149423214Y-46857142D01*
X149485119Y-46795238D01*
X149423214Y-46733333D01*
X149423214Y-46857142D01*
X166385119Y-49738095D02*
X166818452Y-49119047D01*
X167127976Y-49738095D02*
X167127976Y-48438095D01*
X166632738Y-48438095D01*
X166508928Y-48500000D01*
X166447023Y-48561904D01*
X166385119Y-48685714D01*
X166385119Y-48871428D01*
X166447023Y-48995238D01*
X166508928Y-49057142D01*
X166632738Y-49119047D01*
X167127976Y-49119047D01*
X165332738Y-49676190D02*
X165456547Y-49738095D01*
X165704166Y-49738095D01*
X165827976Y-49676190D01*
X165889880Y-49552380D01*
X165889880Y-49057142D01*
X165827976Y-48933333D01*
X165704166Y-48871428D01*
X165456547Y-48871428D01*
X165332738Y-48933333D01*
X165270833Y-49057142D01*
X165270833Y-49180952D01*
X165889880Y-49304761D01*
X164156547Y-49738095D02*
X164156547Y-48438095D01*
X164156547Y-49676190D02*
X164280357Y-49738095D01*
X164527976Y-49738095D01*
X164651785Y-49676190D01*
X164713690Y-49614285D01*
X164775595Y-49490476D01*
X164775595Y-49119047D01*
X164713690Y-48995238D01*
X164651785Y-48933333D01*
X164527976Y-48871428D01*
X164280357Y-48871428D01*
X164156547Y-48933333D01*
X162547023Y-49242857D02*
X161556547Y-49242857D01*
X159947023Y-49242857D02*
X158956547Y-49242857D01*
X159451785Y-49738095D02*
X159451785Y-48747619D01*
X157656547Y-49738095D02*
X158399404Y-49738095D01*
X158027976Y-49738095D02*
X158027976Y-48438095D01*
X158151785Y-48623809D01*
X158275595Y-48747619D01*
X158399404Y-48809523D01*
X157161309Y-48561904D02*
X157099404Y-48500000D01*
X156975595Y-48438095D01*
X156666071Y-48438095D01*
X156542261Y-48500000D01*
X156480357Y-48561904D01*
X156418452Y-48685714D01*
X156418452Y-48809523D01*
X156480357Y-48995238D01*
X157223214Y-49738095D01*
X156418452Y-49738095D01*
X156047023Y-48438095D02*
X155613690Y-49738095D01*
X155180357Y-48438095D01*
X153756547Y-49738095D02*
X153756547Y-48871428D01*
X153756547Y-48438095D02*
X153818452Y-48500000D01*
X153756547Y-48561904D01*
X153694642Y-48500000D01*
X153756547Y-48438095D01*
X153756547Y-48561904D01*
X153137500Y-48871428D02*
X153137500Y-49738095D01*
X153137500Y-48995238D02*
X153075595Y-48933333D01*
X152951785Y-48871428D01*
X152766071Y-48871428D01*
X152642261Y-48933333D01*
X152580357Y-49057142D01*
X152580357Y-49738095D01*
X150599404Y-50233333D02*
X150661309Y-50171428D01*
X150785119Y-49985714D01*
X150847023Y-49861904D01*
X150908928Y-49676190D01*
X150970833Y-49366666D01*
X150970833Y-49119047D01*
X150908928Y-48809523D01*
X150847023Y-48623809D01*
X150785119Y-48500000D01*
X150661309Y-48314285D01*
X150599404Y-48252380D01*
X149423214Y-49738095D02*
X150166071Y-49738095D01*
X149794642Y-49738095D02*
X149794642Y-48438095D01*
X149918452Y-48623809D01*
X150042261Y-48747619D01*
X150166071Y-48809523D01*
X148680357Y-48995238D02*
X148804166Y-48933333D01*
X148866071Y-48871428D01*
X148927976Y-48747619D01*
X148927976Y-48685714D01*
X148866071Y-48561904D01*
X148804166Y-48500000D01*
X148680357Y-48438095D01*
X148432738Y-48438095D01*
X148308928Y-48500000D01*
X148247023Y-48561904D01*
X148185119Y-48685714D01*
X148185119Y-48747619D01*
X148247023Y-48871428D01*
X148308928Y-48933333D01*
X148432738Y-48995238D01*
X148680357Y-48995238D01*
X148804166Y-49057142D01*
X148866071Y-49119047D01*
X148927976Y-49242857D01*
X148927976Y-49490476D01*
X148866071Y-49614285D01*
X148804166Y-49676190D01*
X148680357Y-49738095D01*
X148432738Y-49738095D01*
X148308928Y-49676190D01*
X148247023Y-49614285D01*
X148185119Y-49490476D01*
X148185119Y-49242857D01*
X148247023Y-49119047D01*
X148308928Y-49057142D01*
X148432738Y-48995238D01*
X147813690Y-48438095D02*
X147380357Y-49738095D01*
X146947023Y-48438095D01*
X145523214Y-49738095D02*
X145523214Y-48438095D01*
X145089880Y-49366666D01*
X144656547Y-48438095D01*
X144656547Y-49738095D01*
X144099404Y-49366666D02*
X143480357Y-49366666D01*
X144223214Y-49738095D02*
X143789880Y-48438095D01*
X143356547Y-49738095D01*
X143047023Y-48438095D02*
X142180357Y-49738095D01*
X142180357Y-48438095D02*
X143047023Y-49738095D01*
X141808928Y-50233333D02*
X141747023Y-50171428D01*
X141623214Y-49985714D01*
X141561309Y-49861904D01*
X141499404Y-49676190D01*
X141437500Y-49366666D01*
X141437500Y-49119047D01*
X141499404Y-48809523D01*
X141561309Y-48623809D01*
X141623214Y-48500000D01*
X141747023Y-48314285D01*
X141808928Y-48252380D01*
X166694642Y-51257142D02*
X166508928Y-51319047D01*
X166447023Y-51380952D01*
X166385119Y-51504761D01*
X166385119Y-51690476D01*
X166447023Y-51814285D01*
X166508928Y-51876190D01*
X166632738Y-51938095D01*
X167127976Y-51938095D01*
X167127976Y-50638095D01*
X166694642Y-50638095D01*
X166570833Y-50700000D01*
X166508928Y-50761904D01*
X166447023Y-50885714D01*
X166447023Y-51009523D01*
X166508928Y-51133333D01*
X166570833Y-51195238D01*
X166694642Y-51257142D01*
X167127976Y-51257142D01*
X165642261Y-51938095D02*
X165766071Y-51876190D01*
X165827976Y-51752380D01*
X165827976Y-50638095D01*
X164589880Y-51938095D02*
X164589880Y-51257142D01*
X164651785Y-51133333D01*
X164775595Y-51071428D01*
X165023214Y-51071428D01*
X165147023Y-51133333D01*
X164589880Y-51876190D02*
X164713690Y-51938095D01*
X165023214Y-51938095D01*
X165147023Y-51876190D01*
X165208928Y-51752380D01*
X165208928Y-51628571D01*
X165147023Y-51504761D01*
X165023214Y-51442857D01*
X164713690Y-51442857D01*
X164589880Y-51380952D01*
X163413690Y-51876190D02*
X163537500Y-51938095D01*
X163785119Y-51938095D01*
X163908928Y-51876190D01*
X163970833Y-51814285D01*
X164032738Y-51690476D01*
X164032738Y-51319047D01*
X163970833Y-51195238D01*
X163908928Y-51133333D01*
X163785119Y-51071428D01*
X163537500Y-51071428D01*
X163413690Y-51133333D01*
X162856547Y-51938095D02*
X162856547Y-50638095D01*
X162732738Y-51442857D02*
X162361309Y-51938095D01*
X162361309Y-51071428D02*
X162856547Y-51566666D01*
X160813690Y-51442857D02*
X159823214Y-51442857D01*
X157532738Y-50700000D02*
X157656547Y-50638095D01*
X157842261Y-50638095D01*
X158027976Y-50700000D01*
X158151785Y-50823809D01*
X158213690Y-50947619D01*
X158275595Y-51195238D01*
X158275595Y-51380952D01*
X158213690Y-51628571D01*
X158151785Y-51752380D01*
X158027976Y-51876190D01*
X157842261Y-51938095D01*
X157718452Y-51938095D01*
X157532738Y-51876190D01*
X157470833Y-51814285D01*
X157470833Y-51380952D01*
X157718452Y-51380952D01*
X156913690Y-51938095D02*
X156913690Y-50638095D01*
X156170833Y-51938095D01*
X156170833Y-50638095D01*
X155551785Y-51938095D02*
X155551785Y-50638095D01*
X155242261Y-50638095D01*
X155056547Y-50700000D01*
X154932738Y-50823809D01*
X154870833Y-50947619D01*
X154808928Y-51195238D01*
X154808928Y-51380952D01*
X154870833Y-51628571D01*
X154932738Y-51752380D01*
X155056547Y-51876190D01*
X155242261Y-51938095D01*
X155551785Y-51938095D01*
X166880357Y-55038095D02*
X166632738Y-55038095D01*
X166508928Y-55100000D01*
X166385119Y-55223809D01*
X166323214Y-55471428D01*
X166323214Y-55904761D01*
X166385119Y-56152380D01*
X166508928Y-56276190D01*
X166632738Y-56338095D01*
X166880357Y-56338095D01*
X167004166Y-56276190D01*
X167127976Y-56152380D01*
X167189880Y-55904761D01*
X167189880Y-55471428D01*
X167127976Y-55223809D01*
X167004166Y-55100000D01*
X166880357Y-55038095D01*
X165208928Y-55471428D02*
X165208928Y-56338095D01*
X165766071Y-55471428D02*
X165766071Y-56152380D01*
X165704166Y-56276190D01*
X165580357Y-56338095D01*
X165394642Y-56338095D01*
X165270833Y-56276190D01*
X165208928Y-56214285D01*
X164775595Y-55471428D02*
X164280357Y-55471428D01*
X164589880Y-55038095D02*
X164589880Y-56152380D01*
X164527976Y-56276190D01*
X164404166Y-56338095D01*
X164280357Y-56338095D01*
X163847023Y-55471428D02*
X163847023Y-56771428D01*
X163847023Y-55533333D02*
X163723214Y-55471428D01*
X163475595Y-55471428D01*
X163351785Y-55533333D01*
X163289880Y-55595238D01*
X163227976Y-55719047D01*
X163227976Y-56090476D01*
X163289880Y-56214285D01*
X163351785Y-56276190D01*
X163475595Y-56338095D01*
X163723214Y-56338095D01*
X163847023Y-56276190D01*
X162113690Y-55471428D02*
X162113690Y-56338095D01*
X162670833Y-55471428D02*
X162670833Y-56152380D01*
X162608928Y-56276190D01*
X162485119Y-56338095D01*
X162299404Y-56338095D01*
X162175595Y-56276190D01*
X162113690Y-56214285D01*
X161680357Y-55471428D02*
X161185119Y-55471428D01*
X161494642Y-55038095D02*
X161494642Y-56152380D01*
X161432738Y-56276190D01*
X161308928Y-56338095D01*
X161185119Y-56338095D01*
X159018452Y-56214285D02*
X159080357Y-56276190D01*
X159266071Y-56338095D01*
X159389880Y-56338095D01*
X159575595Y-56276190D01*
X159699404Y-56152380D01*
X159761309Y-56028571D01*
X159823214Y-55780952D01*
X159823214Y-55595238D01*
X159761309Y-55347619D01*
X159699404Y-55223809D01*
X159575595Y-55100000D01*
X159389880Y-55038095D01*
X159266071Y-55038095D01*
X159080357Y-55100000D01*
X159018452Y-55161904D01*
X158275595Y-56338095D02*
X158399404Y-56276190D01*
X158461309Y-56214285D01*
X158523214Y-56090476D01*
X158523214Y-55719047D01*
X158461309Y-55595238D01*
X158399404Y-55533333D01*
X158275595Y-55471428D01*
X158089880Y-55471428D01*
X157966071Y-55533333D01*
X157904166Y-55595238D01*
X157842261Y-55719047D01*
X157842261Y-56090476D01*
X157904166Y-56214285D01*
X157966071Y-56276190D01*
X158089880Y-56338095D01*
X158275595Y-56338095D01*
X157285119Y-55471428D02*
X157285119Y-56338095D01*
X157285119Y-55595238D02*
X157223214Y-55533333D01*
X157099404Y-55471428D01*
X156913690Y-55471428D01*
X156789880Y-55533333D01*
X156727976Y-55657142D01*
X156727976Y-56338095D01*
X156108928Y-55471428D02*
X156108928Y-56338095D01*
X156108928Y-55595238D02*
X156047023Y-55533333D01*
X155923214Y-55471428D01*
X155737500Y-55471428D01*
X155613690Y-55533333D01*
X155551785Y-55657142D01*
X155551785Y-56338095D01*
X154437500Y-56276190D02*
X154561309Y-56338095D01*
X154808928Y-56338095D01*
X154932738Y-56276190D01*
X154994642Y-56152380D01*
X154994642Y-55657142D01*
X154932738Y-55533333D01*
X154808928Y-55471428D01*
X154561309Y-55471428D01*
X154437500Y-55533333D01*
X154375595Y-55657142D01*
X154375595Y-55780952D01*
X154994642Y-55904761D01*
X153261309Y-56276190D02*
X153385119Y-56338095D01*
X153632738Y-56338095D01*
X153756547Y-56276190D01*
X153818452Y-56214285D01*
X153880357Y-56090476D01*
X153880357Y-55719047D01*
X153818452Y-55595238D01*
X153756547Y-55533333D01*
X153632738Y-55471428D01*
X153385119Y-55471428D01*
X153261309Y-55533333D01*
X152889880Y-55471428D02*
X152394642Y-55471428D01*
X152704166Y-55038095D02*
X152704166Y-56152380D01*
X152642261Y-56276190D01*
X152518452Y-56338095D01*
X152394642Y-56338095D01*
X151961309Y-56338095D02*
X151961309Y-55471428D01*
X151961309Y-55038095D02*
X152023214Y-55100000D01*
X151961309Y-55161904D01*
X151899404Y-55100000D01*
X151961309Y-55038095D01*
X151961309Y-55161904D01*
X151156547Y-56338095D02*
X151280357Y-56276190D01*
X151342261Y-56214285D01*
X151404166Y-56090476D01*
X151404166Y-55719047D01*
X151342261Y-55595238D01*
X151280357Y-55533333D01*
X151156547Y-55471428D01*
X150970833Y-55471428D01*
X150847023Y-55533333D01*
X150785119Y-55595238D01*
X150723214Y-55719047D01*
X150723214Y-56090476D01*
X150785119Y-56214285D01*
X150847023Y-56276190D01*
X150970833Y-56338095D01*
X151156547Y-56338095D01*
X150166071Y-55471428D02*
X150166071Y-56338095D01*
X150166071Y-55595238D02*
X150104166Y-55533333D01*
X149980357Y-55471428D01*
X149794642Y-55471428D01*
X149670833Y-55533333D01*
X149608928Y-55657142D01*
X149608928Y-56338095D01*
X149051785Y-56276190D02*
X148927976Y-56338095D01*
X148680357Y-56338095D01*
X148556547Y-56276190D01*
X148494642Y-56152380D01*
X148494642Y-56090476D01*
X148556547Y-55966666D01*
X148680357Y-55904761D01*
X148866071Y-55904761D01*
X148989880Y-55842857D01*
X149051785Y-55719047D01*
X149051785Y-55657142D01*
X148989880Y-55533333D01*
X148866071Y-55471428D01*
X148680357Y-55471428D01*
X148556547Y-55533333D01*
X147937500Y-56214285D02*
X147875595Y-56276190D01*
X147937500Y-56338095D01*
X147999404Y-56276190D01*
X147937500Y-56214285D01*
X147937500Y-56338095D01*
X147937500Y-55533333D02*
X147875595Y-55595238D01*
X147937500Y-55657142D01*
X147999404Y-55595238D01*
X147937500Y-55533333D01*
X147937500Y-55657142D01*
X166447023Y-57300000D02*
X166570833Y-57238095D01*
X166756547Y-57238095D01*
X166942261Y-57300000D01*
X167066071Y-57423809D01*
X167127976Y-57547619D01*
X167189880Y-57795238D01*
X167189880Y-57980952D01*
X167127976Y-58228571D01*
X167066071Y-58352380D01*
X166942261Y-58476190D01*
X166756547Y-58538095D01*
X166632738Y-58538095D01*
X166447023Y-58476190D01*
X166385119Y-58414285D01*
X166385119Y-57980952D01*
X166632738Y-57980952D01*
X165827976Y-58538095D02*
X165827976Y-57671428D01*
X165827976Y-57919047D02*
X165766071Y-57795238D01*
X165704166Y-57733333D01*
X165580357Y-57671428D01*
X165456547Y-57671428D01*
X164527976Y-58476190D02*
X164651785Y-58538095D01*
X164899404Y-58538095D01*
X165023214Y-58476190D01*
X165085119Y-58352380D01*
X165085119Y-57857142D01*
X165023214Y-57733333D01*
X164899404Y-57671428D01*
X164651785Y-57671428D01*
X164527976Y-57733333D01*
X164466071Y-57857142D01*
X164466071Y-57980952D01*
X165085119Y-58104761D01*
X163413690Y-58476190D02*
X163537500Y-58538095D01*
X163785119Y-58538095D01*
X163908928Y-58476190D01*
X163970833Y-58352380D01*
X163970833Y-57857142D01*
X163908928Y-57733333D01*
X163785119Y-57671428D01*
X163537500Y-57671428D01*
X163413690Y-57733333D01*
X163351785Y-57857142D01*
X163351785Y-57980952D01*
X163970833Y-58104761D01*
X162794642Y-57671428D02*
X162794642Y-58538095D01*
X162794642Y-57795238D02*
X162732738Y-57733333D01*
X162608928Y-57671428D01*
X162423214Y-57671428D01*
X162299404Y-57733333D01*
X162237500Y-57857142D01*
X162237500Y-58538095D01*
X160627976Y-58042857D02*
X159637500Y-58042857D01*
X157780357Y-57238095D02*
X157532738Y-57238095D01*
X157408928Y-57300000D01*
X157285119Y-57423809D01*
X157223214Y-57671428D01*
X157223214Y-58104761D01*
X157285119Y-58352380D01*
X157408928Y-58476190D01*
X157532738Y-58538095D01*
X157780357Y-58538095D01*
X157904166Y-58476190D01*
X158027976Y-58352380D01*
X158089880Y-58104761D01*
X158089880Y-57671428D01*
X158027976Y-57423809D01*
X157904166Y-57300000D01*
X157780357Y-57238095D01*
X156666071Y-57238095D02*
X156666071Y-58290476D01*
X156604166Y-58414285D01*
X156542261Y-58476190D01*
X156418452Y-58538095D01*
X156170833Y-58538095D01*
X156047023Y-58476190D01*
X155985119Y-58414285D01*
X155923214Y-58290476D01*
X155923214Y-57238095D01*
X155489880Y-57238095D02*
X154747023Y-57238095D01*
X155118452Y-58538095D02*
X155118452Y-57238095D01*
X153632738Y-58538095D02*
X154375595Y-58538095D01*
X154004166Y-58538095D02*
X154004166Y-57238095D01*
X154127976Y-57423809D01*
X154251785Y-57547619D01*
X154375595Y-57609523D01*
X166694642Y-60057142D02*
X166508928Y-60119047D01*
X166447023Y-60180952D01*
X166385119Y-60304761D01*
X166385119Y-60490476D01*
X166447023Y-60614285D01*
X166508928Y-60676190D01*
X166632738Y-60738095D01*
X167127976Y-60738095D01*
X167127976Y-59438095D01*
X166694642Y-59438095D01*
X166570833Y-59500000D01*
X166508928Y-59561904D01*
X166447023Y-59685714D01*
X166447023Y-59809523D01*
X166508928Y-59933333D01*
X166570833Y-59995238D01*
X166694642Y-60057142D01*
X167127976Y-60057142D01*
X165642261Y-60738095D02*
X165766071Y-60676190D01*
X165827976Y-60552380D01*
X165827976Y-59438095D01*
X164589880Y-59871428D02*
X164589880Y-60738095D01*
X165147023Y-59871428D02*
X165147023Y-60552380D01*
X165085119Y-60676190D01*
X164961309Y-60738095D01*
X164775595Y-60738095D01*
X164651785Y-60676190D01*
X164589880Y-60614285D01*
X163475595Y-60676190D02*
X163599404Y-60738095D01*
X163847023Y-60738095D01*
X163970833Y-60676190D01*
X164032738Y-60552380D01*
X164032738Y-60057142D01*
X163970833Y-59933333D01*
X163847023Y-59871428D01*
X163599404Y-59871428D01*
X163475595Y-59933333D01*
X163413690Y-60057142D01*
X163413690Y-60180952D01*
X164032738Y-60304761D01*
X161866071Y-60242857D02*
X160875595Y-60242857D01*
X159018452Y-59438095D02*
X158770833Y-59438095D01*
X158647023Y-59500000D01*
X158523214Y-59623809D01*
X158461309Y-59871428D01*
X158461309Y-60304761D01*
X158523214Y-60552380D01*
X158647023Y-60676190D01*
X158770833Y-60738095D01*
X159018452Y-60738095D01*
X159142261Y-60676190D01*
X159266071Y-60552380D01*
X159327976Y-60304761D01*
X159327976Y-59871428D01*
X159266071Y-59623809D01*
X159142261Y-59500000D01*
X159018452Y-59438095D01*
X157904166Y-59438095D02*
X157904166Y-60490476D01*
X157842261Y-60614285D01*
X157780357Y-60676190D01*
X157656547Y-60738095D01*
X157408928Y-60738095D01*
X157285119Y-60676190D01*
X157223214Y-60614285D01*
X157161309Y-60490476D01*
X157161309Y-59438095D01*
X156727976Y-59438095D02*
X155985119Y-59438095D01*
X156356547Y-60738095D02*
X156356547Y-59438095D01*
X155613690Y-59561904D02*
X155551785Y-59500000D01*
X155427976Y-59438095D01*
X155118452Y-59438095D01*
X154994642Y-59500000D01*
X154932738Y-59561904D01*
X154870833Y-59685714D01*
X154870833Y-59809523D01*
X154932738Y-59995238D01*
X155675595Y-60738095D01*
X154870833Y-60738095D01*
X166880357Y-62319047D02*
X166880357Y-62938095D01*
X167313690Y-61638095D02*
X166880357Y-62319047D01*
X166447023Y-61638095D01*
X165518452Y-62876190D02*
X165642261Y-62938095D01*
X165889880Y-62938095D01*
X166013690Y-62876190D01*
X166075595Y-62752380D01*
X166075595Y-62257142D01*
X166013690Y-62133333D01*
X165889880Y-62071428D01*
X165642261Y-62071428D01*
X165518452Y-62133333D01*
X165456547Y-62257142D01*
X165456547Y-62380952D01*
X166075595Y-62504761D01*
X164713690Y-62938095D02*
X164837500Y-62876190D01*
X164899404Y-62752380D01*
X164899404Y-61638095D01*
X164032738Y-62938095D02*
X164156547Y-62876190D01*
X164218452Y-62752380D01*
X164218452Y-61638095D01*
X163351785Y-62938095D02*
X163475595Y-62876190D01*
X163537500Y-62814285D01*
X163599404Y-62690476D01*
X163599404Y-62319047D01*
X163537500Y-62195238D01*
X163475595Y-62133333D01*
X163351785Y-62071428D01*
X163166071Y-62071428D01*
X163042261Y-62133333D01*
X162980357Y-62195238D01*
X162918452Y-62319047D01*
X162918452Y-62690476D01*
X162980357Y-62814285D01*
X163042261Y-62876190D01*
X163166071Y-62938095D01*
X163351785Y-62938095D01*
X162485119Y-62071428D02*
X162237500Y-62938095D01*
X161989880Y-62319047D01*
X161742261Y-62938095D01*
X161494642Y-62071428D01*
X160008928Y-62442857D02*
X159018452Y-62442857D01*
X157161309Y-61638095D02*
X156913690Y-61638095D01*
X156789880Y-61700000D01*
X156666071Y-61823809D01*
X156604166Y-62071428D01*
X156604166Y-62504761D01*
X156666071Y-62752380D01*
X156789880Y-62876190D01*
X156913690Y-62938095D01*
X157161309Y-62938095D01*
X157285119Y-62876190D01*
X157408928Y-62752380D01*
X157470833Y-62504761D01*
X157470833Y-62071428D01*
X157408928Y-61823809D01*
X157285119Y-61700000D01*
X157161309Y-61638095D01*
X156047023Y-61638095D02*
X156047023Y-62690476D01*
X155985119Y-62814285D01*
X155923214Y-62876190D01*
X155799404Y-62938095D01*
X155551785Y-62938095D01*
X155427976Y-62876190D01*
X155366071Y-62814285D01*
X155304166Y-62690476D01*
X155304166Y-61638095D01*
X154870833Y-61638095D02*
X154127976Y-61638095D01*
X154499404Y-62938095D02*
X154499404Y-61638095D01*
X153818452Y-61638095D02*
X153013690Y-61638095D01*
X153447023Y-62133333D01*
X153261309Y-62133333D01*
X153137500Y-62195238D01*
X153075595Y-62257142D01*
X153013690Y-62380952D01*
X153013690Y-62690476D01*
X153075595Y-62814285D01*
X153137500Y-62876190D01*
X153261309Y-62938095D01*
X153632738Y-62938095D01*
X153756547Y-62876190D01*
X153818452Y-62814285D01*
X167251785Y-63838095D02*
X166942261Y-65138095D01*
X166694642Y-64209523D01*
X166447023Y-65138095D01*
X166137500Y-63838095D01*
X165642261Y-65138095D02*
X165642261Y-63838095D01*
X165085119Y-65138095D02*
X165085119Y-64457142D01*
X165147023Y-64333333D01*
X165270833Y-64271428D01*
X165456547Y-64271428D01*
X165580357Y-64333333D01*
X165642261Y-64395238D01*
X164466071Y-65138095D02*
X164466071Y-64271428D01*
X164466071Y-63838095D02*
X164527976Y-63900000D01*
X164466071Y-63961904D01*
X164404166Y-63900000D01*
X164466071Y-63838095D01*
X164466071Y-63961904D01*
X164032738Y-64271428D02*
X163537500Y-64271428D01*
X163847023Y-63838095D02*
X163847023Y-64952380D01*
X163785119Y-65076190D01*
X163661309Y-65138095D01*
X163537500Y-65138095D01*
X162608928Y-65076190D02*
X162732738Y-65138095D01*
X162980357Y-65138095D01*
X163104166Y-65076190D01*
X163166071Y-64952380D01*
X163166071Y-64457142D01*
X163104166Y-64333333D01*
X162980357Y-64271428D01*
X162732738Y-64271428D01*
X162608928Y-64333333D01*
X162547023Y-64457142D01*
X162547023Y-64580952D01*
X163166071Y-64704761D01*
X160999404Y-64642857D02*
X160008928Y-64642857D01*
X158151785Y-63838095D02*
X157904166Y-63838095D01*
X157780357Y-63900000D01*
X157656547Y-64023809D01*
X157594642Y-64271428D01*
X157594642Y-64704761D01*
X157656547Y-64952380D01*
X157780357Y-65076190D01*
X157904166Y-65138095D01*
X158151785Y-65138095D01*
X158275595Y-65076190D01*
X158399404Y-64952380D01*
X158461309Y-64704761D01*
X158461309Y-64271428D01*
X158399404Y-64023809D01*
X158275595Y-63900000D01*
X158151785Y-63838095D01*
X157037500Y-63838095D02*
X157037500Y-64890476D01*
X156975595Y-65014285D01*
X156913690Y-65076190D01*
X156789880Y-65138095D01*
X156542261Y-65138095D01*
X156418452Y-65076190D01*
X156356547Y-65014285D01*
X156294642Y-64890476D01*
X156294642Y-63838095D01*
X155861309Y-63838095D02*
X155118452Y-63838095D01*
X155489880Y-65138095D02*
X155489880Y-63838095D01*
X154127976Y-64271428D02*
X154127976Y-65138095D01*
X154437500Y-63776190D02*
X154747023Y-64704761D01*
X153942261Y-64704761D01*
M02*
