G04 #@! TF.GenerationSoftware,KiCad,Pcbnew,5.0.0*
G04 #@! TF.CreationDate,2018-12-15T19:13:02-05:00*
G04 #@! TF.ProjectId,BT_12V_SmartSwitch-panelized-SINGLE,42545F3132565F536D61727453776974,rev?*
G04 #@! TF.SameCoordinates,Original*
G04 #@! TF.FileFunction,Copper,L2,Bot,Signal*
G04 #@! TF.FilePolarity,Positive*
%FSLAX46Y46*%
G04 Gerber Fmt 4.6, Leading zero omitted, Abs format (unit mm)*
G04 Created by KiCad (PCBNEW 5.0.0) date Sat Dec 15 19:13:02 2018*
%MOMM*%
%LPD*%
G01*
G04 APERTURE LIST*
G04 #@! TA.AperFunction,Conductor*
%ADD10R,2.700000X2.700000*%
G04 #@! TD*
G04 #@! TA.AperFunction,ComponentPad*
%ADD11C,0.800000*%
G04 #@! TD*
G04 #@! TA.AperFunction,ComponentPad*
%ADD12R,1.700000X1.700000*%
G04 #@! TD*
G04 #@! TA.AperFunction,ComponentPad*
%ADD13O,1.700000X1.700000*%
G04 #@! TD*
G04 #@! TA.AperFunction,ViaPad*
%ADD14C,0.800000*%
G04 #@! TD*
G04 #@! TA.AperFunction,Conductor*
%ADD15C,0.500000*%
G04 #@! TD*
G04 #@! TA.AperFunction,Conductor*
%ADD16C,0.750000*%
G04 #@! TD*
G04 #@! TA.AperFunction,Conductor*
%ADD17C,0.150000*%
G04 #@! TD*
G04 #@! TA.AperFunction,Conductor*
%ADD18C,1.000000*%
G04 #@! TD*
G04 #@! TA.AperFunction,Conductor*
%ADD19C,0.250000*%
G04 #@! TD*
G04 #@! TA.AperFunction,Conductor*
%ADD20C,1.500000*%
G04 #@! TD*
G04 #@! TA.AperFunction,Conductor*
%ADD21C,0.254000*%
G04 #@! TD*
G04 APERTURE END LIST*
D10*
G04 #@! TO.N,GND*
G04 #@! TO.C,U2*
X173850000Y-52500000D03*
D11*
G04 #@! TD*
G04 #@! TO.P,U2,25*
G04 #@! TO.N,GND*
X174750000Y-51600000D03*
G04 #@! TO.P,U2,25*
G04 #@! TO.N,GND*
X174750000Y-52500000D03*
X174750000Y-53400000D03*
X173850000Y-51600000D03*
X172950000Y-51600000D03*
X172950000Y-52500000D03*
X173850000Y-52500000D03*
X173850000Y-53400000D03*
X172950000Y-53400000D03*
G04 #@! TD*
D12*
G04 #@! TO.P,J3,1*
G04 #@! TO.N,RxD*
X177750000Y-40000000D03*
D13*
G04 #@! TO.P,J3,2*
G04 #@! TO.N,TxD*
X175210000Y-40000000D03*
G04 #@! TO.P,J3,3*
G04 #@! TO.N,CTS*
X172670000Y-40000000D03*
G04 #@! TO.P,J3,4*
G04 #@! TO.N,RTS*
X170130000Y-40000000D03*
G04 #@! TD*
D12*
G04 #@! TO.P,J1,1*
G04 #@! TO.N,12V_SUPP*
X141750000Y-57250000D03*
D13*
G04 #@! TO.P,J1,2*
G04 #@! TO.N,GND*
X141750000Y-54710000D03*
G04 #@! TD*
G04 #@! TO.P,J4,6*
G04 #@! TO.N,GND*
X160580000Y-42540000D03*
G04 #@! TO.P,J4,5*
G04 #@! TO.N,SPI_SSN*
X160580000Y-40000000D03*
G04 #@! TO.P,J4,4*
G04 #@! TO.N,SPI_MOSI*
X158040000Y-42540000D03*
G04 #@! TO.P,J4,3*
G04 #@! TO.N,SPI_SCK*
X158040000Y-40000000D03*
G04 #@! TO.P,J4,2*
G04 #@! TO.N,VDD*
X155500000Y-42540000D03*
D12*
G04 #@! TO.P,J4,1*
G04 #@! TO.N,SPI_MISO*
X155500000Y-40000000D03*
G04 #@! TD*
G04 #@! TO.P,J2,1*
G04 #@! TO.N,LOAD_OUT1*
X146750000Y-63500000D03*
D13*
G04 #@! TO.P,J2,2*
G04 #@! TO.N,LOAD_OUT2*
X146750000Y-60960000D03*
G04 #@! TO.P,J2,3*
G04 #@! TO.N,LOAD_OUT3*
X144210000Y-63500000D03*
G04 #@! TO.P,J2,4*
G04 #@! TO.N,LOAD_OUT4*
X144210000Y-60960000D03*
G04 #@! TO.P,J2,5*
G04 #@! TO.N,GND*
X141670000Y-63500000D03*
G04 #@! TO.P,J2,6*
X141670000Y-60960000D03*
G04 #@! TD*
D10*
G04 #@! TO.N,GND*
G04 #@! TO.C,U2*
X173850000Y-52500000D03*
D11*
G04 #@! TD*
G04 #@! TO.P,U2,25*
G04 #@! TO.N,GND*
X174750000Y-51600000D03*
G04 #@! TO.P,U2,25*
G04 #@! TO.N,GND*
X174750000Y-52500000D03*
X174750000Y-53400000D03*
X173850000Y-51600000D03*
X172950000Y-51600000D03*
X172950000Y-52500000D03*
X173850000Y-52500000D03*
X173850000Y-53400000D03*
X172950000Y-53400000D03*
G04 #@! TD*
D12*
G04 #@! TO.P,J3,1*
G04 #@! TO.N,RxD*
X177750000Y-40000000D03*
D13*
G04 #@! TO.P,J3,2*
G04 #@! TO.N,TxD*
X175210000Y-40000000D03*
G04 #@! TO.P,J3,3*
G04 #@! TO.N,CTS*
X172670000Y-40000000D03*
G04 #@! TO.P,J3,4*
G04 #@! TO.N,RTS*
X170130000Y-40000000D03*
G04 #@! TD*
D12*
G04 #@! TO.P,J1,1*
G04 #@! TO.N,12V_SUPP*
X141750000Y-57250000D03*
D13*
G04 #@! TO.P,J1,2*
G04 #@! TO.N,GND*
X141750000Y-54710000D03*
G04 #@! TD*
G04 #@! TO.P,J4,6*
G04 #@! TO.N,GND*
X160580000Y-42540000D03*
G04 #@! TO.P,J4,5*
G04 #@! TO.N,SPI_SSN*
X160580000Y-40000000D03*
G04 #@! TO.P,J4,4*
G04 #@! TO.N,SPI_MOSI*
X158040000Y-42540000D03*
G04 #@! TO.P,J4,3*
G04 #@! TO.N,SPI_SCK*
X158040000Y-40000000D03*
G04 #@! TO.P,J4,2*
G04 #@! TO.N,VDD*
X155500000Y-42540000D03*
D12*
G04 #@! TO.P,J4,1*
G04 #@! TO.N,SPI_MISO*
X155500000Y-40000000D03*
G04 #@! TD*
G04 #@! TO.P,J2,1*
G04 #@! TO.N,LOAD_OUT1*
X146750000Y-63500000D03*
D13*
G04 #@! TO.P,J2,2*
G04 #@! TO.N,LOAD_OUT2*
X146750000Y-60960000D03*
G04 #@! TO.P,J2,3*
G04 #@! TO.N,LOAD_OUT3*
X144210000Y-63500000D03*
G04 #@! TO.P,J2,4*
G04 #@! TO.N,LOAD_OUT4*
X144210000Y-60960000D03*
G04 #@! TO.P,J2,5*
G04 #@! TO.N,GND*
X141670000Y-63500000D03*
G04 #@! TO.P,J2,6*
X141670000Y-60960000D03*
G04 #@! TD*
D14*
G04 #@! TO.N,VDD*
X164750000Y-39500000D03*
X165750000Y-39500000D03*
X157500000Y-61750000D03*
X164750000Y-65250000D03*
X174737500Y-60250000D03*
X176250000Y-61500000D03*
X149750000Y-65250000D03*
X150500000Y-64250000D03*
X164750000Y-39500000D03*
X165750000Y-39500000D03*
X157500000Y-61750000D03*
X164750000Y-65250000D03*
X174737500Y-60250000D03*
X176250000Y-61500000D03*
X149750000Y-65250000D03*
X150500000Y-64250000D03*
G04 #@! TO.N,ADC_IN2*
X166250000Y-56000000D03*
X166500000Y-58000000D03*
X166250000Y-56000000D03*
X166500000Y-58000000D03*
G04 #@! TO.N,GND*
X159500000Y-59500000D03*
X173500000Y-42000000D03*
X168250000Y-42500000D03*
X176250000Y-57250000D03*
X176300000Y-47500000D03*
X168250000Y-49125000D03*
X168250000Y-52750000D03*
X141000000Y-46750000D03*
X142000000Y-46750000D03*
X143750000Y-52750000D03*
X143750000Y-53750000D03*
X160750000Y-47750000D03*
X161500000Y-51250000D03*
X160500000Y-56250000D03*
X151750000Y-63750000D03*
X162250000Y-63750000D03*
X172500000Y-61000000D03*
X178750000Y-62500000D03*
X140250000Y-38750000D03*
X159500000Y-59500000D03*
X173500000Y-42000000D03*
X168250000Y-42500000D03*
X176250000Y-57250000D03*
X176300000Y-47500000D03*
X168250000Y-49125000D03*
X168250000Y-52750000D03*
X141000000Y-46750000D03*
X142000000Y-46750000D03*
X143750000Y-52750000D03*
X143750000Y-53750000D03*
X160750000Y-47750000D03*
X161500000Y-51250000D03*
X160500000Y-56250000D03*
X151750000Y-63750000D03*
X162250000Y-63750000D03*
X172500000Y-61000000D03*
X178750000Y-62500000D03*
X140250000Y-38750000D03*
G04 #@! TO.N,STATUS*
X161750000Y-57500000D03*
X160250000Y-62250000D03*
X161750000Y-57500000D03*
X160250000Y-62250000D03*
G04 #@! TO.N,+12V*
X152500000Y-61500000D03*
X152500000Y-51500000D03*
X151250000Y-50500000D03*
X153250000Y-47750000D03*
X143750000Y-55250000D03*
X143750000Y-56250000D03*
X143750000Y-57250000D03*
X145750000Y-52750000D03*
X146750000Y-52750000D03*
X147750000Y-52750000D03*
X152250000Y-47750000D03*
X152500000Y-56500000D03*
X152500000Y-57500000D03*
X152500000Y-60500000D03*
X152500000Y-61500000D03*
X152500000Y-51500000D03*
X151250000Y-50500000D03*
X153250000Y-47750000D03*
X143750000Y-55250000D03*
X143750000Y-56250000D03*
X143750000Y-57250000D03*
X145750000Y-52750000D03*
X146750000Y-52750000D03*
X147750000Y-52750000D03*
X152250000Y-47750000D03*
X152500000Y-56500000D03*
X152500000Y-57500000D03*
X152500000Y-60500000D03*
G04 #@! TO.N,CTS*
X170750000Y-45000000D03*
X170750000Y-45000000D03*
G04 #@! TO.N,RTS*
X169500000Y-45000000D03*
X169500000Y-45000000D03*
G04 #@! TO.N,CTRL_OUT2*
X167750000Y-61250000D03*
X164750000Y-57500000D03*
X167750000Y-61250000D03*
X164750000Y-57500000D03*
G04 #@! TO.N,LOAD_OUT3*
X151250000Y-52000000D03*
X151250000Y-52000000D03*
G04 #@! TO.N,LOAD_OUT4*
X151000000Y-47500000D03*
X151000000Y-47500000D03*
G04 #@! TO.N,12V_SUPP*
X147000000Y-56250000D03*
X147000000Y-56900000D03*
X146400000Y-57500000D03*
X147000000Y-56250000D03*
X147000000Y-56900000D03*
X146400000Y-57500000D03*
G04 #@! TD*
D15*
G04 #@! TO.N,VDD*
X156789999Y-39399999D02*
X157439998Y-38750000D01*
X155500000Y-42540000D02*
X156789999Y-41250001D01*
X156789999Y-41250001D02*
X156789999Y-39399999D01*
X164000000Y-38750000D02*
X164750000Y-39500000D01*
X157439998Y-38750000D02*
X164000000Y-38750000D01*
X157500000Y-61750000D02*
X157500000Y-64250000D01*
X158500000Y-65250000D02*
X157500000Y-64250000D01*
X164750000Y-65250000D02*
X158500000Y-65250000D01*
X174737500Y-60000000D02*
X174750000Y-60000000D01*
X176250000Y-61500000D02*
X177750000Y-63000000D01*
X177750000Y-63000000D02*
X177750000Y-65250000D01*
X165315685Y-65250000D02*
X164750000Y-65250000D01*
X165465686Y-65400001D02*
X165315685Y-65250000D01*
X177599999Y-65400001D02*
X165465686Y-65400001D01*
X177750000Y-65250000D02*
X177599999Y-65400001D01*
X175987500Y-61500000D02*
X174737500Y-60250000D01*
X176250000Y-61500000D02*
X175987500Y-61500000D01*
D16*
X149750000Y-65000000D02*
X150500000Y-64250000D01*
X149750000Y-65250000D02*
X149750000Y-65000000D01*
X156431998Y-61750000D02*
X156934315Y-61750000D01*
X152931998Y-65250000D02*
X156431998Y-61750000D01*
X156934315Y-61750000D02*
X157500000Y-61750000D01*
X149750000Y-65250000D02*
X152931998Y-65250000D01*
D15*
X156789999Y-39399999D02*
X157439998Y-38750000D01*
X155500000Y-42540000D02*
X156789999Y-41250001D01*
X156789999Y-41250001D02*
X156789999Y-39399999D01*
X164000000Y-38750000D02*
X164750000Y-39500000D01*
X157439998Y-38750000D02*
X164000000Y-38750000D01*
X157500000Y-61750000D02*
X157500000Y-64250000D01*
X158500000Y-65250000D02*
X157500000Y-64250000D01*
X164750000Y-65250000D02*
X158500000Y-65250000D01*
X174737500Y-60000000D02*
X174750000Y-60000000D01*
X176250000Y-61500000D02*
X177750000Y-63000000D01*
X177750000Y-63000000D02*
X177750000Y-65250000D01*
X165315685Y-65250000D02*
X164750000Y-65250000D01*
X165465686Y-65400001D02*
X165315685Y-65250000D01*
X177599999Y-65400001D02*
X165465686Y-65400001D01*
X177750000Y-65250000D02*
X177599999Y-65400001D01*
X175987500Y-61500000D02*
X174737500Y-60250000D01*
X176250000Y-61500000D02*
X175987500Y-61500000D01*
D16*
X149750000Y-65000000D02*
X150500000Y-64250000D01*
X149750000Y-65250000D02*
X149750000Y-65000000D01*
X156431998Y-61750000D02*
X156934315Y-61750000D01*
X152931998Y-65250000D02*
X156431998Y-61750000D01*
X156934315Y-61750000D02*
X157500000Y-61750000D01*
X149750000Y-65250000D02*
X152931998Y-65250000D01*
D17*
G04 #@! TO.N,ADC_IN2*
X166250000Y-57750000D02*
X166500000Y-58000000D01*
X166250000Y-56000000D02*
X166250000Y-57750000D01*
X166250000Y-57750000D02*
X166500000Y-58000000D01*
X166250000Y-56000000D02*
X166250000Y-57750000D01*
D18*
G04 #@! TO.N,GND*
X140427919Y-63460000D02*
X140467919Y-63500000D01*
X140427919Y-61000000D02*
X140427919Y-63460000D01*
X140467919Y-60960000D02*
X140427919Y-61000000D01*
X141670000Y-60960000D02*
X140467919Y-60960000D01*
X140249999Y-55007920D02*
X140547919Y-54710000D01*
X140547919Y-54710000D02*
X141750000Y-54710000D01*
X140249999Y-59499999D02*
X140249999Y-55007920D01*
X140467919Y-59717919D02*
X140249999Y-59499999D01*
X140467919Y-60960000D02*
X140467919Y-59717919D01*
X141670000Y-64702081D02*
X141750000Y-64782081D01*
X141670000Y-63500000D02*
X141670000Y-64702081D01*
X141750000Y-64782081D02*
X140532081Y-64782081D01*
X140467919Y-64717919D02*
X140467919Y-63500000D01*
X140532081Y-64782081D02*
X140467919Y-64717919D01*
X140427919Y-63460000D02*
X140467919Y-63500000D01*
X140427919Y-61000000D02*
X140427919Y-63460000D01*
X140467919Y-60960000D02*
X140427919Y-61000000D01*
X141670000Y-60960000D02*
X140467919Y-60960000D01*
X140249999Y-55007920D02*
X140547919Y-54710000D01*
X140547919Y-54710000D02*
X141750000Y-54710000D01*
X140249999Y-59499999D02*
X140249999Y-55007920D01*
X140467919Y-59717919D02*
X140249999Y-59499999D01*
X140467919Y-60960000D02*
X140467919Y-59717919D01*
X141670000Y-64702081D02*
X141750000Y-64782081D01*
X141670000Y-63500000D02*
X141670000Y-64702081D01*
X141750000Y-64782081D02*
X140532081Y-64782081D01*
X140467919Y-64717919D02*
X140467919Y-63500000D01*
X140532081Y-64782081D02*
X140467919Y-64717919D01*
D19*
G04 #@! TO.N,STATUS*
X160250000Y-59000000D02*
X160250000Y-62250000D01*
X161750000Y-57500000D02*
X160250000Y-59000000D01*
X160250000Y-59000000D02*
X160250000Y-62250000D01*
X161750000Y-57500000D02*
X160250000Y-59000000D01*
D20*
G04 #@! TO.N,+12V*
X145750000Y-53315685D02*
X145750000Y-52750000D01*
X145750000Y-53674002D02*
X145750000Y-53315685D01*
X144174002Y-55250000D02*
X145750000Y-53674002D01*
X143750000Y-55250000D02*
X144174002Y-55250000D01*
X145750000Y-52750000D02*
X147750000Y-52750000D01*
D16*
X152250000Y-51500000D02*
X152250000Y-51000000D01*
X152250000Y-50934315D02*
X151815685Y-50500000D01*
X152250000Y-51500000D02*
X152250000Y-50934315D01*
D18*
X153250000Y-47750000D02*
X152250000Y-47750000D01*
X152300020Y-51273651D02*
X152300020Y-51500000D01*
X152250000Y-51223631D02*
X152300020Y-51273651D01*
X152500000Y-51500000D02*
X152500000Y-61500000D01*
D15*
X151250000Y-50500000D02*
X152250000Y-50500000D01*
D18*
X152250000Y-47750000D02*
X152250000Y-50500000D01*
X152250000Y-50500000D02*
X152250000Y-51223631D01*
D20*
X145750000Y-53315685D02*
X145750000Y-52750000D01*
X145750000Y-53674002D02*
X145750000Y-53315685D01*
X144174002Y-55250000D02*
X145750000Y-53674002D01*
X143750000Y-55250000D02*
X144174002Y-55250000D01*
X145750000Y-52750000D02*
X147750000Y-52750000D01*
D16*
X152250000Y-51500000D02*
X152250000Y-51000000D01*
X152250000Y-50934315D02*
X151815685Y-50500000D01*
X152250000Y-51500000D02*
X152250000Y-50934315D01*
D18*
X153250000Y-47750000D02*
X152250000Y-47750000D01*
X152300020Y-51273651D02*
X152300020Y-51500000D01*
X152250000Y-51223631D02*
X152300020Y-51273651D01*
X152500000Y-51500000D02*
X152500000Y-61500000D01*
D15*
X151250000Y-50500000D02*
X152250000Y-50500000D01*
D18*
X152250000Y-47750000D02*
X152250000Y-50500000D01*
X152250000Y-50500000D02*
X152250000Y-51223631D01*
D19*
G04 #@! TO.N,CTS*
X170750000Y-41920000D02*
X172670000Y-40000000D01*
X170750000Y-45000000D02*
X170750000Y-41920000D01*
X170750000Y-41920000D02*
X172670000Y-40000000D01*
X170750000Y-45000000D02*
X170750000Y-41920000D01*
G04 #@! TO.N,RTS*
X169500000Y-40630000D02*
X170130000Y-40000000D01*
X169500000Y-45000000D02*
X169500000Y-40630000D01*
X169500000Y-40630000D02*
X170130000Y-40000000D01*
X169500000Y-45000000D02*
X169500000Y-40630000D01*
G04 #@! TO.N,CTRL_OUT2*
X167750000Y-61250000D02*
X166250000Y-61250000D01*
X164750000Y-59750000D02*
X164750000Y-57500000D01*
X166250000Y-61250000D02*
X164750000Y-59750000D01*
X167750000Y-61250000D02*
X166250000Y-61250000D01*
X164750000Y-59750000D02*
X164750000Y-57500000D01*
X166250000Y-61250000D02*
X164750000Y-59750000D01*
D18*
G04 #@! TO.N,LOAD_OUT3*
X151150010Y-51900010D02*
X151150010Y-51750000D01*
X144210000Y-63500000D02*
X144210000Y-64702081D01*
X151250000Y-61870002D02*
X151250000Y-52000000D01*
X144210000Y-64702081D02*
X144507920Y-65000001D01*
X144507920Y-65000001D02*
X148120001Y-65000001D01*
X148120001Y-65000001D02*
X151250000Y-61870002D01*
X151250000Y-52000000D02*
X151150010Y-51900010D01*
X151150010Y-51900010D02*
X151150010Y-51750000D01*
X144210000Y-63500000D02*
X144210000Y-64702081D01*
X151250000Y-61870002D02*
X151250000Y-52000000D01*
X144210000Y-64702081D02*
X144507920Y-65000001D01*
X144507920Y-65000001D02*
X148120001Y-65000001D01*
X148120001Y-65000001D02*
X151250000Y-61870002D01*
X151250000Y-52000000D02*
X151150010Y-51900010D01*
G04 #@! TO.N,LOAD_OUT4*
X145920000Y-59250000D02*
X144210000Y-60960000D01*
X148750000Y-59250000D02*
X145920000Y-59250000D01*
X150000000Y-58000000D02*
X148750000Y-59250000D01*
X151000000Y-48250000D02*
X150000000Y-49250000D01*
X150000000Y-49250000D02*
X150000000Y-58000000D01*
X151000000Y-47500000D02*
X151000000Y-48250000D01*
X145920000Y-59250000D02*
X144210000Y-60960000D01*
X148750000Y-59250000D02*
X145920000Y-59250000D01*
X150000000Y-58000000D02*
X148750000Y-59250000D01*
X151000000Y-48250000D02*
X150000000Y-49250000D01*
X150000000Y-49250000D02*
X150000000Y-58000000D01*
X151000000Y-47500000D02*
X151000000Y-48250000D01*
D20*
G04 #@! TO.N,12V_SUPP*
X147000000Y-56250000D02*
X147000000Y-55000000D01*
X147000000Y-56900000D02*
X147000000Y-56250000D01*
X146400000Y-57500000D02*
X147000000Y-56900000D01*
X144273992Y-58650010D02*
X145424002Y-57500000D01*
X141750000Y-57250000D02*
X143150010Y-58650010D01*
X145424002Y-57500000D02*
X146400000Y-57500000D01*
X143150010Y-58650010D02*
X144273992Y-58650010D01*
X147000000Y-56250000D02*
X147000000Y-55000000D01*
X147000000Y-56900000D02*
X147000000Y-56250000D01*
X146400000Y-57500000D02*
X147000000Y-56900000D01*
X144273992Y-58650010D02*
X145424002Y-57500000D01*
X141750000Y-57250000D02*
X143150010Y-58650010D01*
X145424002Y-57500000D02*
X146400000Y-57500000D01*
X143150010Y-58650010D02*
X144273992Y-58650010D01*
G04 #@! TD*
D21*
G04 #@! TO.N,GND*
G36*
X148798382Y-38785825D02*
X148535825Y-39048382D01*
X148329534Y-39357118D01*
X148187439Y-39700166D01*
X148115000Y-40064344D01*
X148115000Y-40435656D01*
X148187439Y-40799834D01*
X148329534Y-41142882D01*
X148535825Y-41451618D01*
X148798382Y-41714175D01*
X149107118Y-41920466D01*
X149450166Y-42062561D01*
X149814344Y-42135000D01*
X150185656Y-42135000D01*
X150549834Y-42062561D01*
X150892882Y-41920466D01*
X151201618Y-41714175D01*
X151464175Y-41451618D01*
X151670466Y-41142882D01*
X151812561Y-40799834D01*
X151885000Y-40435656D01*
X151885000Y-40064344D01*
X151812561Y-39700166D01*
X151670466Y-39357118D01*
X151464175Y-39048382D01*
X151201618Y-38785825D01*
X151088138Y-38710000D01*
X154189636Y-38710000D01*
X154119463Y-38795506D01*
X154060498Y-38905820D01*
X154024188Y-39025518D01*
X154011928Y-39150000D01*
X154011928Y-40850000D01*
X154024188Y-40974482D01*
X154060498Y-41094180D01*
X154119463Y-41204494D01*
X154198815Y-41301185D01*
X154295506Y-41380537D01*
X154405820Y-41439502D01*
X154474687Y-41460393D01*
X154444866Y-41484866D01*
X154259294Y-41710986D01*
X154121401Y-41968966D01*
X154036487Y-42248889D01*
X154007815Y-42540000D01*
X154036487Y-42831111D01*
X154121401Y-43111034D01*
X154259294Y-43369014D01*
X154444866Y-43595134D01*
X154670986Y-43780706D01*
X154928966Y-43918599D01*
X155208889Y-44003513D01*
X155427050Y-44025000D01*
X155572950Y-44025000D01*
X155791111Y-44003513D01*
X156071034Y-43918599D01*
X156329014Y-43780706D01*
X156555134Y-43595134D01*
X156740706Y-43369014D01*
X156770000Y-43314209D01*
X156799294Y-43369014D01*
X156984866Y-43595134D01*
X157210986Y-43780706D01*
X157468966Y-43918599D01*
X157748889Y-44003513D01*
X157967050Y-44025000D01*
X158112950Y-44025000D01*
X158331111Y-44003513D01*
X158611034Y-43918599D01*
X158869014Y-43780706D01*
X159095134Y-43595134D01*
X159280706Y-43369014D01*
X159315201Y-43304477D01*
X159384822Y-43421355D01*
X159579731Y-43637588D01*
X159813080Y-43811641D01*
X160075901Y-43936825D01*
X160223110Y-43981476D01*
X160453000Y-43860155D01*
X160453000Y-42667000D01*
X160707000Y-42667000D01*
X160707000Y-43860155D01*
X160936890Y-43981476D01*
X161084099Y-43936825D01*
X161346920Y-43811641D01*
X161580269Y-43637588D01*
X161775178Y-43421355D01*
X161924157Y-43171252D01*
X162021481Y-42896891D01*
X161900814Y-42667000D01*
X160707000Y-42667000D01*
X160453000Y-42667000D01*
X160433000Y-42667000D01*
X160433000Y-42413000D01*
X160453000Y-42413000D01*
X160453000Y-42393000D01*
X160707000Y-42393000D01*
X160707000Y-42413000D01*
X161900814Y-42413000D01*
X162021481Y-42183109D01*
X161924157Y-41908748D01*
X161775178Y-41658645D01*
X161580269Y-41442412D01*
X161351244Y-41271584D01*
X161409014Y-41240706D01*
X161635134Y-41055134D01*
X161820706Y-40829014D01*
X161958599Y-40571034D01*
X162043513Y-40291111D01*
X162072185Y-40000000D01*
X162043513Y-39708889D01*
X162021099Y-39635000D01*
X163633422Y-39635000D01*
X163743465Y-39745044D01*
X163754774Y-39801898D01*
X163832795Y-39990256D01*
X163946063Y-40159774D01*
X164090226Y-40303937D01*
X164259744Y-40417205D01*
X164448102Y-40495226D01*
X164648061Y-40535000D01*
X164851939Y-40535000D01*
X165051898Y-40495226D01*
X165240256Y-40417205D01*
X165250000Y-40410694D01*
X165259744Y-40417205D01*
X165448102Y-40495226D01*
X165648061Y-40535000D01*
X165851939Y-40535000D01*
X166051898Y-40495226D01*
X166240256Y-40417205D01*
X166409774Y-40303937D01*
X166553937Y-40159774D01*
X166667205Y-39990256D01*
X166745226Y-39801898D01*
X166785000Y-39601939D01*
X166785000Y-39398061D01*
X166745226Y-39198102D01*
X166667205Y-39009744D01*
X166553937Y-38840226D01*
X166423711Y-38710000D01*
X169393209Y-38710000D01*
X169300986Y-38759294D01*
X169074866Y-38944866D01*
X168889294Y-39170986D01*
X168751401Y-39428966D01*
X168666487Y-39708889D01*
X168637815Y-40000000D01*
X168666487Y-40291111D01*
X168744404Y-40547967D01*
X168736324Y-40630000D01*
X168740001Y-40667332D01*
X168740000Y-44296289D01*
X168696063Y-44340226D01*
X168582795Y-44509744D01*
X168504774Y-44698102D01*
X168465000Y-44898061D01*
X168465000Y-45101939D01*
X168504774Y-45301898D01*
X168582795Y-45490256D01*
X168696063Y-45659774D01*
X168840226Y-45803937D01*
X169009744Y-45917205D01*
X169198102Y-45995226D01*
X169398061Y-46035000D01*
X169601939Y-46035000D01*
X169801898Y-45995226D01*
X169990256Y-45917205D01*
X170125000Y-45827172D01*
X170259744Y-45917205D01*
X170448102Y-45995226D01*
X170648061Y-46035000D01*
X170851939Y-46035000D01*
X171051898Y-45995226D01*
X171240256Y-45917205D01*
X171409774Y-45803937D01*
X171553937Y-45659774D01*
X171667205Y-45490256D01*
X171745226Y-45301898D01*
X171785000Y-45101939D01*
X171785000Y-44898061D01*
X171745226Y-44698102D01*
X171667205Y-44509744D01*
X171553937Y-44340226D01*
X171510000Y-44296289D01*
X171510000Y-42510000D01*
X172547680Y-42510000D01*
X172585002Y-42513676D01*
X172622324Y-42510000D01*
X172622335Y-42510000D01*
X172733988Y-42499003D01*
X172877249Y-42455546D01*
X173009278Y-42384974D01*
X173125003Y-42290001D01*
X173148805Y-42260998D01*
X173799805Y-41609999D01*
X174322679Y-41609999D01*
X174360001Y-41613675D01*
X174397323Y-41609999D01*
X174397334Y-41609999D01*
X174508987Y-41599002D01*
X174652248Y-41555545D01*
X174784277Y-41484973D01*
X174839698Y-41439490D01*
X174918889Y-41463513D01*
X175137050Y-41485000D01*
X175282950Y-41485000D01*
X175501111Y-41463513D01*
X175781034Y-41378599D01*
X176039014Y-41240706D01*
X176265134Y-41055134D01*
X176289607Y-41025313D01*
X176310498Y-41094180D01*
X176369463Y-41204494D01*
X176448815Y-41301185D01*
X176545506Y-41380537D01*
X176655820Y-41439502D01*
X176775518Y-41475812D01*
X176900000Y-41488072D01*
X178600000Y-41488072D01*
X178724482Y-41475812D01*
X178844180Y-41439502D01*
X178954494Y-41380537D01*
X179051185Y-41301185D01*
X179130537Y-41204494D01*
X179189502Y-41094180D01*
X179225812Y-40974482D01*
X179238072Y-40850000D01*
X179238072Y-39150000D01*
X179225812Y-39025518D01*
X179189502Y-38905820D01*
X179130537Y-38795506D01*
X179060364Y-38710000D01*
X179790000Y-38710000D01*
X179790001Y-65290000D01*
X178635341Y-65290000D01*
X178639281Y-65250001D01*
X178635000Y-65206535D01*
X178635000Y-63043465D01*
X178639281Y-62999999D01*
X178635000Y-62956533D01*
X178635000Y-62956523D01*
X178622195Y-62826510D01*
X178571589Y-62659687D01*
X178489411Y-62505941D01*
X178439288Y-62444866D01*
X178406532Y-62404953D01*
X178406530Y-62404951D01*
X178378817Y-62371183D01*
X178345050Y-62343471D01*
X177256535Y-61254957D01*
X177245226Y-61198102D01*
X177167205Y-61009744D01*
X177053937Y-60840226D01*
X176909774Y-60696063D01*
X176740256Y-60582795D01*
X176551898Y-60504774D01*
X176351939Y-60465000D01*
X176204079Y-60465000D01*
X175744035Y-60004957D01*
X175732726Y-59948102D01*
X175654705Y-59759744D01*
X175541437Y-59590226D01*
X175526452Y-59575241D01*
X175489411Y-59505941D01*
X175378817Y-59371183D01*
X175244059Y-59260589D01*
X175090313Y-59178411D01*
X174923490Y-59127805D01*
X174793477Y-59115000D01*
X174694023Y-59115000D01*
X174564010Y-59127805D01*
X174397187Y-59178411D01*
X174243441Y-59260589D01*
X174108683Y-59371183D01*
X173998089Y-59505941D01*
X173975401Y-59548388D01*
X173933563Y-59590226D01*
X173820295Y-59759744D01*
X173742274Y-59948102D01*
X173702500Y-60148061D01*
X173702500Y-60351939D01*
X173742274Y-60551898D01*
X173820295Y-60740256D01*
X173933563Y-60909774D01*
X174077726Y-61053937D01*
X174247244Y-61167205D01*
X174435602Y-61245226D01*
X174492457Y-61256535D01*
X175330970Y-62095049D01*
X175358683Y-62128817D01*
X175392451Y-62156530D01*
X175392453Y-62156532D01*
X175419113Y-62178411D01*
X175493441Y-62239411D01*
X175562741Y-62276452D01*
X175590226Y-62303937D01*
X175759744Y-62417205D01*
X175948102Y-62495226D01*
X176004957Y-62506535D01*
X176865000Y-63366579D01*
X176865001Y-64515001D01*
X171723436Y-64515001D01*
X171812561Y-64299834D01*
X171885000Y-63935656D01*
X171885000Y-63564344D01*
X171812561Y-63200166D01*
X171670466Y-62857118D01*
X171464175Y-62548382D01*
X171201618Y-62285825D01*
X170892882Y-62079534D01*
X170549834Y-61937439D01*
X170185656Y-61865000D01*
X169814344Y-61865000D01*
X169450166Y-61937439D01*
X169107118Y-62079534D01*
X168798382Y-62285825D01*
X168535825Y-62548382D01*
X168329534Y-62857118D01*
X168187439Y-63200166D01*
X168115000Y-63564344D01*
X168115000Y-63935656D01*
X168187439Y-64299834D01*
X168276564Y-64515001D01*
X165815120Y-64515001D01*
X165809744Y-64510589D01*
X165655998Y-64428411D01*
X165489175Y-64377805D01*
X165359162Y-64365000D01*
X165359154Y-64365000D01*
X165315685Y-64360719D01*
X165286368Y-64363606D01*
X165240256Y-64332795D01*
X165051898Y-64254774D01*
X164851939Y-64215000D01*
X164648061Y-64215000D01*
X164448102Y-64254774D01*
X164259744Y-64332795D01*
X164211546Y-64365000D01*
X160708381Y-64365000D01*
X160710000Y-64356863D01*
X160710000Y-64143137D01*
X160668304Y-63933517D01*
X160586515Y-63736060D01*
X160467775Y-63558353D01*
X160316647Y-63407225D01*
X160138940Y-63288485D01*
X160114327Y-63278290D01*
X160148061Y-63285000D01*
X160351939Y-63285000D01*
X160551898Y-63245226D01*
X160740256Y-63167205D01*
X160909774Y-63053937D01*
X161053937Y-62909774D01*
X161167205Y-62740256D01*
X161245226Y-62551898D01*
X161285000Y-62351939D01*
X161285000Y-62148061D01*
X161245226Y-61948102D01*
X161167205Y-61759744D01*
X161053937Y-61590226D01*
X161010000Y-61546289D01*
X161010000Y-59314801D01*
X161789802Y-58535000D01*
X161851939Y-58535000D01*
X162051898Y-58495226D01*
X162240256Y-58417205D01*
X162409774Y-58303937D01*
X162553937Y-58159774D01*
X162667205Y-57990256D01*
X162745226Y-57801898D01*
X162785000Y-57601939D01*
X162785000Y-57398061D01*
X163715000Y-57398061D01*
X163715000Y-57601939D01*
X163754774Y-57801898D01*
X163832795Y-57990256D01*
X163946063Y-58159774D01*
X163990001Y-58203712D01*
X163990000Y-59712677D01*
X163986324Y-59750000D01*
X163990000Y-59787322D01*
X163990000Y-59787332D01*
X164000997Y-59898985D01*
X164031639Y-60000000D01*
X164044454Y-60042246D01*
X164115026Y-60174276D01*
X164134729Y-60198284D01*
X164209999Y-60290001D01*
X164239003Y-60313804D01*
X165686201Y-61761003D01*
X165709999Y-61790001D01*
X165825724Y-61884974D01*
X165957753Y-61955546D01*
X166101014Y-61999003D01*
X166212667Y-62010000D01*
X166212676Y-62010000D01*
X166249999Y-62013676D01*
X166287322Y-62010000D01*
X167046289Y-62010000D01*
X167090226Y-62053937D01*
X167259744Y-62167205D01*
X167448102Y-62245226D01*
X167648061Y-62285000D01*
X167851939Y-62285000D01*
X168051898Y-62245226D01*
X168240256Y-62167205D01*
X168409774Y-62053937D01*
X168553937Y-61909774D01*
X168667205Y-61740256D01*
X168745226Y-61551898D01*
X168785000Y-61351939D01*
X168785000Y-61148061D01*
X168745226Y-60948102D01*
X168667205Y-60759744D01*
X168553937Y-60590226D01*
X168409774Y-60446063D01*
X168240256Y-60332795D01*
X168051898Y-60254774D01*
X167851939Y-60215000D01*
X167648061Y-60215000D01*
X167448102Y-60254774D01*
X167259744Y-60332795D01*
X167090226Y-60446063D01*
X167046289Y-60490000D01*
X166564802Y-60490000D01*
X165510000Y-59435199D01*
X165510000Y-58314515D01*
X165582795Y-58490256D01*
X165696063Y-58659774D01*
X165840226Y-58803937D01*
X166009744Y-58917205D01*
X166198102Y-58995226D01*
X166398061Y-59035000D01*
X166601939Y-59035000D01*
X166801898Y-58995226D01*
X166990256Y-58917205D01*
X167159774Y-58803937D01*
X167303937Y-58659774D01*
X167417205Y-58490256D01*
X167495226Y-58301898D01*
X167535000Y-58101939D01*
X167535000Y-57898061D01*
X167495226Y-57698102D01*
X167417205Y-57509744D01*
X167303937Y-57340226D01*
X167159774Y-57196063D01*
X166990256Y-57082795D01*
X166960000Y-57070262D01*
X166960000Y-56753711D01*
X167053937Y-56659774D01*
X167167205Y-56490256D01*
X167245226Y-56301898D01*
X167285000Y-56101939D01*
X167285000Y-55898061D01*
X167245226Y-55698102D01*
X167167205Y-55509744D01*
X167053937Y-55340226D01*
X166909774Y-55196063D01*
X166740256Y-55082795D01*
X166551898Y-55004774D01*
X166351939Y-54965000D01*
X166148061Y-54965000D01*
X165948102Y-55004774D01*
X165759744Y-55082795D01*
X165590226Y-55196063D01*
X165446063Y-55340226D01*
X165332795Y-55509744D01*
X165254774Y-55698102D01*
X165215000Y-55898061D01*
X165215000Y-56101939D01*
X165254774Y-56301898D01*
X165332795Y-56490256D01*
X165446063Y-56659774D01*
X165540000Y-56753711D01*
X165540000Y-56826289D01*
X165409774Y-56696063D01*
X165240256Y-56582795D01*
X165051898Y-56504774D01*
X164851939Y-56465000D01*
X164648061Y-56465000D01*
X164448102Y-56504774D01*
X164259744Y-56582795D01*
X164090226Y-56696063D01*
X163946063Y-56840226D01*
X163832795Y-57009744D01*
X163754774Y-57198102D01*
X163715000Y-57398061D01*
X162785000Y-57398061D01*
X162745226Y-57198102D01*
X162667205Y-57009744D01*
X162553937Y-56840226D01*
X162409774Y-56696063D01*
X162240256Y-56582795D01*
X162051898Y-56504774D01*
X161851939Y-56465000D01*
X161648061Y-56465000D01*
X161448102Y-56504774D01*
X161259744Y-56582795D01*
X161090226Y-56696063D01*
X160946063Y-56840226D01*
X160832795Y-57009744D01*
X160754774Y-57198102D01*
X160715000Y-57398061D01*
X160715000Y-57460198D01*
X159739003Y-58436196D01*
X159709999Y-58459999D01*
X159673500Y-58504474D01*
X159615026Y-58575724D01*
X159571499Y-58657157D01*
X159544454Y-58707754D01*
X159500997Y-58851015D01*
X159490000Y-58962668D01*
X159490000Y-58962678D01*
X159486324Y-59000000D01*
X159490000Y-59037323D01*
X159490001Y-61546288D01*
X159446063Y-61590226D01*
X159332795Y-61759744D01*
X159254774Y-61948102D01*
X159215000Y-62148061D01*
X159215000Y-62351939D01*
X159254774Y-62551898D01*
X159332795Y-62740256D01*
X159446063Y-62909774D01*
X159590226Y-63053937D01*
X159759744Y-63167205D01*
X159775261Y-63173632D01*
X159731863Y-63165000D01*
X159518137Y-63165000D01*
X159308517Y-63206696D01*
X159111060Y-63288485D01*
X158933353Y-63407225D01*
X158782225Y-63558353D01*
X158663485Y-63736060D01*
X158581696Y-63933517D01*
X158557373Y-64055795D01*
X158385000Y-63883422D01*
X158385000Y-62288454D01*
X158417205Y-62240256D01*
X158495226Y-62051898D01*
X158535000Y-61851939D01*
X158535000Y-61648061D01*
X158495226Y-61448102D01*
X158417205Y-61259744D01*
X158303937Y-61090226D01*
X158159774Y-60946063D01*
X157990256Y-60832795D01*
X157801898Y-60754774D01*
X157601939Y-60715000D01*
X157398061Y-60715000D01*
X157272377Y-60740000D01*
X156481595Y-60740000D01*
X156431997Y-60735115D01*
X156382399Y-60740000D01*
X156382390Y-60740000D01*
X156234004Y-60754615D01*
X156043618Y-60812368D01*
X155868158Y-60906153D01*
X155714365Y-61032367D01*
X155682742Y-61070900D01*
X152513643Y-64240000D01*
X151535000Y-64240000D01*
X151535000Y-64148061D01*
X151495226Y-63948102D01*
X151417205Y-63759744D01*
X151303937Y-63590226D01*
X151219422Y-63505711D01*
X152013141Y-62711993D01*
X152056449Y-62676451D01*
X152138540Y-62576423D01*
X152277502Y-62618577D01*
X152500000Y-62640491D01*
X152722499Y-62618577D01*
X152936447Y-62553676D01*
X153133623Y-62448284D01*
X153306449Y-62306449D01*
X153448284Y-62133623D01*
X153553676Y-61936447D01*
X153618577Y-61722499D01*
X153635000Y-61555752D01*
X153635000Y-51686377D01*
X171913587Y-51686377D01*
X171950353Y-51886912D01*
X172015960Y-52052288D01*
X171959423Y-52183184D01*
X171916649Y-52382523D01*
X171913587Y-52586377D01*
X171950353Y-52786912D01*
X172015960Y-52952288D01*
X171959423Y-53083184D01*
X171916649Y-53282523D01*
X171913587Y-53486377D01*
X171950353Y-53686912D01*
X172025534Y-53876420D01*
X172040264Y-53903981D01*
X172243559Y-53926836D01*
X172671579Y-53498816D01*
X172821776Y-53531045D01*
X172849166Y-53680439D01*
X172423164Y-54106441D01*
X172446019Y-54309736D01*
X172633184Y-54390577D01*
X172832523Y-54433351D01*
X173036377Y-54436413D01*
X173236912Y-54399647D01*
X173402288Y-54334040D01*
X173533184Y-54390577D01*
X173732523Y-54433351D01*
X173936377Y-54436413D01*
X174136912Y-54399647D01*
X174302288Y-54334040D01*
X174433184Y-54390577D01*
X174632523Y-54433351D01*
X174836377Y-54436413D01*
X175036912Y-54399647D01*
X175226420Y-54324466D01*
X175253981Y-54309736D01*
X175276836Y-54106441D01*
X174848816Y-53678421D01*
X174881045Y-53528224D01*
X175030439Y-53500834D01*
X175456441Y-53926836D01*
X175659736Y-53903981D01*
X175740577Y-53716816D01*
X175783351Y-53517477D01*
X175786413Y-53313623D01*
X175749647Y-53113088D01*
X175684040Y-52947712D01*
X175740577Y-52816816D01*
X175783351Y-52617477D01*
X175786413Y-52413623D01*
X175749647Y-52213088D01*
X175684040Y-52047712D01*
X175740577Y-51916816D01*
X175783351Y-51717477D01*
X175786413Y-51513623D01*
X175749647Y-51313088D01*
X175674466Y-51123580D01*
X175659736Y-51096019D01*
X175456441Y-51073164D01*
X175028421Y-51501184D01*
X174878224Y-51468955D01*
X174850834Y-51319561D01*
X175276836Y-50893559D01*
X175253981Y-50690264D01*
X175066816Y-50609423D01*
X174867477Y-50566649D01*
X174663623Y-50563587D01*
X174463088Y-50600353D01*
X174297712Y-50665960D01*
X174166816Y-50609423D01*
X173967477Y-50566649D01*
X173763623Y-50563587D01*
X173563088Y-50600353D01*
X173397712Y-50665960D01*
X173266816Y-50609423D01*
X173067477Y-50566649D01*
X172863623Y-50563587D01*
X172663088Y-50600353D01*
X172473580Y-50675534D01*
X172446019Y-50690264D01*
X172423164Y-50893559D01*
X172851184Y-51321579D01*
X172818955Y-51471776D01*
X172669561Y-51499166D01*
X172243559Y-51073164D01*
X172040264Y-51096019D01*
X171959423Y-51283184D01*
X171916649Y-51482523D01*
X171913587Y-51686377D01*
X153635000Y-51686377D01*
X153635000Y-51444248D01*
X153618577Y-51277501D01*
X153553676Y-51063553D01*
X153448284Y-50866377D01*
X153385000Y-50789265D01*
X153385000Y-48877195D01*
X153472499Y-48868577D01*
X153686447Y-48803676D01*
X153883623Y-48698284D01*
X154056449Y-48556449D01*
X154198284Y-48383623D01*
X154303676Y-48186447D01*
X154368577Y-47972499D01*
X154390491Y-47750000D01*
X154368577Y-47527501D01*
X154303676Y-47313553D01*
X154198284Y-47116377D01*
X154056449Y-46943551D01*
X153883623Y-46801716D01*
X153686447Y-46696324D01*
X153472499Y-46631423D01*
X153305752Y-46615000D01*
X152305751Y-46615000D01*
X152250000Y-46609509D01*
X152194248Y-46615000D01*
X152027501Y-46631423D01*
X151813553Y-46696324D01*
X151810197Y-46698118D01*
X151806449Y-46693551D01*
X151633623Y-46551716D01*
X151436446Y-46446324D01*
X151222498Y-46381423D01*
X151000000Y-46359509D01*
X150777501Y-46381423D01*
X150563553Y-46446324D01*
X150366377Y-46551716D01*
X150193551Y-46693551D01*
X150051716Y-46866377D01*
X149946324Y-47063554D01*
X149881423Y-47277502D01*
X149865000Y-47444249D01*
X149865000Y-47779868D01*
X149236864Y-48408005D01*
X149193551Y-48443551D01*
X149051716Y-48616377D01*
X148982846Y-48745226D01*
X148946324Y-48813554D01*
X148881423Y-49027502D01*
X148859509Y-49250000D01*
X148865000Y-49305752D01*
X148865000Y-51925444D01*
X148734081Y-51765919D01*
X148523188Y-51592843D01*
X148282581Y-51464236D01*
X148021507Y-51385040D01*
X147818037Y-51365000D01*
X145818037Y-51365000D01*
X145750000Y-51358299D01*
X145681964Y-51365000D01*
X145681963Y-51365000D01*
X145478493Y-51385040D01*
X145217419Y-51464236D01*
X144976812Y-51592843D01*
X144765919Y-51765919D01*
X144592843Y-51976812D01*
X144464236Y-52217419D01*
X144385040Y-52478493D01*
X144358299Y-52750000D01*
X144365000Y-52818037D01*
X144365000Y-53100316D01*
X143591397Y-53873920D01*
X143478493Y-53885040D01*
X143217419Y-53964236D01*
X143069402Y-54043353D01*
X143021641Y-53943080D01*
X142847588Y-53709731D01*
X142631355Y-53514822D01*
X142381252Y-53365843D01*
X142106891Y-53268519D01*
X141877000Y-53389186D01*
X141877000Y-54583000D01*
X141897000Y-54583000D01*
X141897000Y-54837000D01*
X141877000Y-54837000D01*
X141877000Y-54857000D01*
X141623000Y-54857000D01*
X141623000Y-54837000D01*
X140429845Y-54837000D01*
X140308524Y-55066890D01*
X140353175Y-55214099D01*
X140478359Y-55476920D01*
X140652412Y-55710269D01*
X140736466Y-55786034D01*
X140655820Y-55810498D01*
X140545506Y-55869463D01*
X140448815Y-55948815D01*
X140369463Y-56045506D01*
X140310498Y-56155820D01*
X140274188Y-56275518D01*
X140261928Y-56400000D01*
X140261928Y-58100000D01*
X140274188Y-58224482D01*
X140310498Y-58344180D01*
X140369463Y-58454494D01*
X140448815Y-58551185D01*
X140545506Y-58630537D01*
X140655820Y-58689502D01*
X140775518Y-58725812D01*
X140900000Y-58738072D01*
X141279387Y-58738072D01*
X142074183Y-59532869D01*
X142026890Y-59518524D01*
X141797000Y-59639845D01*
X141797000Y-60833000D01*
X141817000Y-60833000D01*
X141817000Y-61087000D01*
X141797000Y-61087000D01*
X141797000Y-63373000D01*
X141817000Y-63373000D01*
X141817000Y-63627000D01*
X141797000Y-63627000D01*
X141797000Y-64820155D01*
X142026890Y-64941476D01*
X142174099Y-64896825D01*
X142436920Y-64771641D01*
X142670269Y-64597588D01*
X142865178Y-64381355D01*
X142934799Y-64264477D01*
X142969294Y-64329014D01*
X143075000Y-64457817D01*
X143075000Y-64646330D01*
X143069509Y-64702081D01*
X143075000Y-64757832D01*
X143075000Y-64757833D01*
X143091423Y-64924580D01*
X143156324Y-65138528D01*
X143237288Y-65290000D01*
X140210000Y-65290000D01*
X140210000Y-63627002D01*
X140349185Y-63627002D01*
X140228519Y-63856891D01*
X140325843Y-64131252D01*
X140474822Y-64381355D01*
X140669731Y-64597588D01*
X140903080Y-64771641D01*
X141165901Y-64896825D01*
X141313110Y-64941476D01*
X141543000Y-64820155D01*
X141543000Y-63627000D01*
X141523000Y-63627000D01*
X141523000Y-63373000D01*
X141543000Y-63373000D01*
X141543000Y-61087000D01*
X141523000Y-61087000D01*
X141523000Y-60833000D01*
X141543000Y-60833000D01*
X141543000Y-59639845D01*
X141313110Y-59518524D01*
X141165901Y-59563175D01*
X140903080Y-59688359D01*
X140669731Y-59862412D01*
X140474822Y-60078645D01*
X140325843Y-60328748D01*
X140228519Y-60603109D01*
X140349185Y-60832998D01*
X140210000Y-60832998D01*
X140210000Y-54353110D01*
X140308524Y-54353110D01*
X140429845Y-54583000D01*
X141623000Y-54583000D01*
X141623000Y-53389186D01*
X141393109Y-53268519D01*
X141118748Y-53365843D01*
X140868645Y-53514822D01*
X140652412Y-53709731D01*
X140478359Y-53943080D01*
X140353175Y-54205901D01*
X140308524Y-54353110D01*
X140210000Y-54353110D01*
X140210000Y-38710000D01*
X148911862Y-38710000D01*
X148798382Y-38785825D01*
X148798382Y-38785825D01*
G37*
X148798382Y-38785825D02*
X148535825Y-39048382D01*
X148329534Y-39357118D01*
X148187439Y-39700166D01*
X148115000Y-40064344D01*
X148115000Y-40435656D01*
X148187439Y-40799834D01*
X148329534Y-41142882D01*
X148535825Y-41451618D01*
X148798382Y-41714175D01*
X149107118Y-41920466D01*
X149450166Y-42062561D01*
X149814344Y-42135000D01*
X150185656Y-42135000D01*
X150549834Y-42062561D01*
X150892882Y-41920466D01*
X151201618Y-41714175D01*
X151464175Y-41451618D01*
X151670466Y-41142882D01*
X151812561Y-40799834D01*
X151885000Y-40435656D01*
X151885000Y-40064344D01*
X151812561Y-39700166D01*
X151670466Y-39357118D01*
X151464175Y-39048382D01*
X151201618Y-38785825D01*
X151088138Y-38710000D01*
X154189636Y-38710000D01*
X154119463Y-38795506D01*
X154060498Y-38905820D01*
X154024188Y-39025518D01*
X154011928Y-39150000D01*
X154011928Y-40850000D01*
X154024188Y-40974482D01*
X154060498Y-41094180D01*
X154119463Y-41204494D01*
X154198815Y-41301185D01*
X154295506Y-41380537D01*
X154405820Y-41439502D01*
X154474687Y-41460393D01*
X154444866Y-41484866D01*
X154259294Y-41710986D01*
X154121401Y-41968966D01*
X154036487Y-42248889D01*
X154007815Y-42540000D01*
X154036487Y-42831111D01*
X154121401Y-43111034D01*
X154259294Y-43369014D01*
X154444866Y-43595134D01*
X154670986Y-43780706D01*
X154928966Y-43918599D01*
X155208889Y-44003513D01*
X155427050Y-44025000D01*
X155572950Y-44025000D01*
X155791111Y-44003513D01*
X156071034Y-43918599D01*
X156329014Y-43780706D01*
X156555134Y-43595134D01*
X156740706Y-43369014D01*
X156770000Y-43314209D01*
X156799294Y-43369014D01*
X156984866Y-43595134D01*
X157210986Y-43780706D01*
X157468966Y-43918599D01*
X157748889Y-44003513D01*
X157967050Y-44025000D01*
X158112950Y-44025000D01*
X158331111Y-44003513D01*
X158611034Y-43918599D01*
X158869014Y-43780706D01*
X159095134Y-43595134D01*
X159280706Y-43369014D01*
X159315201Y-43304477D01*
X159384822Y-43421355D01*
X159579731Y-43637588D01*
X159813080Y-43811641D01*
X160075901Y-43936825D01*
X160223110Y-43981476D01*
X160453000Y-43860155D01*
X160453000Y-42667000D01*
X160707000Y-42667000D01*
X160707000Y-43860155D01*
X160936890Y-43981476D01*
X161084099Y-43936825D01*
X161346920Y-43811641D01*
X161580269Y-43637588D01*
X161775178Y-43421355D01*
X161924157Y-43171252D01*
X162021481Y-42896891D01*
X161900814Y-42667000D01*
X160707000Y-42667000D01*
X160453000Y-42667000D01*
X160433000Y-42667000D01*
X160433000Y-42413000D01*
X160453000Y-42413000D01*
X160453000Y-42393000D01*
X160707000Y-42393000D01*
X160707000Y-42413000D01*
X161900814Y-42413000D01*
X162021481Y-42183109D01*
X161924157Y-41908748D01*
X161775178Y-41658645D01*
X161580269Y-41442412D01*
X161351244Y-41271584D01*
X161409014Y-41240706D01*
X161635134Y-41055134D01*
X161820706Y-40829014D01*
X161958599Y-40571034D01*
X162043513Y-40291111D01*
X162072185Y-40000000D01*
X162043513Y-39708889D01*
X162021099Y-39635000D01*
X163633422Y-39635000D01*
X163743465Y-39745044D01*
X163754774Y-39801898D01*
X163832795Y-39990256D01*
X163946063Y-40159774D01*
X164090226Y-40303937D01*
X164259744Y-40417205D01*
X164448102Y-40495226D01*
X164648061Y-40535000D01*
X164851939Y-40535000D01*
X165051898Y-40495226D01*
X165240256Y-40417205D01*
X165250000Y-40410694D01*
X165259744Y-40417205D01*
X165448102Y-40495226D01*
X165648061Y-40535000D01*
X165851939Y-40535000D01*
X166051898Y-40495226D01*
X166240256Y-40417205D01*
X166409774Y-40303937D01*
X166553937Y-40159774D01*
X166667205Y-39990256D01*
X166745226Y-39801898D01*
X166785000Y-39601939D01*
X166785000Y-39398061D01*
X166745226Y-39198102D01*
X166667205Y-39009744D01*
X166553937Y-38840226D01*
X166423711Y-38710000D01*
X169393209Y-38710000D01*
X169300986Y-38759294D01*
X169074866Y-38944866D01*
X168889294Y-39170986D01*
X168751401Y-39428966D01*
X168666487Y-39708889D01*
X168637815Y-40000000D01*
X168666487Y-40291111D01*
X168744404Y-40547967D01*
X168736324Y-40630000D01*
X168740001Y-40667332D01*
X168740000Y-44296289D01*
X168696063Y-44340226D01*
X168582795Y-44509744D01*
X168504774Y-44698102D01*
X168465000Y-44898061D01*
X168465000Y-45101939D01*
X168504774Y-45301898D01*
X168582795Y-45490256D01*
X168696063Y-45659774D01*
X168840226Y-45803937D01*
X169009744Y-45917205D01*
X169198102Y-45995226D01*
X169398061Y-46035000D01*
X169601939Y-46035000D01*
X169801898Y-45995226D01*
X169990256Y-45917205D01*
X170125000Y-45827172D01*
X170259744Y-45917205D01*
X170448102Y-45995226D01*
X170648061Y-46035000D01*
X170851939Y-46035000D01*
X171051898Y-45995226D01*
X171240256Y-45917205D01*
X171409774Y-45803937D01*
X171553937Y-45659774D01*
X171667205Y-45490256D01*
X171745226Y-45301898D01*
X171785000Y-45101939D01*
X171785000Y-44898061D01*
X171745226Y-44698102D01*
X171667205Y-44509744D01*
X171553937Y-44340226D01*
X171510000Y-44296289D01*
X171510000Y-42510000D01*
X172547680Y-42510000D01*
X172585002Y-42513676D01*
X172622324Y-42510000D01*
X172622335Y-42510000D01*
X172733988Y-42499003D01*
X172877249Y-42455546D01*
X173009278Y-42384974D01*
X173125003Y-42290001D01*
X173148805Y-42260998D01*
X173799805Y-41609999D01*
X174322679Y-41609999D01*
X174360001Y-41613675D01*
X174397323Y-41609999D01*
X174397334Y-41609999D01*
X174508987Y-41599002D01*
X174652248Y-41555545D01*
X174784277Y-41484973D01*
X174839698Y-41439490D01*
X174918889Y-41463513D01*
X175137050Y-41485000D01*
X175282950Y-41485000D01*
X175501111Y-41463513D01*
X175781034Y-41378599D01*
X176039014Y-41240706D01*
X176265134Y-41055134D01*
X176289607Y-41025313D01*
X176310498Y-41094180D01*
X176369463Y-41204494D01*
X176448815Y-41301185D01*
X176545506Y-41380537D01*
X176655820Y-41439502D01*
X176775518Y-41475812D01*
X176900000Y-41488072D01*
X178600000Y-41488072D01*
X178724482Y-41475812D01*
X178844180Y-41439502D01*
X178954494Y-41380537D01*
X179051185Y-41301185D01*
X179130537Y-41204494D01*
X179189502Y-41094180D01*
X179225812Y-40974482D01*
X179238072Y-40850000D01*
X179238072Y-39150000D01*
X179225812Y-39025518D01*
X179189502Y-38905820D01*
X179130537Y-38795506D01*
X179060364Y-38710000D01*
X179790000Y-38710000D01*
X179790001Y-65290000D01*
X178635341Y-65290000D01*
X178639281Y-65250001D01*
X178635000Y-65206535D01*
X178635000Y-63043465D01*
X178639281Y-62999999D01*
X178635000Y-62956533D01*
X178635000Y-62956523D01*
X178622195Y-62826510D01*
X178571589Y-62659687D01*
X178489411Y-62505941D01*
X178439288Y-62444866D01*
X178406532Y-62404953D01*
X178406530Y-62404951D01*
X178378817Y-62371183D01*
X178345050Y-62343471D01*
X177256535Y-61254957D01*
X177245226Y-61198102D01*
X177167205Y-61009744D01*
X177053937Y-60840226D01*
X176909774Y-60696063D01*
X176740256Y-60582795D01*
X176551898Y-60504774D01*
X176351939Y-60465000D01*
X176204079Y-60465000D01*
X175744035Y-60004957D01*
X175732726Y-59948102D01*
X175654705Y-59759744D01*
X175541437Y-59590226D01*
X175526452Y-59575241D01*
X175489411Y-59505941D01*
X175378817Y-59371183D01*
X175244059Y-59260589D01*
X175090313Y-59178411D01*
X174923490Y-59127805D01*
X174793477Y-59115000D01*
X174694023Y-59115000D01*
X174564010Y-59127805D01*
X174397187Y-59178411D01*
X174243441Y-59260589D01*
X174108683Y-59371183D01*
X173998089Y-59505941D01*
X173975401Y-59548388D01*
X173933563Y-59590226D01*
X173820295Y-59759744D01*
X173742274Y-59948102D01*
X173702500Y-60148061D01*
X173702500Y-60351939D01*
X173742274Y-60551898D01*
X173820295Y-60740256D01*
X173933563Y-60909774D01*
X174077726Y-61053937D01*
X174247244Y-61167205D01*
X174435602Y-61245226D01*
X174492457Y-61256535D01*
X175330970Y-62095049D01*
X175358683Y-62128817D01*
X175392451Y-62156530D01*
X175392453Y-62156532D01*
X175419113Y-62178411D01*
X175493441Y-62239411D01*
X175562741Y-62276452D01*
X175590226Y-62303937D01*
X175759744Y-62417205D01*
X175948102Y-62495226D01*
X176004957Y-62506535D01*
X176865000Y-63366579D01*
X176865001Y-64515001D01*
X171723436Y-64515001D01*
X171812561Y-64299834D01*
X171885000Y-63935656D01*
X171885000Y-63564344D01*
X171812561Y-63200166D01*
X171670466Y-62857118D01*
X171464175Y-62548382D01*
X171201618Y-62285825D01*
X170892882Y-62079534D01*
X170549834Y-61937439D01*
X170185656Y-61865000D01*
X169814344Y-61865000D01*
X169450166Y-61937439D01*
X169107118Y-62079534D01*
X168798382Y-62285825D01*
X168535825Y-62548382D01*
X168329534Y-62857118D01*
X168187439Y-63200166D01*
X168115000Y-63564344D01*
X168115000Y-63935656D01*
X168187439Y-64299834D01*
X168276564Y-64515001D01*
X165815120Y-64515001D01*
X165809744Y-64510589D01*
X165655998Y-64428411D01*
X165489175Y-64377805D01*
X165359162Y-64365000D01*
X165359154Y-64365000D01*
X165315685Y-64360719D01*
X165286368Y-64363606D01*
X165240256Y-64332795D01*
X165051898Y-64254774D01*
X164851939Y-64215000D01*
X164648061Y-64215000D01*
X164448102Y-64254774D01*
X164259744Y-64332795D01*
X164211546Y-64365000D01*
X160708381Y-64365000D01*
X160710000Y-64356863D01*
X160710000Y-64143137D01*
X160668304Y-63933517D01*
X160586515Y-63736060D01*
X160467775Y-63558353D01*
X160316647Y-63407225D01*
X160138940Y-63288485D01*
X160114327Y-63278290D01*
X160148061Y-63285000D01*
X160351939Y-63285000D01*
X160551898Y-63245226D01*
X160740256Y-63167205D01*
X160909774Y-63053937D01*
X161053937Y-62909774D01*
X161167205Y-62740256D01*
X161245226Y-62551898D01*
X161285000Y-62351939D01*
X161285000Y-62148061D01*
X161245226Y-61948102D01*
X161167205Y-61759744D01*
X161053937Y-61590226D01*
X161010000Y-61546289D01*
X161010000Y-59314801D01*
X161789802Y-58535000D01*
X161851939Y-58535000D01*
X162051898Y-58495226D01*
X162240256Y-58417205D01*
X162409774Y-58303937D01*
X162553937Y-58159774D01*
X162667205Y-57990256D01*
X162745226Y-57801898D01*
X162785000Y-57601939D01*
X162785000Y-57398061D01*
X163715000Y-57398061D01*
X163715000Y-57601939D01*
X163754774Y-57801898D01*
X163832795Y-57990256D01*
X163946063Y-58159774D01*
X163990001Y-58203712D01*
X163990000Y-59712677D01*
X163986324Y-59750000D01*
X163990000Y-59787322D01*
X163990000Y-59787332D01*
X164000997Y-59898985D01*
X164031639Y-60000000D01*
X164044454Y-60042246D01*
X164115026Y-60174276D01*
X164134729Y-60198284D01*
X164209999Y-60290001D01*
X164239003Y-60313804D01*
X165686201Y-61761003D01*
X165709999Y-61790001D01*
X165825724Y-61884974D01*
X165957753Y-61955546D01*
X166101014Y-61999003D01*
X166212667Y-62010000D01*
X166212676Y-62010000D01*
X166249999Y-62013676D01*
X166287322Y-62010000D01*
X167046289Y-62010000D01*
X167090226Y-62053937D01*
X167259744Y-62167205D01*
X167448102Y-62245226D01*
X167648061Y-62285000D01*
X167851939Y-62285000D01*
X168051898Y-62245226D01*
X168240256Y-62167205D01*
X168409774Y-62053937D01*
X168553937Y-61909774D01*
X168667205Y-61740256D01*
X168745226Y-61551898D01*
X168785000Y-61351939D01*
X168785000Y-61148061D01*
X168745226Y-60948102D01*
X168667205Y-60759744D01*
X168553937Y-60590226D01*
X168409774Y-60446063D01*
X168240256Y-60332795D01*
X168051898Y-60254774D01*
X167851939Y-60215000D01*
X167648061Y-60215000D01*
X167448102Y-60254774D01*
X167259744Y-60332795D01*
X167090226Y-60446063D01*
X167046289Y-60490000D01*
X166564802Y-60490000D01*
X165510000Y-59435199D01*
X165510000Y-58314515D01*
X165582795Y-58490256D01*
X165696063Y-58659774D01*
X165840226Y-58803937D01*
X166009744Y-58917205D01*
X166198102Y-58995226D01*
X166398061Y-59035000D01*
X166601939Y-59035000D01*
X166801898Y-58995226D01*
X166990256Y-58917205D01*
X167159774Y-58803937D01*
X167303937Y-58659774D01*
X167417205Y-58490256D01*
X167495226Y-58301898D01*
X167535000Y-58101939D01*
X167535000Y-57898061D01*
X167495226Y-57698102D01*
X167417205Y-57509744D01*
X167303937Y-57340226D01*
X167159774Y-57196063D01*
X166990256Y-57082795D01*
X166960000Y-57070262D01*
X166960000Y-56753711D01*
X167053937Y-56659774D01*
X167167205Y-56490256D01*
X167245226Y-56301898D01*
X167285000Y-56101939D01*
X167285000Y-55898061D01*
X167245226Y-55698102D01*
X167167205Y-55509744D01*
X167053937Y-55340226D01*
X166909774Y-55196063D01*
X166740256Y-55082795D01*
X166551898Y-55004774D01*
X166351939Y-54965000D01*
X166148061Y-54965000D01*
X165948102Y-55004774D01*
X165759744Y-55082795D01*
X165590226Y-55196063D01*
X165446063Y-55340226D01*
X165332795Y-55509744D01*
X165254774Y-55698102D01*
X165215000Y-55898061D01*
X165215000Y-56101939D01*
X165254774Y-56301898D01*
X165332795Y-56490256D01*
X165446063Y-56659774D01*
X165540000Y-56753711D01*
X165540000Y-56826289D01*
X165409774Y-56696063D01*
X165240256Y-56582795D01*
X165051898Y-56504774D01*
X164851939Y-56465000D01*
X164648061Y-56465000D01*
X164448102Y-56504774D01*
X164259744Y-56582795D01*
X164090226Y-56696063D01*
X163946063Y-56840226D01*
X163832795Y-57009744D01*
X163754774Y-57198102D01*
X163715000Y-57398061D01*
X162785000Y-57398061D01*
X162745226Y-57198102D01*
X162667205Y-57009744D01*
X162553937Y-56840226D01*
X162409774Y-56696063D01*
X162240256Y-56582795D01*
X162051898Y-56504774D01*
X161851939Y-56465000D01*
X161648061Y-56465000D01*
X161448102Y-56504774D01*
X161259744Y-56582795D01*
X161090226Y-56696063D01*
X160946063Y-56840226D01*
X160832795Y-57009744D01*
X160754774Y-57198102D01*
X160715000Y-57398061D01*
X160715000Y-57460198D01*
X159739003Y-58436196D01*
X159709999Y-58459999D01*
X159673500Y-58504474D01*
X159615026Y-58575724D01*
X159571499Y-58657157D01*
X159544454Y-58707754D01*
X159500997Y-58851015D01*
X159490000Y-58962668D01*
X159490000Y-58962678D01*
X159486324Y-59000000D01*
X159490000Y-59037323D01*
X159490001Y-61546288D01*
X159446063Y-61590226D01*
X159332795Y-61759744D01*
X159254774Y-61948102D01*
X159215000Y-62148061D01*
X159215000Y-62351939D01*
X159254774Y-62551898D01*
X159332795Y-62740256D01*
X159446063Y-62909774D01*
X159590226Y-63053937D01*
X159759744Y-63167205D01*
X159775261Y-63173632D01*
X159731863Y-63165000D01*
X159518137Y-63165000D01*
X159308517Y-63206696D01*
X159111060Y-63288485D01*
X158933353Y-63407225D01*
X158782225Y-63558353D01*
X158663485Y-63736060D01*
X158581696Y-63933517D01*
X158557373Y-64055795D01*
X158385000Y-63883422D01*
X158385000Y-62288454D01*
X158417205Y-62240256D01*
X158495226Y-62051898D01*
X158535000Y-61851939D01*
X158535000Y-61648061D01*
X158495226Y-61448102D01*
X158417205Y-61259744D01*
X158303937Y-61090226D01*
X158159774Y-60946063D01*
X157990256Y-60832795D01*
X157801898Y-60754774D01*
X157601939Y-60715000D01*
X157398061Y-60715000D01*
X157272377Y-60740000D01*
X156481595Y-60740000D01*
X156431997Y-60735115D01*
X156382399Y-60740000D01*
X156382390Y-60740000D01*
X156234004Y-60754615D01*
X156043618Y-60812368D01*
X155868158Y-60906153D01*
X155714365Y-61032367D01*
X155682742Y-61070900D01*
X152513643Y-64240000D01*
X151535000Y-64240000D01*
X151535000Y-64148061D01*
X151495226Y-63948102D01*
X151417205Y-63759744D01*
X151303937Y-63590226D01*
X151219422Y-63505711D01*
X152013141Y-62711993D01*
X152056449Y-62676451D01*
X152138540Y-62576423D01*
X152277502Y-62618577D01*
X152500000Y-62640491D01*
X152722499Y-62618577D01*
X152936447Y-62553676D01*
X153133623Y-62448284D01*
X153306449Y-62306449D01*
X153448284Y-62133623D01*
X153553676Y-61936447D01*
X153618577Y-61722499D01*
X153635000Y-61555752D01*
X153635000Y-51686377D01*
X171913587Y-51686377D01*
X171950353Y-51886912D01*
X172015960Y-52052288D01*
X171959423Y-52183184D01*
X171916649Y-52382523D01*
X171913587Y-52586377D01*
X171950353Y-52786912D01*
X172015960Y-52952288D01*
X171959423Y-53083184D01*
X171916649Y-53282523D01*
X171913587Y-53486377D01*
X171950353Y-53686912D01*
X172025534Y-53876420D01*
X172040264Y-53903981D01*
X172243559Y-53926836D01*
X172671579Y-53498816D01*
X172821776Y-53531045D01*
X172849166Y-53680439D01*
X172423164Y-54106441D01*
X172446019Y-54309736D01*
X172633184Y-54390577D01*
X172832523Y-54433351D01*
X173036377Y-54436413D01*
X173236912Y-54399647D01*
X173402288Y-54334040D01*
X173533184Y-54390577D01*
X173732523Y-54433351D01*
X173936377Y-54436413D01*
X174136912Y-54399647D01*
X174302288Y-54334040D01*
X174433184Y-54390577D01*
X174632523Y-54433351D01*
X174836377Y-54436413D01*
X175036912Y-54399647D01*
X175226420Y-54324466D01*
X175253981Y-54309736D01*
X175276836Y-54106441D01*
X174848816Y-53678421D01*
X174881045Y-53528224D01*
X175030439Y-53500834D01*
X175456441Y-53926836D01*
X175659736Y-53903981D01*
X175740577Y-53716816D01*
X175783351Y-53517477D01*
X175786413Y-53313623D01*
X175749647Y-53113088D01*
X175684040Y-52947712D01*
X175740577Y-52816816D01*
X175783351Y-52617477D01*
X175786413Y-52413623D01*
X175749647Y-52213088D01*
X175684040Y-52047712D01*
X175740577Y-51916816D01*
X175783351Y-51717477D01*
X175786413Y-51513623D01*
X175749647Y-51313088D01*
X175674466Y-51123580D01*
X175659736Y-51096019D01*
X175456441Y-51073164D01*
X175028421Y-51501184D01*
X174878224Y-51468955D01*
X174850834Y-51319561D01*
X175276836Y-50893559D01*
X175253981Y-50690264D01*
X175066816Y-50609423D01*
X174867477Y-50566649D01*
X174663623Y-50563587D01*
X174463088Y-50600353D01*
X174297712Y-50665960D01*
X174166816Y-50609423D01*
X173967477Y-50566649D01*
X173763623Y-50563587D01*
X173563088Y-50600353D01*
X173397712Y-50665960D01*
X173266816Y-50609423D01*
X173067477Y-50566649D01*
X172863623Y-50563587D01*
X172663088Y-50600353D01*
X172473580Y-50675534D01*
X172446019Y-50690264D01*
X172423164Y-50893559D01*
X172851184Y-51321579D01*
X172818955Y-51471776D01*
X172669561Y-51499166D01*
X172243559Y-51073164D01*
X172040264Y-51096019D01*
X171959423Y-51283184D01*
X171916649Y-51482523D01*
X171913587Y-51686377D01*
X153635000Y-51686377D01*
X153635000Y-51444248D01*
X153618577Y-51277501D01*
X153553676Y-51063553D01*
X153448284Y-50866377D01*
X153385000Y-50789265D01*
X153385000Y-48877195D01*
X153472499Y-48868577D01*
X153686447Y-48803676D01*
X153883623Y-48698284D01*
X154056449Y-48556449D01*
X154198284Y-48383623D01*
X154303676Y-48186447D01*
X154368577Y-47972499D01*
X154390491Y-47750000D01*
X154368577Y-47527501D01*
X154303676Y-47313553D01*
X154198284Y-47116377D01*
X154056449Y-46943551D01*
X153883623Y-46801716D01*
X153686447Y-46696324D01*
X153472499Y-46631423D01*
X153305752Y-46615000D01*
X152305751Y-46615000D01*
X152250000Y-46609509D01*
X152194248Y-46615000D01*
X152027501Y-46631423D01*
X151813553Y-46696324D01*
X151810197Y-46698118D01*
X151806449Y-46693551D01*
X151633623Y-46551716D01*
X151436446Y-46446324D01*
X151222498Y-46381423D01*
X151000000Y-46359509D01*
X150777501Y-46381423D01*
X150563553Y-46446324D01*
X150366377Y-46551716D01*
X150193551Y-46693551D01*
X150051716Y-46866377D01*
X149946324Y-47063554D01*
X149881423Y-47277502D01*
X149865000Y-47444249D01*
X149865000Y-47779868D01*
X149236864Y-48408005D01*
X149193551Y-48443551D01*
X149051716Y-48616377D01*
X148982846Y-48745226D01*
X148946324Y-48813554D01*
X148881423Y-49027502D01*
X148859509Y-49250000D01*
X148865000Y-49305752D01*
X148865000Y-51925444D01*
X148734081Y-51765919D01*
X148523188Y-51592843D01*
X148282581Y-51464236D01*
X148021507Y-51385040D01*
X147818037Y-51365000D01*
X145818037Y-51365000D01*
X145750000Y-51358299D01*
X145681964Y-51365000D01*
X145681963Y-51365000D01*
X145478493Y-51385040D01*
X145217419Y-51464236D01*
X144976812Y-51592843D01*
X144765919Y-51765919D01*
X144592843Y-51976812D01*
X144464236Y-52217419D01*
X144385040Y-52478493D01*
X144358299Y-52750000D01*
X144365000Y-52818037D01*
X144365000Y-53100316D01*
X143591397Y-53873920D01*
X143478493Y-53885040D01*
X143217419Y-53964236D01*
X143069402Y-54043353D01*
X143021641Y-53943080D01*
X142847588Y-53709731D01*
X142631355Y-53514822D01*
X142381252Y-53365843D01*
X142106891Y-53268519D01*
X141877000Y-53389186D01*
X141877000Y-54583000D01*
X141897000Y-54583000D01*
X141897000Y-54837000D01*
X141877000Y-54837000D01*
X141877000Y-54857000D01*
X141623000Y-54857000D01*
X141623000Y-54837000D01*
X140429845Y-54837000D01*
X140308524Y-55066890D01*
X140353175Y-55214099D01*
X140478359Y-55476920D01*
X140652412Y-55710269D01*
X140736466Y-55786034D01*
X140655820Y-55810498D01*
X140545506Y-55869463D01*
X140448815Y-55948815D01*
X140369463Y-56045506D01*
X140310498Y-56155820D01*
X140274188Y-56275518D01*
X140261928Y-56400000D01*
X140261928Y-58100000D01*
X140274188Y-58224482D01*
X140310498Y-58344180D01*
X140369463Y-58454494D01*
X140448815Y-58551185D01*
X140545506Y-58630537D01*
X140655820Y-58689502D01*
X140775518Y-58725812D01*
X140900000Y-58738072D01*
X141279387Y-58738072D01*
X142074183Y-59532869D01*
X142026890Y-59518524D01*
X141797000Y-59639845D01*
X141797000Y-60833000D01*
X141817000Y-60833000D01*
X141817000Y-61087000D01*
X141797000Y-61087000D01*
X141797000Y-63373000D01*
X141817000Y-63373000D01*
X141817000Y-63627000D01*
X141797000Y-63627000D01*
X141797000Y-64820155D01*
X142026890Y-64941476D01*
X142174099Y-64896825D01*
X142436920Y-64771641D01*
X142670269Y-64597588D01*
X142865178Y-64381355D01*
X142934799Y-64264477D01*
X142969294Y-64329014D01*
X143075000Y-64457817D01*
X143075000Y-64646330D01*
X143069509Y-64702081D01*
X143075000Y-64757832D01*
X143075000Y-64757833D01*
X143091423Y-64924580D01*
X143156324Y-65138528D01*
X143237288Y-65290000D01*
X140210000Y-65290000D01*
X140210000Y-63627002D01*
X140349185Y-63627002D01*
X140228519Y-63856891D01*
X140325843Y-64131252D01*
X140474822Y-64381355D01*
X140669731Y-64597588D01*
X140903080Y-64771641D01*
X141165901Y-64896825D01*
X141313110Y-64941476D01*
X141543000Y-64820155D01*
X141543000Y-63627000D01*
X141523000Y-63627000D01*
X141523000Y-63373000D01*
X141543000Y-63373000D01*
X141543000Y-61087000D01*
X141523000Y-61087000D01*
X141523000Y-60833000D01*
X141543000Y-60833000D01*
X141543000Y-59639845D01*
X141313110Y-59518524D01*
X141165901Y-59563175D01*
X140903080Y-59688359D01*
X140669731Y-59862412D01*
X140474822Y-60078645D01*
X140325843Y-60328748D01*
X140228519Y-60603109D01*
X140349185Y-60832998D01*
X140210000Y-60832998D01*
X140210000Y-54353110D01*
X140308524Y-54353110D01*
X140429845Y-54583000D01*
X141623000Y-54583000D01*
X141623000Y-53389186D01*
X141393109Y-53268519D01*
X141118748Y-53365843D01*
X140868645Y-53514822D01*
X140652412Y-53709731D01*
X140478359Y-53943080D01*
X140353175Y-54205901D01*
X140308524Y-54353110D01*
X140210000Y-54353110D01*
X140210000Y-38710000D01*
X148911862Y-38710000D01*
X148798382Y-38785825D01*
G36*
X140228519Y-61316891D02*
X140325843Y-61591252D01*
X140474822Y-61841355D01*
X140669731Y-62057588D01*
X140900880Y-62230000D01*
X140669731Y-62402412D01*
X140474822Y-62618645D01*
X140325843Y-62868748D01*
X140228519Y-63143109D01*
X140349185Y-63372998D01*
X140210000Y-63372998D01*
X140210000Y-61087002D01*
X140349185Y-61087002D01*
X140228519Y-61316891D01*
X140228519Y-61316891D01*
G37*
X140228519Y-61316891D02*
X140325843Y-61591252D01*
X140474822Y-61841355D01*
X140669731Y-62057588D01*
X140900880Y-62230000D01*
X140669731Y-62402412D01*
X140474822Y-62618645D01*
X140325843Y-62868748D01*
X140228519Y-63143109D01*
X140349185Y-63372998D01*
X140210000Y-63372998D01*
X140210000Y-61087002D01*
X140349185Y-61087002D01*
X140228519Y-61316891D01*
G36*
X148798382Y-38785825D02*
X148535825Y-39048382D01*
X148329534Y-39357118D01*
X148187439Y-39700166D01*
X148115000Y-40064344D01*
X148115000Y-40435656D01*
X148187439Y-40799834D01*
X148329534Y-41142882D01*
X148535825Y-41451618D01*
X148798382Y-41714175D01*
X149107118Y-41920466D01*
X149450166Y-42062561D01*
X149814344Y-42135000D01*
X150185656Y-42135000D01*
X150549834Y-42062561D01*
X150892882Y-41920466D01*
X151201618Y-41714175D01*
X151464175Y-41451618D01*
X151670466Y-41142882D01*
X151812561Y-40799834D01*
X151885000Y-40435656D01*
X151885000Y-40064344D01*
X151812561Y-39700166D01*
X151670466Y-39357118D01*
X151464175Y-39048382D01*
X151201618Y-38785825D01*
X151088138Y-38710000D01*
X154189636Y-38710000D01*
X154119463Y-38795506D01*
X154060498Y-38905820D01*
X154024188Y-39025518D01*
X154011928Y-39150000D01*
X154011928Y-40850000D01*
X154024188Y-40974482D01*
X154060498Y-41094180D01*
X154119463Y-41204494D01*
X154198815Y-41301185D01*
X154295506Y-41380537D01*
X154405820Y-41439502D01*
X154474687Y-41460393D01*
X154444866Y-41484866D01*
X154259294Y-41710986D01*
X154121401Y-41968966D01*
X154036487Y-42248889D01*
X154007815Y-42540000D01*
X154036487Y-42831111D01*
X154121401Y-43111034D01*
X154259294Y-43369014D01*
X154444866Y-43595134D01*
X154670986Y-43780706D01*
X154928966Y-43918599D01*
X155208889Y-44003513D01*
X155427050Y-44025000D01*
X155572950Y-44025000D01*
X155791111Y-44003513D01*
X156071034Y-43918599D01*
X156329014Y-43780706D01*
X156555134Y-43595134D01*
X156740706Y-43369014D01*
X156770000Y-43314209D01*
X156799294Y-43369014D01*
X156984866Y-43595134D01*
X157210986Y-43780706D01*
X157468966Y-43918599D01*
X157748889Y-44003513D01*
X157967050Y-44025000D01*
X158112950Y-44025000D01*
X158331111Y-44003513D01*
X158611034Y-43918599D01*
X158869014Y-43780706D01*
X159095134Y-43595134D01*
X159280706Y-43369014D01*
X159315201Y-43304477D01*
X159384822Y-43421355D01*
X159579731Y-43637588D01*
X159813080Y-43811641D01*
X160075901Y-43936825D01*
X160223110Y-43981476D01*
X160453000Y-43860155D01*
X160453000Y-42667000D01*
X160707000Y-42667000D01*
X160707000Y-43860155D01*
X160936890Y-43981476D01*
X161084099Y-43936825D01*
X161346920Y-43811641D01*
X161580269Y-43637588D01*
X161775178Y-43421355D01*
X161924157Y-43171252D01*
X162021481Y-42896891D01*
X161900814Y-42667000D01*
X160707000Y-42667000D01*
X160453000Y-42667000D01*
X160433000Y-42667000D01*
X160433000Y-42413000D01*
X160453000Y-42413000D01*
X160453000Y-42393000D01*
X160707000Y-42393000D01*
X160707000Y-42413000D01*
X161900814Y-42413000D01*
X162021481Y-42183109D01*
X161924157Y-41908748D01*
X161775178Y-41658645D01*
X161580269Y-41442412D01*
X161351244Y-41271584D01*
X161409014Y-41240706D01*
X161635134Y-41055134D01*
X161820706Y-40829014D01*
X161958599Y-40571034D01*
X162043513Y-40291111D01*
X162072185Y-40000000D01*
X162043513Y-39708889D01*
X162021099Y-39635000D01*
X163633422Y-39635000D01*
X163743465Y-39745044D01*
X163754774Y-39801898D01*
X163832795Y-39990256D01*
X163946063Y-40159774D01*
X164090226Y-40303937D01*
X164259744Y-40417205D01*
X164448102Y-40495226D01*
X164648061Y-40535000D01*
X164851939Y-40535000D01*
X165051898Y-40495226D01*
X165240256Y-40417205D01*
X165250000Y-40410694D01*
X165259744Y-40417205D01*
X165448102Y-40495226D01*
X165648061Y-40535000D01*
X165851939Y-40535000D01*
X166051898Y-40495226D01*
X166240256Y-40417205D01*
X166409774Y-40303937D01*
X166553937Y-40159774D01*
X166667205Y-39990256D01*
X166745226Y-39801898D01*
X166785000Y-39601939D01*
X166785000Y-39398061D01*
X166745226Y-39198102D01*
X166667205Y-39009744D01*
X166553937Y-38840226D01*
X166423711Y-38710000D01*
X169393209Y-38710000D01*
X169300986Y-38759294D01*
X169074866Y-38944866D01*
X168889294Y-39170986D01*
X168751401Y-39428966D01*
X168666487Y-39708889D01*
X168637815Y-40000000D01*
X168666487Y-40291111D01*
X168744404Y-40547967D01*
X168736324Y-40630000D01*
X168740001Y-40667332D01*
X168740000Y-44296289D01*
X168696063Y-44340226D01*
X168582795Y-44509744D01*
X168504774Y-44698102D01*
X168465000Y-44898061D01*
X168465000Y-45101939D01*
X168504774Y-45301898D01*
X168582795Y-45490256D01*
X168696063Y-45659774D01*
X168840226Y-45803937D01*
X169009744Y-45917205D01*
X169198102Y-45995226D01*
X169398061Y-46035000D01*
X169601939Y-46035000D01*
X169801898Y-45995226D01*
X169990256Y-45917205D01*
X170125000Y-45827172D01*
X170259744Y-45917205D01*
X170448102Y-45995226D01*
X170648061Y-46035000D01*
X170851939Y-46035000D01*
X171051898Y-45995226D01*
X171240256Y-45917205D01*
X171409774Y-45803937D01*
X171553937Y-45659774D01*
X171667205Y-45490256D01*
X171745226Y-45301898D01*
X171785000Y-45101939D01*
X171785000Y-44898061D01*
X171745226Y-44698102D01*
X171667205Y-44509744D01*
X171553937Y-44340226D01*
X171510000Y-44296289D01*
X171510000Y-42510000D01*
X172547680Y-42510000D01*
X172585002Y-42513676D01*
X172622324Y-42510000D01*
X172622335Y-42510000D01*
X172733988Y-42499003D01*
X172877249Y-42455546D01*
X173009278Y-42384974D01*
X173125003Y-42290001D01*
X173148805Y-42260998D01*
X173799805Y-41609999D01*
X174322679Y-41609999D01*
X174360001Y-41613675D01*
X174397323Y-41609999D01*
X174397334Y-41609999D01*
X174508987Y-41599002D01*
X174652248Y-41555545D01*
X174784277Y-41484973D01*
X174839698Y-41439490D01*
X174918889Y-41463513D01*
X175137050Y-41485000D01*
X175282950Y-41485000D01*
X175501111Y-41463513D01*
X175781034Y-41378599D01*
X176039014Y-41240706D01*
X176265134Y-41055134D01*
X176289607Y-41025313D01*
X176310498Y-41094180D01*
X176369463Y-41204494D01*
X176448815Y-41301185D01*
X176545506Y-41380537D01*
X176655820Y-41439502D01*
X176775518Y-41475812D01*
X176900000Y-41488072D01*
X178600000Y-41488072D01*
X178724482Y-41475812D01*
X178844180Y-41439502D01*
X178954494Y-41380537D01*
X179051185Y-41301185D01*
X179130537Y-41204494D01*
X179189502Y-41094180D01*
X179225812Y-40974482D01*
X179238072Y-40850000D01*
X179238072Y-39150000D01*
X179225812Y-39025518D01*
X179189502Y-38905820D01*
X179130537Y-38795506D01*
X179060364Y-38710000D01*
X179790000Y-38710000D01*
X179790001Y-65290000D01*
X178635341Y-65290000D01*
X178639281Y-65250001D01*
X178635000Y-65206535D01*
X178635000Y-63043465D01*
X178639281Y-62999999D01*
X178635000Y-62956533D01*
X178635000Y-62956523D01*
X178622195Y-62826510D01*
X178571589Y-62659687D01*
X178489411Y-62505941D01*
X178439288Y-62444866D01*
X178406532Y-62404953D01*
X178406530Y-62404951D01*
X178378817Y-62371183D01*
X178345050Y-62343471D01*
X177256535Y-61254957D01*
X177245226Y-61198102D01*
X177167205Y-61009744D01*
X177053937Y-60840226D01*
X176909774Y-60696063D01*
X176740256Y-60582795D01*
X176551898Y-60504774D01*
X176351939Y-60465000D01*
X176204079Y-60465000D01*
X175744035Y-60004957D01*
X175732726Y-59948102D01*
X175654705Y-59759744D01*
X175541437Y-59590226D01*
X175526452Y-59575241D01*
X175489411Y-59505941D01*
X175378817Y-59371183D01*
X175244059Y-59260589D01*
X175090313Y-59178411D01*
X174923490Y-59127805D01*
X174793477Y-59115000D01*
X174694023Y-59115000D01*
X174564010Y-59127805D01*
X174397187Y-59178411D01*
X174243441Y-59260589D01*
X174108683Y-59371183D01*
X173998089Y-59505941D01*
X173975401Y-59548388D01*
X173933563Y-59590226D01*
X173820295Y-59759744D01*
X173742274Y-59948102D01*
X173702500Y-60148061D01*
X173702500Y-60351939D01*
X173742274Y-60551898D01*
X173820295Y-60740256D01*
X173933563Y-60909774D01*
X174077726Y-61053937D01*
X174247244Y-61167205D01*
X174435602Y-61245226D01*
X174492457Y-61256535D01*
X175330970Y-62095049D01*
X175358683Y-62128817D01*
X175392451Y-62156530D01*
X175392453Y-62156532D01*
X175419113Y-62178411D01*
X175493441Y-62239411D01*
X175562741Y-62276452D01*
X175590226Y-62303937D01*
X175759744Y-62417205D01*
X175948102Y-62495226D01*
X176004957Y-62506535D01*
X176865000Y-63366579D01*
X176865001Y-64515001D01*
X171723436Y-64515001D01*
X171812561Y-64299834D01*
X171885000Y-63935656D01*
X171885000Y-63564344D01*
X171812561Y-63200166D01*
X171670466Y-62857118D01*
X171464175Y-62548382D01*
X171201618Y-62285825D01*
X170892882Y-62079534D01*
X170549834Y-61937439D01*
X170185656Y-61865000D01*
X169814344Y-61865000D01*
X169450166Y-61937439D01*
X169107118Y-62079534D01*
X168798382Y-62285825D01*
X168535825Y-62548382D01*
X168329534Y-62857118D01*
X168187439Y-63200166D01*
X168115000Y-63564344D01*
X168115000Y-63935656D01*
X168187439Y-64299834D01*
X168276564Y-64515001D01*
X165815120Y-64515001D01*
X165809744Y-64510589D01*
X165655998Y-64428411D01*
X165489175Y-64377805D01*
X165359162Y-64365000D01*
X165359154Y-64365000D01*
X165315685Y-64360719D01*
X165286368Y-64363606D01*
X165240256Y-64332795D01*
X165051898Y-64254774D01*
X164851939Y-64215000D01*
X164648061Y-64215000D01*
X164448102Y-64254774D01*
X164259744Y-64332795D01*
X164211546Y-64365000D01*
X160708381Y-64365000D01*
X160710000Y-64356863D01*
X160710000Y-64143137D01*
X160668304Y-63933517D01*
X160586515Y-63736060D01*
X160467775Y-63558353D01*
X160316647Y-63407225D01*
X160138940Y-63288485D01*
X160114327Y-63278290D01*
X160148061Y-63285000D01*
X160351939Y-63285000D01*
X160551898Y-63245226D01*
X160740256Y-63167205D01*
X160909774Y-63053937D01*
X161053937Y-62909774D01*
X161167205Y-62740256D01*
X161245226Y-62551898D01*
X161285000Y-62351939D01*
X161285000Y-62148061D01*
X161245226Y-61948102D01*
X161167205Y-61759744D01*
X161053937Y-61590226D01*
X161010000Y-61546289D01*
X161010000Y-59314801D01*
X161789802Y-58535000D01*
X161851939Y-58535000D01*
X162051898Y-58495226D01*
X162240256Y-58417205D01*
X162409774Y-58303937D01*
X162553937Y-58159774D01*
X162667205Y-57990256D01*
X162745226Y-57801898D01*
X162785000Y-57601939D01*
X162785000Y-57398061D01*
X163715000Y-57398061D01*
X163715000Y-57601939D01*
X163754774Y-57801898D01*
X163832795Y-57990256D01*
X163946063Y-58159774D01*
X163990001Y-58203712D01*
X163990000Y-59712677D01*
X163986324Y-59750000D01*
X163990000Y-59787322D01*
X163990000Y-59787332D01*
X164000997Y-59898985D01*
X164031639Y-60000000D01*
X164044454Y-60042246D01*
X164115026Y-60174276D01*
X164134729Y-60198284D01*
X164209999Y-60290001D01*
X164239003Y-60313804D01*
X165686201Y-61761003D01*
X165709999Y-61790001D01*
X165825724Y-61884974D01*
X165957753Y-61955546D01*
X166101014Y-61999003D01*
X166212667Y-62010000D01*
X166212676Y-62010000D01*
X166249999Y-62013676D01*
X166287322Y-62010000D01*
X167046289Y-62010000D01*
X167090226Y-62053937D01*
X167259744Y-62167205D01*
X167448102Y-62245226D01*
X167648061Y-62285000D01*
X167851939Y-62285000D01*
X168051898Y-62245226D01*
X168240256Y-62167205D01*
X168409774Y-62053937D01*
X168553937Y-61909774D01*
X168667205Y-61740256D01*
X168745226Y-61551898D01*
X168785000Y-61351939D01*
X168785000Y-61148061D01*
X168745226Y-60948102D01*
X168667205Y-60759744D01*
X168553937Y-60590226D01*
X168409774Y-60446063D01*
X168240256Y-60332795D01*
X168051898Y-60254774D01*
X167851939Y-60215000D01*
X167648061Y-60215000D01*
X167448102Y-60254774D01*
X167259744Y-60332795D01*
X167090226Y-60446063D01*
X167046289Y-60490000D01*
X166564802Y-60490000D01*
X165510000Y-59435199D01*
X165510000Y-58314515D01*
X165582795Y-58490256D01*
X165696063Y-58659774D01*
X165840226Y-58803937D01*
X166009744Y-58917205D01*
X166198102Y-58995226D01*
X166398061Y-59035000D01*
X166601939Y-59035000D01*
X166801898Y-58995226D01*
X166990256Y-58917205D01*
X167159774Y-58803937D01*
X167303937Y-58659774D01*
X167417205Y-58490256D01*
X167495226Y-58301898D01*
X167535000Y-58101939D01*
X167535000Y-57898061D01*
X167495226Y-57698102D01*
X167417205Y-57509744D01*
X167303937Y-57340226D01*
X167159774Y-57196063D01*
X166990256Y-57082795D01*
X166960000Y-57070262D01*
X166960000Y-56753711D01*
X167053937Y-56659774D01*
X167167205Y-56490256D01*
X167245226Y-56301898D01*
X167285000Y-56101939D01*
X167285000Y-55898061D01*
X167245226Y-55698102D01*
X167167205Y-55509744D01*
X167053937Y-55340226D01*
X166909774Y-55196063D01*
X166740256Y-55082795D01*
X166551898Y-55004774D01*
X166351939Y-54965000D01*
X166148061Y-54965000D01*
X165948102Y-55004774D01*
X165759744Y-55082795D01*
X165590226Y-55196063D01*
X165446063Y-55340226D01*
X165332795Y-55509744D01*
X165254774Y-55698102D01*
X165215000Y-55898061D01*
X165215000Y-56101939D01*
X165254774Y-56301898D01*
X165332795Y-56490256D01*
X165446063Y-56659774D01*
X165540000Y-56753711D01*
X165540000Y-56826289D01*
X165409774Y-56696063D01*
X165240256Y-56582795D01*
X165051898Y-56504774D01*
X164851939Y-56465000D01*
X164648061Y-56465000D01*
X164448102Y-56504774D01*
X164259744Y-56582795D01*
X164090226Y-56696063D01*
X163946063Y-56840226D01*
X163832795Y-57009744D01*
X163754774Y-57198102D01*
X163715000Y-57398061D01*
X162785000Y-57398061D01*
X162745226Y-57198102D01*
X162667205Y-57009744D01*
X162553937Y-56840226D01*
X162409774Y-56696063D01*
X162240256Y-56582795D01*
X162051898Y-56504774D01*
X161851939Y-56465000D01*
X161648061Y-56465000D01*
X161448102Y-56504774D01*
X161259744Y-56582795D01*
X161090226Y-56696063D01*
X160946063Y-56840226D01*
X160832795Y-57009744D01*
X160754774Y-57198102D01*
X160715000Y-57398061D01*
X160715000Y-57460198D01*
X159739003Y-58436196D01*
X159709999Y-58459999D01*
X159673500Y-58504474D01*
X159615026Y-58575724D01*
X159571499Y-58657157D01*
X159544454Y-58707754D01*
X159500997Y-58851015D01*
X159490000Y-58962668D01*
X159490000Y-58962678D01*
X159486324Y-59000000D01*
X159490000Y-59037323D01*
X159490001Y-61546288D01*
X159446063Y-61590226D01*
X159332795Y-61759744D01*
X159254774Y-61948102D01*
X159215000Y-62148061D01*
X159215000Y-62351939D01*
X159254774Y-62551898D01*
X159332795Y-62740256D01*
X159446063Y-62909774D01*
X159590226Y-63053937D01*
X159759744Y-63167205D01*
X159775261Y-63173632D01*
X159731863Y-63165000D01*
X159518137Y-63165000D01*
X159308517Y-63206696D01*
X159111060Y-63288485D01*
X158933353Y-63407225D01*
X158782225Y-63558353D01*
X158663485Y-63736060D01*
X158581696Y-63933517D01*
X158557373Y-64055795D01*
X158385000Y-63883422D01*
X158385000Y-62288454D01*
X158417205Y-62240256D01*
X158495226Y-62051898D01*
X158535000Y-61851939D01*
X158535000Y-61648061D01*
X158495226Y-61448102D01*
X158417205Y-61259744D01*
X158303937Y-61090226D01*
X158159774Y-60946063D01*
X157990256Y-60832795D01*
X157801898Y-60754774D01*
X157601939Y-60715000D01*
X157398061Y-60715000D01*
X157272377Y-60740000D01*
X156481595Y-60740000D01*
X156431997Y-60735115D01*
X156382399Y-60740000D01*
X156382390Y-60740000D01*
X156234004Y-60754615D01*
X156043618Y-60812368D01*
X155868158Y-60906153D01*
X155714365Y-61032367D01*
X155682742Y-61070900D01*
X152513643Y-64240000D01*
X151535000Y-64240000D01*
X151535000Y-64148061D01*
X151495226Y-63948102D01*
X151417205Y-63759744D01*
X151303937Y-63590226D01*
X151219422Y-63505711D01*
X152013141Y-62711993D01*
X152056449Y-62676451D01*
X152138540Y-62576423D01*
X152277502Y-62618577D01*
X152500000Y-62640491D01*
X152722499Y-62618577D01*
X152936447Y-62553676D01*
X153133623Y-62448284D01*
X153306449Y-62306449D01*
X153448284Y-62133623D01*
X153553676Y-61936447D01*
X153618577Y-61722499D01*
X153635000Y-61555752D01*
X153635000Y-51686377D01*
X171913587Y-51686377D01*
X171950353Y-51886912D01*
X172015960Y-52052288D01*
X171959423Y-52183184D01*
X171916649Y-52382523D01*
X171913587Y-52586377D01*
X171950353Y-52786912D01*
X172015960Y-52952288D01*
X171959423Y-53083184D01*
X171916649Y-53282523D01*
X171913587Y-53486377D01*
X171950353Y-53686912D01*
X172025534Y-53876420D01*
X172040264Y-53903981D01*
X172243559Y-53926836D01*
X172671579Y-53498816D01*
X172821776Y-53531045D01*
X172849166Y-53680439D01*
X172423164Y-54106441D01*
X172446019Y-54309736D01*
X172633184Y-54390577D01*
X172832523Y-54433351D01*
X173036377Y-54436413D01*
X173236912Y-54399647D01*
X173402288Y-54334040D01*
X173533184Y-54390577D01*
X173732523Y-54433351D01*
X173936377Y-54436413D01*
X174136912Y-54399647D01*
X174302288Y-54334040D01*
X174433184Y-54390577D01*
X174632523Y-54433351D01*
X174836377Y-54436413D01*
X175036912Y-54399647D01*
X175226420Y-54324466D01*
X175253981Y-54309736D01*
X175276836Y-54106441D01*
X174848816Y-53678421D01*
X174881045Y-53528224D01*
X175030439Y-53500834D01*
X175456441Y-53926836D01*
X175659736Y-53903981D01*
X175740577Y-53716816D01*
X175783351Y-53517477D01*
X175786413Y-53313623D01*
X175749647Y-53113088D01*
X175684040Y-52947712D01*
X175740577Y-52816816D01*
X175783351Y-52617477D01*
X175786413Y-52413623D01*
X175749647Y-52213088D01*
X175684040Y-52047712D01*
X175740577Y-51916816D01*
X175783351Y-51717477D01*
X175786413Y-51513623D01*
X175749647Y-51313088D01*
X175674466Y-51123580D01*
X175659736Y-51096019D01*
X175456441Y-51073164D01*
X175028421Y-51501184D01*
X174878224Y-51468955D01*
X174850834Y-51319561D01*
X175276836Y-50893559D01*
X175253981Y-50690264D01*
X175066816Y-50609423D01*
X174867477Y-50566649D01*
X174663623Y-50563587D01*
X174463088Y-50600353D01*
X174297712Y-50665960D01*
X174166816Y-50609423D01*
X173967477Y-50566649D01*
X173763623Y-50563587D01*
X173563088Y-50600353D01*
X173397712Y-50665960D01*
X173266816Y-50609423D01*
X173067477Y-50566649D01*
X172863623Y-50563587D01*
X172663088Y-50600353D01*
X172473580Y-50675534D01*
X172446019Y-50690264D01*
X172423164Y-50893559D01*
X172851184Y-51321579D01*
X172818955Y-51471776D01*
X172669561Y-51499166D01*
X172243559Y-51073164D01*
X172040264Y-51096019D01*
X171959423Y-51283184D01*
X171916649Y-51482523D01*
X171913587Y-51686377D01*
X153635000Y-51686377D01*
X153635000Y-51444248D01*
X153618577Y-51277501D01*
X153553676Y-51063553D01*
X153448284Y-50866377D01*
X153385000Y-50789265D01*
X153385000Y-48877195D01*
X153472499Y-48868577D01*
X153686447Y-48803676D01*
X153883623Y-48698284D01*
X154056449Y-48556449D01*
X154198284Y-48383623D01*
X154303676Y-48186447D01*
X154368577Y-47972499D01*
X154390491Y-47750000D01*
X154368577Y-47527501D01*
X154303676Y-47313553D01*
X154198284Y-47116377D01*
X154056449Y-46943551D01*
X153883623Y-46801716D01*
X153686447Y-46696324D01*
X153472499Y-46631423D01*
X153305752Y-46615000D01*
X152305751Y-46615000D01*
X152250000Y-46609509D01*
X152194248Y-46615000D01*
X152027501Y-46631423D01*
X151813553Y-46696324D01*
X151810197Y-46698118D01*
X151806449Y-46693551D01*
X151633623Y-46551716D01*
X151436446Y-46446324D01*
X151222498Y-46381423D01*
X151000000Y-46359509D01*
X150777501Y-46381423D01*
X150563553Y-46446324D01*
X150366377Y-46551716D01*
X150193551Y-46693551D01*
X150051716Y-46866377D01*
X149946324Y-47063554D01*
X149881423Y-47277502D01*
X149865000Y-47444249D01*
X149865000Y-47779868D01*
X149236864Y-48408005D01*
X149193551Y-48443551D01*
X149051716Y-48616377D01*
X148982846Y-48745226D01*
X148946324Y-48813554D01*
X148881423Y-49027502D01*
X148859509Y-49250000D01*
X148865000Y-49305752D01*
X148865000Y-51925444D01*
X148734081Y-51765919D01*
X148523188Y-51592843D01*
X148282581Y-51464236D01*
X148021507Y-51385040D01*
X147818037Y-51365000D01*
X145818037Y-51365000D01*
X145750000Y-51358299D01*
X145681964Y-51365000D01*
X145681963Y-51365000D01*
X145478493Y-51385040D01*
X145217419Y-51464236D01*
X144976812Y-51592843D01*
X144765919Y-51765919D01*
X144592843Y-51976812D01*
X144464236Y-52217419D01*
X144385040Y-52478493D01*
X144358299Y-52750000D01*
X144365000Y-52818037D01*
X144365000Y-53100316D01*
X143591397Y-53873920D01*
X143478493Y-53885040D01*
X143217419Y-53964236D01*
X143069402Y-54043353D01*
X143021641Y-53943080D01*
X142847588Y-53709731D01*
X142631355Y-53514822D01*
X142381252Y-53365843D01*
X142106891Y-53268519D01*
X141877000Y-53389186D01*
X141877000Y-54583000D01*
X141897000Y-54583000D01*
X141897000Y-54837000D01*
X141877000Y-54837000D01*
X141877000Y-54857000D01*
X141623000Y-54857000D01*
X141623000Y-54837000D01*
X140429845Y-54837000D01*
X140308524Y-55066890D01*
X140353175Y-55214099D01*
X140478359Y-55476920D01*
X140652412Y-55710269D01*
X140736466Y-55786034D01*
X140655820Y-55810498D01*
X140545506Y-55869463D01*
X140448815Y-55948815D01*
X140369463Y-56045506D01*
X140310498Y-56155820D01*
X140274188Y-56275518D01*
X140261928Y-56400000D01*
X140261928Y-58100000D01*
X140274188Y-58224482D01*
X140310498Y-58344180D01*
X140369463Y-58454494D01*
X140448815Y-58551185D01*
X140545506Y-58630537D01*
X140655820Y-58689502D01*
X140775518Y-58725812D01*
X140900000Y-58738072D01*
X141279387Y-58738072D01*
X142074183Y-59532869D01*
X142026890Y-59518524D01*
X141797000Y-59639845D01*
X141797000Y-60833000D01*
X141817000Y-60833000D01*
X141817000Y-61087000D01*
X141797000Y-61087000D01*
X141797000Y-63373000D01*
X141817000Y-63373000D01*
X141817000Y-63627000D01*
X141797000Y-63627000D01*
X141797000Y-64820155D01*
X142026890Y-64941476D01*
X142174099Y-64896825D01*
X142436920Y-64771641D01*
X142670269Y-64597588D01*
X142865178Y-64381355D01*
X142934799Y-64264477D01*
X142969294Y-64329014D01*
X143075000Y-64457817D01*
X143075000Y-64646330D01*
X143069509Y-64702081D01*
X143075000Y-64757832D01*
X143075000Y-64757833D01*
X143091423Y-64924580D01*
X143156324Y-65138528D01*
X143237288Y-65290000D01*
X140210000Y-65290000D01*
X140210000Y-63627002D01*
X140349185Y-63627002D01*
X140228519Y-63856891D01*
X140325843Y-64131252D01*
X140474822Y-64381355D01*
X140669731Y-64597588D01*
X140903080Y-64771641D01*
X141165901Y-64896825D01*
X141313110Y-64941476D01*
X141543000Y-64820155D01*
X141543000Y-63627000D01*
X141523000Y-63627000D01*
X141523000Y-63373000D01*
X141543000Y-63373000D01*
X141543000Y-61087000D01*
X141523000Y-61087000D01*
X141523000Y-60833000D01*
X141543000Y-60833000D01*
X141543000Y-59639845D01*
X141313110Y-59518524D01*
X141165901Y-59563175D01*
X140903080Y-59688359D01*
X140669731Y-59862412D01*
X140474822Y-60078645D01*
X140325843Y-60328748D01*
X140228519Y-60603109D01*
X140349185Y-60832998D01*
X140210000Y-60832998D01*
X140210000Y-54353110D01*
X140308524Y-54353110D01*
X140429845Y-54583000D01*
X141623000Y-54583000D01*
X141623000Y-53389186D01*
X141393109Y-53268519D01*
X141118748Y-53365843D01*
X140868645Y-53514822D01*
X140652412Y-53709731D01*
X140478359Y-53943080D01*
X140353175Y-54205901D01*
X140308524Y-54353110D01*
X140210000Y-54353110D01*
X140210000Y-38710000D01*
X148911862Y-38710000D01*
X148798382Y-38785825D01*
X148798382Y-38785825D01*
G37*
X148798382Y-38785825D02*
X148535825Y-39048382D01*
X148329534Y-39357118D01*
X148187439Y-39700166D01*
X148115000Y-40064344D01*
X148115000Y-40435656D01*
X148187439Y-40799834D01*
X148329534Y-41142882D01*
X148535825Y-41451618D01*
X148798382Y-41714175D01*
X149107118Y-41920466D01*
X149450166Y-42062561D01*
X149814344Y-42135000D01*
X150185656Y-42135000D01*
X150549834Y-42062561D01*
X150892882Y-41920466D01*
X151201618Y-41714175D01*
X151464175Y-41451618D01*
X151670466Y-41142882D01*
X151812561Y-40799834D01*
X151885000Y-40435656D01*
X151885000Y-40064344D01*
X151812561Y-39700166D01*
X151670466Y-39357118D01*
X151464175Y-39048382D01*
X151201618Y-38785825D01*
X151088138Y-38710000D01*
X154189636Y-38710000D01*
X154119463Y-38795506D01*
X154060498Y-38905820D01*
X154024188Y-39025518D01*
X154011928Y-39150000D01*
X154011928Y-40850000D01*
X154024188Y-40974482D01*
X154060498Y-41094180D01*
X154119463Y-41204494D01*
X154198815Y-41301185D01*
X154295506Y-41380537D01*
X154405820Y-41439502D01*
X154474687Y-41460393D01*
X154444866Y-41484866D01*
X154259294Y-41710986D01*
X154121401Y-41968966D01*
X154036487Y-42248889D01*
X154007815Y-42540000D01*
X154036487Y-42831111D01*
X154121401Y-43111034D01*
X154259294Y-43369014D01*
X154444866Y-43595134D01*
X154670986Y-43780706D01*
X154928966Y-43918599D01*
X155208889Y-44003513D01*
X155427050Y-44025000D01*
X155572950Y-44025000D01*
X155791111Y-44003513D01*
X156071034Y-43918599D01*
X156329014Y-43780706D01*
X156555134Y-43595134D01*
X156740706Y-43369014D01*
X156770000Y-43314209D01*
X156799294Y-43369014D01*
X156984866Y-43595134D01*
X157210986Y-43780706D01*
X157468966Y-43918599D01*
X157748889Y-44003513D01*
X157967050Y-44025000D01*
X158112950Y-44025000D01*
X158331111Y-44003513D01*
X158611034Y-43918599D01*
X158869014Y-43780706D01*
X159095134Y-43595134D01*
X159280706Y-43369014D01*
X159315201Y-43304477D01*
X159384822Y-43421355D01*
X159579731Y-43637588D01*
X159813080Y-43811641D01*
X160075901Y-43936825D01*
X160223110Y-43981476D01*
X160453000Y-43860155D01*
X160453000Y-42667000D01*
X160707000Y-42667000D01*
X160707000Y-43860155D01*
X160936890Y-43981476D01*
X161084099Y-43936825D01*
X161346920Y-43811641D01*
X161580269Y-43637588D01*
X161775178Y-43421355D01*
X161924157Y-43171252D01*
X162021481Y-42896891D01*
X161900814Y-42667000D01*
X160707000Y-42667000D01*
X160453000Y-42667000D01*
X160433000Y-42667000D01*
X160433000Y-42413000D01*
X160453000Y-42413000D01*
X160453000Y-42393000D01*
X160707000Y-42393000D01*
X160707000Y-42413000D01*
X161900814Y-42413000D01*
X162021481Y-42183109D01*
X161924157Y-41908748D01*
X161775178Y-41658645D01*
X161580269Y-41442412D01*
X161351244Y-41271584D01*
X161409014Y-41240706D01*
X161635134Y-41055134D01*
X161820706Y-40829014D01*
X161958599Y-40571034D01*
X162043513Y-40291111D01*
X162072185Y-40000000D01*
X162043513Y-39708889D01*
X162021099Y-39635000D01*
X163633422Y-39635000D01*
X163743465Y-39745044D01*
X163754774Y-39801898D01*
X163832795Y-39990256D01*
X163946063Y-40159774D01*
X164090226Y-40303937D01*
X164259744Y-40417205D01*
X164448102Y-40495226D01*
X164648061Y-40535000D01*
X164851939Y-40535000D01*
X165051898Y-40495226D01*
X165240256Y-40417205D01*
X165250000Y-40410694D01*
X165259744Y-40417205D01*
X165448102Y-40495226D01*
X165648061Y-40535000D01*
X165851939Y-40535000D01*
X166051898Y-40495226D01*
X166240256Y-40417205D01*
X166409774Y-40303937D01*
X166553937Y-40159774D01*
X166667205Y-39990256D01*
X166745226Y-39801898D01*
X166785000Y-39601939D01*
X166785000Y-39398061D01*
X166745226Y-39198102D01*
X166667205Y-39009744D01*
X166553937Y-38840226D01*
X166423711Y-38710000D01*
X169393209Y-38710000D01*
X169300986Y-38759294D01*
X169074866Y-38944866D01*
X168889294Y-39170986D01*
X168751401Y-39428966D01*
X168666487Y-39708889D01*
X168637815Y-40000000D01*
X168666487Y-40291111D01*
X168744404Y-40547967D01*
X168736324Y-40630000D01*
X168740001Y-40667332D01*
X168740000Y-44296289D01*
X168696063Y-44340226D01*
X168582795Y-44509744D01*
X168504774Y-44698102D01*
X168465000Y-44898061D01*
X168465000Y-45101939D01*
X168504774Y-45301898D01*
X168582795Y-45490256D01*
X168696063Y-45659774D01*
X168840226Y-45803937D01*
X169009744Y-45917205D01*
X169198102Y-45995226D01*
X169398061Y-46035000D01*
X169601939Y-46035000D01*
X169801898Y-45995226D01*
X169990256Y-45917205D01*
X170125000Y-45827172D01*
X170259744Y-45917205D01*
X170448102Y-45995226D01*
X170648061Y-46035000D01*
X170851939Y-46035000D01*
X171051898Y-45995226D01*
X171240256Y-45917205D01*
X171409774Y-45803937D01*
X171553937Y-45659774D01*
X171667205Y-45490256D01*
X171745226Y-45301898D01*
X171785000Y-45101939D01*
X171785000Y-44898061D01*
X171745226Y-44698102D01*
X171667205Y-44509744D01*
X171553937Y-44340226D01*
X171510000Y-44296289D01*
X171510000Y-42510000D01*
X172547680Y-42510000D01*
X172585002Y-42513676D01*
X172622324Y-42510000D01*
X172622335Y-42510000D01*
X172733988Y-42499003D01*
X172877249Y-42455546D01*
X173009278Y-42384974D01*
X173125003Y-42290001D01*
X173148805Y-42260998D01*
X173799805Y-41609999D01*
X174322679Y-41609999D01*
X174360001Y-41613675D01*
X174397323Y-41609999D01*
X174397334Y-41609999D01*
X174508987Y-41599002D01*
X174652248Y-41555545D01*
X174784277Y-41484973D01*
X174839698Y-41439490D01*
X174918889Y-41463513D01*
X175137050Y-41485000D01*
X175282950Y-41485000D01*
X175501111Y-41463513D01*
X175781034Y-41378599D01*
X176039014Y-41240706D01*
X176265134Y-41055134D01*
X176289607Y-41025313D01*
X176310498Y-41094180D01*
X176369463Y-41204494D01*
X176448815Y-41301185D01*
X176545506Y-41380537D01*
X176655820Y-41439502D01*
X176775518Y-41475812D01*
X176900000Y-41488072D01*
X178600000Y-41488072D01*
X178724482Y-41475812D01*
X178844180Y-41439502D01*
X178954494Y-41380537D01*
X179051185Y-41301185D01*
X179130537Y-41204494D01*
X179189502Y-41094180D01*
X179225812Y-40974482D01*
X179238072Y-40850000D01*
X179238072Y-39150000D01*
X179225812Y-39025518D01*
X179189502Y-38905820D01*
X179130537Y-38795506D01*
X179060364Y-38710000D01*
X179790000Y-38710000D01*
X179790001Y-65290000D01*
X178635341Y-65290000D01*
X178639281Y-65250001D01*
X178635000Y-65206535D01*
X178635000Y-63043465D01*
X178639281Y-62999999D01*
X178635000Y-62956533D01*
X178635000Y-62956523D01*
X178622195Y-62826510D01*
X178571589Y-62659687D01*
X178489411Y-62505941D01*
X178439288Y-62444866D01*
X178406532Y-62404953D01*
X178406530Y-62404951D01*
X178378817Y-62371183D01*
X178345050Y-62343471D01*
X177256535Y-61254957D01*
X177245226Y-61198102D01*
X177167205Y-61009744D01*
X177053937Y-60840226D01*
X176909774Y-60696063D01*
X176740256Y-60582795D01*
X176551898Y-60504774D01*
X176351939Y-60465000D01*
X176204079Y-60465000D01*
X175744035Y-60004957D01*
X175732726Y-59948102D01*
X175654705Y-59759744D01*
X175541437Y-59590226D01*
X175526452Y-59575241D01*
X175489411Y-59505941D01*
X175378817Y-59371183D01*
X175244059Y-59260589D01*
X175090313Y-59178411D01*
X174923490Y-59127805D01*
X174793477Y-59115000D01*
X174694023Y-59115000D01*
X174564010Y-59127805D01*
X174397187Y-59178411D01*
X174243441Y-59260589D01*
X174108683Y-59371183D01*
X173998089Y-59505941D01*
X173975401Y-59548388D01*
X173933563Y-59590226D01*
X173820295Y-59759744D01*
X173742274Y-59948102D01*
X173702500Y-60148061D01*
X173702500Y-60351939D01*
X173742274Y-60551898D01*
X173820295Y-60740256D01*
X173933563Y-60909774D01*
X174077726Y-61053937D01*
X174247244Y-61167205D01*
X174435602Y-61245226D01*
X174492457Y-61256535D01*
X175330970Y-62095049D01*
X175358683Y-62128817D01*
X175392451Y-62156530D01*
X175392453Y-62156532D01*
X175419113Y-62178411D01*
X175493441Y-62239411D01*
X175562741Y-62276452D01*
X175590226Y-62303937D01*
X175759744Y-62417205D01*
X175948102Y-62495226D01*
X176004957Y-62506535D01*
X176865000Y-63366579D01*
X176865001Y-64515001D01*
X171723436Y-64515001D01*
X171812561Y-64299834D01*
X171885000Y-63935656D01*
X171885000Y-63564344D01*
X171812561Y-63200166D01*
X171670466Y-62857118D01*
X171464175Y-62548382D01*
X171201618Y-62285825D01*
X170892882Y-62079534D01*
X170549834Y-61937439D01*
X170185656Y-61865000D01*
X169814344Y-61865000D01*
X169450166Y-61937439D01*
X169107118Y-62079534D01*
X168798382Y-62285825D01*
X168535825Y-62548382D01*
X168329534Y-62857118D01*
X168187439Y-63200166D01*
X168115000Y-63564344D01*
X168115000Y-63935656D01*
X168187439Y-64299834D01*
X168276564Y-64515001D01*
X165815120Y-64515001D01*
X165809744Y-64510589D01*
X165655998Y-64428411D01*
X165489175Y-64377805D01*
X165359162Y-64365000D01*
X165359154Y-64365000D01*
X165315685Y-64360719D01*
X165286368Y-64363606D01*
X165240256Y-64332795D01*
X165051898Y-64254774D01*
X164851939Y-64215000D01*
X164648061Y-64215000D01*
X164448102Y-64254774D01*
X164259744Y-64332795D01*
X164211546Y-64365000D01*
X160708381Y-64365000D01*
X160710000Y-64356863D01*
X160710000Y-64143137D01*
X160668304Y-63933517D01*
X160586515Y-63736060D01*
X160467775Y-63558353D01*
X160316647Y-63407225D01*
X160138940Y-63288485D01*
X160114327Y-63278290D01*
X160148061Y-63285000D01*
X160351939Y-63285000D01*
X160551898Y-63245226D01*
X160740256Y-63167205D01*
X160909774Y-63053937D01*
X161053937Y-62909774D01*
X161167205Y-62740256D01*
X161245226Y-62551898D01*
X161285000Y-62351939D01*
X161285000Y-62148061D01*
X161245226Y-61948102D01*
X161167205Y-61759744D01*
X161053937Y-61590226D01*
X161010000Y-61546289D01*
X161010000Y-59314801D01*
X161789802Y-58535000D01*
X161851939Y-58535000D01*
X162051898Y-58495226D01*
X162240256Y-58417205D01*
X162409774Y-58303937D01*
X162553937Y-58159774D01*
X162667205Y-57990256D01*
X162745226Y-57801898D01*
X162785000Y-57601939D01*
X162785000Y-57398061D01*
X163715000Y-57398061D01*
X163715000Y-57601939D01*
X163754774Y-57801898D01*
X163832795Y-57990256D01*
X163946063Y-58159774D01*
X163990001Y-58203712D01*
X163990000Y-59712677D01*
X163986324Y-59750000D01*
X163990000Y-59787322D01*
X163990000Y-59787332D01*
X164000997Y-59898985D01*
X164031639Y-60000000D01*
X164044454Y-60042246D01*
X164115026Y-60174276D01*
X164134729Y-60198284D01*
X164209999Y-60290001D01*
X164239003Y-60313804D01*
X165686201Y-61761003D01*
X165709999Y-61790001D01*
X165825724Y-61884974D01*
X165957753Y-61955546D01*
X166101014Y-61999003D01*
X166212667Y-62010000D01*
X166212676Y-62010000D01*
X166249999Y-62013676D01*
X166287322Y-62010000D01*
X167046289Y-62010000D01*
X167090226Y-62053937D01*
X167259744Y-62167205D01*
X167448102Y-62245226D01*
X167648061Y-62285000D01*
X167851939Y-62285000D01*
X168051898Y-62245226D01*
X168240256Y-62167205D01*
X168409774Y-62053937D01*
X168553937Y-61909774D01*
X168667205Y-61740256D01*
X168745226Y-61551898D01*
X168785000Y-61351939D01*
X168785000Y-61148061D01*
X168745226Y-60948102D01*
X168667205Y-60759744D01*
X168553937Y-60590226D01*
X168409774Y-60446063D01*
X168240256Y-60332795D01*
X168051898Y-60254774D01*
X167851939Y-60215000D01*
X167648061Y-60215000D01*
X167448102Y-60254774D01*
X167259744Y-60332795D01*
X167090226Y-60446063D01*
X167046289Y-60490000D01*
X166564802Y-60490000D01*
X165510000Y-59435199D01*
X165510000Y-58314515D01*
X165582795Y-58490256D01*
X165696063Y-58659774D01*
X165840226Y-58803937D01*
X166009744Y-58917205D01*
X166198102Y-58995226D01*
X166398061Y-59035000D01*
X166601939Y-59035000D01*
X166801898Y-58995226D01*
X166990256Y-58917205D01*
X167159774Y-58803937D01*
X167303937Y-58659774D01*
X167417205Y-58490256D01*
X167495226Y-58301898D01*
X167535000Y-58101939D01*
X167535000Y-57898061D01*
X167495226Y-57698102D01*
X167417205Y-57509744D01*
X167303937Y-57340226D01*
X167159774Y-57196063D01*
X166990256Y-57082795D01*
X166960000Y-57070262D01*
X166960000Y-56753711D01*
X167053937Y-56659774D01*
X167167205Y-56490256D01*
X167245226Y-56301898D01*
X167285000Y-56101939D01*
X167285000Y-55898061D01*
X167245226Y-55698102D01*
X167167205Y-55509744D01*
X167053937Y-55340226D01*
X166909774Y-55196063D01*
X166740256Y-55082795D01*
X166551898Y-55004774D01*
X166351939Y-54965000D01*
X166148061Y-54965000D01*
X165948102Y-55004774D01*
X165759744Y-55082795D01*
X165590226Y-55196063D01*
X165446063Y-55340226D01*
X165332795Y-55509744D01*
X165254774Y-55698102D01*
X165215000Y-55898061D01*
X165215000Y-56101939D01*
X165254774Y-56301898D01*
X165332795Y-56490256D01*
X165446063Y-56659774D01*
X165540000Y-56753711D01*
X165540000Y-56826289D01*
X165409774Y-56696063D01*
X165240256Y-56582795D01*
X165051898Y-56504774D01*
X164851939Y-56465000D01*
X164648061Y-56465000D01*
X164448102Y-56504774D01*
X164259744Y-56582795D01*
X164090226Y-56696063D01*
X163946063Y-56840226D01*
X163832795Y-57009744D01*
X163754774Y-57198102D01*
X163715000Y-57398061D01*
X162785000Y-57398061D01*
X162745226Y-57198102D01*
X162667205Y-57009744D01*
X162553937Y-56840226D01*
X162409774Y-56696063D01*
X162240256Y-56582795D01*
X162051898Y-56504774D01*
X161851939Y-56465000D01*
X161648061Y-56465000D01*
X161448102Y-56504774D01*
X161259744Y-56582795D01*
X161090226Y-56696063D01*
X160946063Y-56840226D01*
X160832795Y-57009744D01*
X160754774Y-57198102D01*
X160715000Y-57398061D01*
X160715000Y-57460198D01*
X159739003Y-58436196D01*
X159709999Y-58459999D01*
X159673500Y-58504474D01*
X159615026Y-58575724D01*
X159571499Y-58657157D01*
X159544454Y-58707754D01*
X159500997Y-58851015D01*
X159490000Y-58962668D01*
X159490000Y-58962678D01*
X159486324Y-59000000D01*
X159490000Y-59037323D01*
X159490001Y-61546288D01*
X159446063Y-61590226D01*
X159332795Y-61759744D01*
X159254774Y-61948102D01*
X159215000Y-62148061D01*
X159215000Y-62351939D01*
X159254774Y-62551898D01*
X159332795Y-62740256D01*
X159446063Y-62909774D01*
X159590226Y-63053937D01*
X159759744Y-63167205D01*
X159775261Y-63173632D01*
X159731863Y-63165000D01*
X159518137Y-63165000D01*
X159308517Y-63206696D01*
X159111060Y-63288485D01*
X158933353Y-63407225D01*
X158782225Y-63558353D01*
X158663485Y-63736060D01*
X158581696Y-63933517D01*
X158557373Y-64055795D01*
X158385000Y-63883422D01*
X158385000Y-62288454D01*
X158417205Y-62240256D01*
X158495226Y-62051898D01*
X158535000Y-61851939D01*
X158535000Y-61648061D01*
X158495226Y-61448102D01*
X158417205Y-61259744D01*
X158303937Y-61090226D01*
X158159774Y-60946063D01*
X157990256Y-60832795D01*
X157801898Y-60754774D01*
X157601939Y-60715000D01*
X157398061Y-60715000D01*
X157272377Y-60740000D01*
X156481595Y-60740000D01*
X156431997Y-60735115D01*
X156382399Y-60740000D01*
X156382390Y-60740000D01*
X156234004Y-60754615D01*
X156043618Y-60812368D01*
X155868158Y-60906153D01*
X155714365Y-61032367D01*
X155682742Y-61070900D01*
X152513643Y-64240000D01*
X151535000Y-64240000D01*
X151535000Y-64148061D01*
X151495226Y-63948102D01*
X151417205Y-63759744D01*
X151303937Y-63590226D01*
X151219422Y-63505711D01*
X152013141Y-62711993D01*
X152056449Y-62676451D01*
X152138540Y-62576423D01*
X152277502Y-62618577D01*
X152500000Y-62640491D01*
X152722499Y-62618577D01*
X152936447Y-62553676D01*
X153133623Y-62448284D01*
X153306449Y-62306449D01*
X153448284Y-62133623D01*
X153553676Y-61936447D01*
X153618577Y-61722499D01*
X153635000Y-61555752D01*
X153635000Y-51686377D01*
X171913587Y-51686377D01*
X171950353Y-51886912D01*
X172015960Y-52052288D01*
X171959423Y-52183184D01*
X171916649Y-52382523D01*
X171913587Y-52586377D01*
X171950353Y-52786912D01*
X172015960Y-52952288D01*
X171959423Y-53083184D01*
X171916649Y-53282523D01*
X171913587Y-53486377D01*
X171950353Y-53686912D01*
X172025534Y-53876420D01*
X172040264Y-53903981D01*
X172243559Y-53926836D01*
X172671579Y-53498816D01*
X172821776Y-53531045D01*
X172849166Y-53680439D01*
X172423164Y-54106441D01*
X172446019Y-54309736D01*
X172633184Y-54390577D01*
X172832523Y-54433351D01*
X173036377Y-54436413D01*
X173236912Y-54399647D01*
X173402288Y-54334040D01*
X173533184Y-54390577D01*
X173732523Y-54433351D01*
X173936377Y-54436413D01*
X174136912Y-54399647D01*
X174302288Y-54334040D01*
X174433184Y-54390577D01*
X174632523Y-54433351D01*
X174836377Y-54436413D01*
X175036912Y-54399647D01*
X175226420Y-54324466D01*
X175253981Y-54309736D01*
X175276836Y-54106441D01*
X174848816Y-53678421D01*
X174881045Y-53528224D01*
X175030439Y-53500834D01*
X175456441Y-53926836D01*
X175659736Y-53903981D01*
X175740577Y-53716816D01*
X175783351Y-53517477D01*
X175786413Y-53313623D01*
X175749647Y-53113088D01*
X175684040Y-52947712D01*
X175740577Y-52816816D01*
X175783351Y-52617477D01*
X175786413Y-52413623D01*
X175749647Y-52213088D01*
X175684040Y-52047712D01*
X175740577Y-51916816D01*
X175783351Y-51717477D01*
X175786413Y-51513623D01*
X175749647Y-51313088D01*
X175674466Y-51123580D01*
X175659736Y-51096019D01*
X175456441Y-51073164D01*
X175028421Y-51501184D01*
X174878224Y-51468955D01*
X174850834Y-51319561D01*
X175276836Y-50893559D01*
X175253981Y-50690264D01*
X175066816Y-50609423D01*
X174867477Y-50566649D01*
X174663623Y-50563587D01*
X174463088Y-50600353D01*
X174297712Y-50665960D01*
X174166816Y-50609423D01*
X173967477Y-50566649D01*
X173763623Y-50563587D01*
X173563088Y-50600353D01*
X173397712Y-50665960D01*
X173266816Y-50609423D01*
X173067477Y-50566649D01*
X172863623Y-50563587D01*
X172663088Y-50600353D01*
X172473580Y-50675534D01*
X172446019Y-50690264D01*
X172423164Y-50893559D01*
X172851184Y-51321579D01*
X172818955Y-51471776D01*
X172669561Y-51499166D01*
X172243559Y-51073164D01*
X172040264Y-51096019D01*
X171959423Y-51283184D01*
X171916649Y-51482523D01*
X171913587Y-51686377D01*
X153635000Y-51686377D01*
X153635000Y-51444248D01*
X153618577Y-51277501D01*
X153553676Y-51063553D01*
X153448284Y-50866377D01*
X153385000Y-50789265D01*
X153385000Y-48877195D01*
X153472499Y-48868577D01*
X153686447Y-48803676D01*
X153883623Y-48698284D01*
X154056449Y-48556449D01*
X154198284Y-48383623D01*
X154303676Y-48186447D01*
X154368577Y-47972499D01*
X154390491Y-47750000D01*
X154368577Y-47527501D01*
X154303676Y-47313553D01*
X154198284Y-47116377D01*
X154056449Y-46943551D01*
X153883623Y-46801716D01*
X153686447Y-46696324D01*
X153472499Y-46631423D01*
X153305752Y-46615000D01*
X152305751Y-46615000D01*
X152250000Y-46609509D01*
X152194248Y-46615000D01*
X152027501Y-46631423D01*
X151813553Y-46696324D01*
X151810197Y-46698118D01*
X151806449Y-46693551D01*
X151633623Y-46551716D01*
X151436446Y-46446324D01*
X151222498Y-46381423D01*
X151000000Y-46359509D01*
X150777501Y-46381423D01*
X150563553Y-46446324D01*
X150366377Y-46551716D01*
X150193551Y-46693551D01*
X150051716Y-46866377D01*
X149946324Y-47063554D01*
X149881423Y-47277502D01*
X149865000Y-47444249D01*
X149865000Y-47779868D01*
X149236864Y-48408005D01*
X149193551Y-48443551D01*
X149051716Y-48616377D01*
X148982846Y-48745226D01*
X148946324Y-48813554D01*
X148881423Y-49027502D01*
X148859509Y-49250000D01*
X148865000Y-49305752D01*
X148865000Y-51925444D01*
X148734081Y-51765919D01*
X148523188Y-51592843D01*
X148282581Y-51464236D01*
X148021507Y-51385040D01*
X147818037Y-51365000D01*
X145818037Y-51365000D01*
X145750000Y-51358299D01*
X145681964Y-51365000D01*
X145681963Y-51365000D01*
X145478493Y-51385040D01*
X145217419Y-51464236D01*
X144976812Y-51592843D01*
X144765919Y-51765919D01*
X144592843Y-51976812D01*
X144464236Y-52217419D01*
X144385040Y-52478493D01*
X144358299Y-52750000D01*
X144365000Y-52818037D01*
X144365000Y-53100316D01*
X143591397Y-53873920D01*
X143478493Y-53885040D01*
X143217419Y-53964236D01*
X143069402Y-54043353D01*
X143021641Y-53943080D01*
X142847588Y-53709731D01*
X142631355Y-53514822D01*
X142381252Y-53365843D01*
X142106891Y-53268519D01*
X141877000Y-53389186D01*
X141877000Y-54583000D01*
X141897000Y-54583000D01*
X141897000Y-54837000D01*
X141877000Y-54837000D01*
X141877000Y-54857000D01*
X141623000Y-54857000D01*
X141623000Y-54837000D01*
X140429845Y-54837000D01*
X140308524Y-55066890D01*
X140353175Y-55214099D01*
X140478359Y-55476920D01*
X140652412Y-55710269D01*
X140736466Y-55786034D01*
X140655820Y-55810498D01*
X140545506Y-55869463D01*
X140448815Y-55948815D01*
X140369463Y-56045506D01*
X140310498Y-56155820D01*
X140274188Y-56275518D01*
X140261928Y-56400000D01*
X140261928Y-58100000D01*
X140274188Y-58224482D01*
X140310498Y-58344180D01*
X140369463Y-58454494D01*
X140448815Y-58551185D01*
X140545506Y-58630537D01*
X140655820Y-58689502D01*
X140775518Y-58725812D01*
X140900000Y-58738072D01*
X141279387Y-58738072D01*
X142074183Y-59532869D01*
X142026890Y-59518524D01*
X141797000Y-59639845D01*
X141797000Y-60833000D01*
X141817000Y-60833000D01*
X141817000Y-61087000D01*
X141797000Y-61087000D01*
X141797000Y-63373000D01*
X141817000Y-63373000D01*
X141817000Y-63627000D01*
X141797000Y-63627000D01*
X141797000Y-64820155D01*
X142026890Y-64941476D01*
X142174099Y-64896825D01*
X142436920Y-64771641D01*
X142670269Y-64597588D01*
X142865178Y-64381355D01*
X142934799Y-64264477D01*
X142969294Y-64329014D01*
X143075000Y-64457817D01*
X143075000Y-64646330D01*
X143069509Y-64702081D01*
X143075000Y-64757832D01*
X143075000Y-64757833D01*
X143091423Y-64924580D01*
X143156324Y-65138528D01*
X143237288Y-65290000D01*
X140210000Y-65290000D01*
X140210000Y-63627002D01*
X140349185Y-63627002D01*
X140228519Y-63856891D01*
X140325843Y-64131252D01*
X140474822Y-64381355D01*
X140669731Y-64597588D01*
X140903080Y-64771641D01*
X141165901Y-64896825D01*
X141313110Y-64941476D01*
X141543000Y-64820155D01*
X141543000Y-63627000D01*
X141523000Y-63627000D01*
X141523000Y-63373000D01*
X141543000Y-63373000D01*
X141543000Y-61087000D01*
X141523000Y-61087000D01*
X141523000Y-60833000D01*
X141543000Y-60833000D01*
X141543000Y-59639845D01*
X141313110Y-59518524D01*
X141165901Y-59563175D01*
X140903080Y-59688359D01*
X140669731Y-59862412D01*
X140474822Y-60078645D01*
X140325843Y-60328748D01*
X140228519Y-60603109D01*
X140349185Y-60832998D01*
X140210000Y-60832998D01*
X140210000Y-54353110D01*
X140308524Y-54353110D01*
X140429845Y-54583000D01*
X141623000Y-54583000D01*
X141623000Y-53389186D01*
X141393109Y-53268519D01*
X141118748Y-53365843D01*
X140868645Y-53514822D01*
X140652412Y-53709731D01*
X140478359Y-53943080D01*
X140353175Y-54205901D01*
X140308524Y-54353110D01*
X140210000Y-54353110D01*
X140210000Y-38710000D01*
X148911862Y-38710000D01*
X148798382Y-38785825D01*
G36*
X140228519Y-61316891D02*
X140325843Y-61591252D01*
X140474822Y-61841355D01*
X140669731Y-62057588D01*
X140900880Y-62230000D01*
X140669731Y-62402412D01*
X140474822Y-62618645D01*
X140325843Y-62868748D01*
X140228519Y-63143109D01*
X140349185Y-63372998D01*
X140210000Y-63372998D01*
X140210000Y-61087002D01*
X140349185Y-61087002D01*
X140228519Y-61316891D01*
X140228519Y-61316891D01*
G37*
X140228519Y-61316891D02*
X140325843Y-61591252D01*
X140474822Y-61841355D01*
X140669731Y-62057588D01*
X140900880Y-62230000D01*
X140669731Y-62402412D01*
X140474822Y-62618645D01*
X140325843Y-62868748D01*
X140228519Y-63143109D01*
X140349185Y-63372998D01*
X140210000Y-63372998D01*
X140210000Y-61087002D01*
X140349185Y-61087002D01*
X140228519Y-61316891D01*
G04 #@! TD*
M02*
