G04 #@! TF.GenerationSoftware,KiCad,Pcbnew,5.0.0*
G04 #@! TF.CreationDate,2018-12-15T19:13:02-05:00*
G04 #@! TF.ProjectId,BT_12V_SmartSwitch-panelized-SINGLE,42545F3132565F536D61727453776974,rev?*
G04 #@! TF.SameCoordinates,Original*
G04 #@! TF.FileFunction,Soldermask,Top*
G04 #@! TF.FilePolarity,Negative*
%FSLAX46Y46*%
G04 Gerber Fmt 4.6, Leading zero omitted, Abs format (unit mm)*
G04 Created by KiCad (PCBNEW 5.0.0) date Sat Dec 15 19:13:02 2018*
%MOMM*%
%LPD*%
G01*
G04 APERTURE LIST*
%ADD10R,0.900000X1.950000*%
%ADD11C,1.200000*%
%ADD12R,1.950000X0.900000*%
%ADD13R,3.100000X3.100000*%
%ADD14R,1.700000X1.300000*%
%ADD15C,1.300000*%
%ADD16R,1.150000X2.200000*%
%ADD17R,1.000000X2.200000*%
%ADD18R,1.400000X1.400000*%
%ADD19R,1.900000X1.900000*%
%ADD20R,2.100000X2.100000*%
%ADD21O,2.100000X2.100000*%
%ADD22C,0.100000*%
%ADD23C,1.275000*%
%ADD24C,1.375000*%
%ADD25R,1.300000X1.200000*%
%ADD26C,2.900000*%
%ADD27R,1.400000X2.200000*%
%ADD28R,4.200000X2.400000*%
%ADD29R,1.900000X2.400000*%
G04 APERTURE END LIST*
D10*
G04 #@! TO.C,U2*
X176274000Y-46150000D03*
D11*
X174750000Y-51600000D03*
X174750000Y-52500000D03*
X174750000Y-53400000D03*
X173850000Y-51600000D03*
X172950000Y-51600000D03*
X172950000Y-52500000D03*
X173850000Y-52500000D03*
X173850000Y-53400000D03*
X172950000Y-53400000D03*
D10*
X175374000Y-46150000D03*
X174474000Y-46150000D03*
X173574000Y-46150000D03*
X172674000Y-46150000D03*
X171774000Y-46140000D03*
X170874000Y-46150000D03*
X169974000Y-46150000D03*
D12*
X166750000Y-49125000D03*
X166750000Y-50025000D03*
X166750000Y-50925000D03*
X166750000Y-51825000D03*
X166750000Y-52725000D03*
X166750000Y-53625000D03*
X166750000Y-54525000D03*
X166750000Y-55425000D03*
D10*
X173574000Y-58850000D03*
X176274000Y-58850000D03*
X170874000Y-58850000D03*
X169974000Y-58850000D03*
X171774000Y-58840000D03*
X174474000Y-58850000D03*
X175374000Y-58850000D03*
X172674000Y-58850000D03*
D13*
X173850000Y-52500000D03*
G04 #@! TD*
D14*
G04 #@! TO.C,SW1*
X155650000Y-65300000D03*
X159350000Y-65300000D03*
D15*
X155375000Y-64250000D03*
X159625000Y-64250000D03*
D16*
X158725000Y-63350000D03*
D17*
X157500000Y-63350000D03*
D16*
X156275000Y-63350000D03*
G04 #@! TD*
D18*
G04 #@! TO.C,TP1*
X166250000Y-59000000D03*
G04 #@! TD*
D19*
G04 #@! TO.C,TP2*
X165750000Y-61750000D03*
G04 #@! TD*
G04 #@! TO.C,TP4*
X178750000Y-43250000D03*
G04 #@! TD*
G04 #@! TO.C,TP3*
X175750000Y-43250000D03*
G04 #@! TD*
D20*
G04 #@! TO.C,J3*
X177750000Y-40000000D03*
D21*
X175210000Y-40000000D03*
X172670000Y-40000000D03*
X170130000Y-40000000D03*
G04 #@! TD*
D22*
G04 #@! TO.C,C7*
G36*
X153637493Y-62076535D02*
X153668435Y-62081125D01*
X153698778Y-62088725D01*
X153728230Y-62099263D01*
X153756508Y-62112638D01*
X153783338Y-62128719D01*
X153808463Y-62147353D01*
X153831640Y-62168360D01*
X153852647Y-62191537D01*
X153871281Y-62216662D01*
X153887362Y-62243492D01*
X153900737Y-62271770D01*
X153911275Y-62301222D01*
X153918875Y-62331565D01*
X153923465Y-62362507D01*
X153925000Y-62393750D01*
X153925000Y-63106250D01*
X153923465Y-63137493D01*
X153918875Y-63168435D01*
X153911275Y-63198778D01*
X153900737Y-63228230D01*
X153887362Y-63256508D01*
X153871281Y-63283338D01*
X153852647Y-63308463D01*
X153831640Y-63331640D01*
X153808463Y-63352647D01*
X153783338Y-63371281D01*
X153756508Y-63387362D01*
X153728230Y-63400737D01*
X153698778Y-63411275D01*
X153668435Y-63418875D01*
X153637493Y-63423465D01*
X153606250Y-63425000D01*
X152968750Y-63425000D01*
X152937507Y-63423465D01*
X152906565Y-63418875D01*
X152876222Y-63411275D01*
X152846770Y-63400737D01*
X152818492Y-63387362D01*
X152791662Y-63371281D01*
X152766537Y-63352647D01*
X152743360Y-63331640D01*
X152722353Y-63308463D01*
X152703719Y-63283338D01*
X152687638Y-63256508D01*
X152674263Y-63228230D01*
X152663725Y-63198778D01*
X152656125Y-63168435D01*
X152651535Y-63137493D01*
X152650000Y-63106250D01*
X152650000Y-62393750D01*
X152651535Y-62362507D01*
X152656125Y-62331565D01*
X152663725Y-62301222D01*
X152674263Y-62271770D01*
X152687638Y-62243492D01*
X152703719Y-62216662D01*
X152722353Y-62191537D01*
X152743360Y-62168360D01*
X152766537Y-62147353D01*
X152791662Y-62128719D01*
X152818492Y-62112638D01*
X152846770Y-62099263D01*
X152876222Y-62088725D01*
X152906565Y-62081125D01*
X152937507Y-62076535D01*
X152968750Y-62075000D01*
X153606250Y-62075000D01*
X153637493Y-62076535D01*
X153637493Y-62076535D01*
G37*
D23*
X153287500Y-62750000D03*
D22*
G36*
X152062493Y-62076535D02*
X152093435Y-62081125D01*
X152123778Y-62088725D01*
X152153230Y-62099263D01*
X152181508Y-62112638D01*
X152208338Y-62128719D01*
X152233463Y-62147353D01*
X152256640Y-62168360D01*
X152277647Y-62191537D01*
X152296281Y-62216662D01*
X152312362Y-62243492D01*
X152325737Y-62271770D01*
X152336275Y-62301222D01*
X152343875Y-62331565D01*
X152348465Y-62362507D01*
X152350000Y-62393750D01*
X152350000Y-63106250D01*
X152348465Y-63137493D01*
X152343875Y-63168435D01*
X152336275Y-63198778D01*
X152325737Y-63228230D01*
X152312362Y-63256508D01*
X152296281Y-63283338D01*
X152277647Y-63308463D01*
X152256640Y-63331640D01*
X152233463Y-63352647D01*
X152208338Y-63371281D01*
X152181508Y-63387362D01*
X152153230Y-63400737D01*
X152123778Y-63411275D01*
X152093435Y-63418875D01*
X152062493Y-63423465D01*
X152031250Y-63425000D01*
X151393750Y-63425000D01*
X151362507Y-63423465D01*
X151331565Y-63418875D01*
X151301222Y-63411275D01*
X151271770Y-63400737D01*
X151243492Y-63387362D01*
X151216662Y-63371281D01*
X151191537Y-63352647D01*
X151168360Y-63331640D01*
X151147353Y-63308463D01*
X151128719Y-63283338D01*
X151112638Y-63256508D01*
X151099263Y-63228230D01*
X151088725Y-63198778D01*
X151081125Y-63168435D01*
X151076535Y-63137493D01*
X151075000Y-63106250D01*
X151075000Y-62393750D01*
X151076535Y-62362507D01*
X151081125Y-62331565D01*
X151088725Y-62301222D01*
X151099263Y-62271770D01*
X151112638Y-62243492D01*
X151128719Y-62216662D01*
X151147353Y-62191537D01*
X151168360Y-62168360D01*
X151191537Y-62147353D01*
X151216662Y-62128719D01*
X151243492Y-62112638D01*
X151271770Y-62099263D01*
X151301222Y-62088725D01*
X151331565Y-62081125D01*
X151362507Y-62076535D01*
X151393750Y-62075000D01*
X152031250Y-62075000D01*
X152062493Y-62076535D01*
X152062493Y-62076535D01*
G37*
D23*
X151712500Y-62750000D03*
G04 #@! TD*
D22*
G04 #@! TO.C,C3*
G36*
X173814943Y-42601655D02*
X173848312Y-42606605D01*
X173881035Y-42614802D01*
X173912797Y-42626166D01*
X173943293Y-42640590D01*
X173972227Y-42657932D01*
X173999323Y-42678028D01*
X174024318Y-42700682D01*
X174046972Y-42725677D01*
X174067068Y-42752773D01*
X174084410Y-42781707D01*
X174098834Y-42812203D01*
X174110198Y-42843965D01*
X174118395Y-42876688D01*
X174123345Y-42910057D01*
X174125000Y-42943750D01*
X174125000Y-44056250D01*
X174123345Y-44089943D01*
X174118395Y-44123312D01*
X174110198Y-44156035D01*
X174098834Y-44187797D01*
X174084410Y-44218293D01*
X174067068Y-44247227D01*
X174046972Y-44274323D01*
X174024318Y-44299318D01*
X173999323Y-44321972D01*
X173972227Y-44342068D01*
X173943293Y-44359410D01*
X173912797Y-44373834D01*
X173881035Y-44385198D01*
X173848312Y-44393395D01*
X173814943Y-44398345D01*
X173781250Y-44400000D01*
X173093750Y-44400000D01*
X173060057Y-44398345D01*
X173026688Y-44393395D01*
X172993965Y-44385198D01*
X172962203Y-44373834D01*
X172931707Y-44359410D01*
X172902773Y-44342068D01*
X172875677Y-44321972D01*
X172850682Y-44299318D01*
X172828028Y-44274323D01*
X172807932Y-44247227D01*
X172790590Y-44218293D01*
X172776166Y-44187797D01*
X172764802Y-44156035D01*
X172756605Y-44123312D01*
X172751655Y-44089943D01*
X172750000Y-44056250D01*
X172750000Y-42943750D01*
X172751655Y-42910057D01*
X172756605Y-42876688D01*
X172764802Y-42843965D01*
X172776166Y-42812203D01*
X172790590Y-42781707D01*
X172807932Y-42752773D01*
X172828028Y-42725677D01*
X172850682Y-42700682D01*
X172875677Y-42678028D01*
X172902773Y-42657932D01*
X172931707Y-42640590D01*
X172962203Y-42626166D01*
X172993965Y-42614802D01*
X173026688Y-42606605D01*
X173060057Y-42601655D01*
X173093750Y-42600000D01*
X173781250Y-42600000D01*
X173814943Y-42601655D01*
X173814943Y-42601655D01*
G37*
D24*
X173437500Y-43500000D03*
D22*
G36*
X171939943Y-42601655D02*
X171973312Y-42606605D01*
X172006035Y-42614802D01*
X172037797Y-42626166D01*
X172068293Y-42640590D01*
X172097227Y-42657932D01*
X172124323Y-42678028D01*
X172149318Y-42700682D01*
X172171972Y-42725677D01*
X172192068Y-42752773D01*
X172209410Y-42781707D01*
X172223834Y-42812203D01*
X172235198Y-42843965D01*
X172243395Y-42876688D01*
X172248345Y-42910057D01*
X172250000Y-42943750D01*
X172250000Y-44056250D01*
X172248345Y-44089943D01*
X172243395Y-44123312D01*
X172235198Y-44156035D01*
X172223834Y-44187797D01*
X172209410Y-44218293D01*
X172192068Y-44247227D01*
X172171972Y-44274323D01*
X172149318Y-44299318D01*
X172124323Y-44321972D01*
X172097227Y-44342068D01*
X172068293Y-44359410D01*
X172037797Y-44373834D01*
X172006035Y-44385198D01*
X171973312Y-44393395D01*
X171939943Y-44398345D01*
X171906250Y-44400000D01*
X171218750Y-44400000D01*
X171185057Y-44398345D01*
X171151688Y-44393395D01*
X171118965Y-44385198D01*
X171087203Y-44373834D01*
X171056707Y-44359410D01*
X171027773Y-44342068D01*
X171000677Y-44321972D01*
X170975682Y-44299318D01*
X170953028Y-44274323D01*
X170932932Y-44247227D01*
X170915590Y-44218293D01*
X170901166Y-44187797D01*
X170889802Y-44156035D01*
X170881605Y-44123312D01*
X170876655Y-44089943D01*
X170875000Y-44056250D01*
X170875000Y-42943750D01*
X170876655Y-42910057D01*
X170881605Y-42876688D01*
X170889802Y-42843965D01*
X170901166Y-42812203D01*
X170915590Y-42781707D01*
X170932932Y-42752773D01*
X170953028Y-42725677D01*
X170975682Y-42700682D01*
X171000677Y-42678028D01*
X171027773Y-42657932D01*
X171056707Y-42640590D01*
X171087203Y-42626166D01*
X171118965Y-42614802D01*
X171151688Y-42606605D01*
X171185057Y-42601655D01*
X171218750Y-42600000D01*
X171906250Y-42600000D01*
X171939943Y-42601655D01*
X171939943Y-42601655D01*
G37*
D24*
X171562500Y-43500000D03*
G04 #@! TD*
D22*
G04 #@! TO.C,C6*
G36*
X173939943Y-60601655D02*
X173973312Y-60606605D01*
X174006035Y-60614802D01*
X174037797Y-60626166D01*
X174068293Y-60640590D01*
X174097227Y-60657932D01*
X174124323Y-60678028D01*
X174149318Y-60700682D01*
X174171972Y-60725677D01*
X174192068Y-60752773D01*
X174209410Y-60781707D01*
X174223834Y-60812203D01*
X174235198Y-60843965D01*
X174243395Y-60876688D01*
X174248345Y-60910057D01*
X174250000Y-60943750D01*
X174250000Y-62056250D01*
X174248345Y-62089943D01*
X174243395Y-62123312D01*
X174235198Y-62156035D01*
X174223834Y-62187797D01*
X174209410Y-62218293D01*
X174192068Y-62247227D01*
X174171972Y-62274323D01*
X174149318Y-62299318D01*
X174124323Y-62321972D01*
X174097227Y-62342068D01*
X174068293Y-62359410D01*
X174037797Y-62373834D01*
X174006035Y-62385198D01*
X173973312Y-62393395D01*
X173939943Y-62398345D01*
X173906250Y-62400000D01*
X173218750Y-62400000D01*
X173185057Y-62398345D01*
X173151688Y-62393395D01*
X173118965Y-62385198D01*
X173087203Y-62373834D01*
X173056707Y-62359410D01*
X173027773Y-62342068D01*
X173000677Y-62321972D01*
X172975682Y-62299318D01*
X172953028Y-62274323D01*
X172932932Y-62247227D01*
X172915590Y-62218293D01*
X172901166Y-62187797D01*
X172889802Y-62156035D01*
X172881605Y-62123312D01*
X172876655Y-62089943D01*
X172875000Y-62056250D01*
X172875000Y-60943750D01*
X172876655Y-60910057D01*
X172881605Y-60876688D01*
X172889802Y-60843965D01*
X172901166Y-60812203D01*
X172915590Y-60781707D01*
X172932932Y-60752773D01*
X172953028Y-60725677D01*
X172975682Y-60700682D01*
X173000677Y-60678028D01*
X173027773Y-60657932D01*
X173056707Y-60640590D01*
X173087203Y-60626166D01*
X173118965Y-60614802D01*
X173151688Y-60606605D01*
X173185057Y-60601655D01*
X173218750Y-60600000D01*
X173906250Y-60600000D01*
X173939943Y-60601655D01*
X173939943Y-60601655D01*
G37*
D24*
X173562500Y-61500000D03*
D22*
G36*
X175814943Y-60601655D02*
X175848312Y-60606605D01*
X175881035Y-60614802D01*
X175912797Y-60626166D01*
X175943293Y-60640590D01*
X175972227Y-60657932D01*
X175999323Y-60678028D01*
X176024318Y-60700682D01*
X176046972Y-60725677D01*
X176067068Y-60752773D01*
X176084410Y-60781707D01*
X176098834Y-60812203D01*
X176110198Y-60843965D01*
X176118395Y-60876688D01*
X176123345Y-60910057D01*
X176125000Y-60943750D01*
X176125000Y-62056250D01*
X176123345Y-62089943D01*
X176118395Y-62123312D01*
X176110198Y-62156035D01*
X176098834Y-62187797D01*
X176084410Y-62218293D01*
X176067068Y-62247227D01*
X176046972Y-62274323D01*
X176024318Y-62299318D01*
X175999323Y-62321972D01*
X175972227Y-62342068D01*
X175943293Y-62359410D01*
X175912797Y-62373834D01*
X175881035Y-62385198D01*
X175848312Y-62393395D01*
X175814943Y-62398345D01*
X175781250Y-62400000D01*
X175093750Y-62400000D01*
X175060057Y-62398345D01*
X175026688Y-62393395D01*
X174993965Y-62385198D01*
X174962203Y-62373834D01*
X174931707Y-62359410D01*
X174902773Y-62342068D01*
X174875677Y-62321972D01*
X174850682Y-62299318D01*
X174828028Y-62274323D01*
X174807932Y-62247227D01*
X174790590Y-62218293D01*
X174776166Y-62187797D01*
X174764802Y-62156035D01*
X174756605Y-62123312D01*
X174751655Y-62089943D01*
X174750000Y-62056250D01*
X174750000Y-60943750D01*
X174751655Y-60910057D01*
X174756605Y-60876688D01*
X174764802Y-60843965D01*
X174776166Y-60812203D01*
X174790590Y-60781707D01*
X174807932Y-60752773D01*
X174828028Y-60725677D01*
X174850682Y-60700682D01*
X174875677Y-60678028D01*
X174902773Y-60657932D01*
X174931707Y-60640590D01*
X174962203Y-60626166D01*
X174993965Y-60614802D01*
X175026688Y-60606605D01*
X175060057Y-60601655D01*
X175093750Y-60600000D01*
X175781250Y-60600000D01*
X175814943Y-60601655D01*
X175814943Y-60601655D01*
G37*
D24*
X175437500Y-61500000D03*
G04 #@! TD*
D22*
G04 #@! TO.C,C2*
G36*
X143064943Y-50351655D02*
X143098312Y-50356605D01*
X143131035Y-50364802D01*
X143162797Y-50376166D01*
X143193293Y-50390590D01*
X143222227Y-50407932D01*
X143249323Y-50428028D01*
X143274318Y-50450682D01*
X143296972Y-50475677D01*
X143317068Y-50502773D01*
X143334410Y-50531707D01*
X143348834Y-50562203D01*
X143360198Y-50593965D01*
X143368395Y-50626688D01*
X143373345Y-50660057D01*
X143375000Y-50693750D01*
X143375000Y-51806250D01*
X143373345Y-51839943D01*
X143368395Y-51873312D01*
X143360198Y-51906035D01*
X143348834Y-51937797D01*
X143334410Y-51968293D01*
X143317068Y-51997227D01*
X143296972Y-52024323D01*
X143274318Y-52049318D01*
X143249323Y-52071972D01*
X143222227Y-52092068D01*
X143193293Y-52109410D01*
X143162797Y-52123834D01*
X143131035Y-52135198D01*
X143098312Y-52143395D01*
X143064943Y-52148345D01*
X143031250Y-52150000D01*
X142343750Y-52150000D01*
X142310057Y-52148345D01*
X142276688Y-52143395D01*
X142243965Y-52135198D01*
X142212203Y-52123834D01*
X142181707Y-52109410D01*
X142152773Y-52092068D01*
X142125677Y-52071972D01*
X142100682Y-52049318D01*
X142078028Y-52024323D01*
X142057932Y-51997227D01*
X142040590Y-51968293D01*
X142026166Y-51937797D01*
X142014802Y-51906035D01*
X142006605Y-51873312D01*
X142001655Y-51839943D01*
X142000000Y-51806250D01*
X142000000Y-50693750D01*
X142001655Y-50660057D01*
X142006605Y-50626688D01*
X142014802Y-50593965D01*
X142026166Y-50562203D01*
X142040590Y-50531707D01*
X142057932Y-50502773D01*
X142078028Y-50475677D01*
X142100682Y-50450682D01*
X142125677Y-50428028D01*
X142152773Y-50407932D01*
X142181707Y-50390590D01*
X142212203Y-50376166D01*
X142243965Y-50364802D01*
X142276688Y-50356605D01*
X142310057Y-50351655D01*
X142343750Y-50350000D01*
X143031250Y-50350000D01*
X143064943Y-50351655D01*
X143064943Y-50351655D01*
G37*
D24*
X142687500Y-51250000D03*
D22*
G36*
X141189943Y-50351655D02*
X141223312Y-50356605D01*
X141256035Y-50364802D01*
X141287797Y-50376166D01*
X141318293Y-50390590D01*
X141347227Y-50407932D01*
X141374323Y-50428028D01*
X141399318Y-50450682D01*
X141421972Y-50475677D01*
X141442068Y-50502773D01*
X141459410Y-50531707D01*
X141473834Y-50562203D01*
X141485198Y-50593965D01*
X141493395Y-50626688D01*
X141498345Y-50660057D01*
X141500000Y-50693750D01*
X141500000Y-51806250D01*
X141498345Y-51839943D01*
X141493395Y-51873312D01*
X141485198Y-51906035D01*
X141473834Y-51937797D01*
X141459410Y-51968293D01*
X141442068Y-51997227D01*
X141421972Y-52024323D01*
X141399318Y-52049318D01*
X141374323Y-52071972D01*
X141347227Y-52092068D01*
X141318293Y-52109410D01*
X141287797Y-52123834D01*
X141256035Y-52135198D01*
X141223312Y-52143395D01*
X141189943Y-52148345D01*
X141156250Y-52150000D01*
X140468750Y-52150000D01*
X140435057Y-52148345D01*
X140401688Y-52143395D01*
X140368965Y-52135198D01*
X140337203Y-52123834D01*
X140306707Y-52109410D01*
X140277773Y-52092068D01*
X140250677Y-52071972D01*
X140225682Y-52049318D01*
X140203028Y-52024323D01*
X140182932Y-51997227D01*
X140165590Y-51968293D01*
X140151166Y-51937797D01*
X140139802Y-51906035D01*
X140131605Y-51873312D01*
X140126655Y-51839943D01*
X140125000Y-51806250D01*
X140125000Y-50693750D01*
X140126655Y-50660057D01*
X140131605Y-50626688D01*
X140139802Y-50593965D01*
X140151166Y-50562203D01*
X140165590Y-50531707D01*
X140182932Y-50502773D01*
X140203028Y-50475677D01*
X140225682Y-50450682D01*
X140250677Y-50428028D01*
X140277773Y-50407932D01*
X140306707Y-50390590D01*
X140337203Y-50376166D01*
X140368965Y-50364802D01*
X140401688Y-50356605D01*
X140435057Y-50351655D01*
X140468750Y-50350000D01*
X141156250Y-50350000D01*
X141189943Y-50351655D01*
X141189943Y-50351655D01*
G37*
D24*
X140812500Y-51250000D03*
G04 #@! TD*
D20*
G04 #@! TO.C,J1*
X141750000Y-57250000D03*
D21*
X141750000Y-54710000D03*
G04 #@! TD*
G04 #@! TO.C,J4*
X160580000Y-42540000D03*
X160580000Y-40000000D03*
X158040000Y-42540000D03*
X158040000Y-40000000D03*
X155500000Y-42540000D03*
D20*
X155500000Y-40000000D03*
G04 #@! TD*
G04 #@! TO.C,J2*
X146750000Y-63500000D03*
D21*
X146750000Y-60960000D03*
X144210000Y-63500000D03*
X144210000Y-60960000D03*
X141670000Y-63500000D03*
X141670000Y-60960000D03*
G04 #@! TD*
D25*
G04 #@! TO.C,Q7*
X160500000Y-46400000D03*
X158500000Y-47350000D03*
X158500000Y-45450000D03*
G04 #@! TD*
G04 #@! TO.C,Q4*
X150000000Y-58750000D03*
X150000000Y-60650000D03*
X152000000Y-59700000D03*
G04 #@! TD*
G04 #@! TO.C,Q9*
X152000000Y-46400000D03*
X150000000Y-47350000D03*
X150000000Y-45450000D03*
G04 #@! TD*
G04 #@! TO.C,Q8*
X150000000Y-49850000D03*
X150000000Y-51750000D03*
X152000000Y-50800000D03*
G04 #@! TD*
G04 #@! TO.C,Q6*
X160500000Y-50800000D03*
X158500000Y-51750000D03*
X158500000Y-49850000D03*
G04 #@! TD*
G04 #@! TO.C,Q5*
X150000000Y-54300000D03*
X150000000Y-56200000D03*
X152000000Y-55250000D03*
G04 #@! TD*
D22*
G04 #@! TO.C,R9*
G36*
X156314943Y-45101655D02*
X156348312Y-45106605D01*
X156381035Y-45114802D01*
X156412797Y-45126166D01*
X156443293Y-45140590D01*
X156472227Y-45157932D01*
X156499323Y-45178028D01*
X156524318Y-45200682D01*
X156546972Y-45225677D01*
X156567068Y-45252773D01*
X156584410Y-45281707D01*
X156598834Y-45312203D01*
X156610198Y-45343965D01*
X156618395Y-45376688D01*
X156623345Y-45410057D01*
X156625000Y-45443750D01*
X156625000Y-46556250D01*
X156623345Y-46589943D01*
X156618395Y-46623312D01*
X156610198Y-46656035D01*
X156598834Y-46687797D01*
X156584410Y-46718293D01*
X156567068Y-46747227D01*
X156546972Y-46774323D01*
X156524318Y-46799318D01*
X156499323Y-46821972D01*
X156472227Y-46842068D01*
X156443293Y-46859410D01*
X156412797Y-46873834D01*
X156381035Y-46885198D01*
X156348312Y-46893395D01*
X156314943Y-46898345D01*
X156281250Y-46900000D01*
X155593750Y-46900000D01*
X155560057Y-46898345D01*
X155526688Y-46893395D01*
X155493965Y-46885198D01*
X155462203Y-46873834D01*
X155431707Y-46859410D01*
X155402773Y-46842068D01*
X155375677Y-46821972D01*
X155350682Y-46799318D01*
X155328028Y-46774323D01*
X155307932Y-46747227D01*
X155290590Y-46718293D01*
X155276166Y-46687797D01*
X155264802Y-46656035D01*
X155256605Y-46623312D01*
X155251655Y-46589943D01*
X155250000Y-46556250D01*
X155250000Y-45443750D01*
X155251655Y-45410057D01*
X155256605Y-45376688D01*
X155264802Y-45343965D01*
X155276166Y-45312203D01*
X155290590Y-45281707D01*
X155307932Y-45252773D01*
X155328028Y-45225677D01*
X155350682Y-45200682D01*
X155375677Y-45178028D01*
X155402773Y-45157932D01*
X155431707Y-45140590D01*
X155462203Y-45126166D01*
X155493965Y-45114802D01*
X155526688Y-45106605D01*
X155560057Y-45101655D01*
X155593750Y-45100000D01*
X156281250Y-45100000D01*
X156314943Y-45101655D01*
X156314943Y-45101655D01*
G37*
D24*
X155937500Y-46000000D03*
D22*
G36*
X154439943Y-45101655D02*
X154473312Y-45106605D01*
X154506035Y-45114802D01*
X154537797Y-45126166D01*
X154568293Y-45140590D01*
X154597227Y-45157932D01*
X154624323Y-45178028D01*
X154649318Y-45200682D01*
X154671972Y-45225677D01*
X154692068Y-45252773D01*
X154709410Y-45281707D01*
X154723834Y-45312203D01*
X154735198Y-45343965D01*
X154743395Y-45376688D01*
X154748345Y-45410057D01*
X154750000Y-45443750D01*
X154750000Y-46556250D01*
X154748345Y-46589943D01*
X154743395Y-46623312D01*
X154735198Y-46656035D01*
X154723834Y-46687797D01*
X154709410Y-46718293D01*
X154692068Y-46747227D01*
X154671972Y-46774323D01*
X154649318Y-46799318D01*
X154624323Y-46821972D01*
X154597227Y-46842068D01*
X154568293Y-46859410D01*
X154537797Y-46873834D01*
X154506035Y-46885198D01*
X154473312Y-46893395D01*
X154439943Y-46898345D01*
X154406250Y-46900000D01*
X153718750Y-46900000D01*
X153685057Y-46898345D01*
X153651688Y-46893395D01*
X153618965Y-46885198D01*
X153587203Y-46873834D01*
X153556707Y-46859410D01*
X153527773Y-46842068D01*
X153500677Y-46821972D01*
X153475682Y-46799318D01*
X153453028Y-46774323D01*
X153432932Y-46747227D01*
X153415590Y-46718293D01*
X153401166Y-46687797D01*
X153389802Y-46656035D01*
X153381605Y-46623312D01*
X153376655Y-46589943D01*
X153375000Y-46556250D01*
X153375000Y-45443750D01*
X153376655Y-45410057D01*
X153381605Y-45376688D01*
X153389802Y-45343965D01*
X153401166Y-45312203D01*
X153415590Y-45281707D01*
X153432932Y-45252773D01*
X153453028Y-45225677D01*
X153475682Y-45200682D01*
X153500677Y-45178028D01*
X153527773Y-45157932D01*
X153556707Y-45140590D01*
X153587203Y-45126166D01*
X153618965Y-45114802D01*
X153651688Y-45106605D01*
X153685057Y-45101655D01*
X153718750Y-45100000D01*
X154406250Y-45100000D01*
X154439943Y-45101655D01*
X154439943Y-45101655D01*
G37*
D24*
X154062500Y-46000000D03*
G04 #@! TD*
D22*
G04 #@! TO.C,R10*
G36*
X153814943Y-63801655D02*
X153848312Y-63806605D01*
X153881035Y-63814802D01*
X153912797Y-63826166D01*
X153943293Y-63840590D01*
X153972227Y-63857932D01*
X153999323Y-63878028D01*
X154024318Y-63900682D01*
X154046972Y-63925677D01*
X154067068Y-63952773D01*
X154084410Y-63981707D01*
X154098834Y-64012203D01*
X154110198Y-64043965D01*
X154118395Y-64076688D01*
X154123345Y-64110057D01*
X154125000Y-64143750D01*
X154125000Y-65256250D01*
X154123345Y-65289943D01*
X154118395Y-65323312D01*
X154110198Y-65356035D01*
X154098834Y-65387797D01*
X154084410Y-65418293D01*
X154067068Y-65447227D01*
X154046972Y-65474323D01*
X154024318Y-65499318D01*
X153999323Y-65521972D01*
X153972227Y-65542068D01*
X153943293Y-65559410D01*
X153912797Y-65573834D01*
X153881035Y-65585198D01*
X153848312Y-65593395D01*
X153814943Y-65598345D01*
X153781250Y-65600000D01*
X153093750Y-65600000D01*
X153060057Y-65598345D01*
X153026688Y-65593395D01*
X152993965Y-65585198D01*
X152962203Y-65573834D01*
X152931707Y-65559410D01*
X152902773Y-65542068D01*
X152875677Y-65521972D01*
X152850682Y-65499318D01*
X152828028Y-65474323D01*
X152807932Y-65447227D01*
X152790590Y-65418293D01*
X152776166Y-65387797D01*
X152764802Y-65356035D01*
X152756605Y-65323312D01*
X152751655Y-65289943D01*
X152750000Y-65256250D01*
X152750000Y-64143750D01*
X152751655Y-64110057D01*
X152756605Y-64076688D01*
X152764802Y-64043965D01*
X152776166Y-64012203D01*
X152790590Y-63981707D01*
X152807932Y-63952773D01*
X152828028Y-63925677D01*
X152850682Y-63900682D01*
X152875677Y-63878028D01*
X152902773Y-63857932D01*
X152931707Y-63840590D01*
X152962203Y-63826166D01*
X152993965Y-63814802D01*
X153026688Y-63806605D01*
X153060057Y-63801655D01*
X153093750Y-63800000D01*
X153781250Y-63800000D01*
X153814943Y-63801655D01*
X153814943Y-63801655D01*
G37*
D24*
X153437500Y-64700000D03*
D22*
G36*
X151939943Y-63801655D02*
X151973312Y-63806605D01*
X152006035Y-63814802D01*
X152037797Y-63826166D01*
X152068293Y-63840590D01*
X152097227Y-63857932D01*
X152124323Y-63878028D01*
X152149318Y-63900682D01*
X152171972Y-63925677D01*
X152192068Y-63952773D01*
X152209410Y-63981707D01*
X152223834Y-64012203D01*
X152235198Y-64043965D01*
X152243395Y-64076688D01*
X152248345Y-64110057D01*
X152250000Y-64143750D01*
X152250000Y-65256250D01*
X152248345Y-65289943D01*
X152243395Y-65323312D01*
X152235198Y-65356035D01*
X152223834Y-65387797D01*
X152209410Y-65418293D01*
X152192068Y-65447227D01*
X152171972Y-65474323D01*
X152149318Y-65499318D01*
X152124323Y-65521972D01*
X152097227Y-65542068D01*
X152068293Y-65559410D01*
X152037797Y-65573834D01*
X152006035Y-65585198D01*
X151973312Y-65593395D01*
X151939943Y-65598345D01*
X151906250Y-65600000D01*
X151218750Y-65600000D01*
X151185057Y-65598345D01*
X151151688Y-65593395D01*
X151118965Y-65585198D01*
X151087203Y-65573834D01*
X151056707Y-65559410D01*
X151027773Y-65542068D01*
X151000677Y-65521972D01*
X150975682Y-65499318D01*
X150953028Y-65474323D01*
X150932932Y-65447227D01*
X150915590Y-65418293D01*
X150901166Y-65387797D01*
X150889802Y-65356035D01*
X150881605Y-65323312D01*
X150876655Y-65289943D01*
X150875000Y-65256250D01*
X150875000Y-64143750D01*
X150876655Y-64110057D01*
X150881605Y-64076688D01*
X150889802Y-64043965D01*
X150901166Y-64012203D01*
X150915590Y-63981707D01*
X150932932Y-63952773D01*
X150953028Y-63925677D01*
X150975682Y-63900682D01*
X151000677Y-63878028D01*
X151027773Y-63857932D01*
X151056707Y-63840590D01*
X151087203Y-63826166D01*
X151118965Y-63814802D01*
X151151688Y-63806605D01*
X151185057Y-63801655D01*
X151218750Y-63800000D01*
X151906250Y-63800000D01*
X151939943Y-63801655D01*
X151939943Y-63801655D01*
G37*
D24*
X151562500Y-64700000D03*
G04 #@! TD*
D22*
G04 #@! TO.C,R11*
G36*
X163814943Y-61601655D02*
X163848312Y-61606605D01*
X163881035Y-61614802D01*
X163912797Y-61626166D01*
X163943293Y-61640590D01*
X163972227Y-61657932D01*
X163999323Y-61678028D01*
X164024318Y-61700682D01*
X164046972Y-61725677D01*
X164067068Y-61752773D01*
X164084410Y-61781707D01*
X164098834Y-61812203D01*
X164110198Y-61843965D01*
X164118395Y-61876688D01*
X164123345Y-61910057D01*
X164125000Y-61943750D01*
X164125000Y-63056250D01*
X164123345Y-63089943D01*
X164118395Y-63123312D01*
X164110198Y-63156035D01*
X164098834Y-63187797D01*
X164084410Y-63218293D01*
X164067068Y-63247227D01*
X164046972Y-63274323D01*
X164024318Y-63299318D01*
X163999323Y-63321972D01*
X163972227Y-63342068D01*
X163943293Y-63359410D01*
X163912797Y-63373834D01*
X163881035Y-63385198D01*
X163848312Y-63393395D01*
X163814943Y-63398345D01*
X163781250Y-63400000D01*
X163093750Y-63400000D01*
X163060057Y-63398345D01*
X163026688Y-63393395D01*
X162993965Y-63385198D01*
X162962203Y-63373834D01*
X162931707Y-63359410D01*
X162902773Y-63342068D01*
X162875677Y-63321972D01*
X162850682Y-63299318D01*
X162828028Y-63274323D01*
X162807932Y-63247227D01*
X162790590Y-63218293D01*
X162776166Y-63187797D01*
X162764802Y-63156035D01*
X162756605Y-63123312D01*
X162751655Y-63089943D01*
X162750000Y-63056250D01*
X162750000Y-61943750D01*
X162751655Y-61910057D01*
X162756605Y-61876688D01*
X162764802Y-61843965D01*
X162776166Y-61812203D01*
X162790590Y-61781707D01*
X162807932Y-61752773D01*
X162828028Y-61725677D01*
X162850682Y-61700682D01*
X162875677Y-61678028D01*
X162902773Y-61657932D01*
X162931707Y-61640590D01*
X162962203Y-61626166D01*
X162993965Y-61614802D01*
X163026688Y-61606605D01*
X163060057Y-61601655D01*
X163093750Y-61600000D01*
X163781250Y-61600000D01*
X163814943Y-61601655D01*
X163814943Y-61601655D01*
G37*
D24*
X163437500Y-62500000D03*
D22*
G36*
X161939943Y-61601655D02*
X161973312Y-61606605D01*
X162006035Y-61614802D01*
X162037797Y-61626166D01*
X162068293Y-61640590D01*
X162097227Y-61657932D01*
X162124323Y-61678028D01*
X162149318Y-61700682D01*
X162171972Y-61725677D01*
X162192068Y-61752773D01*
X162209410Y-61781707D01*
X162223834Y-61812203D01*
X162235198Y-61843965D01*
X162243395Y-61876688D01*
X162248345Y-61910057D01*
X162250000Y-61943750D01*
X162250000Y-63056250D01*
X162248345Y-63089943D01*
X162243395Y-63123312D01*
X162235198Y-63156035D01*
X162223834Y-63187797D01*
X162209410Y-63218293D01*
X162192068Y-63247227D01*
X162171972Y-63274323D01*
X162149318Y-63299318D01*
X162124323Y-63321972D01*
X162097227Y-63342068D01*
X162068293Y-63359410D01*
X162037797Y-63373834D01*
X162006035Y-63385198D01*
X161973312Y-63393395D01*
X161939943Y-63398345D01*
X161906250Y-63400000D01*
X161218750Y-63400000D01*
X161185057Y-63398345D01*
X161151688Y-63393395D01*
X161118965Y-63385198D01*
X161087203Y-63373834D01*
X161056707Y-63359410D01*
X161027773Y-63342068D01*
X161000677Y-63321972D01*
X160975682Y-63299318D01*
X160953028Y-63274323D01*
X160932932Y-63247227D01*
X160915590Y-63218293D01*
X160901166Y-63187797D01*
X160889802Y-63156035D01*
X160881605Y-63123312D01*
X160876655Y-63089943D01*
X160875000Y-63056250D01*
X160875000Y-61943750D01*
X160876655Y-61910057D01*
X160881605Y-61876688D01*
X160889802Y-61843965D01*
X160901166Y-61812203D01*
X160915590Y-61781707D01*
X160932932Y-61752773D01*
X160953028Y-61725677D01*
X160975682Y-61700682D01*
X161000677Y-61678028D01*
X161027773Y-61657932D01*
X161056707Y-61640590D01*
X161087203Y-61626166D01*
X161118965Y-61614802D01*
X161151688Y-61606605D01*
X161185057Y-61601655D01*
X161218750Y-61600000D01*
X161906250Y-61600000D01*
X161939943Y-61601655D01*
X161939943Y-61601655D01*
G37*
D24*
X161562500Y-62500000D03*
G04 #@! TD*
D22*
G04 #@! TO.C,R6*
G36*
X164814943Y-49601655D02*
X164848312Y-49606605D01*
X164881035Y-49614802D01*
X164912797Y-49626166D01*
X164943293Y-49640590D01*
X164972227Y-49657932D01*
X164999323Y-49678028D01*
X165024318Y-49700682D01*
X165046972Y-49725677D01*
X165067068Y-49752773D01*
X165084410Y-49781707D01*
X165098834Y-49812203D01*
X165110198Y-49843965D01*
X165118395Y-49876688D01*
X165123345Y-49910057D01*
X165125000Y-49943750D01*
X165125000Y-51056250D01*
X165123345Y-51089943D01*
X165118395Y-51123312D01*
X165110198Y-51156035D01*
X165098834Y-51187797D01*
X165084410Y-51218293D01*
X165067068Y-51247227D01*
X165046972Y-51274323D01*
X165024318Y-51299318D01*
X164999323Y-51321972D01*
X164972227Y-51342068D01*
X164943293Y-51359410D01*
X164912797Y-51373834D01*
X164881035Y-51385198D01*
X164848312Y-51393395D01*
X164814943Y-51398345D01*
X164781250Y-51400000D01*
X164093750Y-51400000D01*
X164060057Y-51398345D01*
X164026688Y-51393395D01*
X163993965Y-51385198D01*
X163962203Y-51373834D01*
X163931707Y-51359410D01*
X163902773Y-51342068D01*
X163875677Y-51321972D01*
X163850682Y-51299318D01*
X163828028Y-51274323D01*
X163807932Y-51247227D01*
X163790590Y-51218293D01*
X163776166Y-51187797D01*
X163764802Y-51156035D01*
X163756605Y-51123312D01*
X163751655Y-51089943D01*
X163750000Y-51056250D01*
X163750000Y-49943750D01*
X163751655Y-49910057D01*
X163756605Y-49876688D01*
X163764802Y-49843965D01*
X163776166Y-49812203D01*
X163790590Y-49781707D01*
X163807932Y-49752773D01*
X163828028Y-49725677D01*
X163850682Y-49700682D01*
X163875677Y-49678028D01*
X163902773Y-49657932D01*
X163931707Y-49640590D01*
X163962203Y-49626166D01*
X163993965Y-49614802D01*
X164026688Y-49606605D01*
X164060057Y-49601655D01*
X164093750Y-49600000D01*
X164781250Y-49600000D01*
X164814943Y-49601655D01*
X164814943Y-49601655D01*
G37*
D24*
X164437500Y-50500000D03*
D22*
G36*
X162939943Y-49601655D02*
X162973312Y-49606605D01*
X163006035Y-49614802D01*
X163037797Y-49626166D01*
X163068293Y-49640590D01*
X163097227Y-49657932D01*
X163124323Y-49678028D01*
X163149318Y-49700682D01*
X163171972Y-49725677D01*
X163192068Y-49752773D01*
X163209410Y-49781707D01*
X163223834Y-49812203D01*
X163235198Y-49843965D01*
X163243395Y-49876688D01*
X163248345Y-49910057D01*
X163250000Y-49943750D01*
X163250000Y-51056250D01*
X163248345Y-51089943D01*
X163243395Y-51123312D01*
X163235198Y-51156035D01*
X163223834Y-51187797D01*
X163209410Y-51218293D01*
X163192068Y-51247227D01*
X163171972Y-51274323D01*
X163149318Y-51299318D01*
X163124323Y-51321972D01*
X163097227Y-51342068D01*
X163068293Y-51359410D01*
X163037797Y-51373834D01*
X163006035Y-51385198D01*
X162973312Y-51393395D01*
X162939943Y-51398345D01*
X162906250Y-51400000D01*
X162218750Y-51400000D01*
X162185057Y-51398345D01*
X162151688Y-51393395D01*
X162118965Y-51385198D01*
X162087203Y-51373834D01*
X162056707Y-51359410D01*
X162027773Y-51342068D01*
X162000677Y-51321972D01*
X161975682Y-51299318D01*
X161953028Y-51274323D01*
X161932932Y-51247227D01*
X161915590Y-51218293D01*
X161901166Y-51187797D01*
X161889802Y-51156035D01*
X161881605Y-51123312D01*
X161876655Y-51089943D01*
X161875000Y-51056250D01*
X161875000Y-49943750D01*
X161876655Y-49910057D01*
X161881605Y-49876688D01*
X161889802Y-49843965D01*
X161901166Y-49812203D01*
X161915590Y-49781707D01*
X161932932Y-49752773D01*
X161953028Y-49725677D01*
X161975682Y-49700682D01*
X162000677Y-49678028D01*
X162027773Y-49657932D01*
X162056707Y-49640590D01*
X162087203Y-49626166D01*
X162118965Y-49614802D01*
X162151688Y-49606605D01*
X162185057Y-49601655D01*
X162218750Y-49600000D01*
X162906250Y-49600000D01*
X162939943Y-49601655D01*
X162939943Y-49601655D01*
G37*
D24*
X162562500Y-50500000D03*
G04 #@! TD*
D22*
G04 #@! TO.C,R7*
G36*
X162939943Y-45101655D02*
X162973312Y-45106605D01*
X163006035Y-45114802D01*
X163037797Y-45126166D01*
X163068293Y-45140590D01*
X163097227Y-45157932D01*
X163124323Y-45178028D01*
X163149318Y-45200682D01*
X163171972Y-45225677D01*
X163192068Y-45252773D01*
X163209410Y-45281707D01*
X163223834Y-45312203D01*
X163235198Y-45343965D01*
X163243395Y-45376688D01*
X163248345Y-45410057D01*
X163250000Y-45443750D01*
X163250000Y-46556250D01*
X163248345Y-46589943D01*
X163243395Y-46623312D01*
X163235198Y-46656035D01*
X163223834Y-46687797D01*
X163209410Y-46718293D01*
X163192068Y-46747227D01*
X163171972Y-46774323D01*
X163149318Y-46799318D01*
X163124323Y-46821972D01*
X163097227Y-46842068D01*
X163068293Y-46859410D01*
X163037797Y-46873834D01*
X163006035Y-46885198D01*
X162973312Y-46893395D01*
X162939943Y-46898345D01*
X162906250Y-46900000D01*
X162218750Y-46900000D01*
X162185057Y-46898345D01*
X162151688Y-46893395D01*
X162118965Y-46885198D01*
X162087203Y-46873834D01*
X162056707Y-46859410D01*
X162027773Y-46842068D01*
X162000677Y-46821972D01*
X161975682Y-46799318D01*
X161953028Y-46774323D01*
X161932932Y-46747227D01*
X161915590Y-46718293D01*
X161901166Y-46687797D01*
X161889802Y-46656035D01*
X161881605Y-46623312D01*
X161876655Y-46589943D01*
X161875000Y-46556250D01*
X161875000Y-45443750D01*
X161876655Y-45410057D01*
X161881605Y-45376688D01*
X161889802Y-45343965D01*
X161901166Y-45312203D01*
X161915590Y-45281707D01*
X161932932Y-45252773D01*
X161953028Y-45225677D01*
X161975682Y-45200682D01*
X162000677Y-45178028D01*
X162027773Y-45157932D01*
X162056707Y-45140590D01*
X162087203Y-45126166D01*
X162118965Y-45114802D01*
X162151688Y-45106605D01*
X162185057Y-45101655D01*
X162218750Y-45100000D01*
X162906250Y-45100000D01*
X162939943Y-45101655D01*
X162939943Y-45101655D01*
G37*
D24*
X162562500Y-46000000D03*
D22*
G36*
X164814943Y-45101655D02*
X164848312Y-45106605D01*
X164881035Y-45114802D01*
X164912797Y-45126166D01*
X164943293Y-45140590D01*
X164972227Y-45157932D01*
X164999323Y-45178028D01*
X165024318Y-45200682D01*
X165046972Y-45225677D01*
X165067068Y-45252773D01*
X165084410Y-45281707D01*
X165098834Y-45312203D01*
X165110198Y-45343965D01*
X165118395Y-45376688D01*
X165123345Y-45410057D01*
X165125000Y-45443750D01*
X165125000Y-46556250D01*
X165123345Y-46589943D01*
X165118395Y-46623312D01*
X165110198Y-46656035D01*
X165098834Y-46687797D01*
X165084410Y-46718293D01*
X165067068Y-46747227D01*
X165046972Y-46774323D01*
X165024318Y-46799318D01*
X164999323Y-46821972D01*
X164972227Y-46842068D01*
X164943293Y-46859410D01*
X164912797Y-46873834D01*
X164881035Y-46885198D01*
X164848312Y-46893395D01*
X164814943Y-46898345D01*
X164781250Y-46900000D01*
X164093750Y-46900000D01*
X164060057Y-46898345D01*
X164026688Y-46893395D01*
X163993965Y-46885198D01*
X163962203Y-46873834D01*
X163931707Y-46859410D01*
X163902773Y-46842068D01*
X163875677Y-46821972D01*
X163850682Y-46799318D01*
X163828028Y-46774323D01*
X163807932Y-46747227D01*
X163790590Y-46718293D01*
X163776166Y-46687797D01*
X163764802Y-46656035D01*
X163756605Y-46623312D01*
X163751655Y-46589943D01*
X163750000Y-46556250D01*
X163750000Y-45443750D01*
X163751655Y-45410057D01*
X163756605Y-45376688D01*
X163764802Y-45343965D01*
X163776166Y-45312203D01*
X163790590Y-45281707D01*
X163807932Y-45252773D01*
X163828028Y-45225677D01*
X163850682Y-45200682D01*
X163875677Y-45178028D01*
X163902773Y-45157932D01*
X163931707Y-45140590D01*
X163962203Y-45126166D01*
X163993965Y-45114802D01*
X164026688Y-45106605D01*
X164060057Y-45101655D01*
X164093750Y-45100000D01*
X164781250Y-45100000D01*
X164814943Y-45101655D01*
X164814943Y-45101655D01*
G37*
D24*
X164437500Y-46000000D03*
G04 #@! TD*
D22*
G04 #@! TO.C,R8*
G36*
X154439943Y-49601655D02*
X154473312Y-49606605D01*
X154506035Y-49614802D01*
X154537797Y-49626166D01*
X154568293Y-49640590D01*
X154597227Y-49657932D01*
X154624323Y-49678028D01*
X154649318Y-49700682D01*
X154671972Y-49725677D01*
X154692068Y-49752773D01*
X154709410Y-49781707D01*
X154723834Y-49812203D01*
X154735198Y-49843965D01*
X154743395Y-49876688D01*
X154748345Y-49910057D01*
X154750000Y-49943750D01*
X154750000Y-51056250D01*
X154748345Y-51089943D01*
X154743395Y-51123312D01*
X154735198Y-51156035D01*
X154723834Y-51187797D01*
X154709410Y-51218293D01*
X154692068Y-51247227D01*
X154671972Y-51274323D01*
X154649318Y-51299318D01*
X154624323Y-51321972D01*
X154597227Y-51342068D01*
X154568293Y-51359410D01*
X154537797Y-51373834D01*
X154506035Y-51385198D01*
X154473312Y-51393395D01*
X154439943Y-51398345D01*
X154406250Y-51400000D01*
X153718750Y-51400000D01*
X153685057Y-51398345D01*
X153651688Y-51393395D01*
X153618965Y-51385198D01*
X153587203Y-51373834D01*
X153556707Y-51359410D01*
X153527773Y-51342068D01*
X153500677Y-51321972D01*
X153475682Y-51299318D01*
X153453028Y-51274323D01*
X153432932Y-51247227D01*
X153415590Y-51218293D01*
X153401166Y-51187797D01*
X153389802Y-51156035D01*
X153381605Y-51123312D01*
X153376655Y-51089943D01*
X153375000Y-51056250D01*
X153375000Y-49943750D01*
X153376655Y-49910057D01*
X153381605Y-49876688D01*
X153389802Y-49843965D01*
X153401166Y-49812203D01*
X153415590Y-49781707D01*
X153432932Y-49752773D01*
X153453028Y-49725677D01*
X153475682Y-49700682D01*
X153500677Y-49678028D01*
X153527773Y-49657932D01*
X153556707Y-49640590D01*
X153587203Y-49626166D01*
X153618965Y-49614802D01*
X153651688Y-49606605D01*
X153685057Y-49601655D01*
X153718750Y-49600000D01*
X154406250Y-49600000D01*
X154439943Y-49601655D01*
X154439943Y-49601655D01*
G37*
D24*
X154062500Y-50500000D03*
D22*
G36*
X156314943Y-49601655D02*
X156348312Y-49606605D01*
X156381035Y-49614802D01*
X156412797Y-49626166D01*
X156443293Y-49640590D01*
X156472227Y-49657932D01*
X156499323Y-49678028D01*
X156524318Y-49700682D01*
X156546972Y-49725677D01*
X156567068Y-49752773D01*
X156584410Y-49781707D01*
X156598834Y-49812203D01*
X156610198Y-49843965D01*
X156618395Y-49876688D01*
X156623345Y-49910057D01*
X156625000Y-49943750D01*
X156625000Y-51056250D01*
X156623345Y-51089943D01*
X156618395Y-51123312D01*
X156610198Y-51156035D01*
X156598834Y-51187797D01*
X156584410Y-51218293D01*
X156567068Y-51247227D01*
X156546972Y-51274323D01*
X156524318Y-51299318D01*
X156499323Y-51321972D01*
X156472227Y-51342068D01*
X156443293Y-51359410D01*
X156412797Y-51373834D01*
X156381035Y-51385198D01*
X156348312Y-51393395D01*
X156314943Y-51398345D01*
X156281250Y-51400000D01*
X155593750Y-51400000D01*
X155560057Y-51398345D01*
X155526688Y-51393395D01*
X155493965Y-51385198D01*
X155462203Y-51373834D01*
X155431707Y-51359410D01*
X155402773Y-51342068D01*
X155375677Y-51321972D01*
X155350682Y-51299318D01*
X155328028Y-51274323D01*
X155307932Y-51247227D01*
X155290590Y-51218293D01*
X155276166Y-51187797D01*
X155264802Y-51156035D01*
X155256605Y-51123312D01*
X155251655Y-51089943D01*
X155250000Y-51056250D01*
X155250000Y-49943750D01*
X155251655Y-49910057D01*
X155256605Y-49876688D01*
X155264802Y-49843965D01*
X155276166Y-49812203D01*
X155290590Y-49781707D01*
X155307932Y-49752773D01*
X155328028Y-49725677D01*
X155350682Y-49700682D01*
X155375677Y-49678028D01*
X155402773Y-49657932D01*
X155431707Y-49640590D01*
X155462203Y-49626166D01*
X155493965Y-49614802D01*
X155526688Y-49606605D01*
X155560057Y-49601655D01*
X155593750Y-49600000D01*
X156281250Y-49600000D01*
X156314943Y-49601655D01*
X156314943Y-49601655D01*
G37*
D24*
X155937500Y-50500000D03*
G04 #@! TD*
D22*
G04 #@! TO.C,C1*
G36*
X144939943Y-50351655D02*
X144973312Y-50356605D01*
X145006035Y-50364802D01*
X145037797Y-50376166D01*
X145068293Y-50390590D01*
X145097227Y-50407932D01*
X145124323Y-50428028D01*
X145149318Y-50450682D01*
X145171972Y-50475677D01*
X145192068Y-50502773D01*
X145209410Y-50531707D01*
X145223834Y-50562203D01*
X145235198Y-50593965D01*
X145243395Y-50626688D01*
X145248345Y-50660057D01*
X145250000Y-50693750D01*
X145250000Y-51806250D01*
X145248345Y-51839943D01*
X145243395Y-51873312D01*
X145235198Y-51906035D01*
X145223834Y-51937797D01*
X145209410Y-51968293D01*
X145192068Y-51997227D01*
X145171972Y-52024323D01*
X145149318Y-52049318D01*
X145124323Y-52071972D01*
X145097227Y-52092068D01*
X145068293Y-52109410D01*
X145037797Y-52123834D01*
X145006035Y-52135198D01*
X144973312Y-52143395D01*
X144939943Y-52148345D01*
X144906250Y-52150000D01*
X144218750Y-52150000D01*
X144185057Y-52148345D01*
X144151688Y-52143395D01*
X144118965Y-52135198D01*
X144087203Y-52123834D01*
X144056707Y-52109410D01*
X144027773Y-52092068D01*
X144000677Y-52071972D01*
X143975682Y-52049318D01*
X143953028Y-52024323D01*
X143932932Y-51997227D01*
X143915590Y-51968293D01*
X143901166Y-51937797D01*
X143889802Y-51906035D01*
X143881605Y-51873312D01*
X143876655Y-51839943D01*
X143875000Y-51806250D01*
X143875000Y-50693750D01*
X143876655Y-50660057D01*
X143881605Y-50626688D01*
X143889802Y-50593965D01*
X143901166Y-50562203D01*
X143915590Y-50531707D01*
X143932932Y-50502773D01*
X143953028Y-50475677D01*
X143975682Y-50450682D01*
X144000677Y-50428028D01*
X144027773Y-50407932D01*
X144056707Y-50390590D01*
X144087203Y-50376166D01*
X144118965Y-50364802D01*
X144151688Y-50356605D01*
X144185057Y-50351655D01*
X144218750Y-50350000D01*
X144906250Y-50350000D01*
X144939943Y-50351655D01*
X144939943Y-50351655D01*
G37*
D24*
X144562500Y-51250000D03*
D22*
G36*
X146814943Y-50351655D02*
X146848312Y-50356605D01*
X146881035Y-50364802D01*
X146912797Y-50376166D01*
X146943293Y-50390590D01*
X146972227Y-50407932D01*
X146999323Y-50428028D01*
X147024318Y-50450682D01*
X147046972Y-50475677D01*
X147067068Y-50502773D01*
X147084410Y-50531707D01*
X147098834Y-50562203D01*
X147110198Y-50593965D01*
X147118395Y-50626688D01*
X147123345Y-50660057D01*
X147125000Y-50693750D01*
X147125000Y-51806250D01*
X147123345Y-51839943D01*
X147118395Y-51873312D01*
X147110198Y-51906035D01*
X147098834Y-51937797D01*
X147084410Y-51968293D01*
X147067068Y-51997227D01*
X147046972Y-52024323D01*
X147024318Y-52049318D01*
X146999323Y-52071972D01*
X146972227Y-52092068D01*
X146943293Y-52109410D01*
X146912797Y-52123834D01*
X146881035Y-52135198D01*
X146848312Y-52143395D01*
X146814943Y-52148345D01*
X146781250Y-52150000D01*
X146093750Y-52150000D01*
X146060057Y-52148345D01*
X146026688Y-52143395D01*
X145993965Y-52135198D01*
X145962203Y-52123834D01*
X145931707Y-52109410D01*
X145902773Y-52092068D01*
X145875677Y-52071972D01*
X145850682Y-52049318D01*
X145828028Y-52024323D01*
X145807932Y-51997227D01*
X145790590Y-51968293D01*
X145776166Y-51937797D01*
X145764802Y-51906035D01*
X145756605Y-51873312D01*
X145751655Y-51839943D01*
X145750000Y-51806250D01*
X145750000Y-50693750D01*
X145751655Y-50660057D01*
X145756605Y-50626688D01*
X145764802Y-50593965D01*
X145776166Y-50562203D01*
X145790590Y-50531707D01*
X145807932Y-50502773D01*
X145828028Y-50475677D01*
X145850682Y-50450682D01*
X145875677Y-50428028D01*
X145902773Y-50407932D01*
X145931707Y-50390590D01*
X145962203Y-50376166D01*
X145993965Y-50364802D01*
X146026688Y-50356605D01*
X146060057Y-50351655D01*
X146093750Y-50350000D01*
X146781250Y-50350000D01*
X146814943Y-50351655D01*
X146814943Y-50351655D01*
G37*
D24*
X146437500Y-51250000D03*
G04 #@! TD*
D22*
G04 #@! TO.C,C4*
G36*
X168562493Y-43076535D02*
X168593435Y-43081125D01*
X168623778Y-43088725D01*
X168653230Y-43099263D01*
X168681508Y-43112638D01*
X168708338Y-43128719D01*
X168733463Y-43147353D01*
X168756640Y-43168360D01*
X168777647Y-43191537D01*
X168796281Y-43216662D01*
X168812362Y-43243492D01*
X168825737Y-43271770D01*
X168836275Y-43301222D01*
X168843875Y-43331565D01*
X168848465Y-43362507D01*
X168850000Y-43393750D01*
X168850000Y-44106250D01*
X168848465Y-44137493D01*
X168843875Y-44168435D01*
X168836275Y-44198778D01*
X168825737Y-44228230D01*
X168812362Y-44256508D01*
X168796281Y-44283338D01*
X168777647Y-44308463D01*
X168756640Y-44331640D01*
X168733463Y-44352647D01*
X168708338Y-44371281D01*
X168681508Y-44387362D01*
X168653230Y-44400737D01*
X168623778Y-44411275D01*
X168593435Y-44418875D01*
X168562493Y-44423465D01*
X168531250Y-44425000D01*
X167893750Y-44425000D01*
X167862507Y-44423465D01*
X167831565Y-44418875D01*
X167801222Y-44411275D01*
X167771770Y-44400737D01*
X167743492Y-44387362D01*
X167716662Y-44371281D01*
X167691537Y-44352647D01*
X167668360Y-44331640D01*
X167647353Y-44308463D01*
X167628719Y-44283338D01*
X167612638Y-44256508D01*
X167599263Y-44228230D01*
X167588725Y-44198778D01*
X167581125Y-44168435D01*
X167576535Y-44137493D01*
X167575000Y-44106250D01*
X167575000Y-43393750D01*
X167576535Y-43362507D01*
X167581125Y-43331565D01*
X167588725Y-43301222D01*
X167599263Y-43271770D01*
X167612638Y-43243492D01*
X167628719Y-43216662D01*
X167647353Y-43191537D01*
X167668360Y-43168360D01*
X167691537Y-43147353D01*
X167716662Y-43128719D01*
X167743492Y-43112638D01*
X167771770Y-43099263D01*
X167801222Y-43088725D01*
X167831565Y-43081125D01*
X167862507Y-43076535D01*
X167893750Y-43075000D01*
X168531250Y-43075000D01*
X168562493Y-43076535D01*
X168562493Y-43076535D01*
G37*
D23*
X168212500Y-43750000D03*
D22*
G36*
X170137493Y-43076535D02*
X170168435Y-43081125D01*
X170198778Y-43088725D01*
X170228230Y-43099263D01*
X170256508Y-43112638D01*
X170283338Y-43128719D01*
X170308463Y-43147353D01*
X170331640Y-43168360D01*
X170352647Y-43191537D01*
X170371281Y-43216662D01*
X170387362Y-43243492D01*
X170400737Y-43271770D01*
X170411275Y-43301222D01*
X170418875Y-43331565D01*
X170423465Y-43362507D01*
X170425000Y-43393750D01*
X170425000Y-44106250D01*
X170423465Y-44137493D01*
X170418875Y-44168435D01*
X170411275Y-44198778D01*
X170400737Y-44228230D01*
X170387362Y-44256508D01*
X170371281Y-44283338D01*
X170352647Y-44308463D01*
X170331640Y-44331640D01*
X170308463Y-44352647D01*
X170283338Y-44371281D01*
X170256508Y-44387362D01*
X170228230Y-44400737D01*
X170198778Y-44411275D01*
X170168435Y-44418875D01*
X170137493Y-44423465D01*
X170106250Y-44425000D01*
X169468750Y-44425000D01*
X169437507Y-44423465D01*
X169406565Y-44418875D01*
X169376222Y-44411275D01*
X169346770Y-44400737D01*
X169318492Y-44387362D01*
X169291662Y-44371281D01*
X169266537Y-44352647D01*
X169243360Y-44331640D01*
X169222353Y-44308463D01*
X169203719Y-44283338D01*
X169187638Y-44256508D01*
X169174263Y-44228230D01*
X169163725Y-44198778D01*
X169156125Y-44168435D01*
X169151535Y-44137493D01*
X169150000Y-44106250D01*
X169150000Y-43393750D01*
X169151535Y-43362507D01*
X169156125Y-43331565D01*
X169163725Y-43301222D01*
X169174263Y-43271770D01*
X169187638Y-43243492D01*
X169203719Y-43216662D01*
X169222353Y-43191537D01*
X169243360Y-43168360D01*
X169266537Y-43147353D01*
X169291662Y-43128719D01*
X169318492Y-43112638D01*
X169346770Y-43099263D01*
X169376222Y-43088725D01*
X169406565Y-43081125D01*
X169437507Y-43076535D01*
X169468750Y-43075000D01*
X170106250Y-43075000D01*
X170137493Y-43076535D01*
X170137493Y-43076535D01*
G37*
D23*
X169787500Y-43750000D03*
G04 #@! TD*
D22*
G04 #@! TO.C,C5*
G36*
X177562493Y-60826535D02*
X177593435Y-60831125D01*
X177623778Y-60838725D01*
X177653230Y-60849263D01*
X177681508Y-60862638D01*
X177708338Y-60878719D01*
X177733463Y-60897353D01*
X177756640Y-60918360D01*
X177777647Y-60941537D01*
X177796281Y-60966662D01*
X177812362Y-60993492D01*
X177825737Y-61021770D01*
X177836275Y-61051222D01*
X177843875Y-61081565D01*
X177848465Y-61112507D01*
X177850000Y-61143750D01*
X177850000Y-61856250D01*
X177848465Y-61887493D01*
X177843875Y-61918435D01*
X177836275Y-61948778D01*
X177825737Y-61978230D01*
X177812362Y-62006508D01*
X177796281Y-62033338D01*
X177777647Y-62058463D01*
X177756640Y-62081640D01*
X177733463Y-62102647D01*
X177708338Y-62121281D01*
X177681508Y-62137362D01*
X177653230Y-62150737D01*
X177623778Y-62161275D01*
X177593435Y-62168875D01*
X177562493Y-62173465D01*
X177531250Y-62175000D01*
X176893750Y-62175000D01*
X176862507Y-62173465D01*
X176831565Y-62168875D01*
X176801222Y-62161275D01*
X176771770Y-62150737D01*
X176743492Y-62137362D01*
X176716662Y-62121281D01*
X176691537Y-62102647D01*
X176668360Y-62081640D01*
X176647353Y-62058463D01*
X176628719Y-62033338D01*
X176612638Y-62006508D01*
X176599263Y-61978230D01*
X176588725Y-61948778D01*
X176581125Y-61918435D01*
X176576535Y-61887493D01*
X176575000Y-61856250D01*
X176575000Y-61143750D01*
X176576535Y-61112507D01*
X176581125Y-61081565D01*
X176588725Y-61051222D01*
X176599263Y-61021770D01*
X176612638Y-60993492D01*
X176628719Y-60966662D01*
X176647353Y-60941537D01*
X176668360Y-60918360D01*
X176691537Y-60897353D01*
X176716662Y-60878719D01*
X176743492Y-60862638D01*
X176771770Y-60849263D01*
X176801222Y-60838725D01*
X176831565Y-60831125D01*
X176862507Y-60826535D01*
X176893750Y-60825000D01*
X177531250Y-60825000D01*
X177562493Y-60826535D01*
X177562493Y-60826535D01*
G37*
D23*
X177212500Y-61500000D03*
D22*
G36*
X179137493Y-60826535D02*
X179168435Y-60831125D01*
X179198778Y-60838725D01*
X179228230Y-60849263D01*
X179256508Y-60862638D01*
X179283338Y-60878719D01*
X179308463Y-60897353D01*
X179331640Y-60918360D01*
X179352647Y-60941537D01*
X179371281Y-60966662D01*
X179387362Y-60993492D01*
X179400737Y-61021770D01*
X179411275Y-61051222D01*
X179418875Y-61081565D01*
X179423465Y-61112507D01*
X179425000Y-61143750D01*
X179425000Y-61856250D01*
X179423465Y-61887493D01*
X179418875Y-61918435D01*
X179411275Y-61948778D01*
X179400737Y-61978230D01*
X179387362Y-62006508D01*
X179371281Y-62033338D01*
X179352647Y-62058463D01*
X179331640Y-62081640D01*
X179308463Y-62102647D01*
X179283338Y-62121281D01*
X179256508Y-62137362D01*
X179228230Y-62150737D01*
X179198778Y-62161275D01*
X179168435Y-62168875D01*
X179137493Y-62173465D01*
X179106250Y-62175000D01*
X178468750Y-62175000D01*
X178437507Y-62173465D01*
X178406565Y-62168875D01*
X178376222Y-62161275D01*
X178346770Y-62150737D01*
X178318492Y-62137362D01*
X178291662Y-62121281D01*
X178266537Y-62102647D01*
X178243360Y-62081640D01*
X178222353Y-62058463D01*
X178203719Y-62033338D01*
X178187638Y-62006508D01*
X178174263Y-61978230D01*
X178163725Y-61948778D01*
X178156125Y-61918435D01*
X178151535Y-61887493D01*
X178150000Y-61856250D01*
X178150000Y-61143750D01*
X178151535Y-61112507D01*
X178156125Y-61081565D01*
X178163725Y-61051222D01*
X178174263Y-61021770D01*
X178187638Y-60993492D01*
X178203719Y-60966662D01*
X178222353Y-60941537D01*
X178243360Y-60918360D01*
X178266537Y-60897353D01*
X178291662Y-60878719D01*
X178318492Y-60862638D01*
X178346770Y-60849263D01*
X178376222Y-60838725D01*
X178406565Y-60831125D01*
X178437507Y-60826535D01*
X178468750Y-60825000D01*
X179106250Y-60825000D01*
X179137493Y-60826535D01*
X179137493Y-60826535D01*
G37*
D23*
X178787500Y-61500000D03*
G04 #@! TD*
D26*
G04 #@! TO.C,REF\002A\002A*
X170000000Y-63750000D03*
G04 #@! TD*
D25*
G04 #@! TO.C,Q3*
X145000000Y-54050000D03*
X145000000Y-55950000D03*
X147000000Y-55000000D03*
G04 #@! TD*
G04 #@! TO.C,Q1*
X158500000Y-58650000D03*
X158500000Y-60550000D03*
X160500000Y-59600000D03*
G04 #@! TD*
D27*
G04 #@! TO.C,Y1*
X173500000Y-64000000D03*
X176000000Y-64000000D03*
G04 #@! TD*
D22*
G04 #@! TO.C,D2*
G36*
X163814943Y-63801655D02*
X163848312Y-63806605D01*
X163881035Y-63814802D01*
X163912797Y-63826166D01*
X163943293Y-63840590D01*
X163972227Y-63857932D01*
X163999323Y-63878028D01*
X164024318Y-63900682D01*
X164046972Y-63925677D01*
X164067068Y-63952773D01*
X164084410Y-63981707D01*
X164098834Y-64012203D01*
X164110198Y-64043965D01*
X164118395Y-64076688D01*
X164123345Y-64110057D01*
X164125000Y-64143750D01*
X164125000Y-65256250D01*
X164123345Y-65289943D01*
X164118395Y-65323312D01*
X164110198Y-65356035D01*
X164098834Y-65387797D01*
X164084410Y-65418293D01*
X164067068Y-65447227D01*
X164046972Y-65474323D01*
X164024318Y-65499318D01*
X163999323Y-65521972D01*
X163972227Y-65542068D01*
X163943293Y-65559410D01*
X163912797Y-65573834D01*
X163881035Y-65585198D01*
X163848312Y-65593395D01*
X163814943Y-65598345D01*
X163781250Y-65600000D01*
X163093750Y-65600000D01*
X163060057Y-65598345D01*
X163026688Y-65593395D01*
X162993965Y-65585198D01*
X162962203Y-65573834D01*
X162931707Y-65559410D01*
X162902773Y-65542068D01*
X162875677Y-65521972D01*
X162850682Y-65499318D01*
X162828028Y-65474323D01*
X162807932Y-65447227D01*
X162790590Y-65418293D01*
X162776166Y-65387797D01*
X162764802Y-65356035D01*
X162756605Y-65323312D01*
X162751655Y-65289943D01*
X162750000Y-65256250D01*
X162750000Y-64143750D01*
X162751655Y-64110057D01*
X162756605Y-64076688D01*
X162764802Y-64043965D01*
X162776166Y-64012203D01*
X162790590Y-63981707D01*
X162807932Y-63952773D01*
X162828028Y-63925677D01*
X162850682Y-63900682D01*
X162875677Y-63878028D01*
X162902773Y-63857932D01*
X162931707Y-63840590D01*
X162962203Y-63826166D01*
X162993965Y-63814802D01*
X163026688Y-63806605D01*
X163060057Y-63801655D01*
X163093750Y-63800000D01*
X163781250Y-63800000D01*
X163814943Y-63801655D01*
X163814943Y-63801655D01*
G37*
D24*
X163437500Y-64700000D03*
D22*
G36*
X161939943Y-63801655D02*
X161973312Y-63806605D01*
X162006035Y-63814802D01*
X162037797Y-63826166D01*
X162068293Y-63840590D01*
X162097227Y-63857932D01*
X162124323Y-63878028D01*
X162149318Y-63900682D01*
X162171972Y-63925677D01*
X162192068Y-63952773D01*
X162209410Y-63981707D01*
X162223834Y-64012203D01*
X162235198Y-64043965D01*
X162243395Y-64076688D01*
X162248345Y-64110057D01*
X162250000Y-64143750D01*
X162250000Y-65256250D01*
X162248345Y-65289943D01*
X162243395Y-65323312D01*
X162235198Y-65356035D01*
X162223834Y-65387797D01*
X162209410Y-65418293D01*
X162192068Y-65447227D01*
X162171972Y-65474323D01*
X162149318Y-65499318D01*
X162124323Y-65521972D01*
X162097227Y-65542068D01*
X162068293Y-65559410D01*
X162037797Y-65573834D01*
X162006035Y-65585198D01*
X161973312Y-65593395D01*
X161939943Y-65598345D01*
X161906250Y-65600000D01*
X161218750Y-65600000D01*
X161185057Y-65598345D01*
X161151688Y-65593395D01*
X161118965Y-65585198D01*
X161087203Y-65573834D01*
X161056707Y-65559410D01*
X161027773Y-65542068D01*
X161000677Y-65521972D01*
X160975682Y-65499318D01*
X160953028Y-65474323D01*
X160932932Y-65447227D01*
X160915590Y-65418293D01*
X160901166Y-65387797D01*
X160889802Y-65356035D01*
X160881605Y-65323312D01*
X160876655Y-65289943D01*
X160875000Y-65256250D01*
X160875000Y-64143750D01*
X160876655Y-64110057D01*
X160881605Y-64076688D01*
X160889802Y-64043965D01*
X160901166Y-64012203D01*
X160915590Y-63981707D01*
X160932932Y-63952773D01*
X160953028Y-63925677D01*
X160975682Y-63900682D01*
X161000677Y-63878028D01*
X161027773Y-63857932D01*
X161056707Y-63840590D01*
X161087203Y-63826166D01*
X161118965Y-63814802D01*
X161151688Y-63806605D01*
X161185057Y-63801655D01*
X161218750Y-63800000D01*
X161906250Y-63800000D01*
X161939943Y-63801655D01*
X161939943Y-63801655D01*
G37*
D24*
X161562500Y-64700000D03*
G04 #@! TD*
D22*
G04 #@! TO.C,D1*
G36*
X141252443Y-38601655D02*
X141285812Y-38606605D01*
X141318535Y-38614802D01*
X141350297Y-38626166D01*
X141380793Y-38640590D01*
X141409727Y-38657932D01*
X141436823Y-38678028D01*
X141461818Y-38700682D01*
X141484472Y-38725677D01*
X141504568Y-38752773D01*
X141521910Y-38781707D01*
X141536334Y-38812203D01*
X141547698Y-38843965D01*
X141555895Y-38876688D01*
X141560845Y-38910057D01*
X141562500Y-38943750D01*
X141562500Y-40056250D01*
X141560845Y-40089943D01*
X141555895Y-40123312D01*
X141547698Y-40156035D01*
X141536334Y-40187797D01*
X141521910Y-40218293D01*
X141504568Y-40247227D01*
X141484472Y-40274323D01*
X141461818Y-40299318D01*
X141436823Y-40321972D01*
X141409727Y-40342068D01*
X141380793Y-40359410D01*
X141350297Y-40373834D01*
X141318535Y-40385198D01*
X141285812Y-40393395D01*
X141252443Y-40398345D01*
X141218750Y-40400000D01*
X140531250Y-40400000D01*
X140497557Y-40398345D01*
X140464188Y-40393395D01*
X140431465Y-40385198D01*
X140399703Y-40373834D01*
X140369207Y-40359410D01*
X140340273Y-40342068D01*
X140313177Y-40321972D01*
X140288182Y-40299318D01*
X140265528Y-40274323D01*
X140245432Y-40247227D01*
X140228090Y-40218293D01*
X140213666Y-40187797D01*
X140202302Y-40156035D01*
X140194105Y-40123312D01*
X140189155Y-40089943D01*
X140187500Y-40056250D01*
X140187500Y-38943750D01*
X140189155Y-38910057D01*
X140194105Y-38876688D01*
X140202302Y-38843965D01*
X140213666Y-38812203D01*
X140228090Y-38781707D01*
X140245432Y-38752773D01*
X140265528Y-38725677D01*
X140288182Y-38700682D01*
X140313177Y-38678028D01*
X140340273Y-38657932D01*
X140369207Y-38640590D01*
X140399703Y-38626166D01*
X140431465Y-38614802D01*
X140464188Y-38606605D01*
X140497557Y-38601655D01*
X140531250Y-38600000D01*
X141218750Y-38600000D01*
X141252443Y-38601655D01*
X141252443Y-38601655D01*
G37*
D24*
X140875000Y-39500000D03*
D22*
G36*
X143127443Y-38601655D02*
X143160812Y-38606605D01*
X143193535Y-38614802D01*
X143225297Y-38626166D01*
X143255793Y-38640590D01*
X143284727Y-38657932D01*
X143311823Y-38678028D01*
X143336818Y-38700682D01*
X143359472Y-38725677D01*
X143379568Y-38752773D01*
X143396910Y-38781707D01*
X143411334Y-38812203D01*
X143422698Y-38843965D01*
X143430895Y-38876688D01*
X143435845Y-38910057D01*
X143437500Y-38943750D01*
X143437500Y-40056250D01*
X143435845Y-40089943D01*
X143430895Y-40123312D01*
X143422698Y-40156035D01*
X143411334Y-40187797D01*
X143396910Y-40218293D01*
X143379568Y-40247227D01*
X143359472Y-40274323D01*
X143336818Y-40299318D01*
X143311823Y-40321972D01*
X143284727Y-40342068D01*
X143255793Y-40359410D01*
X143225297Y-40373834D01*
X143193535Y-40385198D01*
X143160812Y-40393395D01*
X143127443Y-40398345D01*
X143093750Y-40400000D01*
X142406250Y-40400000D01*
X142372557Y-40398345D01*
X142339188Y-40393395D01*
X142306465Y-40385198D01*
X142274703Y-40373834D01*
X142244207Y-40359410D01*
X142215273Y-40342068D01*
X142188177Y-40321972D01*
X142163182Y-40299318D01*
X142140528Y-40274323D01*
X142120432Y-40247227D01*
X142103090Y-40218293D01*
X142088666Y-40187797D01*
X142077302Y-40156035D01*
X142069105Y-40123312D01*
X142064155Y-40089943D01*
X142062500Y-40056250D01*
X142062500Y-38943750D01*
X142064155Y-38910057D01*
X142069105Y-38876688D01*
X142077302Y-38843965D01*
X142088666Y-38812203D01*
X142103090Y-38781707D01*
X142120432Y-38752773D01*
X142140528Y-38725677D01*
X142163182Y-38700682D01*
X142188177Y-38678028D01*
X142215273Y-38657932D01*
X142244207Y-38640590D01*
X142274703Y-38626166D01*
X142306465Y-38614802D01*
X142339188Y-38606605D01*
X142372557Y-38601655D01*
X142406250Y-38600000D01*
X143093750Y-38600000D01*
X143127443Y-38601655D01*
X143127443Y-38601655D01*
G37*
D24*
X142750000Y-39500000D03*
G04 #@! TD*
D28*
G04 #@! TO.C,U1*
X143500000Y-42250000D03*
D29*
X143500000Y-48550000D03*
X145800000Y-48550000D03*
X141200000Y-48550000D03*
G04 #@! TD*
D25*
G04 #@! TO.C,Q2*
X158500000Y-54250000D03*
X158500000Y-56150000D03*
X160500000Y-55200000D03*
G04 #@! TD*
D22*
G04 #@! TO.C,R3*
G36*
X154439943Y-58101655D02*
X154473312Y-58106605D01*
X154506035Y-58114802D01*
X154537797Y-58126166D01*
X154568293Y-58140590D01*
X154597227Y-58157932D01*
X154624323Y-58178028D01*
X154649318Y-58200682D01*
X154671972Y-58225677D01*
X154692068Y-58252773D01*
X154709410Y-58281707D01*
X154723834Y-58312203D01*
X154735198Y-58343965D01*
X154743395Y-58376688D01*
X154748345Y-58410057D01*
X154750000Y-58443750D01*
X154750000Y-59556250D01*
X154748345Y-59589943D01*
X154743395Y-59623312D01*
X154735198Y-59656035D01*
X154723834Y-59687797D01*
X154709410Y-59718293D01*
X154692068Y-59747227D01*
X154671972Y-59774323D01*
X154649318Y-59799318D01*
X154624323Y-59821972D01*
X154597227Y-59842068D01*
X154568293Y-59859410D01*
X154537797Y-59873834D01*
X154506035Y-59885198D01*
X154473312Y-59893395D01*
X154439943Y-59898345D01*
X154406250Y-59900000D01*
X153718750Y-59900000D01*
X153685057Y-59898345D01*
X153651688Y-59893395D01*
X153618965Y-59885198D01*
X153587203Y-59873834D01*
X153556707Y-59859410D01*
X153527773Y-59842068D01*
X153500677Y-59821972D01*
X153475682Y-59799318D01*
X153453028Y-59774323D01*
X153432932Y-59747227D01*
X153415590Y-59718293D01*
X153401166Y-59687797D01*
X153389802Y-59656035D01*
X153381605Y-59623312D01*
X153376655Y-59589943D01*
X153375000Y-59556250D01*
X153375000Y-58443750D01*
X153376655Y-58410057D01*
X153381605Y-58376688D01*
X153389802Y-58343965D01*
X153401166Y-58312203D01*
X153415590Y-58281707D01*
X153432932Y-58252773D01*
X153453028Y-58225677D01*
X153475682Y-58200682D01*
X153500677Y-58178028D01*
X153527773Y-58157932D01*
X153556707Y-58140590D01*
X153587203Y-58126166D01*
X153618965Y-58114802D01*
X153651688Y-58106605D01*
X153685057Y-58101655D01*
X153718750Y-58100000D01*
X154406250Y-58100000D01*
X154439943Y-58101655D01*
X154439943Y-58101655D01*
G37*
D24*
X154062500Y-59000000D03*
D22*
G36*
X156314943Y-58101655D02*
X156348312Y-58106605D01*
X156381035Y-58114802D01*
X156412797Y-58126166D01*
X156443293Y-58140590D01*
X156472227Y-58157932D01*
X156499323Y-58178028D01*
X156524318Y-58200682D01*
X156546972Y-58225677D01*
X156567068Y-58252773D01*
X156584410Y-58281707D01*
X156598834Y-58312203D01*
X156610198Y-58343965D01*
X156618395Y-58376688D01*
X156623345Y-58410057D01*
X156625000Y-58443750D01*
X156625000Y-59556250D01*
X156623345Y-59589943D01*
X156618395Y-59623312D01*
X156610198Y-59656035D01*
X156598834Y-59687797D01*
X156584410Y-59718293D01*
X156567068Y-59747227D01*
X156546972Y-59774323D01*
X156524318Y-59799318D01*
X156499323Y-59821972D01*
X156472227Y-59842068D01*
X156443293Y-59859410D01*
X156412797Y-59873834D01*
X156381035Y-59885198D01*
X156348312Y-59893395D01*
X156314943Y-59898345D01*
X156281250Y-59900000D01*
X155593750Y-59900000D01*
X155560057Y-59898345D01*
X155526688Y-59893395D01*
X155493965Y-59885198D01*
X155462203Y-59873834D01*
X155431707Y-59859410D01*
X155402773Y-59842068D01*
X155375677Y-59821972D01*
X155350682Y-59799318D01*
X155328028Y-59774323D01*
X155307932Y-59747227D01*
X155290590Y-59718293D01*
X155276166Y-59687797D01*
X155264802Y-59656035D01*
X155256605Y-59623312D01*
X155251655Y-59589943D01*
X155250000Y-59556250D01*
X155250000Y-58443750D01*
X155251655Y-58410057D01*
X155256605Y-58376688D01*
X155264802Y-58343965D01*
X155276166Y-58312203D01*
X155290590Y-58281707D01*
X155307932Y-58252773D01*
X155328028Y-58225677D01*
X155350682Y-58200682D01*
X155375677Y-58178028D01*
X155402773Y-58157932D01*
X155431707Y-58140590D01*
X155462203Y-58126166D01*
X155493965Y-58114802D01*
X155526688Y-58106605D01*
X155560057Y-58101655D01*
X155593750Y-58100000D01*
X156281250Y-58100000D01*
X156314943Y-58101655D01*
X156314943Y-58101655D01*
G37*
D24*
X155937500Y-59000000D03*
G04 #@! TD*
D22*
G04 #@! TO.C,R2*
G36*
X162939943Y-53601655D02*
X162973312Y-53606605D01*
X163006035Y-53614802D01*
X163037797Y-53626166D01*
X163068293Y-53640590D01*
X163097227Y-53657932D01*
X163124323Y-53678028D01*
X163149318Y-53700682D01*
X163171972Y-53725677D01*
X163192068Y-53752773D01*
X163209410Y-53781707D01*
X163223834Y-53812203D01*
X163235198Y-53843965D01*
X163243395Y-53876688D01*
X163248345Y-53910057D01*
X163250000Y-53943750D01*
X163250000Y-55056250D01*
X163248345Y-55089943D01*
X163243395Y-55123312D01*
X163235198Y-55156035D01*
X163223834Y-55187797D01*
X163209410Y-55218293D01*
X163192068Y-55247227D01*
X163171972Y-55274323D01*
X163149318Y-55299318D01*
X163124323Y-55321972D01*
X163097227Y-55342068D01*
X163068293Y-55359410D01*
X163037797Y-55373834D01*
X163006035Y-55385198D01*
X162973312Y-55393395D01*
X162939943Y-55398345D01*
X162906250Y-55400000D01*
X162218750Y-55400000D01*
X162185057Y-55398345D01*
X162151688Y-55393395D01*
X162118965Y-55385198D01*
X162087203Y-55373834D01*
X162056707Y-55359410D01*
X162027773Y-55342068D01*
X162000677Y-55321972D01*
X161975682Y-55299318D01*
X161953028Y-55274323D01*
X161932932Y-55247227D01*
X161915590Y-55218293D01*
X161901166Y-55187797D01*
X161889802Y-55156035D01*
X161881605Y-55123312D01*
X161876655Y-55089943D01*
X161875000Y-55056250D01*
X161875000Y-53943750D01*
X161876655Y-53910057D01*
X161881605Y-53876688D01*
X161889802Y-53843965D01*
X161901166Y-53812203D01*
X161915590Y-53781707D01*
X161932932Y-53752773D01*
X161953028Y-53725677D01*
X161975682Y-53700682D01*
X162000677Y-53678028D01*
X162027773Y-53657932D01*
X162056707Y-53640590D01*
X162087203Y-53626166D01*
X162118965Y-53614802D01*
X162151688Y-53606605D01*
X162185057Y-53601655D01*
X162218750Y-53600000D01*
X162906250Y-53600000D01*
X162939943Y-53601655D01*
X162939943Y-53601655D01*
G37*
D24*
X162562500Y-54500000D03*
D22*
G36*
X164814943Y-53601655D02*
X164848312Y-53606605D01*
X164881035Y-53614802D01*
X164912797Y-53626166D01*
X164943293Y-53640590D01*
X164972227Y-53657932D01*
X164999323Y-53678028D01*
X165024318Y-53700682D01*
X165046972Y-53725677D01*
X165067068Y-53752773D01*
X165084410Y-53781707D01*
X165098834Y-53812203D01*
X165110198Y-53843965D01*
X165118395Y-53876688D01*
X165123345Y-53910057D01*
X165125000Y-53943750D01*
X165125000Y-55056250D01*
X165123345Y-55089943D01*
X165118395Y-55123312D01*
X165110198Y-55156035D01*
X165098834Y-55187797D01*
X165084410Y-55218293D01*
X165067068Y-55247227D01*
X165046972Y-55274323D01*
X165024318Y-55299318D01*
X164999323Y-55321972D01*
X164972227Y-55342068D01*
X164943293Y-55359410D01*
X164912797Y-55373834D01*
X164881035Y-55385198D01*
X164848312Y-55393395D01*
X164814943Y-55398345D01*
X164781250Y-55400000D01*
X164093750Y-55400000D01*
X164060057Y-55398345D01*
X164026688Y-55393395D01*
X163993965Y-55385198D01*
X163962203Y-55373834D01*
X163931707Y-55359410D01*
X163902773Y-55342068D01*
X163875677Y-55321972D01*
X163850682Y-55299318D01*
X163828028Y-55274323D01*
X163807932Y-55247227D01*
X163790590Y-55218293D01*
X163776166Y-55187797D01*
X163764802Y-55156035D01*
X163756605Y-55123312D01*
X163751655Y-55089943D01*
X163750000Y-55056250D01*
X163750000Y-53943750D01*
X163751655Y-53910057D01*
X163756605Y-53876688D01*
X163764802Y-53843965D01*
X163776166Y-53812203D01*
X163790590Y-53781707D01*
X163807932Y-53752773D01*
X163828028Y-53725677D01*
X163850682Y-53700682D01*
X163875677Y-53678028D01*
X163902773Y-53657932D01*
X163931707Y-53640590D01*
X163962203Y-53626166D01*
X163993965Y-53614802D01*
X164026688Y-53606605D01*
X164060057Y-53601655D01*
X164093750Y-53600000D01*
X164781250Y-53600000D01*
X164814943Y-53601655D01*
X164814943Y-53601655D01*
G37*
D24*
X164437500Y-54500000D03*
G04 #@! TD*
D22*
G04 #@! TO.C,R1*
G36*
X164814943Y-58101655D02*
X164848312Y-58106605D01*
X164881035Y-58114802D01*
X164912797Y-58126166D01*
X164943293Y-58140590D01*
X164972227Y-58157932D01*
X164999323Y-58178028D01*
X165024318Y-58200682D01*
X165046972Y-58225677D01*
X165067068Y-58252773D01*
X165084410Y-58281707D01*
X165098834Y-58312203D01*
X165110198Y-58343965D01*
X165118395Y-58376688D01*
X165123345Y-58410057D01*
X165125000Y-58443750D01*
X165125000Y-59556250D01*
X165123345Y-59589943D01*
X165118395Y-59623312D01*
X165110198Y-59656035D01*
X165098834Y-59687797D01*
X165084410Y-59718293D01*
X165067068Y-59747227D01*
X165046972Y-59774323D01*
X165024318Y-59799318D01*
X164999323Y-59821972D01*
X164972227Y-59842068D01*
X164943293Y-59859410D01*
X164912797Y-59873834D01*
X164881035Y-59885198D01*
X164848312Y-59893395D01*
X164814943Y-59898345D01*
X164781250Y-59900000D01*
X164093750Y-59900000D01*
X164060057Y-59898345D01*
X164026688Y-59893395D01*
X163993965Y-59885198D01*
X163962203Y-59873834D01*
X163931707Y-59859410D01*
X163902773Y-59842068D01*
X163875677Y-59821972D01*
X163850682Y-59799318D01*
X163828028Y-59774323D01*
X163807932Y-59747227D01*
X163790590Y-59718293D01*
X163776166Y-59687797D01*
X163764802Y-59656035D01*
X163756605Y-59623312D01*
X163751655Y-59589943D01*
X163750000Y-59556250D01*
X163750000Y-58443750D01*
X163751655Y-58410057D01*
X163756605Y-58376688D01*
X163764802Y-58343965D01*
X163776166Y-58312203D01*
X163790590Y-58281707D01*
X163807932Y-58252773D01*
X163828028Y-58225677D01*
X163850682Y-58200682D01*
X163875677Y-58178028D01*
X163902773Y-58157932D01*
X163931707Y-58140590D01*
X163962203Y-58126166D01*
X163993965Y-58114802D01*
X164026688Y-58106605D01*
X164060057Y-58101655D01*
X164093750Y-58100000D01*
X164781250Y-58100000D01*
X164814943Y-58101655D01*
X164814943Y-58101655D01*
G37*
D24*
X164437500Y-59000000D03*
D22*
G36*
X162939943Y-58101655D02*
X162973312Y-58106605D01*
X163006035Y-58114802D01*
X163037797Y-58126166D01*
X163068293Y-58140590D01*
X163097227Y-58157932D01*
X163124323Y-58178028D01*
X163149318Y-58200682D01*
X163171972Y-58225677D01*
X163192068Y-58252773D01*
X163209410Y-58281707D01*
X163223834Y-58312203D01*
X163235198Y-58343965D01*
X163243395Y-58376688D01*
X163248345Y-58410057D01*
X163250000Y-58443750D01*
X163250000Y-59556250D01*
X163248345Y-59589943D01*
X163243395Y-59623312D01*
X163235198Y-59656035D01*
X163223834Y-59687797D01*
X163209410Y-59718293D01*
X163192068Y-59747227D01*
X163171972Y-59774323D01*
X163149318Y-59799318D01*
X163124323Y-59821972D01*
X163097227Y-59842068D01*
X163068293Y-59859410D01*
X163037797Y-59873834D01*
X163006035Y-59885198D01*
X162973312Y-59893395D01*
X162939943Y-59898345D01*
X162906250Y-59900000D01*
X162218750Y-59900000D01*
X162185057Y-59898345D01*
X162151688Y-59893395D01*
X162118965Y-59885198D01*
X162087203Y-59873834D01*
X162056707Y-59859410D01*
X162027773Y-59842068D01*
X162000677Y-59821972D01*
X161975682Y-59799318D01*
X161953028Y-59774323D01*
X161932932Y-59747227D01*
X161915590Y-59718293D01*
X161901166Y-59687797D01*
X161889802Y-59656035D01*
X161881605Y-59623312D01*
X161876655Y-59589943D01*
X161875000Y-59556250D01*
X161875000Y-58443750D01*
X161876655Y-58410057D01*
X161881605Y-58376688D01*
X161889802Y-58343965D01*
X161901166Y-58312203D01*
X161915590Y-58281707D01*
X161932932Y-58252773D01*
X161953028Y-58225677D01*
X161975682Y-58200682D01*
X162000677Y-58178028D01*
X162027773Y-58157932D01*
X162056707Y-58140590D01*
X162087203Y-58126166D01*
X162118965Y-58114802D01*
X162151688Y-58106605D01*
X162185057Y-58101655D01*
X162218750Y-58100000D01*
X162906250Y-58100000D01*
X162939943Y-58101655D01*
X162939943Y-58101655D01*
G37*
D24*
X162562500Y-59000000D03*
G04 #@! TD*
D22*
G04 #@! TO.C,R4*
G36*
X156314943Y-53601655D02*
X156348312Y-53606605D01*
X156381035Y-53614802D01*
X156412797Y-53626166D01*
X156443293Y-53640590D01*
X156472227Y-53657932D01*
X156499323Y-53678028D01*
X156524318Y-53700682D01*
X156546972Y-53725677D01*
X156567068Y-53752773D01*
X156584410Y-53781707D01*
X156598834Y-53812203D01*
X156610198Y-53843965D01*
X156618395Y-53876688D01*
X156623345Y-53910057D01*
X156625000Y-53943750D01*
X156625000Y-55056250D01*
X156623345Y-55089943D01*
X156618395Y-55123312D01*
X156610198Y-55156035D01*
X156598834Y-55187797D01*
X156584410Y-55218293D01*
X156567068Y-55247227D01*
X156546972Y-55274323D01*
X156524318Y-55299318D01*
X156499323Y-55321972D01*
X156472227Y-55342068D01*
X156443293Y-55359410D01*
X156412797Y-55373834D01*
X156381035Y-55385198D01*
X156348312Y-55393395D01*
X156314943Y-55398345D01*
X156281250Y-55400000D01*
X155593750Y-55400000D01*
X155560057Y-55398345D01*
X155526688Y-55393395D01*
X155493965Y-55385198D01*
X155462203Y-55373834D01*
X155431707Y-55359410D01*
X155402773Y-55342068D01*
X155375677Y-55321972D01*
X155350682Y-55299318D01*
X155328028Y-55274323D01*
X155307932Y-55247227D01*
X155290590Y-55218293D01*
X155276166Y-55187797D01*
X155264802Y-55156035D01*
X155256605Y-55123312D01*
X155251655Y-55089943D01*
X155250000Y-55056250D01*
X155250000Y-53943750D01*
X155251655Y-53910057D01*
X155256605Y-53876688D01*
X155264802Y-53843965D01*
X155276166Y-53812203D01*
X155290590Y-53781707D01*
X155307932Y-53752773D01*
X155328028Y-53725677D01*
X155350682Y-53700682D01*
X155375677Y-53678028D01*
X155402773Y-53657932D01*
X155431707Y-53640590D01*
X155462203Y-53626166D01*
X155493965Y-53614802D01*
X155526688Y-53606605D01*
X155560057Y-53601655D01*
X155593750Y-53600000D01*
X156281250Y-53600000D01*
X156314943Y-53601655D01*
X156314943Y-53601655D01*
G37*
D24*
X155937500Y-54500000D03*
D22*
G36*
X154439943Y-53601655D02*
X154473312Y-53606605D01*
X154506035Y-53614802D01*
X154537797Y-53626166D01*
X154568293Y-53640590D01*
X154597227Y-53657932D01*
X154624323Y-53678028D01*
X154649318Y-53700682D01*
X154671972Y-53725677D01*
X154692068Y-53752773D01*
X154709410Y-53781707D01*
X154723834Y-53812203D01*
X154735198Y-53843965D01*
X154743395Y-53876688D01*
X154748345Y-53910057D01*
X154750000Y-53943750D01*
X154750000Y-55056250D01*
X154748345Y-55089943D01*
X154743395Y-55123312D01*
X154735198Y-55156035D01*
X154723834Y-55187797D01*
X154709410Y-55218293D01*
X154692068Y-55247227D01*
X154671972Y-55274323D01*
X154649318Y-55299318D01*
X154624323Y-55321972D01*
X154597227Y-55342068D01*
X154568293Y-55359410D01*
X154537797Y-55373834D01*
X154506035Y-55385198D01*
X154473312Y-55393395D01*
X154439943Y-55398345D01*
X154406250Y-55400000D01*
X153718750Y-55400000D01*
X153685057Y-55398345D01*
X153651688Y-55393395D01*
X153618965Y-55385198D01*
X153587203Y-55373834D01*
X153556707Y-55359410D01*
X153527773Y-55342068D01*
X153500677Y-55321972D01*
X153475682Y-55299318D01*
X153453028Y-55274323D01*
X153432932Y-55247227D01*
X153415590Y-55218293D01*
X153401166Y-55187797D01*
X153389802Y-55156035D01*
X153381605Y-55123312D01*
X153376655Y-55089943D01*
X153375000Y-55056250D01*
X153375000Y-53943750D01*
X153376655Y-53910057D01*
X153381605Y-53876688D01*
X153389802Y-53843965D01*
X153401166Y-53812203D01*
X153415590Y-53781707D01*
X153432932Y-53752773D01*
X153453028Y-53725677D01*
X153475682Y-53700682D01*
X153500677Y-53678028D01*
X153527773Y-53657932D01*
X153556707Y-53640590D01*
X153587203Y-53626166D01*
X153618965Y-53614802D01*
X153651688Y-53606605D01*
X153685057Y-53601655D01*
X153718750Y-53600000D01*
X154406250Y-53600000D01*
X154439943Y-53601655D01*
X154439943Y-53601655D01*
G37*
D24*
X154062500Y-54500000D03*
G04 #@! TD*
D22*
G04 #@! TO.C,R5*
G36*
X144939943Y-38601655D02*
X144973312Y-38606605D01*
X145006035Y-38614802D01*
X145037797Y-38626166D01*
X145068293Y-38640590D01*
X145097227Y-38657932D01*
X145124323Y-38678028D01*
X145149318Y-38700682D01*
X145171972Y-38725677D01*
X145192068Y-38752773D01*
X145209410Y-38781707D01*
X145223834Y-38812203D01*
X145235198Y-38843965D01*
X145243395Y-38876688D01*
X145248345Y-38910057D01*
X145250000Y-38943750D01*
X145250000Y-40056250D01*
X145248345Y-40089943D01*
X145243395Y-40123312D01*
X145235198Y-40156035D01*
X145223834Y-40187797D01*
X145209410Y-40218293D01*
X145192068Y-40247227D01*
X145171972Y-40274323D01*
X145149318Y-40299318D01*
X145124323Y-40321972D01*
X145097227Y-40342068D01*
X145068293Y-40359410D01*
X145037797Y-40373834D01*
X145006035Y-40385198D01*
X144973312Y-40393395D01*
X144939943Y-40398345D01*
X144906250Y-40400000D01*
X144218750Y-40400000D01*
X144185057Y-40398345D01*
X144151688Y-40393395D01*
X144118965Y-40385198D01*
X144087203Y-40373834D01*
X144056707Y-40359410D01*
X144027773Y-40342068D01*
X144000677Y-40321972D01*
X143975682Y-40299318D01*
X143953028Y-40274323D01*
X143932932Y-40247227D01*
X143915590Y-40218293D01*
X143901166Y-40187797D01*
X143889802Y-40156035D01*
X143881605Y-40123312D01*
X143876655Y-40089943D01*
X143875000Y-40056250D01*
X143875000Y-38943750D01*
X143876655Y-38910057D01*
X143881605Y-38876688D01*
X143889802Y-38843965D01*
X143901166Y-38812203D01*
X143915590Y-38781707D01*
X143932932Y-38752773D01*
X143953028Y-38725677D01*
X143975682Y-38700682D01*
X144000677Y-38678028D01*
X144027773Y-38657932D01*
X144056707Y-38640590D01*
X144087203Y-38626166D01*
X144118965Y-38614802D01*
X144151688Y-38606605D01*
X144185057Y-38601655D01*
X144218750Y-38600000D01*
X144906250Y-38600000D01*
X144939943Y-38601655D01*
X144939943Y-38601655D01*
G37*
D24*
X144562500Y-39500000D03*
D22*
G36*
X146814943Y-38601655D02*
X146848312Y-38606605D01*
X146881035Y-38614802D01*
X146912797Y-38626166D01*
X146943293Y-38640590D01*
X146972227Y-38657932D01*
X146999323Y-38678028D01*
X147024318Y-38700682D01*
X147046972Y-38725677D01*
X147067068Y-38752773D01*
X147084410Y-38781707D01*
X147098834Y-38812203D01*
X147110198Y-38843965D01*
X147118395Y-38876688D01*
X147123345Y-38910057D01*
X147125000Y-38943750D01*
X147125000Y-40056250D01*
X147123345Y-40089943D01*
X147118395Y-40123312D01*
X147110198Y-40156035D01*
X147098834Y-40187797D01*
X147084410Y-40218293D01*
X147067068Y-40247227D01*
X147046972Y-40274323D01*
X147024318Y-40299318D01*
X146999323Y-40321972D01*
X146972227Y-40342068D01*
X146943293Y-40359410D01*
X146912797Y-40373834D01*
X146881035Y-40385198D01*
X146848312Y-40393395D01*
X146814943Y-40398345D01*
X146781250Y-40400000D01*
X146093750Y-40400000D01*
X146060057Y-40398345D01*
X146026688Y-40393395D01*
X145993965Y-40385198D01*
X145962203Y-40373834D01*
X145931707Y-40359410D01*
X145902773Y-40342068D01*
X145875677Y-40321972D01*
X145850682Y-40299318D01*
X145828028Y-40274323D01*
X145807932Y-40247227D01*
X145790590Y-40218293D01*
X145776166Y-40187797D01*
X145764802Y-40156035D01*
X145756605Y-40123312D01*
X145751655Y-40089943D01*
X145750000Y-40056250D01*
X145750000Y-38943750D01*
X145751655Y-38910057D01*
X145756605Y-38876688D01*
X145764802Y-38843965D01*
X145776166Y-38812203D01*
X145790590Y-38781707D01*
X145807932Y-38752773D01*
X145828028Y-38725677D01*
X145850682Y-38700682D01*
X145875677Y-38678028D01*
X145902773Y-38657932D01*
X145931707Y-38640590D01*
X145962203Y-38626166D01*
X145993965Y-38614802D01*
X146026688Y-38606605D01*
X146060057Y-38601655D01*
X146093750Y-38600000D01*
X146781250Y-38600000D01*
X146814943Y-38601655D01*
X146814943Y-38601655D01*
G37*
D24*
X146437500Y-39500000D03*
G04 #@! TD*
D26*
G04 #@! TO.C,REF\002A\002A*
X150000000Y-40250000D03*
G04 #@! TD*
D10*
G04 #@! TO.C,U2*
X176274000Y-46150000D03*
D11*
X174750000Y-51600000D03*
X174750000Y-52500000D03*
X174750000Y-53400000D03*
X173850000Y-51600000D03*
X172950000Y-51600000D03*
X172950000Y-52500000D03*
X173850000Y-52500000D03*
X173850000Y-53400000D03*
X172950000Y-53400000D03*
D10*
X175374000Y-46150000D03*
X174474000Y-46150000D03*
X173574000Y-46150000D03*
X172674000Y-46150000D03*
X171774000Y-46140000D03*
X170874000Y-46150000D03*
X169974000Y-46150000D03*
D12*
X166750000Y-49125000D03*
X166750000Y-50025000D03*
X166750000Y-50925000D03*
X166750000Y-51825000D03*
X166750000Y-52725000D03*
X166750000Y-53625000D03*
X166750000Y-54525000D03*
X166750000Y-55425000D03*
D10*
X173574000Y-58850000D03*
X176274000Y-58850000D03*
X170874000Y-58850000D03*
X169974000Y-58850000D03*
X171774000Y-58840000D03*
X174474000Y-58850000D03*
X175374000Y-58850000D03*
X172674000Y-58850000D03*
D13*
X173850000Y-52500000D03*
G04 #@! TD*
D14*
G04 #@! TO.C,SW1*
X155650000Y-65300000D03*
X159350000Y-65300000D03*
D15*
X155375000Y-64250000D03*
X159625000Y-64250000D03*
D16*
X158725000Y-63350000D03*
D17*
X157500000Y-63350000D03*
D16*
X156275000Y-63350000D03*
G04 #@! TD*
D18*
G04 #@! TO.C,TP1*
X166250000Y-59000000D03*
G04 #@! TD*
D19*
G04 #@! TO.C,TP2*
X165750000Y-61750000D03*
G04 #@! TD*
G04 #@! TO.C,TP4*
X178750000Y-43250000D03*
G04 #@! TD*
G04 #@! TO.C,TP3*
X175750000Y-43250000D03*
G04 #@! TD*
D20*
G04 #@! TO.C,J3*
X177750000Y-40000000D03*
D21*
X175210000Y-40000000D03*
X172670000Y-40000000D03*
X170130000Y-40000000D03*
G04 #@! TD*
D22*
G04 #@! TO.C,C7*
G36*
X153637493Y-62076535D02*
X153668435Y-62081125D01*
X153698778Y-62088725D01*
X153728230Y-62099263D01*
X153756508Y-62112638D01*
X153783338Y-62128719D01*
X153808463Y-62147353D01*
X153831640Y-62168360D01*
X153852647Y-62191537D01*
X153871281Y-62216662D01*
X153887362Y-62243492D01*
X153900737Y-62271770D01*
X153911275Y-62301222D01*
X153918875Y-62331565D01*
X153923465Y-62362507D01*
X153925000Y-62393750D01*
X153925000Y-63106250D01*
X153923465Y-63137493D01*
X153918875Y-63168435D01*
X153911275Y-63198778D01*
X153900737Y-63228230D01*
X153887362Y-63256508D01*
X153871281Y-63283338D01*
X153852647Y-63308463D01*
X153831640Y-63331640D01*
X153808463Y-63352647D01*
X153783338Y-63371281D01*
X153756508Y-63387362D01*
X153728230Y-63400737D01*
X153698778Y-63411275D01*
X153668435Y-63418875D01*
X153637493Y-63423465D01*
X153606250Y-63425000D01*
X152968750Y-63425000D01*
X152937507Y-63423465D01*
X152906565Y-63418875D01*
X152876222Y-63411275D01*
X152846770Y-63400737D01*
X152818492Y-63387362D01*
X152791662Y-63371281D01*
X152766537Y-63352647D01*
X152743360Y-63331640D01*
X152722353Y-63308463D01*
X152703719Y-63283338D01*
X152687638Y-63256508D01*
X152674263Y-63228230D01*
X152663725Y-63198778D01*
X152656125Y-63168435D01*
X152651535Y-63137493D01*
X152650000Y-63106250D01*
X152650000Y-62393750D01*
X152651535Y-62362507D01*
X152656125Y-62331565D01*
X152663725Y-62301222D01*
X152674263Y-62271770D01*
X152687638Y-62243492D01*
X152703719Y-62216662D01*
X152722353Y-62191537D01*
X152743360Y-62168360D01*
X152766537Y-62147353D01*
X152791662Y-62128719D01*
X152818492Y-62112638D01*
X152846770Y-62099263D01*
X152876222Y-62088725D01*
X152906565Y-62081125D01*
X152937507Y-62076535D01*
X152968750Y-62075000D01*
X153606250Y-62075000D01*
X153637493Y-62076535D01*
X153637493Y-62076535D01*
G37*
D23*
X153287500Y-62750000D03*
D22*
G36*
X152062493Y-62076535D02*
X152093435Y-62081125D01*
X152123778Y-62088725D01*
X152153230Y-62099263D01*
X152181508Y-62112638D01*
X152208338Y-62128719D01*
X152233463Y-62147353D01*
X152256640Y-62168360D01*
X152277647Y-62191537D01*
X152296281Y-62216662D01*
X152312362Y-62243492D01*
X152325737Y-62271770D01*
X152336275Y-62301222D01*
X152343875Y-62331565D01*
X152348465Y-62362507D01*
X152350000Y-62393750D01*
X152350000Y-63106250D01*
X152348465Y-63137493D01*
X152343875Y-63168435D01*
X152336275Y-63198778D01*
X152325737Y-63228230D01*
X152312362Y-63256508D01*
X152296281Y-63283338D01*
X152277647Y-63308463D01*
X152256640Y-63331640D01*
X152233463Y-63352647D01*
X152208338Y-63371281D01*
X152181508Y-63387362D01*
X152153230Y-63400737D01*
X152123778Y-63411275D01*
X152093435Y-63418875D01*
X152062493Y-63423465D01*
X152031250Y-63425000D01*
X151393750Y-63425000D01*
X151362507Y-63423465D01*
X151331565Y-63418875D01*
X151301222Y-63411275D01*
X151271770Y-63400737D01*
X151243492Y-63387362D01*
X151216662Y-63371281D01*
X151191537Y-63352647D01*
X151168360Y-63331640D01*
X151147353Y-63308463D01*
X151128719Y-63283338D01*
X151112638Y-63256508D01*
X151099263Y-63228230D01*
X151088725Y-63198778D01*
X151081125Y-63168435D01*
X151076535Y-63137493D01*
X151075000Y-63106250D01*
X151075000Y-62393750D01*
X151076535Y-62362507D01*
X151081125Y-62331565D01*
X151088725Y-62301222D01*
X151099263Y-62271770D01*
X151112638Y-62243492D01*
X151128719Y-62216662D01*
X151147353Y-62191537D01*
X151168360Y-62168360D01*
X151191537Y-62147353D01*
X151216662Y-62128719D01*
X151243492Y-62112638D01*
X151271770Y-62099263D01*
X151301222Y-62088725D01*
X151331565Y-62081125D01*
X151362507Y-62076535D01*
X151393750Y-62075000D01*
X152031250Y-62075000D01*
X152062493Y-62076535D01*
X152062493Y-62076535D01*
G37*
D23*
X151712500Y-62750000D03*
G04 #@! TD*
D22*
G04 #@! TO.C,C3*
G36*
X173814943Y-42601655D02*
X173848312Y-42606605D01*
X173881035Y-42614802D01*
X173912797Y-42626166D01*
X173943293Y-42640590D01*
X173972227Y-42657932D01*
X173999323Y-42678028D01*
X174024318Y-42700682D01*
X174046972Y-42725677D01*
X174067068Y-42752773D01*
X174084410Y-42781707D01*
X174098834Y-42812203D01*
X174110198Y-42843965D01*
X174118395Y-42876688D01*
X174123345Y-42910057D01*
X174125000Y-42943750D01*
X174125000Y-44056250D01*
X174123345Y-44089943D01*
X174118395Y-44123312D01*
X174110198Y-44156035D01*
X174098834Y-44187797D01*
X174084410Y-44218293D01*
X174067068Y-44247227D01*
X174046972Y-44274323D01*
X174024318Y-44299318D01*
X173999323Y-44321972D01*
X173972227Y-44342068D01*
X173943293Y-44359410D01*
X173912797Y-44373834D01*
X173881035Y-44385198D01*
X173848312Y-44393395D01*
X173814943Y-44398345D01*
X173781250Y-44400000D01*
X173093750Y-44400000D01*
X173060057Y-44398345D01*
X173026688Y-44393395D01*
X172993965Y-44385198D01*
X172962203Y-44373834D01*
X172931707Y-44359410D01*
X172902773Y-44342068D01*
X172875677Y-44321972D01*
X172850682Y-44299318D01*
X172828028Y-44274323D01*
X172807932Y-44247227D01*
X172790590Y-44218293D01*
X172776166Y-44187797D01*
X172764802Y-44156035D01*
X172756605Y-44123312D01*
X172751655Y-44089943D01*
X172750000Y-44056250D01*
X172750000Y-42943750D01*
X172751655Y-42910057D01*
X172756605Y-42876688D01*
X172764802Y-42843965D01*
X172776166Y-42812203D01*
X172790590Y-42781707D01*
X172807932Y-42752773D01*
X172828028Y-42725677D01*
X172850682Y-42700682D01*
X172875677Y-42678028D01*
X172902773Y-42657932D01*
X172931707Y-42640590D01*
X172962203Y-42626166D01*
X172993965Y-42614802D01*
X173026688Y-42606605D01*
X173060057Y-42601655D01*
X173093750Y-42600000D01*
X173781250Y-42600000D01*
X173814943Y-42601655D01*
X173814943Y-42601655D01*
G37*
D24*
X173437500Y-43500000D03*
D22*
G36*
X171939943Y-42601655D02*
X171973312Y-42606605D01*
X172006035Y-42614802D01*
X172037797Y-42626166D01*
X172068293Y-42640590D01*
X172097227Y-42657932D01*
X172124323Y-42678028D01*
X172149318Y-42700682D01*
X172171972Y-42725677D01*
X172192068Y-42752773D01*
X172209410Y-42781707D01*
X172223834Y-42812203D01*
X172235198Y-42843965D01*
X172243395Y-42876688D01*
X172248345Y-42910057D01*
X172250000Y-42943750D01*
X172250000Y-44056250D01*
X172248345Y-44089943D01*
X172243395Y-44123312D01*
X172235198Y-44156035D01*
X172223834Y-44187797D01*
X172209410Y-44218293D01*
X172192068Y-44247227D01*
X172171972Y-44274323D01*
X172149318Y-44299318D01*
X172124323Y-44321972D01*
X172097227Y-44342068D01*
X172068293Y-44359410D01*
X172037797Y-44373834D01*
X172006035Y-44385198D01*
X171973312Y-44393395D01*
X171939943Y-44398345D01*
X171906250Y-44400000D01*
X171218750Y-44400000D01*
X171185057Y-44398345D01*
X171151688Y-44393395D01*
X171118965Y-44385198D01*
X171087203Y-44373834D01*
X171056707Y-44359410D01*
X171027773Y-44342068D01*
X171000677Y-44321972D01*
X170975682Y-44299318D01*
X170953028Y-44274323D01*
X170932932Y-44247227D01*
X170915590Y-44218293D01*
X170901166Y-44187797D01*
X170889802Y-44156035D01*
X170881605Y-44123312D01*
X170876655Y-44089943D01*
X170875000Y-44056250D01*
X170875000Y-42943750D01*
X170876655Y-42910057D01*
X170881605Y-42876688D01*
X170889802Y-42843965D01*
X170901166Y-42812203D01*
X170915590Y-42781707D01*
X170932932Y-42752773D01*
X170953028Y-42725677D01*
X170975682Y-42700682D01*
X171000677Y-42678028D01*
X171027773Y-42657932D01*
X171056707Y-42640590D01*
X171087203Y-42626166D01*
X171118965Y-42614802D01*
X171151688Y-42606605D01*
X171185057Y-42601655D01*
X171218750Y-42600000D01*
X171906250Y-42600000D01*
X171939943Y-42601655D01*
X171939943Y-42601655D01*
G37*
D24*
X171562500Y-43500000D03*
G04 #@! TD*
D22*
G04 #@! TO.C,C6*
G36*
X173939943Y-60601655D02*
X173973312Y-60606605D01*
X174006035Y-60614802D01*
X174037797Y-60626166D01*
X174068293Y-60640590D01*
X174097227Y-60657932D01*
X174124323Y-60678028D01*
X174149318Y-60700682D01*
X174171972Y-60725677D01*
X174192068Y-60752773D01*
X174209410Y-60781707D01*
X174223834Y-60812203D01*
X174235198Y-60843965D01*
X174243395Y-60876688D01*
X174248345Y-60910057D01*
X174250000Y-60943750D01*
X174250000Y-62056250D01*
X174248345Y-62089943D01*
X174243395Y-62123312D01*
X174235198Y-62156035D01*
X174223834Y-62187797D01*
X174209410Y-62218293D01*
X174192068Y-62247227D01*
X174171972Y-62274323D01*
X174149318Y-62299318D01*
X174124323Y-62321972D01*
X174097227Y-62342068D01*
X174068293Y-62359410D01*
X174037797Y-62373834D01*
X174006035Y-62385198D01*
X173973312Y-62393395D01*
X173939943Y-62398345D01*
X173906250Y-62400000D01*
X173218750Y-62400000D01*
X173185057Y-62398345D01*
X173151688Y-62393395D01*
X173118965Y-62385198D01*
X173087203Y-62373834D01*
X173056707Y-62359410D01*
X173027773Y-62342068D01*
X173000677Y-62321972D01*
X172975682Y-62299318D01*
X172953028Y-62274323D01*
X172932932Y-62247227D01*
X172915590Y-62218293D01*
X172901166Y-62187797D01*
X172889802Y-62156035D01*
X172881605Y-62123312D01*
X172876655Y-62089943D01*
X172875000Y-62056250D01*
X172875000Y-60943750D01*
X172876655Y-60910057D01*
X172881605Y-60876688D01*
X172889802Y-60843965D01*
X172901166Y-60812203D01*
X172915590Y-60781707D01*
X172932932Y-60752773D01*
X172953028Y-60725677D01*
X172975682Y-60700682D01*
X173000677Y-60678028D01*
X173027773Y-60657932D01*
X173056707Y-60640590D01*
X173087203Y-60626166D01*
X173118965Y-60614802D01*
X173151688Y-60606605D01*
X173185057Y-60601655D01*
X173218750Y-60600000D01*
X173906250Y-60600000D01*
X173939943Y-60601655D01*
X173939943Y-60601655D01*
G37*
D24*
X173562500Y-61500000D03*
D22*
G36*
X175814943Y-60601655D02*
X175848312Y-60606605D01*
X175881035Y-60614802D01*
X175912797Y-60626166D01*
X175943293Y-60640590D01*
X175972227Y-60657932D01*
X175999323Y-60678028D01*
X176024318Y-60700682D01*
X176046972Y-60725677D01*
X176067068Y-60752773D01*
X176084410Y-60781707D01*
X176098834Y-60812203D01*
X176110198Y-60843965D01*
X176118395Y-60876688D01*
X176123345Y-60910057D01*
X176125000Y-60943750D01*
X176125000Y-62056250D01*
X176123345Y-62089943D01*
X176118395Y-62123312D01*
X176110198Y-62156035D01*
X176098834Y-62187797D01*
X176084410Y-62218293D01*
X176067068Y-62247227D01*
X176046972Y-62274323D01*
X176024318Y-62299318D01*
X175999323Y-62321972D01*
X175972227Y-62342068D01*
X175943293Y-62359410D01*
X175912797Y-62373834D01*
X175881035Y-62385198D01*
X175848312Y-62393395D01*
X175814943Y-62398345D01*
X175781250Y-62400000D01*
X175093750Y-62400000D01*
X175060057Y-62398345D01*
X175026688Y-62393395D01*
X174993965Y-62385198D01*
X174962203Y-62373834D01*
X174931707Y-62359410D01*
X174902773Y-62342068D01*
X174875677Y-62321972D01*
X174850682Y-62299318D01*
X174828028Y-62274323D01*
X174807932Y-62247227D01*
X174790590Y-62218293D01*
X174776166Y-62187797D01*
X174764802Y-62156035D01*
X174756605Y-62123312D01*
X174751655Y-62089943D01*
X174750000Y-62056250D01*
X174750000Y-60943750D01*
X174751655Y-60910057D01*
X174756605Y-60876688D01*
X174764802Y-60843965D01*
X174776166Y-60812203D01*
X174790590Y-60781707D01*
X174807932Y-60752773D01*
X174828028Y-60725677D01*
X174850682Y-60700682D01*
X174875677Y-60678028D01*
X174902773Y-60657932D01*
X174931707Y-60640590D01*
X174962203Y-60626166D01*
X174993965Y-60614802D01*
X175026688Y-60606605D01*
X175060057Y-60601655D01*
X175093750Y-60600000D01*
X175781250Y-60600000D01*
X175814943Y-60601655D01*
X175814943Y-60601655D01*
G37*
D24*
X175437500Y-61500000D03*
G04 #@! TD*
D22*
G04 #@! TO.C,C2*
G36*
X143064943Y-50351655D02*
X143098312Y-50356605D01*
X143131035Y-50364802D01*
X143162797Y-50376166D01*
X143193293Y-50390590D01*
X143222227Y-50407932D01*
X143249323Y-50428028D01*
X143274318Y-50450682D01*
X143296972Y-50475677D01*
X143317068Y-50502773D01*
X143334410Y-50531707D01*
X143348834Y-50562203D01*
X143360198Y-50593965D01*
X143368395Y-50626688D01*
X143373345Y-50660057D01*
X143375000Y-50693750D01*
X143375000Y-51806250D01*
X143373345Y-51839943D01*
X143368395Y-51873312D01*
X143360198Y-51906035D01*
X143348834Y-51937797D01*
X143334410Y-51968293D01*
X143317068Y-51997227D01*
X143296972Y-52024323D01*
X143274318Y-52049318D01*
X143249323Y-52071972D01*
X143222227Y-52092068D01*
X143193293Y-52109410D01*
X143162797Y-52123834D01*
X143131035Y-52135198D01*
X143098312Y-52143395D01*
X143064943Y-52148345D01*
X143031250Y-52150000D01*
X142343750Y-52150000D01*
X142310057Y-52148345D01*
X142276688Y-52143395D01*
X142243965Y-52135198D01*
X142212203Y-52123834D01*
X142181707Y-52109410D01*
X142152773Y-52092068D01*
X142125677Y-52071972D01*
X142100682Y-52049318D01*
X142078028Y-52024323D01*
X142057932Y-51997227D01*
X142040590Y-51968293D01*
X142026166Y-51937797D01*
X142014802Y-51906035D01*
X142006605Y-51873312D01*
X142001655Y-51839943D01*
X142000000Y-51806250D01*
X142000000Y-50693750D01*
X142001655Y-50660057D01*
X142006605Y-50626688D01*
X142014802Y-50593965D01*
X142026166Y-50562203D01*
X142040590Y-50531707D01*
X142057932Y-50502773D01*
X142078028Y-50475677D01*
X142100682Y-50450682D01*
X142125677Y-50428028D01*
X142152773Y-50407932D01*
X142181707Y-50390590D01*
X142212203Y-50376166D01*
X142243965Y-50364802D01*
X142276688Y-50356605D01*
X142310057Y-50351655D01*
X142343750Y-50350000D01*
X143031250Y-50350000D01*
X143064943Y-50351655D01*
X143064943Y-50351655D01*
G37*
D24*
X142687500Y-51250000D03*
D22*
G36*
X141189943Y-50351655D02*
X141223312Y-50356605D01*
X141256035Y-50364802D01*
X141287797Y-50376166D01*
X141318293Y-50390590D01*
X141347227Y-50407932D01*
X141374323Y-50428028D01*
X141399318Y-50450682D01*
X141421972Y-50475677D01*
X141442068Y-50502773D01*
X141459410Y-50531707D01*
X141473834Y-50562203D01*
X141485198Y-50593965D01*
X141493395Y-50626688D01*
X141498345Y-50660057D01*
X141500000Y-50693750D01*
X141500000Y-51806250D01*
X141498345Y-51839943D01*
X141493395Y-51873312D01*
X141485198Y-51906035D01*
X141473834Y-51937797D01*
X141459410Y-51968293D01*
X141442068Y-51997227D01*
X141421972Y-52024323D01*
X141399318Y-52049318D01*
X141374323Y-52071972D01*
X141347227Y-52092068D01*
X141318293Y-52109410D01*
X141287797Y-52123834D01*
X141256035Y-52135198D01*
X141223312Y-52143395D01*
X141189943Y-52148345D01*
X141156250Y-52150000D01*
X140468750Y-52150000D01*
X140435057Y-52148345D01*
X140401688Y-52143395D01*
X140368965Y-52135198D01*
X140337203Y-52123834D01*
X140306707Y-52109410D01*
X140277773Y-52092068D01*
X140250677Y-52071972D01*
X140225682Y-52049318D01*
X140203028Y-52024323D01*
X140182932Y-51997227D01*
X140165590Y-51968293D01*
X140151166Y-51937797D01*
X140139802Y-51906035D01*
X140131605Y-51873312D01*
X140126655Y-51839943D01*
X140125000Y-51806250D01*
X140125000Y-50693750D01*
X140126655Y-50660057D01*
X140131605Y-50626688D01*
X140139802Y-50593965D01*
X140151166Y-50562203D01*
X140165590Y-50531707D01*
X140182932Y-50502773D01*
X140203028Y-50475677D01*
X140225682Y-50450682D01*
X140250677Y-50428028D01*
X140277773Y-50407932D01*
X140306707Y-50390590D01*
X140337203Y-50376166D01*
X140368965Y-50364802D01*
X140401688Y-50356605D01*
X140435057Y-50351655D01*
X140468750Y-50350000D01*
X141156250Y-50350000D01*
X141189943Y-50351655D01*
X141189943Y-50351655D01*
G37*
D24*
X140812500Y-51250000D03*
G04 #@! TD*
D20*
G04 #@! TO.C,J1*
X141750000Y-57250000D03*
D21*
X141750000Y-54710000D03*
G04 #@! TD*
G04 #@! TO.C,J4*
X160580000Y-42540000D03*
X160580000Y-40000000D03*
X158040000Y-42540000D03*
X158040000Y-40000000D03*
X155500000Y-42540000D03*
D20*
X155500000Y-40000000D03*
G04 #@! TD*
G04 #@! TO.C,J2*
X146750000Y-63500000D03*
D21*
X146750000Y-60960000D03*
X144210000Y-63500000D03*
X144210000Y-60960000D03*
X141670000Y-63500000D03*
X141670000Y-60960000D03*
G04 #@! TD*
D25*
G04 #@! TO.C,Q7*
X160500000Y-46400000D03*
X158500000Y-47350000D03*
X158500000Y-45450000D03*
G04 #@! TD*
G04 #@! TO.C,Q4*
X150000000Y-58750000D03*
X150000000Y-60650000D03*
X152000000Y-59700000D03*
G04 #@! TD*
G04 #@! TO.C,Q9*
X152000000Y-46400000D03*
X150000000Y-47350000D03*
X150000000Y-45450000D03*
G04 #@! TD*
G04 #@! TO.C,Q8*
X150000000Y-49850000D03*
X150000000Y-51750000D03*
X152000000Y-50800000D03*
G04 #@! TD*
G04 #@! TO.C,Q6*
X160500000Y-50800000D03*
X158500000Y-51750000D03*
X158500000Y-49850000D03*
G04 #@! TD*
G04 #@! TO.C,Q5*
X150000000Y-54300000D03*
X150000000Y-56200000D03*
X152000000Y-55250000D03*
G04 #@! TD*
D22*
G04 #@! TO.C,R9*
G36*
X156314943Y-45101655D02*
X156348312Y-45106605D01*
X156381035Y-45114802D01*
X156412797Y-45126166D01*
X156443293Y-45140590D01*
X156472227Y-45157932D01*
X156499323Y-45178028D01*
X156524318Y-45200682D01*
X156546972Y-45225677D01*
X156567068Y-45252773D01*
X156584410Y-45281707D01*
X156598834Y-45312203D01*
X156610198Y-45343965D01*
X156618395Y-45376688D01*
X156623345Y-45410057D01*
X156625000Y-45443750D01*
X156625000Y-46556250D01*
X156623345Y-46589943D01*
X156618395Y-46623312D01*
X156610198Y-46656035D01*
X156598834Y-46687797D01*
X156584410Y-46718293D01*
X156567068Y-46747227D01*
X156546972Y-46774323D01*
X156524318Y-46799318D01*
X156499323Y-46821972D01*
X156472227Y-46842068D01*
X156443293Y-46859410D01*
X156412797Y-46873834D01*
X156381035Y-46885198D01*
X156348312Y-46893395D01*
X156314943Y-46898345D01*
X156281250Y-46900000D01*
X155593750Y-46900000D01*
X155560057Y-46898345D01*
X155526688Y-46893395D01*
X155493965Y-46885198D01*
X155462203Y-46873834D01*
X155431707Y-46859410D01*
X155402773Y-46842068D01*
X155375677Y-46821972D01*
X155350682Y-46799318D01*
X155328028Y-46774323D01*
X155307932Y-46747227D01*
X155290590Y-46718293D01*
X155276166Y-46687797D01*
X155264802Y-46656035D01*
X155256605Y-46623312D01*
X155251655Y-46589943D01*
X155250000Y-46556250D01*
X155250000Y-45443750D01*
X155251655Y-45410057D01*
X155256605Y-45376688D01*
X155264802Y-45343965D01*
X155276166Y-45312203D01*
X155290590Y-45281707D01*
X155307932Y-45252773D01*
X155328028Y-45225677D01*
X155350682Y-45200682D01*
X155375677Y-45178028D01*
X155402773Y-45157932D01*
X155431707Y-45140590D01*
X155462203Y-45126166D01*
X155493965Y-45114802D01*
X155526688Y-45106605D01*
X155560057Y-45101655D01*
X155593750Y-45100000D01*
X156281250Y-45100000D01*
X156314943Y-45101655D01*
X156314943Y-45101655D01*
G37*
D24*
X155937500Y-46000000D03*
D22*
G36*
X154439943Y-45101655D02*
X154473312Y-45106605D01*
X154506035Y-45114802D01*
X154537797Y-45126166D01*
X154568293Y-45140590D01*
X154597227Y-45157932D01*
X154624323Y-45178028D01*
X154649318Y-45200682D01*
X154671972Y-45225677D01*
X154692068Y-45252773D01*
X154709410Y-45281707D01*
X154723834Y-45312203D01*
X154735198Y-45343965D01*
X154743395Y-45376688D01*
X154748345Y-45410057D01*
X154750000Y-45443750D01*
X154750000Y-46556250D01*
X154748345Y-46589943D01*
X154743395Y-46623312D01*
X154735198Y-46656035D01*
X154723834Y-46687797D01*
X154709410Y-46718293D01*
X154692068Y-46747227D01*
X154671972Y-46774323D01*
X154649318Y-46799318D01*
X154624323Y-46821972D01*
X154597227Y-46842068D01*
X154568293Y-46859410D01*
X154537797Y-46873834D01*
X154506035Y-46885198D01*
X154473312Y-46893395D01*
X154439943Y-46898345D01*
X154406250Y-46900000D01*
X153718750Y-46900000D01*
X153685057Y-46898345D01*
X153651688Y-46893395D01*
X153618965Y-46885198D01*
X153587203Y-46873834D01*
X153556707Y-46859410D01*
X153527773Y-46842068D01*
X153500677Y-46821972D01*
X153475682Y-46799318D01*
X153453028Y-46774323D01*
X153432932Y-46747227D01*
X153415590Y-46718293D01*
X153401166Y-46687797D01*
X153389802Y-46656035D01*
X153381605Y-46623312D01*
X153376655Y-46589943D01*
X153375000Y-46556250D01*
X153375000Y-45443750D01*
X153376655Y-45410057D01*
X153381605Y-45376688D01*
X153389802Y-45343965D01*
X153401166Y-45312203D01*
X153415590Y-45281707D01*
X153432932Y-45252773D01*
X153453028Y-45225677D01*
X153475682Y-45200682D01*
X153500677Y-45178028D01*
X153527773Y-45157932D01*
X153556707Y-45140590D01*
X153587203Y-45126166D01*
X153618965Y-45114802D01*
X153651688Y-45106605D01*
X153685057Y-45101655D01*
X153718750Y-45100000D01*
X154406250Y-45100000D01*
X154439943Y-45101655D01*
X154439943Y-45101655D01*
G37*
D24*
X154062500Y-46000000D03*
G04 #@! TD*
D22*
G04 #@! TO.C,R10*
G36*
X153814943Y-63801655D02*
X153848312Y-63806605D01*
X153881035Y-63814802D01*
X153912797Y-63826166D01*
X153943293Y-63840590D01*
X153972227Y-63857932D01*
X153999323Y-63878028D01*
X154024318Y-63900682D01*
X154046972Y-63925677D01*
X154067068Y-63952773D01*
X154084410Y-63981707D01*
X154098834Y-64012203D01*
X154110198Y-64043965D01*
X154118395Y-64076688D01*
X154123345Y-64110057D01*
X154125000Y-64143750D01*
X154125000Y-65256250D01*
X154123345Y-65289943D01*
X154118395Y-65323312D01*
X154110198Y-65356035D01*
X154098834Y-65387797D01*
X154084410Y-65418293D01*
X154067068Y-65447227D01*
X154046972Y-65474323D01*
X154024318Y-65499318D01*
X153999323Y-65521972D01*
X153972227Y-65542068D01*
X153943293Y-65559410D01*
X153912797Y-65573834D01*
X153881035Y-65585198D01*
X153848312Y-65593395D01*
X153814943Y-65598345D01*
X153781250Y-65600000D01*
X153093750Y-65600000D01*
X153060057Y-65598345D01*
X153026688Y-65593395D01*
X152993965Y-65585198D01*
X152962203Y-65573834D01*
X152931707Y-65559410D01*
X152902773Y-65542068D01*
X152875677Y-65521972D01*
X152850682Y-65499318D01*
X152828028Y-65474323D01*
X152807932Y-65447227D01*
X152790590Y-65418293D01*
X152776166Y-65387797D01*
X152764802Y-65356035D01*
X152756605Y-65323312D01*
X152751655Y-65289943D01*
X152750000Y-65256250D01*
X152750000Y-64143750D01*
X152751655Y-64110057D01*
X152756605Y-64076688D01*
X152764802Y-64043965D01*
X152776166Y-64012203D01*
X152790590Y-63981707D01*
X152807932Y-63952773D01*
X152828028Y-63925677D01*
X152850682Y-63900682D01*
X152875677Y-63878028D01*
X152902773Y-63857932D01*
X152931707Y-63840590D01*
X152962203Y-63826166D01*
X152993965Y-63814802D01*
X153026688Y-63806605D01*
X153060057Y-63801655D01*
X153093750Y-63800000D01*
X153781250Y-63800000D01*
X153814943Y-63801655D01*
X153814943Y-63801655D01*
G37*
D24*
X153437500Y-64700000D03*
D22*
G36*
X151939943Y-63801655D02*
X151973312Y-63806605D01*
X152006035Y-63814802D01*
X152037797Y-63826166D01*
X152068293Y-63840590D01*
X152097227Y-63857932D01*
X152124323Y-63878028D01*
X152149318Y-63900682D01*
X152171972Y-63925677D01*
X152192068Y-63952773D01*
X152209410Y-63981707D01*
X152223834Y-64012203D01*
X152235198Y-64043965D01*
X152243395Y-64076688D01*
X152248345Y-64110057D01*
X152250000Y-64143750D01*
X152250000Y-65256250D01*
X152248345Y-65289943D01*
X152243395Y-65323312D01*
X152235198Y-65356035D01*
X152223834Y-65387797D01*
X152209410Y-65418293D01*
X152192068Y-65447227D01*
X152171972Y-65474323D01*
X152149318Y-65499318D01*
X152124323Y-65521972D01*
X152097227Y-65542068D01*
X152068293Y-65559410D01*
X152037797Y-65573834D01*
X152006035Y-65585198D01*
X151973312Y-65593395D01*
X151939943Y-65598345D01*
X151906250Y-65600000D01*
X151218750Y-65600000D01*
X151185057Y-65598345D01*
X151151688Y-65593395D01*
X151118965Y-65585198D01*
X151087203Y-65573834D01*
X151056707Y-65559410D01*
X151027773Y-65542068D01*
X151000677Y-65521972D01*
X150975682Y-65499318D01*
X150953028Y-65474323D01*
X150932932Y-65447227D01*
X150915590Y-65418293D01*
X150901166Y-65387797D01*
X150889802Y-65356035D01*
X150881605Y-65323312D01*
X150876655Y-65289943D01*
X150875000Y-65256250D01*
X150875000Y-64143750D01*
X150876655Y-64110057D01*
X150881605Y-64076688D01*
X150889802Y-64043965D01*
X150901166Y-64012203D01*
X150915590Y-63981707D01*
X150932932Y-63952773D01*
X150953028Y-63925677D01*
X150975682Y-63900682D01*
X151000677Y-63878028D01*
X151027773Y-63857932D01*
X151056707Y-63840590D01*
X151087203Y-63826166D01*
X151118965Y-63814802D01*
X151151688Y-63806605D01*
X151185057Y-63801655D01*
X151218750Y-63800000D01*
X151906250Y-63800000D01*
X151939943Y-63801655D01*
X151939943Y-63801655D01*
G37*
D24*
X151562500Y-64700000D03*
G04 #@! TD*
D22*
G04 #@! TO.C,R11*
G36*
X163814943Y-61601655D02*
X163848312Y-61606605D01*
X163881035Y-61614802D01*
X163912797Y-61626166D01*
X163943293Y-61640590D01*
X163972227Y-61657932D01*
X163999323Y-61678028D01*
X164024318Y-61700682D01*
X164046972Y-61725677D01*
X164067068Y-61752773D01*
X164084410Y-61781707D01*
X164098834Y-61812203D01*
X164110198Y-61843965D01*
X164118395Y-61876688D01*
X164123345Y-61910057D01*
X164125000Y-61943750D01*
X164125000Y-63056250D01*
X164123345Y-63089943D01*
X164118395Y-63123312D01*
X164110198Y-63156035D01*
X164098834Y-63187797D01*
X164084410Y-63218293D01*
X164067068Y-63247227D01*
X164046972Y-63274323D01*
X164024318Y-63299318D01*
X163999323Y-63321972D01*
X163972227Y-63342068D01*
X163943293Y-63359410D01*
X163912797Y-63373834D01*
X163881035Y-63385198D01*
X163848312Y-63393395D01*
X163814943Y-63398345D01*
X163781250Y-63400000D01*
X163093750Y-63400000D01*
X163060057Y-63398345D01*
X163026688Y-63393395D01*
X162993965Y-63385198D01*
X162962203Y-63373834D01*
X162931707Y-63359410D01*
X162902773Y-63342068D01*
X162875677Y-63321972D01*
X162850682Y-63299318D01*
X162828028Y-63274323D01*
X162807932Y-63247227D01*
X162790590Y-63218293D01*
X162776166Y-63187797D01*
X162764802Y-63156035D01*
X162756605Y-63123312D01*
X162751655Y-63089943D01*
X162750000Y-63056250D01*
X162750000Y-61943750D01*
X162751655Y-61910057D01*
X162756605Y-61876688D01*
X162764802Y-61843965D01*
X162776166Y-61812203D01*
X162790590Y-61781707D01*
X162807932Y-61752773D01*
X162828028Y-61725677D01*
X162850682Y-61700682D01*
X162875677Y-61678028D01*
X162902773Y-61657932D01*
X162931707Y-61640590D01*
X162962203Y-61626166D01*
X162993965Y-61614802D01*
X163026688Y-61606605D01*
X163060057Y-61601655D01*
X163093750Y-61600000D01*
X163781250Y-61600000D01*
X163814943Y-61601655D01*
X163814943Y-61601655D01*
G37*
D24*
X163437500Y-62500000D03*
D22*
G36*
X161939943Y-61601655D02*
X161973312Y-61606605D01*
X162006035Y-61614802D01*
X162037797Y-61626166D01*
X162068293Y-61640590D01*
X162097227Y-61657932D01*
X162124323Y-61678028D01*
X162149318Y-61700682D01*
X162171972Y-61725677D01*
X162192068Y-61752773D01*
X162209410Y-61781707D01*
X162223834Y-61812203D01*
X162235198Y-61843965D01*
X162243395Y-61876688D01*
X162248345Y-61910057D01*
X162250000Y-61943750D01*
X162250000Y-63056250D01*
X162248345Y-63089943D01*
X162243395Y-63123312D01*
X162235198Y-63156035D01*
X162223834Y-63187797D01*
X162209410Y-63218293D01*
X162192068Y-63247227D01*
X162171972Y-63274323D01*
X162149318Y-63299318D01*
X162124323Y-63321972D01*
X162097227Y-63342068D01*
X162068293Y-63359410D01*
X162037797Y-63373834D01*
X162006035Y-63385198D01*
X161973312Y-63393395D01*
X161939943Y-63398345D01*
X161906250Y-63400000D01*
X161218750Y-63400000D01*
X161185057Y-63398345D01*
X161151688Y-63393395D01*
X161118965Y-63385198D01*
X161087203Y-63373834D01*
X161056707Y-63359410D01*
X161027773Y-63342068D01*
X161000677Y-63321972D01*
X160975682Y-63299318D01*
X160953028Y-63274323D01*
X160932932Y-63247227D01*
X160915590Y-63218293D01*
X160901166Y-63187797D01*
X160889802Y-63156035D01*
X160881605Y-63123312D01*
X160876655Y-63089943D01*
X160875000Y-63056250D01*
X160875000Y-61943750D01*
X160876655Y-61910057D01*
X160881605Y-61876688D01*
X160889802Y-61843965D01*
X160901166Y-61812203D01*
X160915590Y-61781707D01*
X160932932Y-61752773D01*
X160953028Y-61725677D01*
X160975682Y-61700682D01*
X161000677Y-61678028D01*
X161027773Y-61657932D01*
X161056707Y-61640590D01*
X161087203Y-61626166D01*
X161118965Y-61614802D01*
X161151688Y-61606605D01*
X161185057Y-61601655D01*
X161218750Y-61600000D01*
X161906250Y-61600000D01*
X161939943Y-61601655D01*
X161939943Y-61601655D01*
G37*
D24*
X161562500Y-62500000D03*
G04 #@! TD*
D22*
G04 #@! TO.C,R6*
G36*
X164814943Y-49601655D02*
X164848312Y-49606605D01*
X164881035Y-49614802D01*
X164912797Y-49626166D01*
X164943293Y-49640590D01*
X164972227Y-49657932D01*
X164999323Y-49678028D01*
X165024318Y-49700682D01*
X165046972Y-49725677D01*
X165067068Y-49752773D01*
X165084410Y-49781707D01*
X165098834Y-49812203D01*
X165110198Y-49843965D01*
X165118395Y-49876688D01*
X165123345Y-49910057D01*
X165125000Y-49943750D01*
X165125000Y-51056250D01*
X165123345Y-51089943D01*
X165118395Y-51123312D01*
X165110198Y-51156035D01*
X165098834Y-51187797D01*
X165084410Y-51218293D01*
X165067068Y-51247227D01*
X165046972Y-51274323D01*
X165024318Y-51299318D01*
X164999323Y-51321972D01*
X164972227Y-51342068D01*
X164943293Y-51359410D01*
X164912797Y-51373834D01*
X164881035Y-51385198D01*
X164848312Y-51393395D01*
X164814943Y-51398345D01*
X164781250Y-51400000D01*
X164093750Y-51400000D01*
X164060057Y-51398345D01*
X164026688Y-51393395D01*
X163993965Y-51385198D01*
X163962203Y-51373834D01*
X163931707Y-51359410D01*
X163902773Y-51342068D01*
X163875677Y-51321972D01*
X163850682Y-51299318D01*
X163828028Y-51274323D01*
X163807932Y-51247227D01*
X163790590Y-51218293D01*
X163776166Y-51187797D01*
X163764802Y-51156035D01*
X163756605Y-51123312D01*
X163751655Y-51089943D01*
X163750000Y-51056250D01*
X163750000Y-49943750D01*
X163751655Y-49910057D01*
X163756605Y-49876688D01*
X163764802Y-49843965D01*
X163776166Y-49812203D01*
X163790590Y-49781707D01*
X163807932Y-49752773D01*
X163828028Y-49725677D01*
X163850682Y-49700682D01*
X163875677Y-49678028D01*
X163902773Y-49657932D01*
X163931707Y-49640590D01*
X163962203Y-49626166D01*
X163993965Y-49614802D01*
X164026688Y-49606605D01*
X164060057Y-49601655D01*
X164093750Y-49600000D01*
X164781250Y-49600000D01*
X164814943Y-49601655D01*
X164814943Y-49601655D01*
G37*
D24*
X164437500Y-50500000D03*
D22*
G36*
X162939943Y-49601655D02*
X162973312Y-49606605D01*
X163006035Y-49614802D01*
X163037797Y-49626166D01*
X163068293Y-49640590D01*
X163097227Y-49657932D01*
X163124323Y-49678028D01*
X163149318Y-49700682D01*
X163171972Y-49725677D01*
X163192068Y-49752773D01*
X163209410Y-49781707D01*
X163223834Y-49812203D01*
X163235198Y-49843965D01*
X163243395Y-49876688D01*
X163248345Y-49910057D01*
X163250000Y-49943750D01*
X163250000Y-51056250D01*
X163248345Y-51089943D01*
X163243395Y-51123312D01*
X163235198Y-51156035D01*
X163223834Y-51187797D01*
X163209410Y-51218293D01*
X163192068Y-51247227D01*
X163171972Y-51274323D01*
X163149318Y-51299318D01*
X163124323Y-51321972D01*
X163097227Y-51342068D01*
X163068293Y-51359410D01*
X163037797Y-51373834D01*
X163006035Y-51385198D01*
X162973312Y-51393395D01*
X162939943Y-51398345D01*
X162906250Y-51400000D01*
X162218750Y-51400000D01*
X162185057Y-51398345D01*
X162151688Y-51393395D01*
X162118965Y-51385198D01*
X162087203Y-51373834D01*
X162056707Y-51359410D01*
X162027773Y-51342068D01*
X162000677Y-51321972D01*
X161975682Y-51299318D01*
X161953028Y-51274323D01*
X161932932Y-51247227D01*
X161915590Y-51218293D01*
X161901166Y-51187797D01*
X161889802Y-51156035D01*
X161881605Y-51123312D01*
X161876655Y-51089943D01*
X161875000Y-51056250D01*
X161875000Y-49943750D01*
X161876655Y-49910057D01*
X161881605Y-49876688D01*
X161889802Y-49843965D01*
X161901166Y-49812203D01*
X161915590Y-49781707D01*
X161932932Y-49752773D01*
X161953028Y-49725677D01*
X161975682Y-49700682D01*
X162000677Y-49678028D01*
X162027773Y-49657932D01*
X162056707Y-49640590D01*
X162087203Y-49626166D01*
X162118965Y-49614802D01*
X162151688Y-49606605D01*
X162185057Y-49601655D01*
X162218750Y-49600000D01*
X162906250Y-49600000D01*
X162939943Y-49601655D01*
X162939943Y-49601655D01*
G37*
D24*
X162562500Y-50500000D03*
G04 #@! TD*
D22*
G04 #@! TO.C,R7*
G36*
X162939943Y-45101655D02*
X162973312Y-45106605D01*
X163006035Y-45114802D01*
X163037797Y-45126166D01*
X163068293Y-45140590D01*
X163097227Y-45157932D01*
X163124323Y-45178028D01*
X163149318Y-45200682D01*
X163171972Y-45225677D01*
X163192068Y-45252773D01*
X163209410Y-45281707D01*
X163223834Y-45312203D01*
X163235198Y-45343965D01*
X163243395Y-45376688D01*
X163248345Y-45410057D01*
X163250000Y-45443750D01*
X163250000Y-46556250D01*
X163248345Y-46589943D01*
X163243395Y-46623312D01*
X163235198Y-46656035D01*
X163223834Y-46687797D01*
X163209410Y-46718293D01*
X163192068Y-46747227D01*
X163171972Y-46774323D01*
X163149318Y-46799318D01*
X163124323Y-46821972D01*
X163097227Y-46842068D01*
X163068293Y-46859410D01*
X163037797Y-46873834D01*
X163006035Y-46885198D01*
X162973312Y-46893395D01*
X162939943Y-46898345D01*
X162906250Y-46900000D01*
X162218750Y-46900000D01*
X162185057Y-46898345D01*
X162151688Y-46893395D01*
X162118965Y-46885198D01*
X162087203Y-46873834D01*
X162056707Y-46859410D01*
X162027773Y-46842068D01*
X162000677Y-46821972D01*
X161975682Y-46799318D01*
X161953028Y-46774323D01*
X161932932Y-46747227D01*
X161915590Y-46718293D01*
X161901166Y-46687797D01*
X161889802Y-46656035D01*
X161881605Y-46623312D01*
X161876655Y-46589943D01*
X161875000Y-46556250D01*
X161875000Y-45443750D01*
X161876655Y-45410057D01*
X161881605Y-45376688D01*
X161889802Y-45343965D01*
X161901166Y-45312203D01*
X161915590Y-45281707D01*
X161932932Y-45252773D01*
X161953028Y-45225677D01*
X161975682Y-45200682D01*
X162000677Y-45178028D01*
X162027773Y-45157932D01*
X162056707Y-45140590D01*
X162087203Y-45126166D01*
X162118965Y-45114802D01*
X162151688Y-45106605D01*
X162185057Y-45101655D01*
X162218750Y-45100000D01*
X162906250Y-45100000D01*
X162939943Y-45101655D01*
X162939943Y-45101655D01*
G37*
D24*
X162562500Y-46000000D03*
D22*
G36*
X164814943Y-45101655D02*
X164848312Y-45106605D01*
X164881035Y-45114802D01*
X164912797Y-45126166D01*
X164943293Y-45140590D01*
X164972227Y-45157932D01*
X164999323Y-45178028D01*
X165024318Y-45200682D01*
X165046972Y-45225677D01*
X165067068Y-45252773D01*
X165084410Y-45281707D01*
X165098834Y-45312203D01*
X165110198Y-45343965D01*
X165118395Y-45376688D01*
X165123345Y-45410057D01*
X165125000Y-45443750D01*
X165125000Y-46556250D01*
X165123345Y-46589943D01*
X165118395Y-46623312D01*
X165110198Y-46656035D01*
X165098834Y-46687797D01*
X165084410Y-46718293D01*
X165067068Y-46747227D01*
X165046972Y-46774323D01*
X165024318Y-46799318D01*
X164999323Y-46821972D01*
X164972227Y-46842068D01*
X164943293Y-46859410D01*
X164912797Y-46873834D01*
X164881035Y-46885198D01*
X164848312Y-46893395D01*
X164814943Y-46898345D01*
X164781250Y-46900000D01*
X164093750Y-46900000D01*
X164060057Y-46898345D01*
X164026688Y-46893395D01*
X163993965Y-46885198D01*
X163962203Y-46873834D01*
X163931707Y-46859410D01*
X163902773Y-46842068D01*
X163875677Y-46821972D01*
X163850682Y-46799318D01*
X163828028Y-46774323D01*
X163807932Y-46747227D01*
X163790590Y-46718293D01*
X163776166Y-46687797D01*
X163764802Y-46656035D01*
X163756605Y-46623312D01*
X163751655Y-46589943D01*
X163750000Y-46556250D01*
X163750000Y-45443750D01*
X163751655Y-45410057D01*
X163756605Y-45376688D01*
X163764802Y-45343965D01*
X163776166Y-45312203D01*
X163790590Y-45281707D01*
X163807932Y-45252773D01*
X163828028Y-45225677D01*
X163850682Y-45200682D01*
X163875677Y-45178028D01*
X163902773Y-45157932D01*
X163931707Y-45140590D01*
X163962203Y-45126166D01*
X163993965Y-45114802D01*
X164026688Y-45106605D01*
X164060057Y-45101655D01*
X164093750Y-45100000D01*
X164781250Y-45100000D01*
X164814943Y-45101655D01*
X164814943Y-45101655D01*
G37*
D24*
X164437500Y-46000000D03*
G04 #@! TD*
D22*
G04 #@! TO.C,R8*
G36*
X154439943Y-49601655D02*
X154473312Y-49606605D01*
X154506035Y-49614802D01*
X154537797Y-49626166D01*
X154568293Y-49640590D01*
X154597227Y-49657932D01*
X154624323Y-49678028D01*
X154649318Y-49700682D01*
X154671972Y-49725677D01*
X154692068Y-49752773D01*
X154709410Y-49781707D01*
X154723834Y-49812203D01*
X154735198Y-49843965D01*
X154743395Y-49876688D01*
X154748345Y-49910057D01*
X154750000Y-49943750D01*
X154750000Y-51056250D01*
X154748345Y-51089943D01*
X154743395Y-51123312D01*
X154735198Y-51156035D01*
X154723834Y-51187797D01*
X154709410Y-51218293D01*
X154692068Y-51247227D01*
X154671972Y-51274323D01*
X154649318Y-51299318D01*
X154624323Y-51321972D01*
X154597227Y-51342068D01*
X154568293Y-51359410D01*
X154537797Y-51373834D01*
X154506035Y-51385198D01*
X154473312Y-51393395D01*
X154439943Y-51398345D01*
X154406250Y-51400000D01*
X153718750Y-51400000D01*
X153685057Y-51398345D01*
X153651688Y-51393395D01*
X153618965Y-51385198D01*
X153587203Y-51373834D01*
X153556707Y-51359410D01*
X153527773Y-51342068D01*
X153500677Y-51321972D01*
X153475682Y-51299318D01*
X153453028Y-51274323D01*
X153432932Y-51247227D01*
X153415590Y-51218293D01*
X153401166Y-51187797D01*
X153389802Y-51156035D01*
X153381605Y-51123312D01*
X153376655Y-51089943D01*
X153375000Y-51056250D01*
X153375000Y-49943750D01*
X153376655Y-49910057D01*
X153381605Y-49876688D01*
X153389802Y-49843965D01*
X153401166Y-49812203D01*
X153415590Y-49781707D01*
X153432932Y-49752773D01*
X153453028Y-49725677D01*
X153475682Y-49700682D01*
X153500677Y-49678028D01*
X153527773Y-49657932D01*
X153556707Y-49640590D01*
X153587203Y-49626166D01*
X153618965Y-49614802D01*
X153651688Y-49606605D01*
X153685057Y-49601655D01*
X153718750Y-49600000D01*
X154406250Y-49600000D01*
X154439943Y-49601655D01*
X154439943Y-49601655D01*
G37*
D24*
X154062500Y-50500000D03*
D22*
G36*
X156314943Y-49601655D02*
X156348312Y-49606605D01*
X156381035Y-49614802D01*
X156412797Y-49626166D01*
X156443293Y-49640590D01*
X156472227Y-49657932D01*
X156499323Y-49678028D01*
X156524318Y-49700682D01*
X156546972Y-49725677D01*
X156567068Y-49752773D01*
X156584410Y-49781707D01*
X156598834Y-49812203D01*
X156610198Y-49843965D01*
X156618395Y-49876688D01*
X156623345Y-49910057D01*
X156625000Y-49943750D01*
X156625000Y-51056250D01*
X156623345Y-51089943D01*
X156618395Y-51123312D01*
X156610198Y-51156035D01*
X156598834Y-51187797D01*
X156584410Y-51218293D01*
X156567068Y-51247227D01*
X156546972Y-51274323D01*
X156524318Y-51299318D01*
X156499323Y-51321972D01*
X156472227Y-51342068D01*
X156443293Y-51359410D01*
X156412797Y-51373834D01*
X156381035Y-51385198D01*
X156348312Y-51393395D01*
X156314943Y-51398345D01*
X156281250Y-51400000D01*
X155593750Y-51400000D01*
X155560057Y-51398345D01*
X155526688Y-51393395D01*
X155493965Y-51385198D01*
X155462203Y-51373834D01*
X155431707Y-51359410D01*
X155402773Y-51342068D01*
X155375677Y-51321972D01*
X155350682Y-51299318D01*
X155328028Y-51274323D01*
X155307932Y-51247227D01*
X155290590Y-51218293D01*
X155276166Y-51187797D01*
X155264802Y-51156035D01*
X155256605Y-51123312D01*
X155251655Y-51089943D01*
X155250000Y-51056250D01*
X155250000Y-49943750D01*
X155251655Y-49910057D01*
X155256605Y-49876688D01*
X155264802Y-49843965D01*
X155276166Y-49812203D01*
X155290590Y-49781707D01*
X155307932Y-49752773D01*
X155328028Y-49725677D01*
X155350682Y-49700682D01*
X155375677Y-49678028D01*
X155402773Y-49657932D01*
X155431707Y-49640590D01*
X155462203Y-49626166D01*
X155493965Y-49614802D01*
X155526688Y-49606605D01*
X155560057Y-49601655D01*
X155593750Y-49600000D01*
X156281250Y-49600000D01*
X156314943Y-49601655D01*
X156314943Y-49601655D01*
G37*
D24*
X155937500Y-50500000D03*
G04 #@! TD*
D22*
G04 #@! TO.C,C1*
G36*
X144939943Y-50351655D02*
X144973312Y-50356605D01*
X145006035Y-50364802D01*
X145037797Y-50376166D01*
X145068293Y-50390590D01*
X145097227Y-50407932D01*
X145124323Y-50428028D01*
X145149318Y-50450682D01*
X145171972Y-50475677D01*
X145192068Y-50502773D01*
X145209410Y-50531707D01*
X145223834Y-50562203D01*
X145235198Y-50593965D01*
X145243395Y-50626688D01*
X145248345Y-50660057D01*
X145250000Y-50693750D01*
X145250000Y-51806250D01*
X145248345Y-51839943D01*
X145243395Y-51873312D01*
X145235198Y-51906035D01*
X145223834Y-51937797D01*
X145209410Y-51968293D01*
X145192068Y-51997227D01*
X145171972Y-52024323D01*
X145149318Y-52049318D01*
X145124323Y-52071972D01*
X145097227Y-52092068D01*
X145068293Y-52109410D01*
X145037797Y-52123834D01*
X145006035Y-52135198D01*
X144973312Y-52143395D01*
X144939943Y-52148345D01*
X144906250Y-52150000D01*
X144218750Y-52150000D01*
X144185057Y-52148345D01*
X144151688Y-52143395D01*
X144118965Y-52135198D01*
X144087203Y-52123834D01*
X144056707Y-52109410D01*
X144027773Y-52092068D01*
X144000677Y-52071972D01*
X143975682Y-52049318D01*
X143953028Y-52024323D01*
X143932932Y-51997227D01*
X143915590Y-51968293D01*
X143901166Y-51937797D01*
X143889802Y-51906035D01*
X143881605Y-51873312D01*
X143876655Y-51839943D01*
X143875000Y-51806250D01*
X143875000Y-50693750D01*
X143876655Y-50660057D01*
X143881605Y-50626688D01*
X143889802Y-50593965D01*
X143901166Y-50562203D01*
X143915590Y-50531707D01*
X143932932Y-50502773D01*
X143953028Y-50475677D01*
X143975682Y-50450682D01*
X144000677Y-50428028D01*
X144027773Y-50407932D01*
X144056707Y-50390590D01*
X144087203Y-50376166D01*
X144118965Y-50364802D01*
X144151688Y-50356605D01*
X144185057Y-50351655D01*
X144218750Y-50350000D01*
X144906250Y-50350000D01*
X144939943Y-50351655D01*
X144939943Y-50351655D01*
G37*
D24*
X144562500Y-51250000D03*
D22*
G36*
X146814943Y-50351655D02*
X146848312Y-50356605D01*
X146881035Y-50364802D01*
X146912797Y-50376166D01*
X146943293Y-50390590D01*
X146972227Y-50407932D01*
X146999323Y-50428028D01*
X147024318Y-50450682D01*
X147046972Y-50475677D01*
X147067068Y-50502773D01*
X147084410Y-50531707D01*
X147098834Y-50562203D01*
X147110198Y-50593965D01*
X147118395Y-50626688D01*
X147123345Y-50660057D01*
X147125000Y-50693750D01*
X147125000Y-51806250D01*
X147123345Y-51839943D01*
X147118395Y-51873312D01*
X147110198Y-51906035D01*
X147098834Y-51937797D01*
X147084410Y-51968293D01*
X147067068Y-51997227D01*
X147046972Y-52024323D01*
X147024318Y-52049318D01*
X146999323Y-52071972D01*
X146972227Y-52092068D01*
X146943293Y-52109410D01*
X146912797Y-52123834D01*
X146881035Y-52135198D01*
X146848312Y-52143395D01*
X146814943Y-52148345D01*
X146781250Y-52150000D01*
X146093750Y-52150000D01*
X146060057Y-52148345D01*
X146026688Y-52143395D01*
X145993965Y-52135198D01*
X145962203Y-52123834D01*
X145931707Y-52109410D01*
X145902773Y-52092068D01*
X145875677Y-52071972D01*
X145850682Y-52049318D01*
X145828028Y-52024323D01*
X145807932Y-51997227D01*
X145790590Y-51968293D01*
X145776166Y-51937797D01*
X145764802Y-51906035D01*
X145756605Y-51873312D01*
X145751655Y-51839943D01*
X145750000Y-51806250D01*
X145750000Y-50693750D01*
X145751655Y-50660057D01*
X145756605Y-50626688D01*
X145764802Y-50593965D01*
X145776166Y-50562203D01*
X145790590Y-50531707D01*
X145807932Y-50502773D01*
X145828028Y-50475677D01*
X145850682Y-50450682D01*
X145875677Y-50428028D01*
X145902773Y-50407932D01*
X145931707Y-50390590D01*
X145962203Y-50376166D01*
X145993965Y-50364802D01*
X146026688Y-50356605D01*
X146060057Y-50351655D01*
X146093750Y-50350000D01*
X146781250Y-50350000D01*
X146814943Y-50351655D01*
X146814943Y-50351655D01*
G37*
D24*
X146437500Y-51250000D03*
G04 #@! TD*
D22*
G04 #@! TO.C,C4*
G36*
X168562493Y-43076535D02*
X168593435Y-43081125D01*
X168623778Y-43088725D01*
X168653230Y-43099263D01*
X168681508Y-43112638D01*
X168708338Y-43128719D01*
X168733463Y-43147353D01*
X168756640Y-43168360D01*
X168777647Y-43191537D01*
X168796281Y-43216662D01*
X168812362Y-43243492D01*
X168825737Y-43271770D01*
X168836275Y-43301222D01*
X168843875Y-43331565D01*
X168848465Y-43362507D01*
X168850000Y-43393750D01*
X168850000Y-44106250D01*
X168848465Y-44137493D01*
X168843875Y-44168435D01*
X168836275Y-44198778D01*
X168825737Y-44228230D01*
X168812362Y-44256508D01*
X168796281Y-44283338D01*
X168777647Y-44308463D01*
X168756640Y-44331640D01*
X168733463Y-44352647D01*
X168708338Y-44371281D01*
X168681508Y-44387362D01*
X168653230Y-44400737D01*
X168623778Y-44411275D01*
X168593435Y-44418875D01*
X168562493Y-44423465D01*
X168531250Y-44425000D01*
X167893750Y-44425000D01*
X167862507Y-44423465D01*
X167831565Y-44418875D01*
X167801222Y-44411275D01*
X167771770Y-44400737D01*
X167743492Y-44387362D01*
X167716662Y-44371281D01*
X167691537Y-44352647D01*
X167668360Y-44331640D01*
X167647353Y-44308463D01*
X167628719Y-44283338D01*
X167612638Y-44256508D01*
X167599263Y-44228230D01*
X167588725Y-44198778D01*
X167581125Y-44168435D01*
X167576535Y-44137493D01*
X167575000Y-44106250D01*
X167575000Y-43393750D01*
X167576535Y-43362507D01*
X167581125Y-43331565D01*
X167588725Y-43301222D01*
X167599263Y-43271770D01*
X167612638Y-43243492D01*
X167628719Y-43216662D01*
X167647353Y-43191537D01*
X167668360Y-43168360D01*
X167691537Y-43147353D01*
X167716662Y-43128719D01*
X167743492Y-43112638D01*
X167771770Y-43099263D01*
X167801222Y-43088725D01*
X167831565Y-43081125D01*
X167862507Y-43076535D01*
X167893750Y-43075000D01*
X168531250Y-43075000D01*
X168562493Y-43076535D01*
X168562493Y-43076535D01*
G37*
D23*
X168212500Y-43750000D03*
D22*
G36*
X170137493Y-43076535D02*
X170168435Y-43081125D01*
X170198778Y-43088725D01*
X170228230Y-43099263D01*
X170256508Y-43112638D01*
X170283338Y-43128719D01*
X170308463Y-43147353D01*
X170331640Y-43168360D01*
X170352647Y-43191537D01*
X170371281Y-43216662D01*
X170387362Y-43243492D01*
X170400737Y-43271770D01*
X170411275Y-43301222D01*
X170418875Y-43331565D01*
X170423465Y-43362507D01*
X170425000Y-43393750D01*
X170425000Y-44106250D01*
X170423465Y-44137493D01*
X170418875Y-44168435D01*
X170411275Y-44198778D01*
X170400737Y-44228230D01*
X170387362Y-44256508D01*
X170371281Y-44283338D01*
X170352647Y-44308463D01*
X170331640Y-44331640D01*
X170308463Y-44352647D01*
X170283338Y-44371281D01*
X170256508Y-44387362D01*
X170228230Y-44400737D01*
X170198778Y-44411275D01*
X170168435Y-44418875D01*
X170137493Y-44423465D01*
X170106250Y-44425000D01*
X169468750Y-44425000D01*
X169437507Y-44423465D01*
X169406565Y-44418875D01*
X169376222Y-44411275D01*
X169346770Y-44400737D01*
X169318492Y-44387362D01*
X169291662Y-44371281D01*
X169266537Y-44352647D01*
X169243360Y-44331640D01*
X169222353Y-44308463D01*
X169203719Y-44283338D01*
X169187638Y-44256508D01*
X169174263Y-44228230D01*
X169163725Y-44198778D01*
X169156125Y-44168435D01*
X169151535Y-44137493D01*
X169150000Y-44106250D01*
X169150000Y-43393750D01*
X169151535Y-43362507D01*
X169156125Y-43331565D01*
X169163725Y-43301222D01*
X169174263Y-43271770D01*
X169187638Y-43243492D01*
X169203719Y-43216662D01*
X169222353Y-43191537D01*
X169243360Y-43168360D01*
X169266537Y-43147353D01*
X169291662Y-43128719D01*
X169318492Y-43112638D01*
X169346770Y-43099263D01*
X169376222Y-43088725D01*
X169406565Y-43081125D01*
X169437507Y-43076535D01*
X169468750Y-43075000D01*
X170106250Y-43075000D01*
X170137493Y-43076535D01*
X170137493Y-43076535D01*
G37*
D23*
X169787500Y-43750000D03*
G04 #@! TD*
D22*
G04 #@! TO.C,C5*
G36*
X177562493Y-60826535D02*
X177593435Y-60831125D01*
X177623778Y-60838725D01*
X177653230Y-60849263D01*
X177681508Y-60862638D01*
X177708338Y-60878719D01*
X177733463Y-60897353D01*
X177756640Y-60918360D01*
X177777647Y-60941537D01*
X177796281Y-60966662D01*
X177812362Y-60993492D01*
X177825737Y-61021770D01*
X177836275Y-61051222D01*
X177843875Y-61081565D01*
X177848465Y-61112507D01*
X177850000Y-61143750D01*
X177850000Y-61856250D01*
X177848465Y-61887493D01*
X177843875Y-61918435D01*
X177836275Y-61948778D01*
X177825737Y-61978230D01*
X177812362Y-62006508D01*
X177796281Y-62033338D01*
X177777647Y-62058463D01*
X177756640Y-62081640D01*
X177733463Y-62102647D01*
X177708338Y-62121281D01*
X177681508Y-62137362D01*
X177653230Y-62150737D01*
X177623778Y-62161275D01*
X177593435Y-62168875D01*
X177562493Y-62173465D01*
X177531250Y-62175000D01*
X176893750Y-62175000D01*
X176862507Y-62173465D01*
X176831565Y-62168875D01*
X176801222Y-62161275D01*
X176771770Y-62150737D01*
X176743492Y-62137362D01*
X176716662Y-62121281D01*
X176691537Y-62102647D01*
X176668360Y-62081640D01*
X176647353Y-62058463D01*
X176628719Y-62033338D01*
X176612638Y-62006508D01*
X176599263Y-61978230D01*
X176588725Y-61948778D01*
X176581125Y-61918435D01*
X176576535Y-61887493D01*
X176575000Y-61856250D01*
X176575000Y-61143750D01*
X176576535Y-61112507D01*
X176581125Y-61081565D01*
X176588725Y-61051222D01*
X176599263Y-61021770D01*
X176612638Y-60993492D01*
X176628719Y-60966662D01*
X176647353Y-60941537D01*
X176668360Y-60918360D01*
X176691537Y-60897353D01*
X176716662Y-60878719D01*
X176743492Y-60862638D01*
X176771770Y-60849263D01*
X176801222Y-60838725D01*
X176831565Y-60831125D01*
X176862507Y-60826535D01*
X176893750Y-60825000D01*
X177531250Y-60825000D01*
X177562493Y-60826535D01*
X177562493Y-60826535D01*
G37*
D23*
X177212500Y-61500000D03*
D22*
G36*
X179137493Y-60826535D02*
X179168435Y-60831125D01*
X179198778Y-60838725D01*
X179228230Y-60849263D01*
X179256508Y-60862638D01*
X179283338Y-60878719D01*
X179308463Y-60897353D01*
X179331640Y-60918360D01*
X179352647Y-60941537D01*
X179371281Y-60966662D01*
X179387362Y-60993492D01*
X179400737Y-61021770D01*
X179411275Y-61051222D01*
X179418875Y-61081565D01*
X179423465Y-61112507D01*
X179425000Y-61143750D01*
X179425000Y-61856250D01*
X179423465Y-61887493D01*
X179418875Y-61918435D01*
X179411275Y-61948778D01*
X179400737Y-61978230D01*
X179387362Y-62006508D01*
X179371281Y-62033338D01*
X179352647Y-62058463D01*
X179331640Y-62081640D01*
X179308463Y-62102647D01*
X179283338Y-62121281D01*
X179256508Y-62137362D01*
X179228230Y-62150737D01*
X179198778Y-62161275D01*
X179168435Y-62168875D01*
X179137493Y-62173465D01*
X179106250Y-62175000D01*
X178468750Y-62175000D01*
X178437507Y-62173465D01*
X178406565Y-62168875D01*
X178376222Y-62161275D01*
X178346770Y-62150737D01*
X178318492Y-62137362D01*
X178291662Y-62121281D01*
X178266537Y-62102647D01*
X178243360Y-62081640D01*
X178222353Y-62058463D01*
X178203719Y-62033338D01*
X178187638Y-62006508D01*
X178174263Y-61978230D01*
X178163725Y-61948778D01*
X178156125Y-61918435D01*
X178151535Y-61887493D01*
X178150000Y-61856250D01*
X178150000Y-61143750D01*
X178151535Y-61112507D01*
X178156125Y-61081565D01*
X178163725Y-61051222D01*
X178174263Y-61021770D01*
X178187638Y-60993492D01*
X178203719Y-60966662D01*
X178222353Y-60941537D01*
X178243360Y-60918360D01*
X178266537Y-60897353D01*
X178291662Y-60878719D01*
X178318492Y-60862638D01*
X178346770Y-60849263D01*
X178376222Y-60838725D01*
X178406565Y-60831125D01*
X178437507Y-60826535D01*
X178468750Y-60825000D01*
X179106250Y-60825000D01*
X179137493Y-60826535D01*
X179137493Y-60826535D01*
G37*
D23*
X178787500Y-61500000D03*
G04 #@! TD*
D26*
G04 #@! TO.C,REF\002A\002A*
X170000000Y-63750000D03*
G04 #@! TD*
D25*
G04 #@! TO.C,Q3*
X145000000Y-54050000D03*
X145000000Y-55950000D03*
X147000000Y-55000000D03*
G04 #@! TD*
G04 #@! TO.C,Q1*
X158500000Y-58650000D03*
X158500000Y-60550000D03*
X160500000Y-59600000D03*
G04 #@! TD*
D27*
G04 #@! TO.C,Y1*
X173500000Y-64000000D03*
X176000000Y-64000000D03*
G04 #@! TD*
D22*
G04 #@! TO.C,D2*
G36*
X163814943Y-63801655D02*
X163848312Y-63806605D01*
X163881035Y-63814802D01*
X163912797Y-63826166D01*
X163943293Y-63840590D01*
X163972227Y-63857932D01*
X163999323Y-63878028D01*
X164024318Y-63900682D01*
X164046972Y-63925677D01*
X164067068Y-63952773D01*
X164084410Y-63981707D01*
X164098834Y-64012203D01*
X164110198Y-64043965D01*
X164118395Y-64076688D01*
X164123345Y-64110057D01*
X164125000Y-64143750D01*
X164125000Y-65256250D01*
X164123345Y-65289943D01*
X164118395Y-65323312D01*
X164110198Y-65356035D01*
X164098834Y-65387797D01*
X164084410Y-65418293D01*
X164067068Y-65447227D01*
X164046972Y-65474323D01*
X164024318Y-65499318D01*
X163999323Y-65521972D01*
X163972227Y-65542068D01*
X163943293Y-65559410D01*
X163912797Y-65573834D01*
X163881035Y-65585198D01*
X163848312Y-65593395D01*
X163814943Y-65598345D01*
X163781250Y-65600000D01*
X163093750Y-65600000D01*
X163060057Y-65598345D01*
X163026688Y-65593395D01*
X162993965Y-65585198D01*
X162962203Y-65573834D01*
X162931707Y-65559410D01*
X162902773Y-65542068D01*
X162875677Y-65521972D01*
X162850682Y-65499318D01*
X162828028Y-65474323D01*
X162807932Y-65447227D01*
X162790590Y-65418293D01*
X162776166Y-65387797D01*
X162764802Y-65356035D01*
X162756605Y-65323312D01*
X162751655Y-65289943D01*
X162750000Y-65256250D01*
X162750000Y-64143750D01*
X162751655Y-64110057D01*
X162756605Y-64076688D01*
X162764802Y-64043965D01*
X162776166Y-64012203D01*
X162790590Y-63981707D01*
X162807932Y-63952773D01*
X162828028Y-63925677D01*
X162850682Y-63900682D01*
X162875677Y-63878028D01*
X162902773Y-63857932D01*
X162931707Y-63840590D01*
X162962203Y-63826166D01*
X162993965Y-63814802D01*
X163026688Y-63806605D01*
X163060057Y-63801655D01*
X163093750Y-63800000D01*
X163781250Y-63800000D01*
X163814943Y-63801655D01*
X163814943Y-63801655D01*
G37*
D24*
X163437500Y-64700000D03*
D22*
G36*
X161939943Y-63801655D02*
X161973312Y-63806605D01*
X162006035Y-63814802D01*
X162037797Y-63826166D01*
X162068293Y-63840590D01*
X162097227Y-63857932D01*
X162124323Y-63878028D01*
X162149318Y-63900682D01*
X162171972Y-63925677D01*
X162192068Y-63952773D01*
X162209410Y-63981707D01*
X162223834Y-64012203D01*
X162235198Y-64043965D01*
X162243395Y-64076688D01*
X162248345Y-64110057D01*
X162250000Y-64143750D01*
X162250000Y-65256250D01*
X162248345Y-65289943D01*
X162243395Y-65323312D01*
X162235198Y-65356035D01*
X162223834Y-65387797D01*
X162209410Y-65418293D01*
X162192068Y-65447227D01*
X162171972Y-65474323D01*
X162149318Y-65499318D01*
X162124323Y-65521972D01*
X162097227Y-65542068D01*
X162068293Y-65559410D01*
X162037797Y-65573834D01*
X162006035Y-65585198D01*
X161973312Y-65593395D01*
X161939943Y-65598345D01*
X161906250Y-65600000D01*
X161218750Y-65600000D01*
X161185057Y-65598345D01*
X161151688Y-65593395D01*
X161118965Y-65585198D01*
X161087203Y-65573834D01*
X161056707Y-65559410D01*
X161027773Y-65542068D01*
X161000677Y-65521972D01*
X160975682Y-65499318D01*
X160953028Y-65474323D01*
X160932932Y-65447227D01*
X160915590Y-65418293D01*
X160901166Y-65387797D01*
X160889802Y-65356035D01*
X160881605Y-65323312D01*
X160876655Y-65289943D01*
X160875000Y-65256250D01*
X160875000Y-64143750D01*
X160876655Y-64110057D01*
X160881605Y-64076688D01*
X160889802Y-64043965D01*
X160901166Y-64012203D01*
X160915590Y-63981707D01*
X160932932Y-63952773D01*
X160953028Y-63925677D01*
X160975682Y-63900682D01*
X161000677Y-63878028D01*
X161027773Y-63857932D01*
X161056707Y-63840590D01*
X161087203Y-63826166D01*
X161118965Y-63814802D01*
X161151688Y-63806605D01*
X161185057Y-63801655D01*
X161218750Y-63800000D01*
X161906250Y-63800000D01*
X161939943Y-63801655D01*
X161939943Y-63801655D01*
G37*
D24*
X161562500Y-64700000D03*
G04 #@! TD*
D22*
G04 #@! TO.C,D1*
G36*
X141252443Y-38601655D02*
X141285812Y-38606605D01*
X141318535Y-38614802D01*
X141350297Y-38626166D01*
X141380793Y-38640590D01*
X141409727Y-38657932D01*
X141436823Y-38678028D01*
X141461818Y-38700682D01*
X141484472Y-38725677D01*
X141504568Y-38752773D01*
X141521910Y-38781707D01*
X141536334Y-38812203D01*
X141547698Y-38843965D01*
X141555895Y-38876688D01*
X141560845Y-38910057D01*
X141562500Y-38943750D01*
X141562500Y-40056250D01*
X141560845Y-40089943D01*
X141555895Y-40123312D01*
X141547698Y-40156035D01*
X141536334Y-40187797D01*
X141521910Y-40218293D01*
X141504568Y-40247227D01*
X141484472Y-40274323D01*
X141461818Y-40299318D01*
X141436823Y-40321972D01*
X141409727Y-40342068D01*
X141380793Y-40359410D01*
X141350297Y-40373834D01*
X141318535Y-40385198D01*
X141285812Y-40393395D01*
X141252443Y-40398345D01*
X141218750Y-40400000D01*
X140531250Y-40400000D01*
X140497557Y-40398345D01*
X140464188Y-40393395D01*
X140431465Y-40385198D01*
X140399703Y-40373834D01*
X140369207Y-40359410D01*
X140340273Y-40342068D01*
X140313177Y-40321972D01*
X140288182Y-40299318D01*
X140265528Y-40274323D01*
X140245432Y-40247227D01*
X140228090Y-40218293D01*
X140213666Y-40187797D01*
X140202302Y-40156035D01*
X140194105Y-40123312D01*
X140189155Y-40089943D01*
X140187500Y-40056250D01*
X140187500Y-38943750D01*
X140189155Y-38910057D01*
X140194105Y-38876688D01*
X140202302Y-38843965D01*
X140213666Y-38812203D01*
X140228090Y-38781707D01*
X140245432Y-38752773D01*
X140265528Y-38725677D01*
X140288182Y-38700682D01*
X140313177Y-38678028D01*
X140340273Y-38657932D01*
X140369207Y-38640590D01*
X140399703Y-38626166D01*
X140431465Y-38614802D01*
X140464188Y-38606605D01*
X140497557Y-38601655D01*
X140531250Y-38600000D01*
X141218750Y-38600000D01*
X141252443Y-38601655D01*
X141252443Y-38601655D01*
G37*
D24*
X140875000Y-39500000D03*
D22*
G36*
X143127443Y-38601655D02*
X143160812Y-38606605D01*
X143193535Y-38614802D01*
X143225297Y-38626166D01*
X143255793Y-38640590D01*
X143284727Y-38657932D01*
X143311823Y-38678028D01*
X143336818Y-38700682D01*
X143359472Y-38725677D01*
X143379568Y-38752773D01*
X143396910Y-38781707D01*
X143411334Y-38812203D01*
X143422698Y-38843965D01*
X143430895Y-38876688D01*
X143435845Y-38910057D01*
X143437500Y-38943750D01*
X143437500Y-40056250D01*
X143435845Y-40089943D01*
X143430895Y-40123312D01*
X143422698Y-40156035D01*
X143411334Y-40187797D01*
X143396910Y-40218293D01*
X143379568Y-40247227D01*
X143359472Y-40274323D01*
X143336818Y-40299318D01*
X143311823Y-40321972D01*
X143284727Y-40342068D01*
X143255793Y-40359410D01*
X143225297Y-40373834D01*
X143193535Y-40385198D01*
X143160812Y-40393395D01*
X143127443Y-40398345D01*
X143093750Y-40400000D01*
X142406250Y-40400000D01*
X142372557Y-40398345D01*
X142339188Y-40393395D01*
X142306465Y-40385198D01*
X142274703Y-40373834D01*
X142244207Y-40359410D01*
X142215273Y-40342068D01*
X142188177Y-40321972D01*
X142163182Y-40299318D01*
X142140528Y-40274323D01*
X142120432Y-40247227D01*
X142103090Y-40218293D01*
X142088666Y-40187797D01*
X142077302Y-40156035D01*
X142069105Y-40123312D01*
X142064155Y-40089943D01*
X142062500Y-40056250D01*
X142062500Y-38943750D01*
X142064155Y-38910057D01*
X142069105Y-38876688D01*
X142077302Y-38843965D01*
X142088666Y-38812203D01*
X142103090Y-38781707D01*
X142120432Y-38752773D01*
X142140528Y-38725677D01*
X142163182Y-38700682D01*
X142188177Y-38678028D01*
X142215273Y-38657932D01*
X142244207Y-38640590D01*
X142274703Y-38626166D01*
X142306465Y-38614802D01*
X142339188Y-38606605D01*
X142372557Y-38601655D01*
X142406250Y-38600000D01*
X143093750Y-38600000D01*
X143127443Y-38601655D01*
X143127443Y-38601655D01*
G37*
D24*
X142750000Y-39500000D03*
G04 #@! TD*
D28*
G04 #@! TO.C,U1*
X143500000Y-42250000D03*
D29*
X143500000Y-48550000D03*
X145800000Y-48550000D03*
X141200000Y-48550000D03*
G04 #@! TD*
D25*
G04 #@! TO.C,Q2*
X158500000Y-54250000D03*
X158500000Y-56150000D03*
X160500000Y-55200000D03*
G04 #@! TD*
D22*
G04 #@! TO.C,R3*
G36*
X154439943Y-58101655D02*
X154473312Y-58106605D01*
X154506035Y-58114802D01*
X154537797Y-58126166D01*
X154568293Y-58140590D01*
X154597227Y-58157932D01*
X154624323Y-58178028D01*
X154649318Y-58200682D01*
X154671972Y-58225677D01*
X154692068Y-58252773D01*
X154709410Y-58281707D01*
X154723834Y-58312203D01*
X154735198Y-58343965D01*
X154743395Y-58376688D01*
X154748345Y-58410057D01*
X154750000Y-58443750D01*
X154750000Y-59556250D01*
X154748345Y-59589943D01*
X154743395Y-59623312D01*
X154735198Y-59656035D01*
X154723834Y-59687797D01*
X154709410Y-59718293D01*
X154692068Y-59747227D01*
X154671972Y-59774323D01*
X154649318Y-59799318D01*
X154624323Y-59821972D01*
X154597227Y-59842068D01*
X154568293Y-59859410D01*
X154537797Y-59873834D01*
X154506035Y-59885198D01*
X154473312Y-59893395D01*
X154439943Y-59898345D01*
X154406250Y-59900000D01*
X153718750Y-59900000D01*
X153685057Y-59898345D01*
X153651688Y-59893395D01*
X153618965Y-59885198D01*
X153587203Y-59873834D01*
X153556707Y-59859410D01*
X153527773Y-59842068D01*
X153500677Y-59821972D01*
X153475682Y-59799318D01*
X153453028Y-59774323D01*
X153432932Y-59747227D01*
X153415590Y-59718293D01*
X153401166Y-59687797D01*
X153389802Y-59656035D01*
X153381605Y-59623312D01*
X153376655Y-59589943D01*
X153375000Y-59556250D01*
X153375000Y-58443750D01*
X153376655Y-58410057D01*
X153381605Y-58376688D01*
X153389802Y-58343965D01*
X153401166Y-58312203D01*
X153415590Y-58281707D01*
X153432932Y-58252773D01*
X153453028Y-58225677D01*
X153475682Y-58200682D01*
X153500677Y-58178028D01*
X153527773Y-58157932D01*
X153556707Y-58140590D01*
X153587203Y-58126166D01*
X153618965Y-58114802D01*
X153651688Y-58106605D01*
X153685057Y-58101655D01*
X153718750Y-58100000D01*
X154406250Y-58100000D01*
X154439943Y-58101655D01*
X154439943Y-58101655D01*
G37*
D24*
X154062500Y-59000000D03*
D22*
G36*
X156314943Y-58101655D02*
X156348312Y-58106605D01*
X156381035Y-58114802D01*
X156412797Y-58126166D01*
X156443293Y-58140590D01*
X156472227Y-58157932D01*
X156499323Y-58178028D01*
X156524318Y-58200682D01*
X156546972Y-58225677D01*
X156567068Y-58252773D01*
X156584410Y-58281707D01*
X156598834Y-58312203D01*
X156610198Y-58343965D01*
X156618395Y-58376688D01*
X156623345Y-58410057D01*
X156625000Y-58443750D01*
X156625000Y-59556250D01*
X156623345Y-59589943D01*
X156618395Y-59623312D01*
X156610198Y-59656035D01*
X156598834Y-59687797D01*
X156584410Y-59718293D01*
X156567068Y-59747227D01*
X156546972Y-59774323D01*
X156524318Y-59799318D01*
X156499323Y-59821972D01*
X156472227Y-59842068D01*
X156443293Y-59859410D01*
X156412797Y-59873834D01*
X156381035Y-59885198D01*
X156348312Y-59893395D01*
X156314943Y-59898345D01*
X156281250Y-59900000D01*
X155593750Y-59900000D01*
X155560057Y-59898345D01*
X155526688Y-59893395D01*
X155493965Y-59885198D01*
X155462203Y-59873834D01*
X155431707Y-59859410D01*
X155402773Y-59842068D01*
X155375677Y-59821972D01*
X155350682Y-59799318D01*
X155328028Y-59774323D01*
X155307932Y-59747227D01*
X155290590Y-59718293D01*
X155276166Y-59687797D01*
X155264802Y-59656035D01*
X155256605Y-59623312D01*
X155251655Y-59589943D01*
X155250000Y-59556250D01*
X155250000Y-58443750D01*
X155251655Y-58410057D01*
X155256605Y-58376688D01*
X155264802Y-58343965D01*
X155276166Y-58312203D01*
X155290590Y-58281707D01*
X155307932Y-58252773D01*
X155328028Y-58225677D01*
X155350682Y-58200682D01*
X155375677Y-58178028D01*
X155402773Y-58157932D01*
X155431707Y-58140590D01*
X155462203Y-58126166D01*
X155493965Y-58114802D01*
X155526688Y-58106605D01*
X155560057Y-58101655D01*
X155593750Y-58100000D01*
X156281250Y-58100000D01*
X156314943Y-58101655D01*
X156314943Y-58101655D01*
G37*
D24*
X155937500Y-59000000D03*
G04 #@! TD*
D22*
G04 #@! TO.C,R2*
G36*
X162939943Y-53601655D02*
X162973312Y-53606605D01*
X163006035Y-53614802D01*
X163037797Y-53626166D01*
X163068293Y-53640590D01*
X163097227Y-53657932D01*
X163124323Y-53678028D01*
X163149318Y-53700682D01*
X163171972Y-53725677D01*
X163192068Y-53752773D01*
X163209410Y-53781707D01*
X163223834Y-53812203D01*
X163235198Y-53843965D01*
X163243395Y-53876688D01*
X163248345Y-53910057D01*
X163250000Y-53943750D01*
X163250000Y-55056250D01*
X163248345Y-55089943D01*
X163243395Y-55123312D01*
X163235198Y-55156035D01*
X163223834Y-55187797D01*
X163209410Y-55218293D01*
X163192068Y-55247227D01*
X163171972Y-55274323D01*
X163149318Y-55299318D01*
X163124323Y-55321972D01*
X163097227Y-55342068D01*
X163068293Y-55359410D01*
X163037797Y-55373834D01*
X163006035Y-55385198D01*
X162973312Y-55393395D01*
X162939943Y-55398345D01*
X162906250Y-55400000D01*
X162218750Y-55400000D01*
X162185057Y-55398345D01*
X162151688Y-55393395D01*
X162118965Y-55385198D01*
X162087203Y-55373834D01*
X162056707Y-55359410D01*
X162027773Y-55342068D01*
X162000677Y-55321972D01*
X161975682Y-55299318D01*
X161953028Y-55274323D01*
X161932932Y-55247227D01*
X161915590Y-55218293D01*
X161901166Y-55187797D01*
X161889802Y-55156035D01*
X161881605Y-55123312D01*
X161876655Y-55089943D01*
X161875000Y-55056250D01*
X161875000Y-53943750D01*
X161876655Y-53910057D01*
X161881605Y-53876688D01*
X161889802Y-53843965D01*
X161901166Y-53812203D01*
X161915590Y-53781707D01*
X161932932Y-53752773D01*
X161953028Y-53725677D01*
X161975682Y-53700682D01*
X162000677Y-53678028D01*
X162027773Y-53657932D01*
X162056707Y-53640590D01*
X162087203Y-53626166D01*
X162118965Y-53614802D01*
X162151688Y-53606605D01*
X162185057Y-53601655D01*
X162218750Y-53600000D01*
X162906250Y-53600000D01*
X162939943Y-53601655D01*
X162939943Y-53601655D01*
G37*
D24*
X162562500Y-54500000D03*
D22*
G36*
X164814943Y-53601655D02*
X164848312Y-53606605D01*
X164881035Y-53614802D01*
X164912797Y-53626166D01*
X164943293Y-53640590D01*
X164972227Y-53657932D01*
X164999323Y-53678028D01*
X165024318Y-53700682D01*
X165046972Y-53725677D01*
X165067068Y-53752773D01*
X165084410Y-53781707D01*
X165098834Y-53812203D01*
X165110198Y-53843965D01*
X165118395Y-53876688D01*
X165123345Y-53910057D01*
X165125000Y-53943750D01*
X165125000Y-55056250D01*
X165123345Y-55089943D01*
X165118395Y-55123312D01*
X165110198Y-55156035D01*
X165098834Y-55187797D01*
X165084410Y-55218293D01*
X165067068Y-55247227D01*
X165046972Y-55274323D01*
X165024318Y-55299318D01*
X164999323Y-55321972D01*
X164972227Y-55342068D01*
X164943293Y-55359410D01*
X164912797Y-55373834D01*
X164881035Y-55385198D01*
X164848312Y-55393395D01*
X164814943Y-55398345D01*
X164781250Y-55400000D01*
X164093750Y-55400000D01*
X164060057Y-55398345D01*
X164026688Y-55393395D01*
X163993965Y-55385198D01*
X163962203Y-55373834D01*
X163931707Y-55359410D01*
X163902773Y-55342068D01*
X163875677Y-55321972D01*
X163850682Y-55299318D01*
X163828028Y-55274323D01*
X163807932Y-55247227D01*
X163790590Y-55218293D01*
X163776166Y-55187797D01*
X163764802Y-55156035D01*
X163756605Y-55123312D01*
X163751655Y-55089943D01*
X163750000Y-55056250D01*
X163750000Y-53943750D01*
X163751655Y-53910057D01*
X163756605Y-53876688D01*
X163764802Y-53843965D01*
X163776166Y-53812203D01*
X163790590Y-53781707D01*
X163807932Y-53752773D01*
X163828028Y-53725677D01*
X163850682Y-53700682D01*
X163875677Y-53678028D01*
X163902773Y-53657932D01*
X163931707Y-53640590D01*
X163962203Y-53626166D01*
X163993965Y-53614802D01*
X164026688Y-53606605D01*
X164060057Y-53601655D01*
X164093750Y-53600000D01*
X164781250Y-53600000D01*
X164814943Y-53601655D01*
X164814943Y-53601655D01*
G37*
D24*
X164437500Y-54500000D03*
G04 #@! TD*
D22*
G04 #@! TO.C,R1*
G36*
X164814943Y-58101655D02*
X164848312Y-58106605D01*
X164881035Y-58114802D01*
X164912797Y-58126166D01*
X164943293Y-58140590D01*
X164972227Y-58157932D01*
X164999323Y-58178028D01*
X165024318Y-58200682D01*
X165046972Y-58225677D01*
X165067068Y-58252773D01*
X165084410Y-58281707D01*
X165098834Y-58312203D01*
X165110198Y-58343965D01*
X165118395Y-58376688D01*
X165123345Y-58410057D01*
X165125000Y-58443750D01*
X165125000Y-59556250D01*
X165123345Y-59589943D01*
X165118395Y-59623312D01*
X165110198Y-59656035D01*
X165098834Y-59687797D01*
X165084410Y-59718293D01*
X165067068Y-59747227D01*
X165046972Y-59774323D01*
X165024318Y-59799318D01*
X164999323Y-59821972D01*
X164972227Y-59842068D01*
X164943293Y-59859410D01*
X164912797Y-59873834D01*
X164881035Y-59885198D01*
X164848312Y-59893395D01*
X164814943Y-59898345D01*
X164781250Y-59900000D01*
X164093750Y-59900000D01*
X164060057Y-59898345D01*
X164026688Y-59893395D01*
X163993965Y-59885198D01*
X163962203Y-59873834D01*
X163931707Y-59859410D01*
X163902773Y-59842068D01*
X163875677Y-59821972D01*
X163850682Y-59799318D01*
X163828028Y-59774323D01*
X163807932Y-59747227D01*
X163790590Y-59718293D01*
X163776166Y-59687797D01*
X163764802Y-59656035D01*
X163756605Y-59623312D01*
X163751655Y-59589943D01*
X163750000Y-59556250D01*
X163750000Y-58443750D01*
X163751655Y-58410057D01*
X163756605Y-58376688D01*
X163764802Y-58343965D01*
X163776166Y-58312203D01*
X163790590Y-58281707D01*
X163807932Y-58252773D01*
X163828028Y-58225677D01*
X163850682Y-58200682D01*
X163875677Y-58178028D01*
X163902773Y-58157932D01*
X163931707Y-58140590D01*
X163962203Y-58126166D01*
X163993965Y-58114802D01*
X164026688Y-58106605D01*
X164060057Y-58101655D01*
X164093750Y-58100000D01*
X164781250Y-58100000D01*
X164814943Y-58101655D01*
X164814943Y-58101655D01*
G37*
D24*
X164437500Y-59000000D03*
D22*
G36*
X162939943Y-58101655D02*
X162973312Y-58106605D01*
X163006035Y-58114802D01*
X163037797Y-58126166D01*
X163068293Y-58140590D01*
X163097227Y-58157932D01*
X163124323Y-58178028D01*
X163149318Y-58200682D01*
X163171972Y-58225677D01*
X163192068Y-58252773D01*
X163209410Y-58281707D01*
X163223834Y-58312203D01*
X163235198Y-58343965D01*
X163243395Y-58376688D01*
X163248345Y-58410057D01*
X163250000Y-58443750D01*
X163250000Y-59556250D01*
X163248345Y-59589943D01*
X163243395Y-59623312D01*
X163235198Y-59656035D01*
X163223834Y-59687797D01*
X163209410Y-59718293D01*
X163192068Y-59747227D01*
X163171972Y-59774323D01*
X163149318Y-59799318D01*
X163124323Y-59821972D01*
X163097227Y-59842068D01*
X163068293Y-59859410D01*
X163037797Y-59873834D01*
X163006035Y-59885198D01*
X162973312Y-59893395D01*
X162939943Y-59898345D01*
X162906250Y-59900000D01*
X162218750Y-59900000D01*
X162185057Y-59898345D01*
X162151688Y-59893395D01*
X162118965Y-59885198D01*
X162087203Y-59873834D01*
X162056707Y-59859410D01*
X162027773Y-59842068D01*
X162000677Y-59821972D01*
X161975682Y-59799318D01*
X161953028Y-59774323D01*
X161932932Y-59747227D01*
X161915590Y-59718293D01*
X161901166Y-59687797D01*
X161889802Y-59656035D01*
X161881605Y-59623312D01*
X161876655Y-59589943D01*
X161875000Y-59556250D01*
X161875000Y-58443750D01*
X161876655Y-58410057D01*
X161881605Y-58376688D01*
X161889802Y-58343965D01*
X161901166Y-58312203D01*
X161915590Y-58281707D01*
X161932932Y-58252773D01*
X161953028Y-58225677D01*
X161975682Y-58200682D01*
X162000677Y-58178028D01*
X162027773Y-58157932D01*
X162056707Y-58140590D01*
X162087203Y-58126166D01*
X162118965Y-58114802D01*
X162151688Y-58106605D01*
X162185057Y-58101655D01*
X162218750Y-58100000D01*
X162906250Y-58100000D01*
X162939943Y-58101655D01*
X162939943Y-58101655D01*
G37*
D24*
X162562500Y-59000000D03*
G04 #@! TD*
D22*
G04 #@! TO.C,R4*
G36*
X156314943Y-53601655D02*
X156348312Y-53606605D01*
X156381035Y-53614802D01*
X156412797Y-53626166D01*
X156443293Y-53640590D01*
X156472227Y-53657932D01*
X156499323Y-53678028D01*
X156524318Y-53700682D01*
X156546972Y-53725677D01*
X156567068Y-53752773D01*
X156584410Y-53781707D01*
X156598834Y-53812203D01*
X156610198Y-53843965D01*
X156618395Y-53876688D01*
X156623345Y-53910057D01*
X156625000Y-53943750D01*
X156625000Y-55056250D01*
X156623345Y-55089943D01*
X156618395Y-55123312D01*
X156610198Y-55156035D01*
X156598834Y-55187797D01*
X156584410Y-55218293D01*
X156567068Y-55247227D01*
X156546972Y-55274323D01*
X156524318Y-55299318D01*
X156499323Y-55321972D01*
X156472227Y-55342068D01*
X156443293Y-55359410D01*
X156412797Y-55373834D01*
X156381035Y-55385198D01*
X156348312Y-55393395D01*
X156314943Y-55398345D01*
X156281250Y-55400000D01*
X155593750Y-55400000D01*
X155560057Y-55398345D01*
X155526688Y-55393395D01*
X155493965Y-55385198D01*
X155462203Y-55373834D01*
X155431707Y-55359410D01*
X155402773Y-55342068D01*
X155375677Y-55321972D01*
X155350682Y-55299318D01*
X155328028Y-55274323D01*
X155307932Y-55247227D01*
X155290590Y-55218293D01*
X155276166Y-55187797D01*
X155264802Y-55156035D01*
X155256605Y-55123312D01*
X155251655Y-55089943D01*
X155250000Y-55056250D01*
X155250000Y-53943750D01*
X155251655Y-53910057D01*
X155256605Y-53876688D01*
X155264802Y-53843965D01*
X155276166Y-53812203D01*
X155290590Y-53781707D01*
X155307932Y-53752773D01*
X155328028Y-53725677D01*
X155350682Y-53700682D01*
X155375677Y-53678028D01*
X155402773Y-53657932D01*
X155431707Y-53640590D01*
X155462203Y-53626166D01*
X155493965Y-53614802D01*
X155526688Y-53606605D01*
X155560057Y-53601655D01*
X155593750Y-53600000D01*
X156281250Y-53600000D01*
X156314943Y-53601655D01*
X156314943Y-53601655D01*
G37*
D24*
X155937500Y-54500000D03*
D22*
G36*
X154439943Y-53601655D02*
X154473312Y-53606605D01*
X154506035Y-53614802D01*
X154537797Y-53626166D01*
X154568293Y-53640590D01*
X154597227Y-53657932D01*
X154624323Y-53678028D01*
X154649318Y-53700682D01*
X154671972Y-53725677D01*
X154692068Y-53752773D01*
X154709410Y-53781707D01*
X154723834Y-53812203D01*
X154735198Y-53843965D01*
X154743395Y-53876688D01*
X154748345Y-53910057D01*
X154750000Y-53943750D01*
X154750000Y-55056250D01*
X154748345Y-55089943D01*
X154743395Y-55123312D01*
X154735198Y-55156035D01*
X154723834Y-55187797D01*
X154709410Y-55218293D01*
X154692068Y-55247227D01*
X154671972Y-55274323D01*
X154649318Y-55299318D01*
X154624323Y-55321972D01*
X154597227Y-55342068D01*
X154568293Y-55359410D01*
X154537797Y-55373834D01*
X154506035Y-55385198D01*
X154473312Y-55393395D01*
X154439943Y-55398345D01*
X154406250Y-55400000D01*
X153718750Y-55400000D01*
X153685057Y-55398345D01*
X153651688Y-55393395D01*
X153618965Y-55385198D01*
X153587203Y-55373834D01*
X153556707Y-55359410D01*
X153527773Y-55342068D01*
X153500677Y-55321972D01*
X153475682Y-55299318D01*
X153453028Y-55274323D01*
X153432932Y-55247227D01*
X153415590Y-55218293D01*
X153401166Y-55187797D01*
X153389802Y-55156035D01*
X153381605Y-55123312D01*
X153376655Y-55089943D01*
X153375000Y-55056250D01*
X153375000Y-53943750D01*
X153376655Y-53910057D01*
X153381605Y-53876688D01*
X153389802Y-53843965D01*
X153401166Y-53812203D01*
X153415590Y-53781707D01*
X153432932Y-53752773D01*
X153453028Y-53725677D01*
X153475682Y-53700682D01*
X153500677Y-53678028D01*
X153527773Y-53657932D01*
X153556707Y-53640590D01*
X153587203Y-53626166D01*
X153618965Y-53614802D01*
X153651688Y-53606605D01*
X153685057Y-53601655D01*
X153718750Y-53600000D01*
X154406250Y-53600000D01*
X154439943Y-53601655D01*
X154439943Y-53601655D01*
G37*
D24*
X154062500Y-54500000D03*
G04 #@! TD*
D22*
G04 #@! TO.C,R5*
G36*
X144939943Y-38601655D02*
X144973312Y-38606605D01*
X145006035Y-38614802D01*
X145037797Y-38626166D01*
X145068293Y-38640590D01*
X145097227Y-38657932D01*
X145124323Y-38678028D01*
X145149318Y-38700682D01*
X145171972Y-38725677D01*
X145192068Y-38752773D01*
X145209410Y-38781707D01*
X145223834Y-38812203D01*
X145235198Y-38843965D01*
X145243395Y-38876688D01*
X145248345Y-38910057D01*
X145250000Y-38943750D01*
X145250000Y-40056250D01*
X145248345Y-40089943D01*
X145243395Y-40123312D01*
X145235198Y-40156035D01*
X145223834Y-40187797D01*
X145209410Y-40218293D01*
X145192068Y-40247227D01*
X145171972Y-40274323D01*
X145149318Y-40299318D01*
X145124323Y-40321972D01*
X145097227Y-40342068D01*
X145068293Y-40359410D01*
X145037797Y-40373834D01*
X145006035Y-40385198D01*
X144973312Y-40393395D01*
X144939943Y-40398345D01*
X144906250Y-40400000D01*
X144218750Y-40400000D01*
X144185057Y-40398345D01*
X144151688Y-40393395D01*
X144118965Y-40385198D01*
X144087203Y-40373834D01*
X144056707Y-40359410D01*
X144027773Y-40342068D01*
X144000677Y-40321972D01*
X143975682Y-40299318D01*
X143953028Y-40274323D01*
X143932932Y-40247227D01*
X143915590Y-40218293D01*
X143901166Y-40187797D01*
X143889802Y-40156035D01*
X143881605Y-40123312D01*
X143876655Y-40089943D01*
X143875000Y-40056250D01*
X143875000Y-38943750D01*
X143876655Y-38910057D01*
X143881605Y-38876688D01*
X143889802Y-38843965D01*
X143901166Y-38812203D01*
X143915590Y-38781707D01*
X143932932Y-38752773D01*
X143953028Y-38725677D01*
X143975682Y-38700682D01*
X144000677Y-38678028D01*
X144027773Y-38657932D01*
X144056707Y-38640590D01*
X144087203Y-38626166D01*
X144118965Y-38614802D01*
X144151688Y-38606605D01*
X144185057Y-38601655D01*
X144218750Y-38600000D01*
X144906250Y-38600000D01*
X144939943Y-38601655D01*
X144939943Y-38601655D01*
G37*
D24*
X144562500Y-39500000D03*
D22*
G36*
X146814943Y-38601655D02*
X146848312Y-38606605D01*
X146881035Y-38614802D01*
X146912797Y-38626166D01*
X146943293Y-38640590D01*
X146972227Y-38657932D01*
X146999323Y-38678028D01*
X147024318Y-38700682D01*
X147046972Y-38725677D01*
X147067068Y-38752773D01*
X147084410Y-38781707D01*
X147098834Y-38812203D01*
X147110198Y-38843965D01*
X147118395Y-38876688D01*
X147123345Y-38910057D01*
X147125000Y-38943750D01*
X147125000Y-40056250D01*
X147123345Y-40089943D01*
X147118395Y-40123312D01*
X147110198Y-40156035D01*
X147098834Y-40187797D01*
X147084410Y-40218293D01*
X147067068Y-40247227D01*
X147046972Y-40274323D01*
X147024318Y-40299318D01*
X146999323Y-40321972D01*
X146972227Y-40342068D01*
X146943293Y-40359410D01*
X146912797Y-40373834D01*
X146881035Y-40385198D01*
X146848312Y-40393395D01*
X146814943Y-40398345D01*
X146781250Y-40400000D01*
X146093750Y-40400000D01*
X146060057Y-40398345D01*
X146026688Y-40393395D01*
X145993965Y-40385198D01*
X145962203Y-40373834D01*
X145931707Y-40359410D01*
X145902773Y-40342068D01*
X145875677Y-40321972D01*
X145850682Y-40299318D01*
X145828028Y-40274323D01*
X145807932Y-40247227D01*
X145790590Y-40218293D01*
X145776166Y-40187797D01*
X145764802Y-40156035D01*
X145756605Y-40123312D01*
X145751655Y-40089943D01*
X145750000Y-40056250D01*
X145750000Y-38943750D01*
X145751655Y-38910057D01*
X145756605Y-38876688D01*
X145764802Y-38843965D01*
X145776166Y-38812203D01*
X145790590Y-38781707D01*
X145807932Y-38752773D01*
X145828028Y-38725677D01*
X145850682Y-38700682D01*
X145875677Y-38678028D01*
X145902773Y-38657932D01*
X145931707Y-38640590D01*
X145962203Y-38626166D01*
X145993965Y-38614802D01*
X146026688Y-38606605D01*
X146060057Y-38601655D01*
X146093750Y-38600000D01*
X146781250Y-38600000D01*
X146814943Y-38601655D01*
X146814943Y-38601655D01*
G37*
D24*
X146437500Y-39500000D03*
G04 #@! TD*
D26*
G04 #@! TO.C,REF\002A\002A*
X150000000Y-40250000D03*
G04 #@! TD*
M02*
