G04 #@! TF.GenerationSoftware,KiCad,Pcbnew,5.0.0*
G04 #@! TF.CreationDate,2018-12-15T19:02:40-05:00*
G04 #@! TF.ProjectId,BT_12V_SmartSwitch-panelized,42545F3132565F536D61727453776974,rev?*
G04 #@! TF.SameCoordinates,Original*
G04 #@! TF.FileFunction,Profile,NP*
%FSLAX46Y46*%
G04 Gerber Fmt 4.6, Leading zero omitted, Abs format (unit mm)*
G04 Created by KiCad (PCBNEW 5.0.0) date Sat Dec 15 19:02:40 2018*
%MOMM*%
%LPD*%
G01*
G04 APERTURE LIST*
%ADD10C,0.150000*%
G04 APERTURE END LIST*
D10*
X89500000Y-130000000D02*
X89500000Y-30000000D01*
X189500000Y-130000000D02*
X89500000Y-130000000D01*
X189500000Y-30000000D02*
X189500000Y-130000000D01*
X89500000Y-30000000D02*
X189500000Y-30000000D01*
X180500000Y-122000000D02*
X180500000Y-130000000D01*
X139500000Y-122000000D02*
X139500000Y-130000000D01*
X98500000Y-122000000D02*
X98500000Y-130000000D01*
X89500000Y-130000000D02*
X89500000Y-122000000D01*
X189500000Y-130000000D02*
X89500000Y-130000000D01*
X189500000Y-122000000D02*
X189500000Y-130000000D01*
X180500000Y-38000000D02*
X180500000Y-30000000D01*
X139500000Y-38000000D02*
X139500000Y-30000000D01*
X98500000Y-38000000D02*
X98500000Y-30000000D01*
X89500000Y-30000000D02*
X89500000Y-38000000D01*
X189500000Y-30000000D02*
X89500000Y-30000000D01*
X189500000Y-38000000D02*
X189500000Y-30000000D01*
X180500000Y-66000000D02*
X189500000Y-66000000D01*
X180500000Y-94000000D02*
X189500000Y-94000000D01*
X189500000Y-122000000D02*
X180500000Y-122000000D01*
X189500000Y-38000000D02*
X189500000Y-122000000D01*
X180500000Y-38000000D02*
X189500000Y-38000000D01*
X98500000Y-66000000D02*
X89500000Y-66000000D01*
X98500000Y-94000000D02*
X89500000Y-94000000D01*
X89500000Y-122000000D02*
X98500000Y-122000000D01*
X89500000Y-38000000D02*
X89500000Y-122000000D01*
X98500000Y-38000000D02*
X89500000Y-38000000D01*
X139500000Y-66000000D02*
X139500000Y-38000000D01*
X180500000Y-66000000D02*
X139500000Y-66000000D01*
X180500000Y-38000000D02*
X180500000Y-66000000D01*
X139500000Y-38000000D02*
X180500000Y-38000000D01*
X139500000Y-66000000D02*
X139500000Y-38000000D01*
X180500000Y-66000000D02*
X139500000Y-66000000D01*
X180500000Y-38000000D02*
X180500000Y-66000000D01*
X139500000Y-38000000D02*
X180500000Y-38000000D01*
X139500000Y-94000000D02*
X139500000Y-66000000D01*
X180500000Y-94000000D02*
X139500000Y-94000000D01*
X180500000Y-66000000D02*
X180500000Y-94000000D01*
X139500000Y-66000000D02*
X180500000Y-66000000D01*
X139500000Y-94000000D02*
X139500000Y-66000000D01*
X180500000Y-94000000D02*
X139500000Y-94000000D01*
X180500000Y-66000000D02*
X180500000Y-94000000D01*
X139500000Y-66000000D02*
X180500000Y-66000000D01*
X98500000Y-94000000D02*
X98500000Y-66000000D01*
X139500000Y-94000000D02*
X98500000Y-94000000D01*
X139500000Y-66000000D02*
X139500000Y-94000000D01*
X98500000Y-66000000D02*
X139500000Y-66000000D01*
X98500000Y-94000000D02*
X98500000Y-66000000D01*
X139500000Y-94000000D02*
X98500000Y-94000000D01*
X139500000Y-66000000D02*
X139500000Y-94000000D01*
X98500000Y-66000000D02*
X139500000Y-66000000D01*
X98500000Y-66000000D02*
X98500000Y-38000000D01*
X139500000Y-66000000D02*
X98500000Y-66000000D01*
X139500000Y-38000000D02*
X139500000Y-66000000D01*
X98500000Y-38000000D02*
X139500000Y-38000000D01*
X98500000Y-66000000D02*
X98500000Y-38000000D01*
X139500000Y-66000000D02*
X98500000Y-66000000D01*
X139500000Y-38000000D02*
X139500000Y-66000000D01*
X98500000Y-38000000D02*
X139500000Y-38000000D01*
X139500000Y-122000000D02*
X139500000Y-94000000D01*
X180500000Y-122000000D02*
X139500000Y-122000000D01*
X180500000Y-94000000D02*
X180500000Y-122000000D01*
X139500000Y-94000000D02*
X180500000Y-94000000D01*
X139500000Y-122000000D02*
X139500000Y-94000000D01*
X180500000Y-122000000D02*
X139500000Y-122000000D01*
X180500000Y-94000000D02*
X180500000Y-122000000D01*
X139500000Y-94000000D02*
X180500000Y-94000000D01*
X98500000Y-122000000D02*
X98500000Y-94000000D01*
X139500000Y-122000000D02*
X98500000Y-122000000D01*
X139500000Y-94000000D02*
X139500000Y-122000000D01*
X98500000Y-94000000D02*
X139500000Y-94000000D01*
X98500000Y-122000000D02*
X98500000Y-94000000D01*
X139500000Y-122000000D02*
X98500000Y-122000000D01*
X139500000Y-94000000D02*
X139500000Y-122000000D01*
X98500000Y-94000000D02*
X139500000Y-94000000D01*
M02*
