M48
;DRILL file {KiCad 5.0.0} date Sat Dec 15 19:02:15 2018
;FORMAT={-:-/ absolute / inch / decimal}
FMAT,2
INCH,TZ
T1C0.0354
T2C0.0984
T3C0.1260
%
G90
G05
M72
T1
X6.1171Y-4.7343
X6.2844Y-4.7343
X6.1171Y-4.7343
X6.2844Y-4.7343
X4.503Y-4.7343
X4.6703Y-4.7343
X6.1171Y-3.6319
X6.2844Y-3.6319
X6.1171Y-3.6319
X6.2844Y-3.6319
X4.503Y-2.5295
X4.6703Y-2.5295
X4.503Y-3.6319
X4.6703Y-3.6319
X6.1171Y-2.5295
X6.2844Y-2.5295
X4.503Y-2.5295
X4.6703Y-2.5295
X6.1171Y-2.5295
X6.2844Y-2.5295
X4.503Y-4.7343
X4.6703Y-4.7343
X4.503Y-3.6319
X4.6703Y-3.6319
T2
X5.0787Y-3.6122
X5.9055Y-3.7894
X5.0787Y-4.7146
X4.2913Y-1.5846
X5.0787Y-4.7146
X5.9055Y-2.687
X5.9055Y-1.5846
X4.2913Y-2.687
X6.6929Y-4.7146
X5.9055Y-1.5846
X4.2913Y-3.7894
X5.0787Y-2.5098
X4.2913Y-3.7894
X4.2913Y-2.687
X6.6929Y-2.5098
X6.6929Y-4.7146
X6.6929Y-3.6122
X6.6929Y-2.5098
X5.9055Y-3.7894
X5.9055Y-2.687
X6.6929Y-3.6122
X5.0787Y-2.5098
X4.2913Y-1.5846
X5.0787Y-3.6122
T3
X7.3031Y-4.9606
X3.6811Y-1.3386
X7.3031Y-1.3386
X3.6811Y-4.9606
T0
M30
