M48
;DRILL file {KiCad 5.0.0} date Sat Dec 15 19:02:15 2018
;FORMAT={-:-/ absolute / inch / decimal}
FMAT,2
INCH,TZ
T1C0.0157
T2C0.0394
%
G90
G05
M72
T1
X3.9075Y-1.5256
X3.9075Y-1.5256
X3.9075Y-2.628
X3.9075Y-2.628
X3.9075Y-3.7303
X3.9075Y-3.7303
X3.937Y-1.8406
X3.937Y-1.8406
X3.937Y-2.9429
X3.937Y-2.9429
X3.937Y-4.0453
X3.937Y-4.0453
X3.9764Y-1.8406
X3.9764Y-1.8406
X3.9764Y-2.9429
X3.9764Y-2.9429
X3.9764Y-4.0453
X3.9764Y-4.0453
X4.0453Y-2.0768
X4.0453Y-2.0768
X4.0453Y-2.1161
X4.0453Y-2.1161
X4.0453Y-2.1752
X4.0453Y-2.1752
X4.0453Y-2.2146
X4.0453Y-2.2146
X4.0453Y-2.2539
X4.0453Y-2.2539
X4.0453Y-3.1791
X4.0453Y-3.1791
X4.0453Y-3.2185
X4.0453Y-3.2185
X4.0453Y-3.2776
X4.0453Y-3.2776
X4.0453Y-3.3169
X4.0453Y-3.3169
X4.0453Y-3.3563
X4.0453Y-3.3563
X4.0453Y-4.2815
X4.0453Y-4.2815
X4.0453Y-4.3209
X4.0453Y-4.3209
X4.0453Y-4.3799
X4.0453Y-4.3799
X4.0453Y-4.4193
X4.0453Y-4.4193
X4.0453Y-4.4587
X4.0453Y-4.4587
X4.124Y-2.0768
X4.124Y-2.0768
X4.124Y-3.1791
X4.124Y-3.1791
X4.124Y-4.2815
X4.124Y-4.2815
X4.1496Y-2.2638
X4.1496Y-2.2638
X4.1496Y-3.3661
X4.1496Y-3.3661
X4.1496Y-4.4685
X4.1496Y-4.4685
X4.1634Y-2.0768
X4.1634Y-2.0768
X4.1634Y-3.1791
X4.1634Y-3.1791
X4.1634Y-4.2815
X4.1634Y-4.2815
X4.1732Y-2.2146
X4.1732Y-2.2146
X4.1732Y-2.2402
X4.1732Y-2.2402
X4.1732Y-3.3169
X4.1732Y-3.3169
X4.1732Y-3.3425
X4.1732Y-3.3425
X4.1732Y-4.4193
X4.1732Y-4.4193
X4.1732Y-4.4449
X4.1732Y-4.4449
X4.2028Y-2.0768
X4.2028Y-2.0768
X4.2028Y-3.1791
X4.2028Y-3.1791
X4.2028Y-4.2815
X4.2028Y-4.2815
X4.2815Y-2.5689
X4.2815Y-2.5689
X4.2815Y-3.6713
X4.2815Y-3.6713
X4.2815Y-4.7736
X4.2815Y-4.7736
X4.311Y-2.5295
X4.311Y-2.5295
X4.311Y-3.6319
X4.311Y-3.6319
X4.311Y-4.7343
X4.311Y-4.7343
X4.3307Y-1.8701
X4.3307Y-1.8701
X4.3307Y-2.9724
X4.3307Y-2.9724
X4.3307Y-4.0748
X4.3307Y-4.0748
X4.3406Y-1.9882
X4.3406Y-1.9882
X4.3406Y-2.0472
X4.3406Y-2.0472
X4.3406Y-3.0906
X4.3406Y-3.0906
X4.3406Y-3.1496
X4.3406Y-3.1496
X4.3406Y-4.1929
X4.3406Y-4.1929
X4.3406Y-4.252
X4.3406Y-4.252
X4.3602Y-2.5098
X4.3602Y-2.5098
X4.3602Y-3.6122
X4.3602Y-3.6122
X4.3602Y-4.7146
X4.3602Y-4.7146
X4.3799Y-1.8799
X4.3799Y-1.8799
X4.3799Y-2.9823
X4.3799Y-2.9823
X4.3799Y-4.0846
X4.3799Y-4.0846
X4.3898Y-2.0276
X4.3898Y-2.0276
X4.3898Y-2.2244
X4.3898Y-2.2244
X4.3898Y-2.2638
X4.3898Y-2.2638
X4.3898Y-2.3819
X4.3898Y-2.3819
X4.3898Y-2.4213
X4.3898Y-2.4213
X4.3898Y-3.1299
X4.3898Y-3.1299
X4.3898Y-3.3268
X4.3898Y-3.3268
X4.3898Y-3.3661
X4.3898Y-3.3661
X4.3898Y-3.4843
X4.3898Y-3.4843
X4.3898Y-3.5236
X4.3898Y-3.5236
X4.3898Y-4.2323
X4.3898Y-4.2323
X4.3898Y-4.4291
X4.3898Y-4.4291
X4.3898Y-4.4685
X4.3898Y-4.4685
X4.3898Y-4.5866
X4.3898Y-4.5866
X4.3898Y-4.626
X4.3898Y-4.626
X4.4193Y-1.8799
X4.4193Y-1.8799
X4.4193Y-2.9823
X4.4193Y-2.9823
X4.4193Y-4.0846
X4.4193Y-4.0846
X4.5866Y-2.4311
X4.5866Y-2.4311
X4.5866Y-3.5335
X4.5866Y-3.5335
X4.5866Y-4.6358
X4.5866Y-4.6358
X4.6654Y-2.3425
X4.6654Y-2.3425
X4.6654Y-3.4449
X4.6654Y-3.4449
X4.6654Y-4.5472
X4.6654Y-4.5472
X4.6949Y-2.4508
X4.6949Y-2.4508
X4.6949Y-3.5531
X4.6949Y-3.5531
X4.6949Y-4.6555
X4.6949Y-4.6555
X4.7047Y-2.2146
X4.7047Y-2.2146
X4.7047Y-3.3169
X4.7047Y-3.3169
X4.7047Y-4.4193
X4.7047Y-4.4193
X4.7146Y-1.8799
X4.7146Y-1.8799
X4.7146Y-2.9823
X4.7146Y-2.9823
X4.7146Y-4.0846
X4.7146Y-4.0846
X4.7441Y-2.0177
X4.7441Y-2.0177
X4.7441Y-3.1201
X4.7441Y-3.1201
X4.7441Y-4.2224
X4.7441Y-4.2224
X4.7539Y-2.2638
X4.7539Y-2.2638
X4.7539Y-3.3661
X4.7539Y-3.3661
X4.7539Y-4.4685
X4.7539Y-4.4685
X4.7736Y-2.5098
X4.7736Y-2.5098
X4.7736Y-3.6122
X4.7736Y-3.6122
X4.7736Y-4.7146
X4.7736Y-4.7146
X4.872Y-1.5551
X4.872Y-1.5551
X4.872Y-2.2638
X4.872Y-2.2638
X4.872Y-2.5689
X4.872Y-2.5689
X4.872Y-2.6575
X4.872Y-2.6575
X4.872Y-3.3661
X4.872Y-3.3661
X4.872Y-3.6713
X4.872Y-3.6713
X4.872Y-3.7598
X4.872Y-3.7598
X4.872Y-4.4685
X4.872Y-4.4685
X4.872Y-4.7736
X4.872Y-4.7736
X4.9114Y-1.5551
X4.9114Y-1.5551
X4.9114Y-2.6575
X4.9114Y-2.6575
X4.9114Y-3.7598
X4.9114Y-3.7598
X4.9311Y-2.2047
X4.9311Y-2.2047
X4.9311Y-3.3071
X4.9311Y-3.3071
X4.9311Y-4.4094
X4.9311Y-4.4094
X4.9409Y-2.2835
X4.9409Y-2.2835
X4.9409Y-3.3858
X4.9409Y-3.3858
X4.9409Y-4.4882
X4.9409Y-4.4882
X4.9902Y-2.4114
X4.9902Y-2.4114
X4.9902Y-3.5138
X4.9902Y-3.5138
X4.9902Y-4.6161
X4.9902Y-4.6161
X5.0098Y-1.6732
X5.0098Y-1.6732
X5.0098Y-1.9341
X5.0098Y-1.9341
X5.0098Y-2.0768
X5.0098Y-2.0768
X5.0098Y-2.7756
X5.0098Y-2.7756
X5.0098Y-3.0364
X5.0098Y-3.0364
X5.0098Y-3.1791
X5.0098Y-3.1791
X5.0098Y-3.878
X5.0098Y-3.878
X5.0098Y-4.1388
X5.0098Y-4.1388
X5.0098Y-4.2815
X5.0098Y-4.2815
X5.0591Y-1.7717
X5.0591Y-1.7717
X5.0591Y-2.874
X5.0591Y-2.874
X5.0591Y-3.9764
X5.0591Y-3.9764
X5.1083Y-1.7717
X5.1083Y-1.7717
X5.1083Y-2.874
X5.1083Y-2.874
X5.1083Y-3.9764
X5.1083Y-3.9764
X5.1772Y-2.4016
X5.1772Y-2.4016
X5.1772Y-3.5039
X5.1772Y-3.5039
X5.1772Y-4.6063
X5.1772Y-4.6063
X5.2165Y-1.6535
X5.2165Y-1.6535
X5.2165Y-2.7559
X5.2165Y-2.7559
X5.2165Y-3.8583
X5.2165Y-3.8583
X5.2653Y-2.372
X5.2653Y-2.372
X5.2653Y-3.4744
X5.2653Y-3.4744
X5.2653Y-4.5768
X5.2653Y-4.5768
X5.3248Y-2.2539
X5.3248Y-2.2539
X5.3248Y-2.4213
X5.3248Y-2.4213
X5.3248Y-3.3563
X5.3248Y-3.3563
X5.3248Y-3.5236
X5.3248Y-3.5236
X5.3248Y-4.4587
X5.3248Y-4.4587
X5.3248Y-4.626
X5.3248Y-4.626
X5.3268Y-1.8701
X5.3268Y-1.8701
X5.3268Y-2.9724
X5.3268Y-2.9724
X5.3268Y-4.0748
X5.3268Y-4.0748
X5.4232Y-2.4606
X5.4232Y-2.4606
X5.4232Y-3.563
X5.4232Y-3.563
X5.4232Y-4.6654
X5.4232Y-4.6654
X5.5217Y-1.5256
X5.5217Y-1.5256
X5.5217Y-2.628
X5.5217Y-2.628
X5.5217Y-3.7303
X5.5217Y-3.7303
X5.5512Y-1.8406
X5.5512Y-1.8406
X5.5512Y-2.9429
X5.5512Y-2.9429
X5.5512Y-4.0453
X5.5512Y-4.0453
X5.5906Y-1.8406
X5.5906Y-1.8406
X5.5906Y-2.9429
X5.5906Y-2.9429
X5.5906Y-4.0453
X5.5906Y-4.0453
X5.6594Y-2.0768
X5.6594Y-2.0768
X5.6594Y-2.1161
X5.6594Y-2.1161
X5.6594Y-2.1752
X5.6594Y-2.1752
X5.6594Y-2.2146
X5.6594Y-2.2146
X5.6594Y-2.2539
X5.6594Y-2.2539
X5.6594Y-3.1791
X5.6594Y-3.1791
X5.6594Y-3.2185
X5.6594Y-3.2185
X5.6594Y-3.2776
X5.6594Y-3.2776
X5.6594Y-3.3169
X5.6594Y-3.3169
X5.6594Y-3.3563
X5.6594Y-3.3563
X5.6594Y-4.2815
X5.6594Y-4.2815
X5.6594Y-4.3209
X5.6594Y-4.3209
X5.6594Y-4.3799
X5.6594Y-4.3799
X5.6594Y-4.4193
X5.6594Y-4.4193
X5.6594Y-4.4587
X5.6594Y-4.4587
X5.7382Y-2.0768
X5.7382Y-2.0768
X5.7382Y-3.1791
X5.7382Y-3.1791
X5.7382Y-4.2815
X5.7382Y-4.2815
X5.7638Y-2.2638
X5.7638Y-2.2638
X5.7638Y-3.3661
X5.7638Y-3.3661
X5.7638Y-4.4685
X5.7638Y-4.4685
X5.7776Y-2.0768
X5.7776Y-2.0768
X5.7776Y-3.1791
X5.7776Y-3.1791
X5.7776Y-4.2815
X5.7776Y-4.2815
X5.7874Y-2.2146
X5.7874Y-2.2146
X5.7874Y-2.2402
X5.7874Y-2.2402
X5.7874Y-3.3169
X5.7874Y-3.3169
X5.7874Y-3.3425
X5.7874Y-3.3425
X5.7874Y-4.4193
X5.7874Y-4.4193
X5.7874Y-4.4449
X5.7874Y-4.4449
X5.8169Y-2.0768
X5.8169Y-2.0768
X5.8169Y-3.1791
X5.8169Y-3.1791
X5.8169Y-4.2815
X5.8169Y-4.2815
X5.8957Y-2.5689
X5.8957Y-2.5689
X5.8957Y-3.6713
X5.8957Y-3.6713
X5.8957Y-4.7736
X5.8957Y-4.7736
X5.9252Y-2.5295
X5.9252Y-2.5295
X5.9252Y-3.6319
X5.9252Y-3.6319
X5.9252Y-4.7343
X5.9252Y-4.7343
X5.9449Y-1.8701
X5.9449Y-1.8701
X5.9449Y-2.9724
X5.9449Y-2.9724
X5.9449Y-4.0748
X5.9449Y-4.0748
X5.9547Y-1.9882
X5.9547Y-1.9882
X5.9547Y-2.0472
X5.9547Y-2.0472
X5.9547Y-3.0906
X5.9547Y-3.0906
X5.9547Y-3.1496
X5.9547Y-3.1496
X5.9547Y-4.1929
X5.9547Y-4.1929
X5.9547Y-4.252
X5.9547Y-4.252
X5.9744Y-2.5098
X5.9744Y-2.5098
X5.9744Y-3.6122
X5.9744Y-3.6122
X5.9744Y-4.7146
X5.9744Y-4.7146
X5.9941Y-1.8799
X5.9941Y-1.8799
X5.9941Y-2.9823
X5.9941Y-2.9823
X5.9941Y-4.0846
X5.9941Y-4.0846
X6.0039Y-2.0276
X6.0039Y-2.0276
X6.0039Y-2.2244
X6.0039Y-2.2244
X6.0039Y-2.2638
X6.0039Y-2.2638
X6.0039Y-2.3819
X6.0039Y-2.3819
X6.0039Y-2.4213
X6.0039Y-2.4213
X6.0039Y-3.1299
X6.0039Y-3.1299
X6.0039Y-3.3268
X6.0039Y-3.3268
X6.0039Y-3.3661
X6.0039Y-3.3661
X6.0039Y-3.4843
X6.0039Y-3.4843
X6.0039Y-3.5236
X6.0039Y-3.5236
X6.0039Y-4.2323
X6.0039Y-4.2323
X6.0039Y-4.4291
X6.0039Y-4.4291
X6.0039Y-4.4685
X6.0039Y-4.4685
X6.0039Y-4.5866
X6.0039Y-4.5866
X6.0039Y-4.626
X6.0039Y-4.626
X6.0335Y-1.8799
X6.0335Y-1.8799
X6.0335Y-2.9823
X6.0335Y-2.9823
X6.0335Y-4.0846
X6.0335Y-4.0846
X6.2008Y-2.4311
X6.2008Y-2.4311
X6.2008Y-3.5335
X6.2008Y-3.5335
X6.2008Y-4.6358
X6.2008Y-4.6358
X6.2795Y-2.3425
X6.2795Y-2.3425
X6.2795Y-3.4449
X6.2795Y-3.4449
X6.2795Y-4.5472
X6.2795Y-4.5472
X6.3091Y-2.4508
X6.3091Y-2.4508
X6.3091Y-3.5531
X6.3091Y-3.5531
X6.3091Y-4.6555
X6.3091Y-4.6555
X6.3189Y-2.2146
X6.3189Y-2.2146
X6.3189Y-3.3169
X6.3189Y-3.3169
X6.3189Y-4.4193
X6.3189Y-4.4193
X6.3287Y-1.8799
X6.3287Y-1.8799
X6.3287Y-2.9823
X6.3287Y-2.9823
X6.3287Y-4.0846
X6.3287Y-4.0846
X6.3583Y-2.0177
X6.3583Y-2.0177
X6.3583Y-3.1201
X6.3583Y-3.1201
X6.3583Y-4.2224
X6.3583Y-4.2224
X6.3681Y-2.2638
X6.3681Y-2.2638
X6.3681Y-3.3661
X6.3681Y-3.3661
X6.3681Y-4.4685
X6.3681Y-4.4685
X6.3878Y-2.5098
X6.3878Y-2.5098
X6.3878Y-3.6122
X6.3878Y-3.6122
X6.3878Y-4.7146
X6.3878Y-4.7146
X6.4862Y-1.5551
X6.4862Y-1.5551
X6.4862Y-2.2638
X6.4862Y-2.2638
X6.4862Y-2.5689
X6.4862Y-2.5689
X6.4862Y-2.6575
X6.4862Y-2.6575
X6.4862Y-3.3661
X6.4862Y-3.3661
X6.4862Y-3.6713
X6.4862Y-3.6713
X6.4862Y-3.7598
X6.4862Y-3.7598
X6.4862Y-4.4685
X6.4862Y-4.4685
X6.4862Y-4.7736
X6.4862Y-4.7736
X6.5256Y-1.5551
X6.5256Y-1.5551
X6.5256Y-2.6575
X6.5256Y-2.6575
X6.5256Y-3.7598
X6.5256Y-3.7598
X6.5453Y-2.2047
X6.5453Y-2.2047
X6.5453Y-3.3071
X6.5453Y-3.3071
X6.5453Y-4.4094
X6.5453Y-4.4094
X6.5551Y-2.2835
X6.5551Y-2.2835
X6.5551Y-3.3858
X6.5551Y-3.3858
X6.5551Y-4.4882
X6.5551Y-4.4882
X6.6043Y-2.4114
X6.6043Y-2.4114
X6.6043Y-3.5138
X6.6043Y-3.5138
X6.6043Y-4.6161
X6.6043Y-4.6161
X6.624Y-1.6732
X6.624Y-1.6732
X6.624Y-1.9341
X6.624Y-1.9341
X6.624Y-2.0768
X6.624Y-2.0768
X6.624Y-2.7756
X6.624Y-2.7756
X6.624Y-3.0364
X6.624Y-3.0364
X6.624Y-3.1791
X6.624Y-3.1791
X6.624Y-3.878
X6.624Y-3.878
X6.624Y-4.1388
X6.624Y-4.1388
X6.624Y-4.2815
X6.624Y-4.2815
X6.6732Y-1.7717
X6.6732Y-1.7717
X6.6732Y-2.874
X6.6732Y-2.874
X6.6732Y-3.9764
X6.6732Y-3.9764
X6.7224Y-1.7717
X6.7224Y-1.7717
X6.7224Y-2.874
X6.7224Y-2.874
X6.7224Y-3.9764
X6.7224Y-3.9764
X6.7913Y-2.4016
X6.7913Y-2.4016
X6.7913Y-3.5039
X6.7913Y-3.5039
X6.7913Y-4.6063
X6.7913Y-4.6063
X6.8307Y-1.6535
X6.8307Y-1.6535
X6.8307Y-2.7559
X6.8307Y-2.7559
X6.8307Y-3.8583
X6.8307Y-3.8583
X6.8794Y-2.372
X6.8794Y-2.372
X6.8794Y-3.4744
X6.8794Y-3.4744
X6.8794Y-4.5768
X6.8794Y-4.5768
X6.939Y-2.2539
X6.939Y-2.2539
X6.939Y-2.4213
X6.939Y-2.4213
X6.939Y-3.3563
X6.939Y-3.3563
X6.939Y-3.5236
X6.939Y-3.5236
X6.939Y-4.4587
X6.939Y-4.4587
X6.939Y-4.626
X6.939Y-4.626
X6.9409Y-1.8701
X6.9409Y-1.8701
X6.9409Y-2.9724
X6.9409Y-2.9724
X6.9409Y-4.0748
X6.9409Y-4.0748
X7.0374Y-2.4606
X7.0374Y-2.4606
X7.0374Y-3.563
X7.0374Y-3.563
X7.0374Y-4.6654
X7.0374Y-4.6654
X6.8091Y-3.1339
X6.8091Y-3.1693
X6.8091Y-3.2047
X6.8445Y-3.1339
X6.8445Y-3.1693
X6.8445Y-3.2047
X6.8799Y-3.1339
X6.8799Y-3.1693
X6.8799Y-3.2047
X5.1949Y-4.2362
X5.1949Y-4.2717
X5.1949Y-4.3071
X5.2303Y-4.2362
X5.2303Y-4.2717
X5.2303Y-4.3071
X5.2657Y-4.2362
X5.2657Y-4.2717
X5.2657Y-4.3071
X6.8091Y-3.1339
X6.8091Y-3.1693
X6.8091Y-3.2047
X6.8445Y-3.1339
X6.8445Y-3.1693
X6.8445Y-3.2047
X6.8799Y-3.1339
X6.8799Y-3.1693
X6.8799Y-3.2047
X6.8091Y-2.0315
X6.8091Y-2.0669
X6.8091Y-2.1024
X6.8445Y-2.0315
X6.8445Y-2.0669
X6.8445Y-2.1024
X6.8799Y-2.0315
X6.8799Y-2.0669
X6.8799Y-2.1024
X6.8091Y-4.2362
X6.8091Y-4.2717
X6.8091Y-4.3071
X6.8445Y-4.2362
X6.8445Y-4.2717
X6.8445Y-4.3071
X6.8799Y-4.2362
X6.8799Y-4.2717
X6.8799Y-4.3071
X5.1949Y-4.2362
X5.1949Y-4.2717
X5.1949Y-4.3071
X5.2303Y-4.2362
X5.2303Y-4.2717
X5.2303Y-4.3071
X5.2657Y-4.2362
X5.2657Y-4.2717
X5.2657Y-4.3071
X5.1949Y-3.1339
X5.1949Y-3.1693
X5.1949Y-3.2047
X5.2303Y-3.1339
X5.2303Y-3.1693
X5.2303Y-3.2047
X5.2657Y-3.1339
X5.2657Y-3.1693
X5.2657Y-3.2047
X5.1949Y-3.1339
X5.1949Y-3.1693
X5.1949Y-3.2047
X5.2303Y-3.1339
X5.2303Y-3.1693
X5.2303Y-3.2047
X5.2657Y-3.1339
X5.2657Y-3.1693
X5.2657Y-3.2047
X6.8091Y-4.2362
X6.8091Y-4.2717
X6.8091Y-4.3071
X6.8445Y-4.2362
X6.8445Y-4.2717
X6.8445Y-4.3071
X6.8799Y-4.2362
X6.8799Y-4.2717
X6.8799Y-4.3071
X6.8091Y-2.0315
X6.8091Y-2.0669
X6.8091Y-2.1024
X6.8445Y-2.0315
X6.8445Y-2.0669
X6.8445Y-2.1024
X6.8799Y-2.0315
X6.8799Y-2.0669
X6.8799Y-2.1024
X5.1949Y-2.0315
X5.1949Y-2.0669
X5.1949Y-2.1024
X5.2303Y-2.0315
X5.2303Y-2.0669
X5.2303Y-2.1024
X5.2657Y-2.0315
X5.2657Y-2.0669
X5.2657Y-2.1024
X5.1949Y-2.0315
X5.1949Y-2.0669
X5.1949Y-2.1024
X5.2303Y-2.0315
X5.2303Y-2.0669
X5.2303Y-2.1024
X5.2657Y-2.0315
X5.2657Y-2.0669
X5.2657Y-2.1024
T2
X5.5776Y-2.4
X5.5776Y-2.5
X5.6776Y-2.4
X5.6776Y-2.5
X5.7776Y-2.4
X5.7776Y-2.5
X5.5807Y-4.3587
X5.5807Y-4.4587
X3.9665Y-2.1539
X3.9665Y-2.2539
X5.0839Y-3.7795
X5.1839Y-3.7795
X5.2839Y-3.7795
X5.3839Y-3.7795
X6.122Y-3.7795
X6.122Y-3.8795
X6.222Y-3.7795
X6.222Y-3.8795
X6.322Y-3.7795
X6.322Y-3.8795
X4.5079Y-2.6772
X4.5079Y-2.7772
X4.6079Y-2.6772
X4.6079Y-2.7772
X4.7079Y-2.6772
X4.7079Y-2.7772
X3.9634Y-4.6047
X3.9634Y-4.7047
X4.0634Y-4.6047
X4.0634Y-4.7047
X4.1634Y-4.6047
X4.1634Y-4.7047
X5.5807Y-3.2563
X5.5807Y-3.3563
X3.9634Y-3.5024
X3.9634Y-3.6024
X4.0634Y-3.5024
X4.0634Y-3.6024
X4.1634Y-3.5024
X4.1634Y-3.6024
X5.5776Y-3.5024
X5.5776Y-3.6024
X5.6776Y-3.5024
X5.6776Y-3.6024
X5.7776Y-3.5024
X5.7776Y-3.6024
X5.0839Y-1.5748
X5.1839Y-1.5748
X5.2839Y-1.5748
X5.3839Y-1.5748
X5.0839Y-2.6772
X5.1839Y-2.6772
X5.2839Y-2.6772
X5.3839Y-2.6772
X6.698Y-2.6772
X6.798Y-2.6772
X6.898Y-2.6772
X6.998Y-2.6772
X6.698Y-3.7795
X6.798Y-3.7795
X6.898Y-3.7795
X6.998Y-3.7795
X3.9665Y-4.3587
X3.9665Y-4.4587
X5.5807Y-2.1539
X5.5807Y-2.2539
X5.0839Y-3.7795
X5.1839Y-3.7795
X5.2839Y-3.7795
X5.3839Y-3.7795
X3.9665Y-2.1539
X3.9665Y-2.2539
X6.698Y-2.6772
X6.798Y-2.6772
X6.898Y-2.6772
X6.998Y-2.6772
X6.122Y-3.7795
X6.122Y-3.8795
X6.222Y-3.7795
X6.222Y-3.8795
X6.322Y-3.7795
X6.322Y-3.8795
X5.5807Y-3.2563
X5.5807Y-3.3563
X4.5079Y-3.7795
X4.5079Y-3.8795
X4.6079Y-3.7795
X4.6079Y-3.8795
X4.7079Y-3.7795
X4.7079Y-3.8795
X6.698Y-1.5748
X6.798Y-1.5748
X6.898Y-1.5748
X6.998Y-1.5748
X5.5776Y-2.4
X5.5776Y-2.5
X5.6776Y-2.4
X5.6776Y-2.5
X5.7776Y-2.4
X5.7776Y-2.5
X4.5079Y-1.5748
X4.5079Y-1.6748
X4.6079Y-1.5748
X4.6079Y-1.6748
X4.7079Y-1.5748
X4.7079Y-1.6748
X3.9634Y-2.4
X3.9634Y-2.5
X4.0634Y-2.4
X4.0634Y-2.5
X4.1634Y-2.4
X4.1634Y-2.5
X3.9634Y-4.6047
X3.9634Y-4.7047
X4.0634Y-4.6047
X4.0634Y-4.7047
X4.1634Y-4.6047
X4.1634Y-4.7047
X6.122Y-1.5748
X6.122Y-1.6748
X6.222Y-1.5748
X6.222Y-1.6748
X6.322Y-1.5748
X6.322Y-1.6748
X6.122Y-1.5748
X6.122Y-1.6748
X6.222Y-1.5748
X6.222Y-1.6748
X6.322Y-1.5748
X6.322Y-1.6748
X3.9665Y-3.2563
X3.9665Y-3.3563
X5.5776Y-4.6047
X5.5776Y-4.7047
X5.6776Y-4.6047
X5.6776Y-4.7047
X5.7776Y-4.6047
X5.7776Y-4.7047
X5.5776Y-4.6047
X5.5776Y-4.7047
X5.6776Y-4.6047
X5.6776Y-4.7047
X5.7776Y-4.6047
X5.7776Y-4.7047
X5.0839Y-2.6772
X5.1839Y-2.6772
X5.2839Y-2.6772
X5.3839Y-2.6772
X6.122Y-2.6772
X6.122Y-2.7772
X6.222Y-2.6772
X6.222Y-2.7772
X6.322Y-2.6772
X6.322Y-2.7772
X3.9665Y-3.2563
X3.9665Y-3.3563
X6.698Y-3.7795
X6.798Y-3.7795
X6.898Y-3.7795
X6.998Y-3.7795
X4.5079Y-3.7795
X4.5079Y-3.8795
X4.6079Y-3.7795
X4.6079Y-3.8795
X4.7079Y-3.7795
X4.7079Y-3.8795
X5.5807Y-2.1539
X5.5807Y-2.2539
X4.5079Y-1.5748
X4.5079Y-1.6748
X4.6079Y-1.5748
X4.6079Y-1.6748
X4.7079Y-1.5748
X4.7079Y-1.6748
X5.5776Y-3.5024
X5.5776Y-3.6024
X5.6776Y-3.5024
X5.6776Y-3.6024
X5.7776Y-3.5024
X5.7776Y-3.6024
X5.0839Y-1.5748
X5.1839Y-1.5748
X5.2839Y-1.5748
X5.3839Y-1.5748
X6.122Y-2.6772
X6.122Y-2.7772
X6.222Y-2.6772
X6.222Y-2.7772
X6.322Y-2.6772
X6.322Y-2.7772
X3.9634Y-3.5024
X3.9634Y-3.6024
X4.0634Y-3.5024
X4.0634Y-3.6024
X4.1634Y-3.5024
X4.1634Y-3.6024
X3.9634Y-2.4
X3.9634Y-2.5
X4.0634Y-2.4
X4.0634Y-2.5
X4.1634Y-2.4
X4.1634Y-2.5
X3.9665Y-4.3587
X3.9665Y-4.4587
X5.5807Y-4.3587
X5.5807Y-4.4587
X4.5079Y-2.6772
X4.5079Y-2.7772
X4.6079Y-2.6772
X4.6079Y-2.7772
X4.7079Y-2.6772
X4.7079Y-2.7772
X6.698Y-1.5748
X6.798Y-1.5748
X6.898Y-1.5748
X6.998Y-1.5748
T0
M30
