G04 #@! TF.GenerationSoftware,KiCad,Pcbnew,5.0.0*
G04 #@! TF.CreationDate,2018-12-15T19:02:40-05:00*
G04 #@! TF.ProjectId,BT_12V_SmartSwitch-panelized,42545F3132565F536D61727453776974,rev?*
G04 #@! TF.SameCoordinates,Original*
G04 #@! TF.FileFunction,Other,Fab,Bot*
%FSLAX46Y46*%
G04 Gerber Fmt 4.6, Leading zero omitted, Abs format (unit mm)*
G04 Created by KiCad (PCBNEW 5.0.0) date Sat Dec 15 19:02:40 2018*
%MOMM*%
%LPD*%
G01*
G04 APERTURE LIST*
%ADD10C,0.150000*%
%ADD11C,0.300000*%
G04 APERTURE END LIST*
D10*
X195000000Y-38000000D02*
X190000000Y-38000000D01*
X195000000Y-66000000D02*
X190000000Y-66000000D01*
X195000000Y-94000000D02*
X190000000Y-94000000D01*
X195000000Y-122000000D02*
X190000000Y-122000000D01*
X88500000Y-122000000D02*
X83500000Y-122000000D01*
X88500000Y-94000000D02*
X83500000Y-94000000D01*
X88500000Y-66000000D02*
X83500000Y-66000000D01*
X88500000Y-38000000D02*
X83500000Y-38000000D01*
X98500000Y-31000000D02*
X98500000Y-28000000D01*
X139500000Y-31000000D02*
X139500000Y-28000000D01*
X180500000Y-30000000D02*
X180500000Y-27000000D01*
X180500000Y-134000000D02*
X180500000Y-131000000D01*
X98500000Y-134000000D02*
X98500000Y-131000000D01*
X139500000Y-134000000D02*
X139500000Y-131000000D01*
D11*
X179678571Y-146821428D02*
X181178571Y-146321428D01*
X179678571Y-145821428D01*
X180607142Y-145321428D02*
X180607142Y-144178571D01*
X179750000Y-142678571D02*
X179678571Y-142821428D01*
X179678571Y-143035714D01*
X179750000Y-143250000D01*
X179892857Y-143392857D01*
X180035714Y-143464285D01*
X180321428Y-143535714D01*
X180535714Y-143535714D01*
X180821428Y-143464285D01*
X180964285Y-143392857D01*
X181107142Y-143250000D01*
X181178571Y-143035714D01*
X181178571Y-142892857D01*
X181107142Y-142678571D01*
X181035714Y-142607142D01*
X180535714Y-142607142D01*
X180535714Y-142892857D01*
X181178571Y-141107142D02*
X180464285Y-141607142D01*
X181178571Y-141964285D02*
X179678571Y-141964285D01*
X179678571Y-141392857D01*
X179750000Y-141250000D01*
X179821428Y-141178571D01*
X179964285Y-141107142D01*
X180178571Y-141107142D01*
X180321428Y-141178571D01*
X180392857Y-141250000D01*
X180464285Y-141392857D01*
X180464285Y-141964285D01*
X179678571Y-140178571D02*
X179678571Y-139892857D01*
X179750000Y-139750000D01*
X179892857Y-139607142D01*
X180178571Y-139535714D01*
X180678571Y-139535714D01*
X180964285Y-139607142D01*
X181107142Y-139750000D01*
X181178571Y-139892857D01*
X181178571Y-140178571D01*
X181107142Y-140321428D01*
X180964285Y-140464285D01*
X180678571Y-140535714D01*
X180178571Y-140535714D01*
X179892857Y-140464285D01*
X179750000Y-140321428D01*
X179678571Y-140178571D01*
X179678571Y-138607142D02*
X179678571Y-138321428D01*
X179750000Y-138178571D01*
X179892857Y-138035714D01*
X180178571Y-137964285D01*
X180678571Y-137964285D01*
X180964285Y-138035714D01*
X181107142Y-138178571D01*
X181178571Y-138321428D01*
X181178571Y-138607142D01*
X181107142Y-138750000D01*
X180964285Y-138892857D01*
X180678571Y-138964285D01*
X180178571Y-138964285D01*
X179892857Y-138892857D01*
X179750000Y-138750000D01*
X179678571Y-138607142D01*
X179678571Y-137535714D02*
X181178571Y-137035714D01*
X179678571Y-136535714D01*
X180392857Y-136035714D02*
X180392857Y-135535714D01*
X181178571Y-135321428D02*
X181178571Y-136035714D01*
X179678571Y-136035714D01*
X179678571Y-135321428D01*
X138678571Y-146821428D02*
X140178571Y-146321428D01*
X138678571Y-145821428D01*
X139607142Y-145321428D02*
X139607142Y-144178571D01*
X138750000Y-142678571D02*
X138678571Y-142821428D01*
X138678571Y-143035714D01*
X138750000Y-143250000D01*
X138892857Y-143392857D01*
X139035714Y-143464285D01*
X139321428Y-143535714D01*
X139535714Y-143535714D01*
X139821428Y-143464285D01*
X139964285Y-143392857D01*
X140107142Y-143250000D01*
X140178571Y-143035714D01*
X140178571Y-142892857D01*
X140107142Y-142678571D01*
X140035714Y-142607142D01*
X139535714Y-142607142D01*
X139535714Y-142892857D01*
X140178571Y-141107142D02*
X139464285Y-141607142D01*
X140178571Y-141964285D02*
X138678571Y-141964285D01*
X138678571Y-141392857D01*
X138750000Y-141250000D01*
X138821428Y-141178571D01*
X138964285Y-141107142D01*
X139178571Y-141107142D01*
X139321428Y-141178571D01*
X139392857Y-141250000D01*
X139464285Y-141392857D01*
X139464285Y-141964285D01*
X138678571Y-140178571D02*
X138678571Y-139892857D01*
X138750000Y-139750000D01*
X138892857Y-139607142D01*
X139178571Y-139535714D01*
X139678571Y-139535714D01*
X139964285Y-139607142D01*
X140107142Y-139750000D01*
X140178571Y-139892857D01*
X140178571Y-140178571D01*
X140107142Y-140321428D01*
X139964285Y-140464285D01*
X139678571Y-140535714D01*
X139178571Y-140535714D01*
X138892857Y-140464285D01*
X138750000Y-140321428D01*
X138678571Y-140178571D01*
X138678571Y-138607142D02*
X138678571Y-138321428D01*
X138750000Y-138178571D01*
X138892857Y-138035714D01*
X139178571Y-137964285D01*
X139678571Y-137964285D01*
X139964285Y-138035714D01*
X140107142Y-138178571D01*
X140178571Y-138321428D01*
X140178571Y-138607142D01*
X140107142Y-138750000D01*
X139964285Y-138892857D01*
X139678571Y-138964285D01*
X139178571Y-138964285D01*
X138892857Y-138892857D01*
X138750000Y-138750000D01*
X138678571Y-138607142D01*
X138678571Y-137535714D02*
X140178571Y-137035714D01*
X138678571Y-136535714D01*
X139392857Y-136035714D02*
X139392857Y-135535714D01*
X140178571Y-135321428D02*
X140178571Y-136035714D01*
X138678571Y-136035714D01*
X138678571Y-135321428D01*
X97678571Y-146821428D02*
X99178571Y-146321428D01*
X97678571Y-145821428D01*
X98607142Y-145321428D02*
X98607142Y-144178571D01*
X97750000Y-142678571D02*
X97678571Y-142821428D01*
X97678571Y-143035714D01*
X97750000Y-143250000D01*
X97892857Y-143392857D01*
X98035714Y-143464285D01*
X98321428Y-143535714D01*
X98535714Y-143535714D01*
X98821428Y-143464285D01*
X98964285Y-143392857D01*
X99107142Y-143250000D01*
X99178571Y-143035714D01*
X99178571Y-142892857D01*
X99107142Y-142678571D01*
X99035714Y-142607142D01*
X98535714Y-142607142D01*
X98535714Y-142892857D01*
X99178571Y-141107142D02*
X98464285Y-141607142D01*
X99178571Y-141964285D02*
X97678571Y-141964285D01*
X97678571Y-141392857D01*
X97750000Y-141250000D01*
X97821428Y-141178571D01*
X97964285Y-141107142D01*
X98178571Y-141107142D01*
X98321428Y-141178571D01*
X98392857Y-141250000D01*
X98464285Y-141392857D01*
X98464285Y-141964285D01*
X97678571Y-140178571D02*
X97678571Y-139892857D01*
X97750000Y-139750000D01*
X97892857Y-139607142D01*
X98178571Y-139535714D01*
X98678571Y-139535714D01*
X98964285Y-139607142D01*
X99107142Y-139750000D01*
X99178571Y-139892857D01*
X99178571Y-140178571D01*
X99107142Y-140321428D01*
X98964285Y-140464285D01*
X98678571Y-140535714D01*
X98178571Y-140535714D01*
X97892857Y-140464285D01*
X97750000Y-140321428D01*
X97678571Y-140178571D01*
X97678571Y-138607142D02*
X97678571Y-138321428D01*
X97750000Y-138178571D01*
X97892857Y-138035714D01*
X98178571Y-137964285D01*
X98678571Y-137964285D01*
X98964285Y-138035714D01*
X99107142Y-138178571D01*
X99178571Y-138321428D01*
X99178571Y-138607142D01*
X99107142Y-138750000D01*
X98964285Y-138892857D01*
X98678571Y-138964285D01*
X98178571Y-138964285D01*
X97892857Y-138892857D01*
X97750000Y-138750000D01*
X97678571Y-138607142D01*
X97678571Y-137535714D02*
X99178571Y-137035714D01*
X97678571Y-136535714D01*
X98392857Y-136035714D02*
X98392857Y-135535714D01*
X99178571Y-135321428D02*
X99178571Y-136035714D01*
X97678571Y-136035714D01*
X97678571Y-135321428D01*
X97678571Y-24821428D02*
X99178571Y-24321428D01*
X97678571Y-23821428D01*
X98607142Y-23321428D02*
X98607142Y-22178571D01*
X97750000Y-20678571D02*
X97678571Y-20821428D01*
X97678571Y-21035714D01*
X97750000Y-21250000D01*
X97892857Y-21392857D01*
X98035714Y-21464285D01*
X98321428Y-21535714D01*
X98535714Y-21535714D01*
X98821428Y-21464285D01*
X98964285Y-21392857D01*
X99107142Y-21250000D01*
X99178571Y-21035714D01*
X99178571Y-20892857D01*
X99107142Y-20678571D01*
X99035714Y-20607142D01*
X98535714Y-20607142D01*
X98535714Y-20892857D01*
X99178571Y-19107142D02*
X98464285Y-19607142D01*
X99178571Y-19964285D02*
X97678571Y-19964285D01*
X97678571Y-19392857D01*
X97750000Y-19250000D01*
X97821428Y-19178571D01*
X97964285Y-19107142D01*
X98178571Y-19107142D01*
X98321428Y-19178571D01*
X98392857Y-19250000D01*
X98464285Y-19392857D01*
X98464285Y-19964285D01*
X97678571Y-18178571D02*
X97678571Y-17892857D01*
X97750000Y-17750000D01*
X97892857Y-17607142D01*
X98178571Y-17535714D01*
X98678571Y-17535714D01*
X98964285Y-17607142D01*
X99107142Y-17750000D01*
X99178571Y-17892857D01*
X99178571Y-18178571D01*
X99107142Y-18321428D01*
X98964285Y-18464285D01*
X98678571Y-18535714D01*
X98178571Y-18535714D01*
X97892857Y-18464285D01*
X97750000Y-18321428D01*
X97678571Y-18178571D01*
X97678571Y-16607142D02*
X97678571Y-16321428D01*
X97750000Y-16178571D01*
X97892857Y-16035714D01*
X98178571Y-15964285D01*
X98678571Y-15964285D01*
X98964285Y-16035714D01*
X99107142Y-16178571D01*
X99178571Y-16321428D01*
X99178571Y-16607142D01*
X99107142Y-16750000D01*
X98964285Y-16892857D01*
X98678571Y-16964285D01*
X98178571Y-16964285D01*
X97892857Y-16892857D01*
X97750000Y-16750000D01*
X97678571Y-16607142D01*
X97678571Y-15535714D02*
X99178571Y-15035714D01*
X97678571Y-14535714D01*
X98392857Y-14035714D02*
X98392857Y-13535714D01*
X99178571Y-13321428D02*
X99178571Y-14035714D01*
X97678571Y-14035714D01*
X97678571Y-13321428D01*
X138678571Y-24821428D02*
X140178571Y-24321428D01*
X138678571Y-23821428D01*
X139607142Y-23321428D02*
X139607142Y-22178571D01*
X138750000Y-20678571D02*
X138678571Y-20821428D01*
X138678571Y-21035714D01*
X138750000Y-21250000D01*
X138892857Y-21392857D01*
X139035714Y-21464285D01*
X139321428Y-21535714D01*
X139535714Y-21535714D01*
X139821428Y-21464285D01*
X139964285Y-21392857D01*
X140107142Y-21250000D01*
X140178571Y-21035714D01*
X140178571Y-20892857D01*
X140107142Y-20678571D01*
X140035714Y-20607142D01*
X139535714Y-20607142D01*
X139535714Y-20892857D01*
X140178571Y-19107142D02*
X139464285Y-19607142D01*
X140178571Y-19964285D02*
X138678571Y-19964285D01*
X138678571Y-19392857D01*
X138750000Y-19250000D01*
X138821428Y-19178571D01*
X138964285Y-19107142D01*
X139178571Y-19107142D01*
X139321428Y-19178571D01*
X139392857Y-19250000D01*
X139464285Y-19392857D01*
X139464285Y-19964285D01*
X138678571Y-18178571D02*
X138678571Y-17892857D01*
X138750000Y-17750000D01*
X138892857Y-17607142D01*
X139178571Y-17535714D01*
X139678571Y-17535714D01*
X139964285Y-17607142D01*
X140107142Y-17750000D01*
X140178571Y-17892857D01*
X140178571Y-18178571D01*
X140107142Y-18321428D01*
X139964285Y-18464285D01*
X139678571Y-18535714D01*
X139178571Y-18535714D01*
X138892857Y-18464285D01*
X138750000Y-18321428D01*
X138678571Y-18178571D01*
X138678571Y-16607142D02*
X138678571Y-16321428D01*
X138750000Y-16178571D01*
X138892857Y-16035714D01*
X139178571Y-15964285D01*
X139678571Y-15964285D01*
X139964285Y-16035714D01*
X140107142Y-16178571D01*
X140178571Y-16321428D01*
X140178571Y-16607142D01*
X140107142Y-16750000D01*
X139964285Y-16892857D01*
X139678571Y-16964285D01*
X139178571Y-16964285D01*
X138892857Y-16892857D01*
X138750000Y-16750000D01*
X138678571Y-16607142D01*
X138678571Y-15535714D02*
X140178571Y-15035714D01*
X138678571Y-14535714D01*
X139392857Y-14035714D02*
X139392857Y-13535714D01*
X140178571Y-13321428D02*
X140178571Y-14035714D01*
X138678571Y-14035714D01*
X138678571Y-13321428D01*
X179678571Y-24821428D02*
X181178571Y-24321428D01*
X179678571Y-23821428D01*
X180607142Y-23321428D02*
X180607142Y-22178571D01*
X179750000Y-20678571D02*
X179678571Y-20821428D01*
X179678571Y-21035714D01*
X179750000Y-21250000D01*
X179892857Y-21392857D01*
X180035714Y-21464285D01*
X180321428Y-21535714D01*
X180535714Y-21535714D01*
X180821428Y-21464285D01*
X180964285Y-21392857D01*
X181107142Y-21250000D01*
X181178571Y-21035714D01*
X181178571Y-20892857D01*
X181107142Y-20678571D01*
X181035714Y-20607142D01*
X180535714Y-20607142D01*
X180535714Y-20892857D01*
X181178571Y-19107142D02*
X180464285Y-19607142D01*
X181178571Y-19964285D02*
X179678571Y-19964285D01*
X179678571Y-19392857D01*
X179750000Y-19250000D01*
X179821428Y-19178571D01*
X179964285Y-19107142D01*
X180178571Y-19107142D01*
X180321428Y-19178571D01*
X180392857Y-19250000D01*
X180464285Y-19392857D01*
X180464285Y-19964285D01*
X179678571Y-18178571D02*
X179678571Y-17892857D01*
X179750000Y-17750000D01*
X179892857Y-17607142D01*
X180178571Y-17535714D01*
X180678571Y-17535714D01*
X180964285Y-17607142D01*
X181107142Y-17750000D01*
X181178571Y-17892857D01*
X181178571Y-18178571D01*
X181107142Y-18321428D01*
X180964285Y-18464285D01*
X180678571Y-18535714D01*
X180178571Y-18535714D01*
X179892857Y-18464285D01*
X179750000Y-18321428D01*
X179678571Y-18178571D01*
X179678571Y-16607142D02*
X179678571Y-16321428D01*
X179750000Y-16178571D01*
X179892857Y-16035714D01*
X180178571Y-15964285D01*
X180678571Y-15964285D01*
X180964285Y-16035714D01*
X181107142Y-16178571D01*
X181178571Y-16321428D01*
X181178571Y-16607142D01*
X181107142Y-16750000D01*
X180964285Y-16892857D01*
X180678571Y-16964285D01*
X180178571Y-16964285D01*
X179892857Y-16892857D01*
X179750000Y-16750000D01*
X179678571Y-16607142D01*
X179678571Y-15535714D02*
X181178571Y-15035714D01*
X179678571Y-14535714D01*
X180392857Y-14035714D02*
X180392857Y-13535714D01*
X181178571Y-13321428D02*
X181178571Y-14035714D01*
X179678571Y-14035714D01*
X179678571Y-13321428D01*
X196678571Y-37178571D02*
X197178571Y-38678571D01*
X197678571Y-37178571D01*
X198178571Y-38107142D02*
X199321428Y-38107142D01*
X200821428Y-37250000D02*
X200678571Y-37178571D01*
X200464285Y-37178571D01*
X200250000Y-37250000D01*
X200107142Y-37392857D01*
X200035714Y-37535714D01*
X199964285Y-37821428D01*
X199964285Y-38035714D01*
X200035714Y-38321428D01*
X200107142Y-38464285D01*
X200250000Y-38607142D01*
X200464285Y-38678571D01*
X200607142Y-38678571D01*
X200821428Y-38607142D01*
X200892857Y-38535714D01*
X200892857Y-38035714D01*
X200607142Y-38035714D01*
X202392857Y-38678571D02*
X201892857Y-37964285D01*
X201535714Y-38678571D02*
X201535714Y-37178571D01*
X202107142Y-37178571D01*
X202250000Y-37250000D01*
X202321428Y-37321428D01*
X202392857Y-37464285D01*
X202392857Y-37678571D01*
X202321428Y-37821428D01*
X202250000Y-37892857D01*
X202107142Y-37964285D01*
X201535714Y-37964285D01*
X203321428Y-37178571D02*
X203607142Y-37178571D01*
X203750000Y-37250000D01*
X203892857Y-37392857D01*
X203964285Y-37678571D01*
X203964285Y-38178571D01*
X203892857Y-38464285D01*
X203750000Y-38607142D01*
X203607142Y-38678571D01*
X203321428Y-38678571D01*
X203178571Y-38607142D01*
X203035714Y-38464285D01*
X202964285Y-38178571D01*
X202964285Y-37678571D01*
X203035714Y-37392857D01*
X203178571Y-37250000D01*
X203321428Y-37178571D01*
X204892857Y-37178571D02*
X205178571Y-37178571D01*
X205321428Y-37250000D01*
X205464285Y-37392857D01*
X205535714Y-37678571D01*
X205535714Y-38178571D01*
X205464285Y-38464285D01*
X205321428Y-38607142D01*
X205178571Y-38678571D01*
X204892857Y-38678571D01*
X204750000Y-38607142D01*
X204607142Y-38464285D01*
X204535714Y-38178571D01*
X204535714Y-37678571D01*
X204607142Y-37392857D01*
X204750000Y-37250000D01*
X204892857Y-37178571D01*
X205964285Y-37178571D02*
X206464285Y-38678571D01*
X206964285Y-37178571D01*
X207464285Y-37892857D02*
X207964285Y-37892857D01*
X208178571Y-38678571D02*
X207464285Y-38678571D01*
X207464285Y-37178571D01*
X208178571Y-37178571D01*
X196678571Y-65178571D02*
X197178571Y-66678571D01*
X197678571Y-65178571D01*
X198178571Y-66107142D02*
X199321428Y-66107142D01*
X200821428Y-65250000D02*
X200678571Y-65178571D01*
X200464285Y-65178571D01*
X200250000Y-65250000D01*
X200107142Y-65392857D01*
X200035714Y-65535714D01*
X199964285Y-65821428D01*
X199964285Y-66035714D01*
X200035714Y-66321428D01*
X200107142Y-66464285D01*
X200250000Y-66607142D01*
X200464285Y-66678571D01*
X200607142Y-66678571D01*
X200821428Y-66607142D01*
X200892857Y-66535714D01*
X200892857Y-66035714D01*
X200607142Y-66035714D01*
X202392857Y-66678571D02*
X201892857Y-65964285D01*
X201535714Y-66678571D02*
X201535714Y-65178571D01*
X202107142Y-65178571D01*
X202250000Y-65250000D01*
X202321428Y-65321428D01*
X202392857Y-65464285D01*
X202392857Y-65678571D01*
X202321428Y-65821428D01*
X202250000Y-65892857D01*
X202107142Y-65964285D01*
X201535714Y-65964285D01*
X203321428Y-65178571D02*
X203607142Y-65178571D01*
X203750000Y-65250000D01*
X203892857Y-65392857D01*
X203964285Y-65678571D01*
X203964285Y-66178571D01*
X203892857Y-66464285D01*
X203750000Y-66607142D01*
X203607142Y-66678571D01*
X203321428Y-66678571D01*
X203178571Y-66607142D01*
X203035714Y-66464285D01*
X202964285Y-66178571D01*
X202964285Y-65678571D01*
X203035714Y-65392857D01*
X203178571Y-65250000D01*
X203321428Y-65178571D01*
X204892857Y-65178571D02*
X205178571Y-65178571D01*
X205321428Y-65250000D01*
X205464285Y-65392857D01*
X205535714Y-65678571D01*
X205535714Y-66178571D01*
X205464285Y-66464285D01*
X205321428Y-66607142D01*
X205178571Y-66678571D01*
X204892857Y-66678571D01*
X204750000Y-66607142D01*
X204607142Y-66464285D01*
X204535714Y-66178571D01*
X204535714Y-65678571D01*
X204607142Y-65392857D01*
X204750000Y-65250000D01*
X204892857Y-65178571D01*
X205964285Y-65178571D02*
X206464285Y-66678571D01*
X206964285Y-65178571D01*
X207464285Y-65892857D02*
X207964285Y-65892857D01*
X208178571Y-66678571D02*
X207464285Y-66678571D01*
X207464285Y-65178571D01*
X208178571Y-65178571D01*
X196678571Y-93178571D02*
X197178571Y-94678571D01*
X197678571Y-93178571D01*
X198178571Y-94107142D02*
X199321428Y-94107142D01*
X200821428Y-93250000D02*
X200678571Y-93178571D01*
X200464285Y-93178571D01*
X200250000Y-93250000D01*
X200107142Y-93392857D01*
X200035714Y-93535714D01*
X199964285Y-93821428D01*
X199964285Y-94035714D01*
X200035714Y-94321428D01*
X200107142Y-94464285D01*
X200250000Y-94607142D01*
X200464285Y-94678571D01*
X200607142Y-94678571D01*
X200821428Y-94607142D01*
X200892857Y-94535714D01*
X200892857Y-94035714D01*
X200607142Y-94035714D01*
X202392857Y-94678571D02*
X201892857Y-93964285D01*
X201535714Y-94678571D02*
X201535714Y-93178571D01*
X202107142Y-93178571D01*
X202250000Y-93250000D01*
X202321428Y-93321428D01*
X202392857Y-93464285D01*
X202392857Y-93678571D01*
X202321428Y-93821428D01*
X202250000Y-93892857D01*
X202107142Y-93964285D01*
X201535714Y-93964285D01*
X203321428Y-93178571D02*
X203607142Y-93178571D01*
X203750000Y-93250000D01*
X203892857Y-93392857D01*
X203964285Y-93678571D01*
X203964285Y-94178571D01*
X203892857Y-94464285D01*
X203750000Y-94607142D01*
X203607142Y-94678571D01*
X203321428Y-94678571D01*
X203178571Y-94607142D01*
X203035714Y-94464285D01*
X202964285Y-94178571D01*
X202964285Y-93678571D01*
X203035714Y-93392857D01*
X203178571Y-93250000D01*
X203321428Y-93178571D01*
X204892857Y-93178571D02*
X205178571Y-93178571D01*
X205321428Y-93250000D01*
X205464285Y-93392857D01*
X205535714Y-93678571D01*
X205535714Y-94178571D01*
X205464285Y-94464285D01*
X205321428Y-94607142D01*
X205178571Y-94678571D01*
X204892857Y-94678571D01*
X204750000Y-94607142D01*
X204607142Y-94464285D01*
X204535714Y-94178571D01*
X204535714Y-93678571D01*
X204607142Y-93392857D01*
X204750000Y-93250000D01*
X204892857Y-93178571D01*
X205964285Y-93178571D02*
X206464285Y-94678571D01*
X206964285Y-93178571D01*
X207464285Y-93892857D02*
X207964285Y-93892857D01*
X208178571Y-94678571D02*
X207464285Y-94678571D01*
X207464285Y-93178571D01*
X208178571Y-93178571D01*
X196678571Y-121178571D02*
X197178571Y-122678571D01*
X197678571Y-121178571D01*
X198178571Y-122107142D02*
X199321428Y-122107142D01*
X200821428Y-121250000D02*
X200678571Y-121178571D01*
X200464285Y-121178571D01*
X200250000Y-121250000D01*
X200107142Y-121392857D01*
X200035714Y-121535714D01*
X199964285Y-121821428D01*
X199964285Y-122035714D01*
X200035714Y-122321428D01*
X200107142Y-122464285D01*
X200250000Y-122607142D01*
X200464285Y-122678571D01*
X200607142Y-122678571D01*
X200821428Y-122607142D01*
X200892857Y-122535714D01*
X200892857Y-122035714D01*
X200607142Y-122035714D01*
X202392857Y-122678571D02*
X201892857Y-121964285D01*
X201535714Y-122678571D02*
X201535714Y-121178571D01*
X202107142Y-121178571D01*
X202250000Y-121250000D01*
X202321428Y-121321428D01*
X202392857Y-121464285D01*
X202392857Y-121678571D01*
X202321428Y-121821428D01*
X202250000Y-121892857D01*
X202107142Y-121964285D01*
X201535714Y-121964285D01*
X203321428Y-121178571D02*
X203607142Y-121178571D01*
X203750000Y-121250000D01*
X203892857Y-121392857D01*
X203964285Y-121678571D01*
X203964285Y-122178571D01*
X203892857Y-122464285D01*
X203750000Y-122607142D01*
X203607142Y-122678571D01*
X203321428Y-122678571D01*
X203178571Y-122607142D01*
X203035714Y-122464285D01*
X202964285Y-122178571D01*
X202964285Y-121678571D01*
X203035714Y-121392857D01*
X203178571Y-121250000D01*
X203321428Y-121178571D01*
X204892857Y-121178571D02*
X205178571Y-121178571D01*
X205321428Y-121250000D01*
X205464285Y-121392857D01*
X205535714Y-121678571D01*
X205535714Y-122178571D01*
X205464285Y-122464285D01*
X205321428Y-122607142D01*
X205178571Y-122678571D01*
X204892857Y-122678571D01*
X204750000Y-122607142D01*
X204607142Y-122464285D01*
X204535714Y-122178571D01*
X204535714Y-121678571D01*
X204607142Y-121392857D01*
X204750000Y-121250000D01*
X204892857Y-121178571D01*
X205964285Y-121178571D02*
X206464285Y-122678571D01*
X206964285Y-121178571D01*
X207464285Y-121892857D02*
X207964285Y-121892857D01*
X208178571Y-122678571D02*
X207464285Y-122678571D01*
X207464285Y-121178571D01*
X208178571Y-121178571D01*
X70678571Y-121178571D02*
X71178571Y-122678571D01*
X71678571Y-121178571D01*
X72178571Y-122107142D02*
X73321428Y-122107142D01*
X74821428Y-121250000D02*
X74678571Y-121178571D01*
X74464285Y-121178571D01*
X74250000Y-121250000D01*
X74107142Y-121392857D01*
X74035714Y-121535714D01*
X73964285Y-121821428D01*
X73964285Y-122035714D01*
X74035714Y-122321428D01*
X74107142Y-122464285D01*
X74250000Y-122607142D01*
X74464285Y-122678571D01*
X74607142Y-122678571D01*
X74821428Y-122607142D01*
X74892857Y-122535714D01*
X74892857Y-122035714D01*
X74607142Y-122035714D01*
X76392857Y-122678571D02*
X75892857Y-121964285D01*
X75535714Y-122678571D02*
X75535714Y-121178571D01*
X76107142Y-121178571D01*
X76250000Y-121250000D01*
X76321428Y-121321428D01*
X76392857Y-121464285D01*
X76392857Y-121678571D01*
X76321428Y-121821428D01*
X76250000Y-121892857D01*
X76107142Y-121964285D01*
X75535714Y-121964285D01*
X77321428Y-121178571D02*
X77607142Y-121178571D01*
X77750000Y-121250000D01*
X77892857Y-121392857D01*
X77964285Y-121678571D01*
X77964285Y-122178571D01*
X77892857Y-122464285D01*
X77750000Y-122607142D01*
X77607142Y-122678571D01*
X77321428Y-122678571D01*
X77178571Y-122607142D01*
X77035714Y-122464285D01*
X76964285Y-122178571D01*
X76964285Y-121678571D01*
X77035714Y-121392857D01*
X77178571Y-121250000D01*
X77321428Y-121178571D01*
X78892857Y-121178571D02*
X79178571Y-121178571D01*
X79321428Y-121250000D01*
X79464285Y-121392857D01*
X79535714Y-121678571D01*
X79535714Y-122178571D01*
X79464285Y-122464285D01*
X79321428Y-122607142D01*
X79178571Y-122678571D01*
X78892857Y-122678571D01*
X78750000Y-122607142D01*
X78607142Y-122464285D01*
X78535714Y-122178571D01*
X78535714Y-121678571D01*
X78607142Y-121392857D01*
X78750000Y-121250000D01*
X78892857Y-121178571D01*
X79964285Y-121178571D02*
X80464285Y-122678571D01*
X80964285Y-121178571D01*
X81464285Y-121892857D02*
X81964285Y-121892857D01*
X82178571Y-122678571D02*
X81464285Y-122678571D01*
X81464285Y-121178571D01*
X82178571Y-121178571D01*
X70678571Y-93178571D02*
X71178571Y-94678571D01*
X71678571Y-93178571D01*
X72178571Y-94107142D02*
X73321428Y-94107142D01*
X74821428Y-93250000D02*
X74678571Y-93178571D01*
X74464285Y-93178571D01*
X74250000Y-93250000D01*
X74107142Y-93392857D01*
X74035714Y-93535714D01*
X73964285Y-93821428D01*
X73964285Y-94035714D01*
X74035714Y-94321428D01*
X74107142Y-94464285D01*
X74250000Y-94607142D01*
X74464285Y-94678571D01*
X74607142Y-94678571D01*
X74821428Y-94607142D01*
X74892857Y-94535714D01*
X74892857Y-94035714D01*
X74607142Y-94035714D01*
X76392857Y-94678571D02*
X75892857Y-93964285D01*
X75535714Y-94678571D02*
X75535714Y-93178571D01*
X76107142Y-93178571D01*
X76250000Y-93250000D01*
X76321428Y-93321428D01*
X76392857Y-93464285D01*
X76392857Y-93678571D01*
X76321428Y-93821428D01*
X76250000Y-93892857D01*
X76107142Y-93964285D01*
X75535714Y-93964285D01*
X77321428Y-93178571D02*
X77607142Y-93178571D01*
X77750000Y-93250000D01*
X77892857Y-93392857D01*
X77964285Y-93678571D01*
X77964285Y-94178571D01*
X77892857Y-94464285D01*
X77750000Y-94607142D01*
X77607142Y-94678571D01*
X77321428Y-94678571D01*
X77178571Y-94607142D01*
X77035714Y-94464285D01*
X76964285Y-94178571D01*
X76964285Y-93678571D01*
X77035714Y-93392857D01*
X77178571Y-93250000D01*
X77321428Y-93178571D01*
X78892857Y-93178571D02*
X79178571Y-93178571D01*
X79321428Y-93250000D01*
X79464285Y-93392857D01*
X79535714Y-93678571D01*
X79535714Y-94178571D01*
X79464285Y-94464285D01*
X79321428Y-94607142D01*
X79178571Y-94678571D01*
X78892857Y-94678571D01*
X78750000Y-94607142D01*
X78607142Y-94464285D01*
X78535714Y-94178571D01*
X78535714Y-93678571D01*
X78607142Y-93392857D01*
X78750000Y-93250000D01*
X78892857Y-93178571D01*
X79964285Y-93178571D02*
X80464285Y-94678571D01*
X80964285Y-93178571D01*
X81464285Y-93892857D02*
X81964285Y-93892857D01*
X82178571Y-94678571D02*
X81464285Y-94678571D01*
X81464285Y-93178571D01*
X82178571Y-93178571D01*
X70678571Y-37178571D02*
X71178571Y-38678571D01*
X71678571Y-37178571D01*
X72178571Y-38107142D02*
X73321428Y-38107142D01*
X74821428Y-37250000D02*
X74678571Y-37178571D01*
X74464285Y-37178571D01*
X74250000Y-37250000D01*
X74107142Y-37392857D01*
X74035714Y-37535714D01*
X73964285Y-37821428D01*
X73964285Y-38035714D01*
X74035714Y-38321428D01*
X74107142Y-38464285D01*
X74250000Y-38607142D01*
X74464285Y-38678571D01*
X74607142Y-38678571D01*
X74821428Y-38607142D01*
X74892857Y-38535714D01*
X74892857Y-38035714D01*
X74607142Y-38035714D01*
X76392857Y-38678571D02*
X75892857Y-37964285D01*
X75535714Y-38678571D02*
X75535714Y-37178571D01*
X76107142Y-37178571D01*
X76250000Y-37250000D01*
X76321428Y-37321428D01*
X76392857Y-37464285D01*
X76392857Y-37678571D01*
X76321428Y-37821428D01*
X76250000Y-37892857D01*
X76107142Y-37964285D01*
X75535714Y-37964285D01*
X77321428Y-37178571D02*
X77607142Y-37178571D01*
X77750000Y-37250000D01*
X77892857Y-37392857D01*
X77964285Y-37678571D01*
X77964285Y-38178571D01*
X77892857Y-38464285D01*
X77750000Y-38607142D01*
X77607142Y-38678571D01*
X77321428Y-38678571D01*
X77178571Y-38607142D01*
X77035714Y-38464285D01*
X76964285Y-38178571D01*
X76964285Y-37678571D01*
X77035714Y-37392857D01*
X77178571Y-37250000D01*
X77321428Y-37178571D01*
X78892857Y-37178571D02*
X79178571Y-37178571D01*
X79321428Y-37250000D01*
X79464285Y-37392857D01*
X79535714Y-37678571D01*
X79535714Y-38178571D01*
X79464285Y-38464285D01*
X79321428Y-38607142D01*
X79178571Y-38678571D01*
X78892857Y-38678571D01*
X78750000Y-38607142D01*
X78607142Y-38464285D01*
X78535714Y-38178571D01*
X78535714Y-37678571D01*
X78607142Y-37392857D01*
X78750000Y-37250000D01*
X78892857Y-37178571D01*
X79964285Y-37178571D02*
X80464285Y-38678571D01*
X80964285Y-37178571D01*
X81464285Y-37892857D02*
X81964285Y-37892857D01*
X82178571Y-38678571D02*
X81464285Y-38678571D01*
X81464285Y-37178571D01*
X82178571Y-37178571D01*
X69678571Y-65178571D02*
X70178571Y-66678571D01*
X70678571Y-65178571D01*
X71178571Y-66107142D02*
X72321428Y-66107142D01*
X73821428Y-65250000D02*
X73678571Y-65178571D01*
X73464285Y-65178571D01*
X73250000Y-65250000D01*
X73107142Y-65392857D01*
X73035714Y-65535714D01*
X72964285Y-65821428D01*
X72964285Y-66035714D01*
X73035714Y-66321428D01*
X73107142Y-66464285D01*
X73250000Y-66607142D01*
X73464285Y-66678571D01*
X73607142Y-66678571D01*
X73821428Y-66607142D01*
X73892857Y-66535714D01*
X73892857Y-66035714D01*
X73607142Y-66035714D01*
X75392857Y-66678571D02*
X74892857Y-65964285D01*
X74535714Y-66678571D02*
X74535714Y-65178571D01*
X75107142Y-65178571D01*
X75250000Y-65250000D01*
X75321428Y-65321428D01*
X75392857Y-65464285D01*
X75392857Y-65678571D01*
X75321428Y-65821428D01*
X75250000Y-65892857D01*
X75107142Y-65964285D01*
X74535714Y-65964285D01*
X76321428Y-65178571D02*
X76607142Y-65178571D01*
X76750000Y-65250000D01*
X76892857Y-65392857D01*
X76964285Y-65678571D01*
X76964285Y-66178571D01*
X76892857Y-66464285D01*
X76750000Y-66607142D01*
X76607142Y-66678571D01*
X76321428Y-66678571D01*
X76178571Y-66607142D01*
X76035714Y-66464285D01*
X75964285Y-66178571D01*
X75964285Y-65678571D01*
X76035714Y-65392857D01*
X76178571Y-65250000D01*
X76321428Y-65178571D01*
X77892857Y-65178571D02*
X78178571Y-65178571D01*
X78321428Y-65250000D01*
X78464285Y-65392857D01*
X78535714Y-65678571D01*
X78535714Y-66178571D01*
X78464285Y-66464285D01*
X78321428Y-66607142D01*
X78178571Y-66678571D01*
X77892857Y-66678571D01*
X77750000Y-66607142D01*
X77607142Y-66464285D01*
X77535714Y-66178571D01*
X77535714Y-65678571D01*
X77607142Y-65392857D01*
X77750000Y-65250000D01*
X77892857Y-65178571D01*
X78964285Y-65178571D02*
X79464285Y-66678571D01*
X79964285Y-65178571D01*
X80464285Y-65892857D02*
X80964285Y-65892857D01*
X81178571Y-66678571D02*
X80464285Y-66678571D01*
X80464285Y-65178571D01*
X81178571Y-65178571D01*
M02*
